<?xml version="1.0" encoding="UTF-8" standalone="no"?>
<!DOCTYPE svg PUBLIC "-//W3C//DTD SVG 1.1//EN" "http://www.w3.org/Graphics/SVG/1.1/DTD/svg11.dtd">
<!-- 由 Microsoft Visio, SVG Export 生成 rvant_if_stage.svg ID -->
<svg xmlns="http://www.w3.org/2000/svg" xmlns:xlink="http://www.w3.org/1999/xlink" xmlns:ev="http://www.w3.org/2001/xml-events"
		xmlns:v="http://schemas.microsoft.com/visio/2003/SVGExtensions/" width="10.037in" height="7.05044in"
		viewBox="0 0 722.664 507.632" xml:space="preserve" color-interpolation-filters="sRGB" class="st45">
	<v:documentProperties v:langID="2052" v:metric="true" v:viewMarkup="false">
		<v:userDefs>
			<v:ud v:nameU="msvSubprocessMaster" v:prompt="" v:val="VT4(Rectangle)"/>
			<v:ud v:nameU="msvNoAutoConnect" v:val="VT0(1):26"/>
		</v:userDefs>
	</v:documentProperties>

	<style type="text/css">
	<![CDATA[
		.st1 {visibility:visible}
		.st2 {fill:#bdd0e9;fill-opacity:0.22;filter:url(#filter_2);stroke:#bdd0e9;stroke-opacity:0.22}
		.st3 {fill:#d8d8d8;stroke:#c7c8c8;stroke-width:0.25}
		.st4 {fill:#7ca9da}
		.st5 {stroke:#4a80b0;stroke-linecap:butt;stroke-width:1.25}
		.st6 {fill:none;stroke:none;stroke-linecap:butt;stroke-width:1.25}
		.st7 {fill:#feffff;font-family:Calibri;font-size:1.04166em;font-style:italic}
		.st8 {fill:#feffff;font-family:Calibri;font-size:0.520844em}
		.st9 {font-size:1em}
		.st10 {fill:#feffff;font-family:Calibri;font-size:1.09362em}
		.st11 {fill:#4a80b0;font-family:Calibri;font-size:1.00001em}
		.st12 {marker-end:url(#mrkr4-104);stroke:#5b9bd5;stroke-linecap:round;stroke-linejoin:round;stroke-width:1.5}
		.st13 {fill:#5b9bd5;fill-opacity:1;stroke:#5b9bd5;stroke-opacity:1;stroke-width:0.37313432835821}
		.st14 {fill:url(#grad0-108)}
		.st15 {stroke:#4f87bb;stroke-width:0.75}
		.st16 {fill:#4f87bb;font-family:Calibri;font-size:1.16666em}
		.st17 {fill:url(#grad0-108);stroke:#4f87bb;stroke-width:0.75}
		.st18 {fill:#4f87bb;font-family:Calibri;font-size:0.833336em}
		.st19 {fill:#5b9bd5;fill-opacity:0.22;filter:url(#filter_2);stroke:#5b9bd5;stroke-opacity:0.22}
		.st20 {fill:#5b9bd5;stroke:#c7c8c8;stroke-width:0.25}
		.st21 {fill:#feffff;font-family:Calibri;font-size:1.99999em;font-weight:bold}
		.st22 {fill:none;stroke:none;stroke-width:0.25}
		.st23 {fill:#5b9bd5;font-family:Calibri;font-size:1.00001em}
		.st24 {fill:#5b9bd5;font-family:Calibri;font-size:1.99999em;font-weight:bold}
		.st25 {fill:#5b9bd5;fill-opacity:0.22;filter:url(#filter_2);stroke:none;stroke-linecap:round;stroke-linejoin:round}
		.st26 {fill:#000000;fill-opacity:0;stroke:none;stroke-linecap:round;stroke-linejoin:round;stroke-width:0.75}
		.st27 {fill:url(#grad7-214);stroke:none;stroke-linecap:round;stroke-linejoin:round;stroke-width:0.75}
		.st28 {fill:#5b9bd5;stroke:none;stroke-linecap:round;stroke-linejoin:round;stroke-width:0.75}
		.st29 {fill:url(#grad0-220)}
		.st30 {stroke:none;stroke-linecap:round;stroke-linejoin:round;stroke-width:0.75}
		.st31 {fill:url(#grad0-225)}
		.st32 {fill:url(#grad0-230)}
		.st33 {fill:url(#grad3-235)}
		.st34 {fill:none}
		.st35 {stroke:#996633;stroke-linecap:round;stroke-linejoin:round;stroke-width:0.130208}
		.st36 {fill:url(#grad1-243);stroke:none;stroke-linecap:round;stroke-linejoin:round;stroke-width:0.75}
		.st37 {fill:url(#grad10-256)}
		.st38 {fill:#4974ba;stroke:none;stroke-linecap:round;stroke-linejoin:round;stroke-width:0.75}
		.st39 {stroke:#1e4182;stroke-linecap:round;stroke-linejoin:round;stroke-width:0.130208}
		.st40 {fill:none;stroke:#b3732d;stroke-linecap:butt;stroke-width:0.130208}
		.st41 {fill:#5b9bd5}
		.st42 {fill:url(#grad2-286);stroke:none;stroke-linecap:round;stroke-linejoin:round;stroke-width:0.75}
		.st43 {fill:#ffffff;stroke:none;stroke-linecap:round;stroke-linejoin:round;stroke-width:0.75}
		.st44 {fill:none;stroke:#c8c8c8;stroke-width:0.25}
		.st45 {fill:none;fill-rule:evenodd;font-size:12px;overflow:visible;stroke-linecap:square;stroke-miterlimit:3}
	]]>
	</style>

	<defs id="Patterns_And_Gradients">
		<linearGradient id="grad0-108" x1="0" y1="0" x2="1" y2="0" gradientTransform="rotate(60 0.5 0.5)">
			<stop offset="0" stop-color="#e9eff7" stop-opacity="1"/>
			<stop offset="0.24" stop-color="#f4f7fb" stop-opacity="1"/>
			<stop offset="0.54" stop-color="#feffff" stop-opacity="1"/>
		</linearGradient>
		<radialGradient id="grad7-214" cx="0" cy="0" r="1.4">
			<stop offset="0" stop-color="#dcf1fa" stop-opacity="1"/>
			<stop offset="1" stop-color="#5b9bd5" stop-opacity="1"/>
		</radialGradient>
		<linearGradient id="grad0-220" x1="0" y1="0" x2="1" y2="0" gradientTransform="rotate(0 0.5 0.5)">
			<stop offset="0" stop-color="#f7f3e8" stop-opacity="1"/>
			<stop offset="1" stop-color="#a8dbf0" stop-opacity="1"/>
		</linearGradient>
		<linearGradient id="grad0-225" x1="0" y1="0" x2="1" y2="0" gradientTransform="rotate(0 0.5 0.5)">
			<stop offset="0" stop-color="#a8dbf0" stop-opacity="1"/>
			<stop offset="1" stop-color="#5b9bd5" stop-opacity="1"/>
		</linearGradient>
		<linearGradient id="grad0-230" x1="0" y1="0" x2="1" y2="0" gradientTransform="rotate(0 0.5 0.5)">
			<stop offset="0" stop-color="#5b9bd5" stop-opacity="1"/>
			<stop offset="1" stop-color="#4974ba" stop-opacity="1"/>
		</linearGradient>
		<radialGradient id="grad3-235" cx="0.5" cy="0.5" r="0.73">
			<stop offset="0" stop-color="#ffffff" stop-opacity="1"/>
			<stop offset="1" stop-color="#da8c36" stop-opacity="1"/>
		</radialGradient>
		<radialGradient id="grad1-243" cx="1" cy="1" r="1.4">
			<stop offset="0" stop-color="#ffffff" stop-opacity="1"/>
			<stop offset="1" stop-color="#da8c36" stop-opacity="1"/>
		</radialGradient>
		<pattern id="grad10-256" x="0" y="0" width="1" height="1" patternContentUnits="objectBoundingBox">
			<path d="M 0.5 0.5 L 0 0 L 0 1 z" style="fill:url(#grad0-257)"/>
			<path d="M 0.5 0.5 L 1 0 L 1 1 z" style="fill:url(#grad0-258)"/>
			<path d="M 0.5 0.5 L 0 0 L 1 0 z" style="fill:url(#grad0-259)"/>
			<path d="M 0.5 0.5 L 0 1 L 1 1 z" style="fill:url(#grad0-260)"/>
		</pattern>
		<linearGradient id="grad0-257" x1="0" y1="0" x2="1" y2="0" gradientTransform="rotate(180 0.5 0.5)">
			<stop offset="0" stop-color="#a8dbf0" stop-opacity="1"/>
			<stop offset="1" stop-color="#5b9bd5" stop-opacity="1"/>
		</linearGradient>
		<linearGradient id="grad0-258" x1="0" y1="0" x2="1" y2="0" gradientTransform="rotate(360 0.5 0.5)">
			<stop offset="0" stop-color="#a8dbf0" stop-opacity="1"/>
			<stop offset="1" stop-color="#5b9bd5" stop-opacity="1"/>
		</linearGradient>
		<linearGradient id="grad0-259" x1="0" y1="0" x2="1" y2="0" gradientTransform="rotate(270 0.5 0.5)">
			<stop offset="0" stop-color="#a8dbf0" stop-opacity="1"/>
			<stop offset="1" stop-color="#5b9bd5" stop-opacity="1"/>
		</linearGradient>
		<linearGradient id="grad0-260" x1="0" y1="0" x2="1" y2="0" gradientTransform="rotate(90 0.5 0.5)">
			<stop offset="0" stop-color="#a8dbf0" stop-opacity="1"/>
			<stop offset="1" stop-color="#5b9bd5" stop-opacity="1"/>
		</linearGradient>
		<radialGradient id="grad2-286" cx="0" cy="1" r="1.4">
			<stop offset="0" stop-color="#ffffff" stop-opacity="1"/>
			<stop offset="1" stop-color="#da8c36" stop-opacity="1"/>
		</radialGradient>
	</defs>
	<defs id="Markers">
		<g id="lend4">
			<path d="M 2 1 L 0 0 L 2 -1 L 2 1 " style="stroke:none"/>
		</g>
		<marker id="mrkr4-104" class="st13" v:arrowType="4" v:arrowSize="2" v:setback="5.36" refX="-5.36" orient="auto"
				markerUnits="strokeWidth" overflow="visible">
			<use xlink:href="#lend4" transform="scale(-2.68,-2.68) "/>
		</marker>
	</defs>
	<defs id="Filters">
		<filter id="filter_2">
			<feGaussianBlur stdDeviation="2"/>
		</filter>
	</defs>
	<g v:mID="5" v:index="2" v:groupContext="foregroundPage">
		<v:userDefs>
			<v:ud v:nameU="msvThemeOrder" v:val="VT0(0):26"/>
		</v:userDefs>
		<title>IF stage</title>
		<v:pageProperties v:drawingScale="0.0393701" v:pageScale="0.0393701" v:drawingUnits="24" v:shadowOffsetX="8.50394"
				v:shadowOffsetY="-8.50394"/>
		<v:layer v:name="电气" v:index="0"/>
		<v:layer v:name="连接线" v:index="1"/>
		<v:layer v:name="流程图" v:index="2"/>
		<g id="shape194-1" v:mID="194" v:groupContext="shape" transform="translate(21.0294,-128.23)">
			<title>矩形.194</title>
			<v:userDefs>
				<v:ud v:nameU="visVersion" v:val="VT0(15):26"/>
			</v:userDefs>
			<g id="shadow194-2" v:groupContext="shadow" v:shadowOffsetX="0.345598" v:shadowOffsetY="-1.97279" v:shadowType="1"
					transform="matrix(1,0,0,1,0.345598,1.97279)" class="st1">
				<rect x="0" y="147.632" width="651.969" height="360" class="st2"/>
			</g>
			<rect x="0" y="147.632" width="651.969" height="360" class="st3"/>
		</g>
		<g id="group1-6" transform="translate(432.053,-318.151)" v:mID="1" v:groupContext="group" v:layerMember="0">
			<v:custProps>
				<v:cp v:nameU="SubType" v:lbl="触发器类型" v:type="1" v:format="RS 触发器;JK 触发器;闭锁触发器;D 触发器" v:sortKey="" v:invis="false"
						v:ask="false" v:langID="2052" v:val="VT4(RS 触发器)"/>
				<v:cp v:nameU="SubType" v:lbl="" v:prompt="" v:type="0" v:format="" v:sortKey="" v:invis="false" v:ask="false"
						v:langID="1033" v:cal="0" v:val="VT4(D 触发器)"/>
			</v:custProps>
			<v:userDefs>
				<v:ud v:nameU="Ratio" v:val="VT0(0.8):26"/>
				<v:ud v:nameU="SubType" v:val="VT0(0):26"/>
				<v:ud v:nameU="Low" v:val="VT0(0.039370078740157):24"/>
				<v:ud v:nameU="visDescription" v:val="VT4(表示各种形式的触发器。)"/>
				<v:ud v:nameU="visVersion" v:val="VT0(15):26"/>
				<v:ud v:nameU="AntiScale" v:val="VT0(1):26"/>
				<v:ud v:nameU="FontSize" v:val="VT0(0.069444444444444):29"/>
				<v:ud v:nameU="SubType" v:prompt="" v:val="VT0(3):26"/>
				<v:ud v:nameU="Low" v:prompt="" v:val="VT0(0.098425196850393):1"/>
				<v:ud v:nameU="FontSize" v:prompt="" v:val="VT0(0.17361111111111):29"/>
			</v:userDefs>
			<title>触发器</title>
			<desc>PC_pre</desc>
			<g id="shape2-7" v:mID="2" v:groupContext="shape" v:layerMember="0">
				<title>工作表.2</title>
				<path d="M0 507.63 L56.69 507.63 L56.69 436.77 L0 436.77 L0 507.63 Z" class="st4"/>
				<path d="M40.75 488.44 L51.38 488.44" class="st5"/>
				<path d="M0 465.97 L10.63 471.88 L0 478.43" class="st5"/>
				<path d="M0 507.63 L56.69 507.63 L56.69 436.77 L0 436.77 L0 507.63" class="st5"/>
			</g>
			<g id="shape3-12" v:mID="3" v:groupContext="shape" v:layerMember="0" transform="translate(3.54331,-53.1496)">
				<title>工作表.3</title>
				<desc>J</desc>
				<v:textBlock v:margins="rect(1,1,1,1)" v:tabSpace="42.5197"/>
				<v:textRect cx="7.08661" cy="501.726" width="14.18" height="11.811"/>
				<rect x="0" y="495.821" width="14.1732" height="11.811" class="st6"/>
			</g>
			<g id="shape4-14" v:mID="4" v:groupContext="shape" v:layerMember="0" transform="translate(38.9764,-5.90551)">
				<title>工作表.4</title>
				<desc>Q</desc>
				<v:textBlock v:margins="rect(1,1,1,1)" v:tabSpace="42.5197"/>
				<v:textRect cx="7.08661" cy="501.726" width="14.18" height="11.811"/>
				<rect x="0" y="495.821" width="14.1732" height="11.811" class="st6"/>
				<text x="2.94" y="505.48" class="st7" v:langID="2052"><v:paragraph v:horizAlign="1"/><v:tabList/>Q</text>			</g>
			<g id="shape5-17" v:mID="5" v:groupContext="shape" v:layerMember="0" transform="translate(38.9764,-53.1496)">
				<title>工作表.5</title>
				<desc>Q</desc>
				<v:textBlock v:margins="rect(1,1,1,1)" v:tabSpace="42.5197"/>
				<v:textRect cx="7.08661" cy="501.726" width="14.18" height="11.811"/>
				<rect x="0" y="495.821" width="14.1732" height="11.811" class="st6"/>
				<text x="2.94" y="505.48" class="st7" v:langID="2052"><v:paragraph v:horizAlign="1"/><v:tabList/>Q</text>			</g>
			<g id="shape6-20" v:mID="6" v:groupContext="shape" v:layerMember="0" transform="translate(4.33071,-5.90551)">
				<title>工作表.6</title>
				<desc>K</desc>
				<v:textBlock v:margins="rect(1,1,1,1)" v:tabSpace="42.5197"/>
				<v:textRect cx="7.08661" cy="501.726" width="14.18" height="11.811"/>
				<rect x="0" y="495.821" width="14.1732" height="11.811" class="st6"/>
			</g>
			<g id="shape7-22" v:mID="7" v:groupContext="shape" v:layerMember="0" transform="translate(17.7165,-2.95276)">
				<title>工作表.7</title>
				<desc>SET CLR</desc>
				<v:textBlock v:margins="rect(1,1,1,1)" v:tabSpace="42.5197"/>
				<v:textRect cx="10.6299" cy="475.152" width="21.26" height="64.9606"/>
				<rect x="0" y="442.671" width="21.2598" height="64.9606" class="st6"/>
				<text x="6.15" y="448.08" class="st8" v:langID="2052"><v:paragraph v:spLine="0" v:spAfter="54.1339"
							v:horizAlign="1"/><v:tabList/>SET<v:newlineChar/><tspan x="5.95" dy="8.661em" class="st9">CLR</tspan></text>			</g>
			<g id="shape8-26" v:mID="8" v:groupContext="shape" v:layerMember="0" transform="translate(3.54331,-53.1496)">
				<title>工作表.8</title>
				<desc>D</desc>
				<v:textBlock v:margins="rect(1,1,1,1)" v:tabSpace="42.5197"/>
				<v:textRect cx="7.08661" cy="501.726" width="14.18" height="11.811"/>
				<rect x="0" y="495.821" width="14.1732" height="11.811" class="st6"/>
				<text x="3.05" y="505.66" class="st10" v:langID="2052"><v:paragraph v:horizAlign="1"/><v:tabList/>D</text>			</g>
			<g id="shape9-29" v:mID="9" v:groupContext="shape" v:layerMember="0" transform="translate(4.33071,-5.90551)">
				<title>工作表.9</title>
				<desc>L</desc>
				<v:textBlock v:margins="rect(1,1,1,1)" v:tabSpace="42.5197"/>
				<v:textRect cx="7.08661" cy="501.726" width="14.18" height="11.811"/>
				<rect x="0" y="495.821" width="14.1732" height="11.811" class="st6"/>
			</g>
			<g id="shape10-31" v:mID="10" v:groupContext="shape" v:layerMember="0" transform="translate(3.54331,-53.1496)">
				<title>工作表.10</title>
				<desc>S</desc>
				<v:textBlock v:margins="rect(1,1,1,1)" v:tabSpace="42.5197"/>
				<v:textRect cx="7.08661" cy="501.726" width="14.18" height="11.811"/>
				<rect x="0" y="495.821" width="14.1732" height="11.811" class="st6"/>
			</g>
			<g id="shape11-33" v:mID="11" v:groupContext="shape" v:layerMember="0" transform="translate(4.33071,-5.90551)">
				<title>工作表.11</title>
				<desc>R</desc>
				<v:textBlock v:margins="rect(1,1,1,1)" v:tabSpace="42.5197"/>
				<v:textRect cx="7.08661" cy="501.726" width="14.18" height="11.811"/>
				<rect x="0" y="495.821" width="14.1732" height="11.811" class="st6"/>
			</g>
			<g id="shape1-35" v:mID="1" v:groupContext="groupContent" v:layerMember="0">
				<v:textBlock v:margins="rect(1,1,1,1)" v:tabSpace="42.5197"/>
				<v:textRect cx="28.3465" cy="515.834" width="39.75" height="16.4037"/>
				<text x="10.83" y="519.43" class="st11" v:langID="2052"><v:paragraph v:horizAlign="1"/><v:tabList/>PC_pre</text>			</g>
		</g>
		<g id="group12-37" transform="translate(587.959,-318.151)" v:mID="12" v:groupContext="group" v:layerMember="0">
			<v:custProps>
				<v:cp v:nameU="SubType" v:lbl="触发器类型" v:type="1" v:format="RS 触发器;JK 触发器;闭锁触发器;D 触发器" v:sortKey="" v:invis="false"
						v:ask="false" v:langID="2052" v:val="VT4(RS 触发器)"/>
				<v:cp v:nameU="SubType" v:lbl="" v:prompt="" v:type="0" v:format="" v:sortKey="" v:invis="false" v:ask="false"
						v:langID="1033" v:cal="0" v:val="VT4(D 触发器)"/>
			</v:custProps>
			<v:userDefs>
				<v:ud v:nameU="Ratio" v:val="VT0(0.8):26"/>
				<v:ud v:nameU="SubType" v:val="VT0(0):26"/>
				<v:ud v:nameU="Low" v:val="VT0(0.039370078740157):24"/>
				<v:ud v:nameU="visDescription" v:val="VT4(表示各种形式的触发器。)"/>
				<v:ud v:nameU="visVersion" v:val="VT0(15):26"/>
				<v:ud v:nameU="AntiScale" v:val="VT0(1):26"/>
				<v:ud v:nameU="FontSize" v:val="VT0(0.069444444444444):29"/>
				<v:ud v:nameU="SubType" v:prompt="" v:val="VT0(3):26"/>
				<v:ud v:nameU="Low" v:prompt="" v:val="VT0(0.098425196850393):1"/>
				<v:ud v:nameU="FontSize" v:prompt="" v:val="VT0(0.17361111111111):29"/>
			</v:userDefs>
			<title>触发器.12</title>
			<desc>PC</desc>
			<g id="shape13-38" v:mID="13" v:groupContext="shape" v:layerMember="0">
				<title>工作表.13</title>
				<path d="M0 507.63 L56.69 507.63 L56.69 436.77 L0 436.77 L0 507.63 Z" class="st4"/>
				<path d="M40.75 488.44 L51.38 488.44" class="st5"/>
				<path d="M0 465.97 L10.63 471.88 L0 478.43" class="st5"/>
				<path d="M0 507.63 L56.69 507.63 L56.69 436.77 L0 436.77 L0 507.63" class="st5"/>
			</g>
			<g id="shape14-43" v:mID="14" v:groupContext="shape" v:layerMember="0" transform="translate(3.54331,-53.1496)">
				<title>工作表.14</title>
				<desc>J</desc>
				<v:textBlock v:margins="rect(1,1,1,1)" v:tabSpace="42.5197"/>
				<v:textRect cx="7.08661" cy="501.726" width="14.18" height="11.811"/>
				<rect x="0" y="495.821" width="14.1732" height="11.811" class="st6"/>
			</g>
			<g id="shape15-45" v:mID="15" v:groupContext="shape" v:layerMember="0" transform="translate(38.9764,-5.90551)">
				<title>工作表.15</title>
				<desc>Q</desc>
				<v:textBlock v:margins="rect(1,1,1,1)" v:tabSpace="42.5197"/>
				<v:textRect cx="7.08661" cy="501.726" width="14.18" height="11.811"/>
				<rect x="0" y="495.821" width="14.1732" height="11.811" class="st6"/>
				<text x="2.94" y="505.48" class="st7" v:langID="2052"><v:paragraph v:horizAlign="1"/><v:tabList/>Q</text>			</g>
			<g id="shape16-48" v:mID="16" v:groupContext="shape" v:layerMember="0" transform="translate(38.9764,-53.1496)">
				<title>工作表.16</title>
				<desc>Q</desc>
				<v:textBlock v:margins="rect(1,1,1,1)" v:tabSpace="42.5197"/>
				<v:textRect cx="7.08661" cy="501.726" width="14.18" height="11.811"/>
				<rect x="0" y="495.821" width="14.1732" height="11.811" class="st6"/>
				<text x="2.94" y="505.48" class="st7" v:langID="2052"><v:paragraph v:horizAlign="1"/><v:tabList/>Q</text>			</g>
			<g id="shape17-51" v:mID="17" v:groupContext="shape" v:layerMember="0" transform="translate(4.33071,-5.90551)">
				<title>工作表.17</title>
				<desc>K</desc>
				<v:textBlock v:margins="rect(1,1,1,1)" v:tabSpace="42.5197"/>
				<v:textRect cx="7.08661" cy="501.726" width="14.18" height="11.811"/>
				<rect x="0" y="495.821" width="14.1732" height="11.811" class="st6"/>
			</g>
			<g id="shape18-53" v:mID="18" v:groupContext="shape" v:layerMember="0" transform="translate(17.7165,-2.95276)">
				<title>工作表.18</title>
				<desc>SET CLR</desc>
				<v:textBlock v:margins="rect(1,1,1,1)" v:tabSpace="42.5197"/>
				<v:textRect cx="10.6299" cy="475.152" width="21.26" height="64.9606"/>
				<rect x="0" y="442.671" width="21.2598" height="64.9606" class="st6"/>
				<text x="6.15" y="448.08" class="st8" v:langID="2052"><v:paragraph v:spLine="0" v:spAfter="54.1339"
							v:horizAlign="1"/><v:tabList/>SET<v:newlineChar/><tspan x="5.95" dy="8.661em" class="st9">CLR</tspan></text>			</g>
			<g id="shape19-57" v:mID="19" v:groupContext="shape" v:layerMember="0" transform="translate(3.54331,-53.1496)">
				<title>工作表.19</title>
				<desc>D</desc>
				<v:textBlock v:margins="rect(1,1,1,1)" v:tabSpace="42.5197"/>
				<v:textRect cx="7.08661" cy="501.726" width="14.18" height="11.811"/>
				<rect x="0" y="495.821" width="14.1732" height="11.811" class="st6"/>
				<text x="3.05" y="505.66" class="st10" v:langID="2052"><v:paragraph v:horizAlign="1"/><v:tabList/>D</text>			</g>
			<g id="shape20-60" v:mID="20" v:groupContext="shape" v:layerMember="0" transform="translate(4.33071,-5.90551)">
				<title>工作表.20</title>
				<desc>L</desc>
				<v:textBlock v:margins="rect(1,1,1,1)" v:tabSpace="42.5197"/>
				<v:textRect cx="7.08661" cy="501.726" width="14.18" height="11.811"/>
				<rect x="0" y="495.821" width="14.1732" height="11.811" class="st6"/>
			</g>
			<g id="shape21-62" v:mID="21" v:groupContext="shape" v:layerMember="0" transform="translate(3.54331,-53.1496)">
				<title>工作表.21</title>
				<desc>S</desc>
				<v:textBlock v:margins="rect(1,1,1,1)" v:tabSpace="42.5197"/>
				<v:textRect cx="7.08661" cy="501.726" width="14.18" height="11.811"/>
				<rect x="0" y="495.821" width="14.1732" height="11.811" class="st6"/>
			</g>
			<g id="shape22-64" v:mID="22" v:groupContext="shape" v:layerMember="0" transform="translate(4.33071,-5.90551)">
				<title>工作表.22</title>
				<desc>R</desc>
				<v:textBlock v:margins="rect(1,1,1,1)" v:tabSpace="42.5197"/>
				<v:textRect cx="7.08661" cy="501.726" width="14.18" height="11.811"/>
				<rect x="0" y="495.821" width="14.1732" height="11.811" class="st6"/>
			</g>
			<g id="shape12-66" v:mID="12" v:groupContext="groupContent" v:layerMember="0">
				<v:textBlock v:margins="rect(1,1,1,1)" v:tabSpace="42.5197"/>
				<v:textRect cx="28.3465" cy="515.834" width="17.32" height="16.4037"/>
				<text x="22.05" y="519.43" class="st11" v:langID="2052"><v:paragraph v:horizAlign="1"/><v:tabList/>PC</text>			</g>
		</g>
		<g id="group23-68" transform="translate(587.959,-155.159)" v:mID="23" v:groupContext="group" v:layerMember="0">
			<v:custProps>
				<v:cp v:nameU="SubType" v:lbl="触发器类型" v:type="1" v:format="RS 触发器;JK 触发器;闭锁触发器;D 触发器" v:sortKey="" v:invis="false"
						v:ask="false" v:langID="2052" v:val="VT4(RS 触发器)"/>
				<v:cp v:nameU="SubType" v:lbl="" v:prompt="" v:type="0" v:format="" v:sortKey="" v:invis="false" v:ask="false"
						v:langID="1033" v:cal="0" v:val="VT4(D 触发器)"/>
			</v:custProps>
			<v:userDefs>
				<v:ud v:nameU="Ratio" v:val="VT0(0.8):26"/>
				<v:ud v:nameU="SubType" v:val="VT0(0):26"/>
				<v:ud v:nameU="Low" v:val="VT0(0.039370078740157):24"/>
				<v:ud v:nameU="visDescription" v:val="VT4(表示各种形式的触发器。)"/>
				<v:ud v:nameU="visVersion" v:val="VT0(15):26"/>
				<v:ud v:nameU="AntiScale" v:val="VT0(1):26"/>
				<v:ud v:nameU="FontSize" v:val="VT0(0.069444444444444):29"/>
				<v:ud v:nameU="SubType" v:prompt="" v:val="VT0(3):26"/>
				<v:ud v:nameU="Low" v:prompt="" v:val="VT0(0.098425196850393):1"/>
				<v:ud v:nameU="FontSize" v:prompt="" v:val="VT0(0.17361111111111):29"/>
			</v:userDefs>
			<title>触发器.23</title>
			<desc>IR</desc>
			<g id="shape24-69" v:mID="24" v:groupContext="shape" v:layerMember="0">
				<title>工作表.24</title>
				<path d="M0 507.63 L56.69 507.63 L56.69 436.77 L0 436.77 L0 507.63 Z" class="st4"/>
				<path d="M40.75 488.44 L51.38 488.44" class="st5"/>
				<path d="M0 465.97 L10.63 471.88 L0 478.43" class="st5"/>
				<path d="M0 507.63 L56.69 507.63 L56.69 436.77 L0 436.77 L0 507.63" class="st5"/>
			</g>
			<g id="shape25-74" v:mID="25" v:groupContext="shape" v:layerMember="0" transform="translate(3.54331,-53.1496)">
				<title>工作表.25</title>
				<desc>J</desc>
				<v:textBlock v:margins="rect(1,1,1,1)" v:tabSpace="42.5197"/>
				<v:textRect cx="7.08661" cy="501.726" width="14.18" height="11.811"/>
				<rect x="0" y="495.821" width="14.1732" height="11.811" class="st6"/>
			</g>
			<g id="shape26-76" v:mID="26" v:groupContext="shape" v:layerMember="0" transform="translate(38.9764,-5.90551)">
				<title>工作表.26</title>
				<desc>Q</desc>
				<v:textBlock v:margins="rect(1,1,1,1)" v:tabSpace="42.5197"/>
				<v:textRect cx="7.08661" cy="501.726" width="14.18" height="11.811"/>
				<rect x="0" y="495.821" width="14.1732" height="11.811" class="st6"/>
				<text x="2.94" y="505.48" class="st7" v:langID="2052"><v:paragraph v:horizAlign="1"/><v:tabList/>Q</text>			</g>
			<g id="shape27-79" v:mID="27" v:groupContext="shape" v:layerMember="0" transform="translate(38.9764,-53.1496)">
				<title>工作表.27</title>
				<desc>Q</desc>
				<v:textBlock v:margins="rect(1,1,1,1)" v:tabSpace="42.5197"/>
				<v:textRect cx="7.08661" cy="501.726" width="14.18" height="11.811"/>
				<rect x="0" y="495.821" width="14.1732" height="11.811" class="st6"/>
				<text x="2.94" y="505.48" class="st7" v:langID="2052"><v:paragraph v:horizAlign="1"/><v:tabList/>Q</text>			</g>
			<g id="shape28-82" v:mID="28" v:groupContext="shape" v:layerMember="0" transform="translate(4.33071,-5.90551)">
				<title>工作表.28</title>
				<desc>K</desc>
				<v:textBlock v:margins="rect(1,1,1,1)" v:tabSpace="42.5197"/>
				<v:textRect cx="7.08661" cy="501.726" width="14.18" height="11.811"/>
				<rect x="0" y="495.821" width="14.1732" height="11.811" class="st6"/>
			</g>
			<g id="shape29-84" v:mID="29" v:groupContext="shape" v:layerMember="0" transform="translate(17.7165,-2.95276)">
				<title>工作表.29</title>
				<desc>SET CLR</desc>
				<v:textBlock v:margins="rect(1,1,1,1)" v:tabSpace="42.5197"/>
				<v:textRect cx="10.6299" cy="475.152" width="21.26" height="64.9606"/>
				<rect x="0" y="442.671" width="21.2598" height="64.9606" class="st6"/>
				<text x="6.15" y="448.08" class="st8" v:langID="2052"><v:paragraph v:spLine="0" v:spAfter="54.1339"
							v:horizAlign="1"/><v:tabList/>SET<v:newlineChar/><tspan x="5.95" dy="8.661em" class="st9">CLR</tspan></text>			</g>
			<g id="shape30-88" v:mID="30" v:groupContext="shape" v:layerMember="0" transform="translate(3.54331,-53.1496)">
				<title>工作表.30</title>
				<desc>D</desc>
				<v:textBlock v:margins="rect(1,1,1,1)" v:tabSpace="42.5197"/>
				<v:textRect cx="7.08661" cy="501.726" width="14.18" height="11.811"/>
				<rect x="0" y="495.821" width="14.1732" height="11.811" class="st6"/>
				<text x="3.05" y="505.66" class="st10" v:langID="2052"><v:paragraph v:horizAlign="1"/><v:tabList/>D</text>			</g>
			<g id="shape31-91" v:mID="31" v:groupContext="shape" v:layerMember="0" transform="translate(4.33071,-5.90551)">
				<title>工作表.31</title>
				<desc>L</desc>
				<v:textBlock v:margins="rect(1,1,1,1)" v:tabSpace="42.5197"/>
				<v:textRect cx="7.08661" cy="501.726" width="14.18" height="11.811"/>
				<rect x="0" y="495.821" width="14.1732" height="11.811" class="st6"/>
			</g>
			<g id="shape32-93" v:mID="32" v:groupContext="shape" v:layerMember="0" transform="translate(3.54331,-53.1496)">
				<title>工作表.32</title>
				<desc>S</desc>
				<v:textBlock v:margins="rect(1,1,1,1)" v:tabSpace="42.5197"/>
				<v:textRect cx="7.08661" cy="501.726" width="14.18" height="11.811"/>
				<rect x="0" y="495.821" width="14.1732" height="11.811" class="st6"/>
			</g>
			<g id="shape33-95" v:mID="33" v:groupContext="shape" v:layerMember="0" transform="translate(4.33071,-5.90551)">
				<title>工作表.33</title>
				<desc>R</desc>
				<v:textBlock v:margins="rect(1,1,1,1)" v:tabSpace="42.5197"/>
				<v:textRect cx="7.08661" cy="501.726" width="14.18" height="11.811"/>
				<rect x="0" y="495.821" width="14.1732" height="11.811" class="st6"/>
			</g>
			<g id="shape23-97" v:mID="23" v:groupContext="groupContent" v:layerMember="0">
				<v:textBlock v:margins="rect(1,1,1,1)" v:tabSpace="42.5197"/>
				<v:textRect cx="28.3465" cy="515.834" width="14.26" height="16.4037"/>
				<text x="23.58" y="519.43" class="st11" v:langID="2052"><v:paragraph v:horizAlign="1"/><v:tabList/>IR</text>			</g>
		</g>
		<g id="shape34-99" v:mID="34" v:groupContext="shape" v:layerMember="1" transform="translate(488.746,-370.119)">
			<title>动态连接线</title>
			<path d="M0 500.55 L91.17 500.55" class="st12"/>
		</g>
		<g id="shape35-105" v:mID="35" v:groupContext="shape" transform="translate(396.62,-190.592)">
			<title>云朵</title>
			<desc>mini_decoder</desc>
			<v:userDefs>
				<v:ud v:nameU="visVersion" v:prompt="" v:val="VT0(15):26"/>
			</v:userDefs>
			<v:textBlock v:margins="rect(4,4,4,4)" v:tabSpace="42.5197"/>
			<v:textRect cx="56.6929" cy="465.112" width="113.39" height="85.0394"/>
			<path d="M5.58 472.83 A8.95424 11.2986 0 0 1 9.88 451.12 A18.1582 22.9124 0 0 1 36.23 432.81 A20.8506 26.3097 0 0 1 58.8
						 428.73 A13.0752 16.4985 0 0 1 78.16 427.37 A14.8864 18.7839 0 0 1 101.82 434.16 A10.6442 13.4306 0 0 1 110.42
						 453.16 A13.1842 16.6355 0 0 1 99.67 480.29 A16.6329 20.987 0 0 1 76.01 493.86 A19.6116 24.7455 0 0 1 43.76
						 499.29 A24.8602 31.3681 0 0 1 15.79 493.86 A9.80787 12.3758 0 0 1 5.58 472.83 Z" class="st14"/>
			<path d="M5.58 472.83 A8.95424 11.2986 0 0 1 9.88 451.12 A18.1582 22.9124 0 0 1 36.23 432.81 A20.8506 26.3097 0 0 1 58.8
						 428.73 A13.0752 16.4985 0 0 1 78.16 427.37 A14.8864 18.7839 0 0 1 101.82 434.16 A10.6442 13.4306 0 0 1 110.42
						 453.16 A13.1842 16.6355 0 0 1 99.67 480.29 A16.6329 20.987 0 0 1 76.01 493.86 A19.6116 24.7455 0 0 1 43.76
						 499.29 A24.8602 31.3681 0 0 1 15.79 493.86 A9.80787 12.3758 0 0 1 5.58 472.83" class="st15"/>
			<path d="M11.49 473.51 A8.9295 11.2674 0 0 1 5.58 472.83" class="st15"/>
			<path d="M42.13 495.9 A8.96837 11.3165 -180 0 0 43.76 499.29" class="st15"/>
			<path d="M76.82 489.79 A7.23966 9.13514 0 0 1 76.01 493.86" class="st15"/>
			<path d="M93.21 469.43 A7.59674 9.58572 0 0 1 99.67 480.29" class="st15"/>
			<path d="M107.19 457.23 A6.93548 8.75133 -180 0 0 110.42 453.16" class="st15"/>
			<path d="M39.45 435.52 A10.6952 13.4949 -180 0 0 36.23 432.81" class="st15"/>
			<text x="17.31" y="469.31" class="st16" v:langID="2052"><v:paragraph v:horizAlign="1"/><v:tabList/>mini_decoder</text>		</g>
		<g id="shape37-117" v:mID="37" v:groupContext="shape" transform="translate(251.229,-199.076)">
			<title>云朵.37</title>
			<desc>bpu</desc>
			<v:userDefs>
				<v:ud v:nameU="visVersion" v:prompt="" v:val="VT0(15):26"/>
			</v:userDefs>
			<v:textBlock v:margins="rect(4,4,4,4)" v:tabSpace="42.5197"/>
			<v:textRect cx="56.6929" cy="465.112" width="113.39" height="85.0394"/>
			<path d="M5.58 472.83 A8.95424 11.2986 0 0 1 9.88 451.12 A18.1582 22.9124 0 0 1 36.23 432.81 A20.8506 26.3097 0 0 1 58.8
						 428.73 A13.0752 16.4985 0 0 1 78.16 427.37 A14.8864 18.7839 0 0 1 101.82 434.16 A10.6442 13.4306 0 0 1 110.42
						 453.16 A13.1842 16.6355 0 0 1 99.67 480.29 A16.6329 20.987 0 0 1 76.01 493.86 A19.6116 24.7455 0 0 1 43.76
						 499.29 A24.8602 31.3681 0 0 1 15.79 493.86 A9.80787 12.3758 0 0 1 5.58 472.83 Z" class="st14"/>
			<path d="M5.58 472.83 A8.95424 11.2986 0 0 1 9.88 451.12 A18.1582 22.9124 0 0 1 36.23 432.81 A20.8506 26.3097 0 0 1 58.8
						 428.73 A13.0752 16.4985 0 0 1 78.16 427.37 A14.8864 18.7839 0 0 1 101.82 434.16 A10.6442 13.4306 0 0 1 110.42
						 453.16 A13.1842 16.6355 0 0 1 99.67 480.29 A16.6329 20.987 0 0 1 76.01 493.86 A19.6116 24.7455 0 0 1 43.76
						 499.29 A24.8602 31.3681 0 0 1 15.79 493.86 A9.80787 12.3758 0 0 1 5.58 472.83" class="st15"/>
			<path d="M11.49 473.51 A8.9295 11.2674 0 0 1 5.58 472.83" class="st15"/>
			<path d="M42.13 495.9 A8.96837 11.3165 -180 0 0 43.76 499.29" class="st15"/>
			<path d="M76.82 489.79 A7.23966 9.13514 0 0 1 76.01 493.86" class="st15"/>
			<path d="M93.21 469.43 A7.59674 9.58572 0 0 1 99.67 480.29" class="st15"/>
			<path d="M107.19 457.23 A6.93548 8.75133 -180 0 0 110.42 453.16" class="st15"/>
			<path d="M39.45 435.52 A10.6952 13.4949 -180 0 0 36.23 432.81" class="st15"/>
			<text x="45.66" y="469.31" class="st16" v:langID="2052"><v:paragraph v:horizAlign="1"/><v:tabList/>bpu</text>		</g>
		<g id="shape180-128" v:mID="180" v:groupContext="shape" transform="translate(269.061,-312.125)">
			<title>云朵.180</title>
			<desc>pc_gen</desc>
			<v:userDefs>
				<v:ud v:nameU="visVersion" v:prompt="" v:val="VT0(15):26"/>
			</v:userDefs>
			<v:textBlock v:margins="rect(4,4,4,4)" v:tabSpace="42.5197"/>
			<v:textRect cx="56.6929" cy="465.112" width="113.39" height="85.0394"/>
			<path d="M5.58 472.83 A8.95424 11.2986 0 0 1 9.88 451.12 A18.1582 22.9124 0 0 1 36.23 432.81 A20.8506 26.3097 0 0 1 58.8
						 428.73 A13.0752 16.4985 0 0 1 78.16 427.37 A14.8864 18.7839 0 0 1 101.82 434.16 A10.6442 13.4306 0 0 1 110.42
						 453.16 A13.1842 16.6355 0 0 1 99.67 480.29 A16.6329 20.987 0 0 1 76.01 493.86 A19.6116 24.7455 0 0 1 43.76
						 499.29 A24.8602 31.3681 0 0 1 15.79 493.86 A9.80787 12.3758 0 0 1 5.58 472.83 Z" class="st14"/>
			<path d="M5.58 472.83 A8.95424 11.2986 0 0 1 9.88 451.12 A18.1582 22.9124 0 0 1 36.23 432.81 A20.8506 26.3097 0 0 1 58.8
						 428.73 A13.0752 16.4985 0 0 1 78.16 427.37 A14.8864 18.7839 0 0 1 101.82 434.16 A10.6442 13.4306 0 0 1 110.42
						 453.16 A13.1842 16.6355 0 0 1 99.67 480.29 A16.6329 20.987 0 0 1 76.01 493.86 A19.6116 24.7455 0 0 1 43.76
						 499.29 A24.8602 31.3681 0 0 1 15.79 493.86 A9.80787 12.3758 0 0 1 5.58 472.83" class="st15"/>
			<path d="M11.49 473.51 A8.9295 11.2674 0 0 1 5.58 472.83" class="st15"/>
			<path d="M42.13 495.9 A8.96837 11.3165 -180 0 0 43.76 499.29" class="st15"/>
			<path d="M76.82 489.79 A7.23966 9.13514 0 0 1 76.01 493.86" class="st15"/>
			<path d="M93.21 469.43 A7.59674 9.58572 0 0 1 99.67 480.29" class="st15"/>
			<path d="M107.19 457.23 A6.93548 8.75133 -180 0 0 110.42 453.16" class="st15"/>
			<path d="M39.45 435.52 A10.6952 13.4949 -180 0 0 36.23 432.81" class="st15"/>
			<text x="36.11" y="469.31" class="st16" v:langID="2052"><v:paragraph v:horizAlign="1"/><v:tabList/>pc_gen</text>		</g>
		<g id="shape181-139" v:mID="181" v:groupContext="shape" v:layerMember="1" transform="translate(379.702,-384.296)">
			<title>动态连接线.181</title>
			<path d="M0 514.71 L13.37 514.71 L13.37 514.72 L44.31 514.72" class="st12"/>
		</g>
		<g id="shape183-144" v:mID="183" v:groupContext="shape" v:layerMember="1" transform="translate(396.62,-228.688)">
			<title>动态连接线.183</title>
			<path d="M0 500.55 L-10.63 500.55 L-10.63 500.54 L-25.29 500.54" class="st12"/>
		</g>
		<g id="shape184-149" v:mID="184" v:groupContext="shape" v:layerMember="1" transform="translate(291.33,-280.202)">
			<title>动态连接线.184</title>
			<path d="M7.09 507.63 L7.09 493.09 L7.09 493.09 L7.09 478.25" class="st12"/>
		</g>
		<g id="shape185-154" v:mID="185" v:groupContext="shape" transform="translate(148.588,-330.765)">
			<title>矩形</title>
			<desc>CSR</desc>
			<v:userDefs>
				<v:ud v:nameU="visVersion" v:val="VT0(15):26"/>
			</v:userDefs>
			<v:textBlock v:margins="rect(4,4,4,4)" v:tabSpace="42.5197"/>
			<v:textRect cx="35.4331" cy="481.057" width="70.87" height="53.1496"/>
			<rect x="0" y="454.482" width="70.8661" height="53.1496" class="st17"/>
			<text x="27.76" y="484.06" class="st18" v:langID="2052"><v:paragraph v:horizAlign="1"/><v:tabList/>CSR</text>		</g>
		<g id="shape186-158" v:mID="186" v:groupContext="shape" v:layerMember="1" transform="translate(219.455,-364.406)">
			<title>动态连接线.186</title>
			<path d="M0 514.7 L41.57 514.73" class="st12"/>
		</g>
		<g id="shape187-163" v:mID="187" v:groupContext="shape" transform="translate(21.6486,-23.3478)">
			<title>矩形.187</title>
			<desc>ITCM</desc>
			<v:userDefs>
				<v:ud v:nameU="visVersion" v:val="VT0(15):26"/>
			</v:userDefs>
			<v:textBlock v:margins="rect(4,4,4,4)" v:tabSpace="42.5197"/>
			<v:textRect cx="325.984" cy="465.112" width="651.97" height="85.0394"/>
			<g id="shadow187-164" v:groupContext="shadow" v:shadowOffsetX="0.345598" v:shadowOffsetY="-1.97279" v:shadowType="1"
					transform="matrix(1,0,0,1,0.345598,1.97279)" class="st1">
				<rect x="0" y="422.593" width="651.969" height="85.0394" class="st19"/>
			</g>
			<rect x="0" y="422.593" width="651.969" height="85.0394" class="st20"/>
			<text x="300" y="472.31" class="st21" v:langID="2052"><v:paragraph v:horizAlign="1"/><v:tabList/>ITCM</text>		</g>
		<g id="shape188-169" v:mID="188" v:groupContext="shape" v:layerMember="1" transform="translate(400.872,-377.206)">
			<title>动态连接线.188</title>
			<path d="M0 507.63 L0 439.13 L-303.72 439.13 L-303.72 768.41" class="st12"/>
		</g>
		<g id="shape189-174" v:mID="189" v:groupContext="shape" v:layerMember="1" transform="translate(545.439,-108.387)">
			<title>动态连接线.189</title>
			<path d="M0 507.63 L0 401.81 L34.48 401.81" class="st12"/>
		</g>
		<g id="shape192-179" v:mID="192" v:groupContext="shape" v:layerMember="1" transform="translate(644.651,-384.194)">
			<title>动态连接线.192</title>
			<path d="M0 514.62 L50.3 514.79" class="st12"/>
		</g>
		<g id="shape193-184" v:mID="193" v:groupContext="shape" v:layerMember="1" transform="translate(644.651,-207.17)">
			<title>动态连接线.193</title>
			<path d="M0 500.59 L50.3 500.51" class="st12"/>
		</g>
		<g id="shape196-189" v:mID="196" v:groupContext="shape" v:layerMember="1" transform="translate(644.651,-214.214)">
			<title>动态连接线.196</title>
			<path d="M0 507.63 L10.63 507.63 L10.63 466.17 L-129.35 466.17" class="st12"/>
		</g>
		<g id="shape197-194" v:mID="197" v:groupContext="shape" v:layerMember="1" transform="translate(694.258,-431.537)">
			<title>动态连接线.197</title>
			<path d="M0 507.63 L-291.02 507.63 A2.3622 2.3622 -180 0 0 -295.75 507.63 L-378.01 507.63 L-378.01 537.88" class="st12"/>
		</g>
		<g id="shape198-199" v:mID="198" v:groupContext="shape" transform="translate(616.305,-434.371)">
			<title>工作表.198</title>
			<desc>flush</desc>
			<v:textBlock v:margins="rect(4,4,4,4)" v:tabSpace="42.5197"/>
			<v:textRect cx="25.5118" cy="496.293" width="51.03" height="22.6772"/>
			<rect x="0" y="484.955" width="51.0236" height="22.6772" class="st22"/>
			<text x="13.65" y="499.89" class="st23" v:langID="2052"><v:paragraph v:horizAlign="1"/><v:tabList/>flush</text>		</g>
		<g id="shape199-202" v:mID="199" v:groupContext="shape" transform="translate(23.864,-449.291)">
			<title>工作表.199</title>
			<desc>IF stage</desc>
			<v:textBlock v:margins="rect(4,4,4,4)" v:tabSpace="42.5197"/>
			<v:textRect cx="46.1782" cy="489.915" width="92.36" height="35.4331"/>
			<rect x="0" y="472.199" width="92.3564" height="35.4331" class="st22"/>
			<text x="8.16" y="497.12" class="st24" v:langID="2052"><v:paragraph v:horizAlign="1"/><v:tabList/>IF stage</text>		</g>
		<g id="group200-205" transform="translate(674.9,-335.726)" v:mID="200" v:groupContext="group">
			<v:userDefs>
				<v:ud v:nameU="SkinColor" v:prompt="" v:val="VT5(#da8c36)"/>
				<v:ud v:nameU="visVersion" v:prompt="" v:val="VT0(15):26"/>
			</v:userDefs>
			<title>协议.322</title>
			<g id="shape201-206" v:mID="201" v:groupContext="shape" transform="translate(3.58062,-2.7334)">
				<title>工作表.201</title>
				<g id="shadow201-207" v:groupContext="shadow" v:shadowOffsetX="0.3456" v:shadowOffsetY="-1.9728" v:shadowType="1"
						transform="matrix(1,0,0,1,0.3456,1.9728)" class="st1">
					<path d="M2.69 485.74 A2.6409 2.6409 0 0 1 1.78 483.69 A2.18531 2.18531 0 0 1 3.84 481.15 A2.39231 2.39231 0
								 0 1 5.93 483.69 A2.53234 2.53234 0 0 1 4.8 485.86 L4.8 486.25 A4.49339 4.49339 0 0 1 5.76 486.91
								 A4.49666 4.49666 0 0 1 7.38 489.87 A88.512 88.512 0 0 1 7.46 491.16 L9.42 490.02 a0.246909 0.246909
								 0 0 1 0.483115 -0.0967036 L10.07 489.86 A1.6048 1.6048 0 0 1 10.4 489.1 A1.61312 1.61312 0 0 1 11.78
								 488.57 a0.187573 0.187573 0 0 1 0.0844328 -0.305495 A386.21 386.21 0 0 1 15.15 486.32 L15.29 484
								 a0.84988 0.84988 0 0 1 0.499154 -1.07072 L17.66 481.97 A2.57247 2.57247 0 0 1 16.72 479.87 A2.26571
								 2.26571 0 0 1 18.79 477.39 A2.28311 2.28311 0 0 1 20.87 479.87 A2.41319 2.41319 0 0 1 19.99 481.9
								 L19.95 482.14 A10.534 10.534 -180 0 0 21.06 482.94 A4.17429 4.17429 0 0 1 22.65 485.9 A254.513 254.513
								 -180 0 0 22.59 493.44 a0.456213 0.456213 0 0 1 -0.277137 0.505619 A1.84357 1.84357 0 0 1 22.16 495.76
								 L21.89 500.71 L21.89 502.16 L18.26 504.22 L17.02 503.42 a0.326892 0.326892 0 0 1 -0.142478 -0.541669
								 L16.36 503.08 L15.04 502.36 A2.34473 2.34473 0 0 1 15.04 501.9 A45.5285 45.5285 -180 0 0 16.69 500.08
								 L15.96 488.64 A23.7922 23.9371 0 0 1 12.9 490.42 a0.553323 0.553323 0 0 1 -0.601985 -0.0815347 L12.06
								 490.48 A1.70999 1.70999 0 0 1 10.79 491.63 L10.7 491.93 L7.61 493.96 L7.3 494.17 A357.113 359.286
								 -180 0 0 6.72 503.79 A3.5854 3.5854 0 0 1 9 504.97 L9.01 505.18 L4.67 507.63 L3.46 506.88 L3.49
								 506.19 L2.7 506.59 L1.3 505.77 A62.5688 62.9497 -180 0 0 1.22 498.4 A1.21205 1.21205 0 0 1 0.42
								 496.65 a0.813438 0.813438 0 0 1 -0.415184 -0.386383 A585.166 585.166 0 0 1 0.21 487.24 A3.31761
								 3.31761 -180 0 0 0.67 486.85 L2.69 485.74 Z" class="st25"/>
				</g>
				<path d="M2.69 485.74 A2.6409 2.6409 0 0 1 1.78 483.69 A2.18531 2.18531 0 0 1 3.84 481.15 A2.39231 2.39231 0 0 1
							 5.93 483.69 A2.53234 2.53234 0 0 1 4.8 485.86 L4.8 486.25 A4.49339 4.49339 0 0 1 5.76 486.91 A4.49666
							 4.49666 0 0 1 7.38 489.87 A88.512 88.512 0 0 1 7.46 491.16 L9.42 490.02 a0.246909 0.246909 0 0 1 0.483115
							 -0.0967036 L10.07 489.86 A1.6048 1.6048 0 0 1 10.4 489.1 A1.61312 1.61312 0 0 1 11.78 488.57 a0.187573
							 0.187573 0 0 1 0.0844328 -0.305495 A386.21 386.21 0 0 1 15.15 486.32 L15.29 484 a0.84988 0.84988 0 0
							 1 0.499154 -1.07072 L17.66 481.97 A2.57247 2.57247 0 0 1 16.72 479.87 A2.26571 2.26571 0 0 1 18.79 477.39
							 A2.28311 2.28311 0 0 1 20.87 479.87 A2.41319 2.41319 0 0 1 19.99 481.9 L19.95 482.14 A10.534 10.534
							 -180 0 0 21.06 482.94 A4.17429 4.17429 0 0 1 22.65 485.9 A254.513 254.513 -180 0 0 22.59 493.44 a0.456213
							 0.456213 0 0 1 -0.277137 0.505619 A1.84357 1.84357 0 0 1 22.16 495.76 L21.89 500.71 L21.89 502.16 L18.26
							 504.22 L17.02 503.42 a0.326892 0.326892 0 0 1 -0.142478 -0.541669 L16.36 503.08 L15.04 502.36 A2.34473
							 2.34473 0 0 1 15.04 501.9 A45.5285 45.5285 -180 0 0 16.69 500.08 L15.96 488.64 A23.7922 23.9371 0 0
							 1 12.9 490.42 a0.553323 0.553323 0 0 1 -0.601985 -0.0815347 L12.06 490.48 A1.70999 1.70999 0 0 1 10.79
							 491.63 L10.7 491.93 L7.61 493.96 L7.3 494.17 A357.113 359.286 -180 0 0 6.72 503.79 A3.5854 3.5854 0
							 0 1 9 504.97 L9.01 505.18 L4.67 507.63 L3.46 506.88 L3.49 506.19 L2.7 506.59 L1.3 505.77 A62.5688 62.9497
							 -180 0 0 1.22 498.4 A1.21205 1.21205 0 0 1 0.42 496.65 a0.813438 0.813438 0 0 1 -0.415184 -0.386383
							 A585.166 585.166 0 0 1 0.21 487.24 A3.31761 3.31761 -180 0 0 0.67 486.85 L2.69 485.74 Z" class="st26"/>
			</g>
			<g id="shape202-211" v:mID="202" v:groupContext="shape" transform="translate(18.5693,-6.15625)">
				<title>工作表.202</title>
				<path d="M5.75 492.11 A5.25308 5.25308 -180 0 0 2.76 486.64 A1.59564 1.59564 -180 0 0 0.4 486.7 A18.4129 18.4129
							 -180 0 0 0.12 489.8 L0.95 492.14 L1.17 494.38 L1.23 496.72 L1.66 503.49 L0 505.31 L0 505.77 L1.33 506.49
							 L1.84 506.28 L1.76 506.6 L3.22 507.63 L5.06 505.16 L5.46 497.58 L5.69 497.63 A228.87 228.87 -180 0 0
							 5.75 492.11 Z" class="st27"/>
			</g>
			<g id="shape203-215" v:mID="203" v:groupContext="shape" transform="translate(19.7814,-7.2836)">
				<title>工作表.203</title>
				<path d="M0.9 507.19 L0.09 507.63 A1.12337 1.12337 0 0 1 0.05 507.13 A5.83133 5.83133 0 0 1 1.66 505.34 L1.89 497.64
							 L2.32 497.89 L2.5 505.53 A22.9692 22.9692 -180 0 0 0.9 507.19 Z" class="st28"/>
			</g>
			<g id="shape204-217" v:mID="204" v:groupContext="shape" transform="translate(19.4544,-24.0925)">
				<title>工作表.204</title>
				<path d="M4.57 507.63 A4.67888 4.67888 -180 0 0 3.09 505.45 A3.48095 3.48095 -180 0 0 0 504.29 L2.06 503.13 A3.48095
							 3.48095 0 0 1 5.14 504.29 A4.69619 4.69619 0 0 1 6.61 506.43 L4.57 507.63 Z" class="st29"/>
				<path d="M4.57 507.63 A4.67888 4.67888 -180 0 0 3.09 505.45 A3.48095 3.48095 -180 0 0 0 504.29 L2.06 503.13 A3.48095
							 3.48095 0 0 1 5.14 504.29 A4.69619 4.69619 0 0 1 6.61 506.43" class="st30"/>
			</g>
			<g id="shape205-222" v:mID="205" v:groupContext="shape" transform="translate(24.0204,-16.1085)">
				<title>工作表.205</title>
				<path d="M2.05 498.44 A4.30888 4.30888 0 0 1 2.17 499.27 A213.063 213.063 0 0 1 2.08 507.02 A2.37488 2.37488 0 0
							 1 0.2 507.61 A594.524 594.524 -180 0 0 0.14 500.4 A3.81341 3.81341 -180 0 0 0.01 499.69 L0 499.65 A1.65959
							 1.65959 0 0 1 2.04 498.44 L2.05 498.44 Z" class="st31"/>
				<path d="M2.05 498.44 A4.30888 4.30888 0 0 1 2.17 499.27 A213.063 213.063 0 0 1 2.08 507.02 A2.37488 2.37488 0 0
							 1 0.2 507.61 A594.524 594.524 -180 0 0 0.14 500.4 A3.81341 3.81341 -180 0 0 0.01 499.69 L0 499.65 A1.65959
							 1.65959 0 0 1 2.04 498.44" class="st30"/>
			</g>
			<g id="shape206-227" v:mID="206" v:groupContext="shape" transform="translate(21.1078,-27.3066)">
				<title>工作表.206</title>
				<path d="M0.06 506.56 L0.07 507.07 a0.854449 0.854449 -180 0 0 1.00538 0.452038 A2.26502 2.26502 -180 0 0 2.39 507.35
							 L2.38 506.38 A2.03671 2.03671 0 0 1 0.1 506.53 L0.06 506.56 Z" class="st32"/>
				<path d="M0.06 506.56 L0.07 507.07 a0.854449 0.854449 -180 0 0 1.00538 0.452038 A2.26502 2.26502 -180 0 0 2.39 507.35
							 L2.38 506.38 A2.03671 2.03671 0 0 1 0.1 506.53" class="st30"/>
			</g>
			<g id="shape207-232" v:mID="207" v:groupContext="shape" transform="translate(20.2623,-28.0152)">
				<title>工作表.207</title>
				<path d="M4.15 505.15 A2.30562 2.30562 0 0 1 2.07 507.63 A2.30562 2.30562 0 0 1 -0 505.15 A2.30583 2.30583 0 0 1
							 2.07 502.67 A2.30562 2.30562 0 0 1 4.15 505.15 L-1.04 501.43 L4.15 505.15 Z" class="st33"/>
				<path d="M4.15 505.15 A2.30562 2.30562 0 0 1 2.07 507.63 A2.30562 2.30562 0 0 1 -0 505.15 A2.30583 2.30583 0 0 1
							 2.07 502.67 A2.30562 2.30562 0 0 1 4.15 505.15" class="st30"/>
			</g>
			<g id="shape208-237" v:mID="208" v:groupContext="shape" transform="translate(20.8557,-28.0139)">
				<title>工作表.208</title>
				<path d="M2.83 507.08 A1.89246 1.89246 0 0 1 1.52 507.63 A1.96096 1.96096 0 0 1 0 506.86 L2.83 507.08 Z"
						class="st34"/>
				<path d="M2.83 507.08 A1.89246 1.89246 0 0 1 1.52 507.63 A1.96096 1.96096 0 0 1 0 506.86" class="st35"/>
			</g>
			<g id="shape209-240" v:mID="209" v:groupContext="shape" transform="translate(3.82266,-12.0124)">
				<title>工作表.209</title>
				<path d="M0.84 505.41 a0.988767 0.988767 0 0 1 0.824312 1.10664 A1.01408 1.01408 0 0 1 0.83 507.63 a0.988062 0.988062
							 0 0 1 -0.824634 -1.10599 A1.01427 1.01427 0 0 1 0.84 505.41 Z" class="st36"/>
			</g>
			<g id="shape210-244" v:mID="210" v:groupContext="shape" transform="translate(3.54189,-2.74833)">
				<title>工作表.210</title>
				<path d="M1.28 505.78 L1.34 504.28 A154.243 155.182 -180 0 0 1.15 496.9 A2.02787 2.02787 0 0 1 -0 496.27 L0.21 487.25
							 L0.91 486.67 L3.53 487.58 L5.53 490.15 L5.65 493.3 L5.65 495.81 L4.64 507.63 L3.39 506.88 L3.42 506.11
							 L2.67 506.59 L1.28 505.78 Z" class="st27"/>
			</g>
			<g id="shape211-247" v:mID="211" v:groupContext="shape" transform="translate(6.23609,-3.78734)">
				<title>工作表.211</title>
				<path d="M0.8 507.13 A4.68326 4.68326 0 0 1 0 507.63 L0.1 506.12 L0.29 498.22 L0.72 498.47 L0.87 506.19 A10.8866
							 10.8866 -180 0 0 0.8 507.13 Z" class="st28"/>
			</g>
			<g id="shape212-249" v:mID="212" v:groupContext="shape" transform="translate(4.14074,-20.1148)">
				<title>工作表.212</title>
				<path d="M4.57 507.63 A4.67509 4.67509 -180 0 0 3.09 505.45 A3.48191 3.48191 -180 0 0 0 504.29 L2.06 503.13 A3.48095
							 3.48095 0 0 1 5.14 504.29 A4.69467 4.69467 0 0 1 6.61 506.43 L4.57 507.63 Z" class="st29"/>
				<path d="M4.57 507.63 A4.67509 4.67509 -180 0 0 3.09 505.45 A3.48191 3.48191 -180 0 0 0 504.29 L2.06 503.13 A3.48095
							 3.48095 0 0 1 5.14 504.29 A4.69467 4.69467 0 0 1 6.61 506.43" class="st30"/>
			</g>
			<g id="shape213-253" v:mID="213" v:groupContext="shape" transform="translate(8.70678,-15.1058)">
				<title>工作表.213</title>
				<path d="M2.05 501.42 A3.85726 3.85726 0 0 1 2.2 502.21 A484.473 484.473 0 0 1 2.43 506.32 L0.27 507.63 A18.8384
							 18.8384 -180 0 0 0.14 503.37 A6.58741 6.58741 -180 0 0 0.01 502.66 L0 502.62 A1.65991 1.65991 0 0 1
							 2.04 501.41 L2.05 501.42 Z" class="st37"/>
				<path d="M2.05 501.42 A3.85726 3.85726 0 0 1 2.2 502.21 A484.473 484.473 0 0 1 2.43 506.32 L0.27 507.63 A18.8384
							 18.8384 -180 0 0 0.14 503.37 A6.58741 6.58741 -180 0 0 0.01 502.66 L0 502.62 A1.65991 1.65991 0 0 1
							 2.04 501.41" class="st30"/>
			</g>
			<g id="shape214-262" v:mID="214" v:groupContext="shape" transform="translate(9.97975,-5.30298)">
				<title>工作表.214</title>
				<path d="M0.27 506.35 A4.15402 4.15402 0 0 1 2.28 507.3 L0.06 507.63 L0 506.41 L0.27 506.35 Z" class="st38"/>
			</g>
			<g id="shape215-264" v:mID="215" v:groupContext="shape" transform="translate(6.08686,-23.4958)">
				<title>工作表.215</title>
				<path d="M0.06 506.47 L0.06 507.02 a0.811725 0.811725 -180 0 0 0.950066 0.48925 A1.89488 1.89488 -180 0 0 2.26 507.32
							 L2.25 506.27 A1.74403 1.74403 0 0 1 0.09 506.44 L0.06 506.47 Z" class="st32"/>
				<path d="M0.06 506.47 L0.06 507.02 a0.811725 0.811725 -180 0 0 0.950066 0.48925 A1.89488 1.89488 -180 0 0 2.26 507.32
							 L2.25 506.27 A1.74403 1.74403 0 0 1 0.09 506.44" class="st30"/>
			</g>
			<g id="shape216-268" v:mID="216" v:groupContext="shape" transform="translate(5.30597,-24.2549)">
				<title>工作表.216</title>
				<path d="M4.15 505.15 A2.30531 2.30531 0 0 1 2.07 507.63 A2.30531 2.30531 0 0 1 0 505.15 A2.30635 2.30635 0 0 1 2.07
							 502.67 A2.30615 2.30615 0 0 1 4.15 505.15 L-1.04 501.43 L4.15 505.15 Z" class="st33"/>
				<path d="M4.15 505.15 A2.30531 2.30531 0 0 1 2.07 507.63 A2.30531 2.30531 0 0 1 0 505.15 A2.30635 2.30635 0 0 1 2.07
							 502.67 A2.30615 2.30615 0 0 1 4.15 505.15" class="st30"/>
			</g>
			<g id="shape217-272" v:mID="217" v:groupContext="shape" transform="translate(4.66112,-11.8363)">
				<title>工作表.217</title>
				<path d="M0.07 507.63 L0 499.26 L0.07 507.63 Z" class="st34"/>
				<path d="M0.07 507.63 L0 499.26" class="st39"/>
			</g>
			<g id="shape218-275" v:mID="218" v:groupContext="shape" transform="translate(7.89983,-15.0709)">
				<title>工作表.218</title>
				<path d="M6.33 504.25 A96.13 96.13 0 0 1 1.07 507.54 a0.705889 0.705889 0 0 1 -1.05717 -0.587617 A60.4735 60.4735
							 0 0 1 0.01 504.62" class="st39"/>
			</g>
			<g id="shape219-278" v:mID="219" v:groupContext="shape" transform="translate(5.32173,-24.3213)">
				<title>工作表.219</title>
				<path d="M4.15 505.15 A2.30531 2.30531 0 0 1 2.07 507.63 A2.30531 2.30531 0 0 1 0 505.15 A2.20107 2.20107 0 0 1 2.06
							 502.74 A2.27642 2.27642 0 0 1 4.15 505.15 Z" class="st40"/>
			</g>
			<g id="shape220-280" v:mID="220" v:groupContext="shape" transform="translate(8.20312,-2.74801)">
				<title>工作表.220</title>
				<path d="M0.77 495.22 L0.1 505.92 L0 507.63 L4.3 505.18 a0.341471 0.341471 -180 0 0 -0.399774 -0.436183 A5.31526
							 5.31526 -180 0 0 2 504.81 A241.569 241.569 0 0 1 2.59 494.17 L0.77 495.22 ZM17.54 494.81 L17.22 500.71
							 L17.22 502.16 L13.59 504.22 A1.85955 1.85955 0 0 1 13.55 503.72 A8.05714 8.05714 0 0 1 15.35 501.72
							 L15.77 494.77 L17.54 494.81 Z" class="st41"/>
				<path d="M0.77 495.22 L0.1 505.92 L0 507.63 L4.3 505.18 a0.341471 0.341471 -180 0 0 -0.399774 -0.436183 A5.31526
							 5.31526 -180 0 0 2 504.81 A241.569 241.569 0 0 1 2.59 494.17 L0.77 495.22M17.54 494.81 L17.22 500.71
							 L17.22 502.16 L13.59 504.22 A1.85955 1.85955 0 0 1 13.55 503.72 A8.05714 8.05714 0 0 1 15.35 501.72
							 L15.77 494.77" class="st30"/>
			</g>
			<g id="shape221-283" v:mID="221" v:groupContext="shape" transform="translate(23.922,-14.1156)">
				<title>工作表.221</title>
				<path d="M1.24 504.78 A1.2445 1.2445 0 0 1 2.08 506.28 A1.27458 1.27458 0 0 1 0.93 507.58 A1.24499 1.24499 0 0 1
							 0.09 506.08 A1.27294 1.27294 0 0 1 1.24 504.78 Z" class="st42"/>
			</g>
			<g id="shape222-287" v:mID="222" v:groupContext="shape" transform="translate(6.9562,-4.18016)">
				<title>工作表.222</title>
				<path d="M15.15 494.79 L15.33 502.42 A15.9563 15.9563 -180 0 0 13.56 504.24 L15.15 494.79 ZM0 498.86 L0.15 506.58
							 L0.13 507.63 L0 498.86 Z" class="st34"/>
				<path d="M15.15 494.79 L15.33 502.42 A15.9563 15.9563 -180 0 0 13.56 504.24M0 498.86 L0.15 506.58 L0.13 507.63"
						class="st39"/>
			</g>
			<g id="shape223-290" v:mID="223" v:groupContext="shape" transform="translate(19.5097,-14.1469)">
				<title>工作表.223</title>
				<path d="M6.32 506.91 A1.09999 1.09999 0 1 1 4.64 505.56 a0.825751 0.825751 0 0 1 -0.688083 -0.751205 A284.221 284.221
							 -180 0 0 3.94 499.3 L6.32 506.91 Z" class="st34"/>
				<path d="M6.32 506.91 A1.09999 1.09999 0 1 1 4.64 505.56 a0.825751 0.825751 0 0 1 -0.688083 -0.751205 A284.221 284.221
							 -180 0 0 3.94 499.3" class="st39"/>
				<path d="" class="st39"/>
				<path d="M0.12 499.98 L0 496.78" class="st39"/>
				<path d="" class="st39"/>
			</g>
			<g id="shape224-296" v:mID="224" v:groupContext="shape" transform="translate(13.3754,-19.4867)">
				<title>工作表.224</title>
				<path d="M2.78 505.92 A1.22943 1.22943 0 0 1 1.86 507.36 A1.25027 1.25027 0 0 1 0.2 506.9 A1.2304 1.2304 0 0 1 1.12
							 505.46 A1.2503 1.2503 0 0 1 2.78 505.92 Z" class="st42"/>
			</g>
			<g id="shape225-299" v:mID="225" v:groupContext="shape" transform="translate(12.6987,-18.4995)">
				<title>工作表.225</title>
				<path d="M2.71 505.77 A1.22556 1.22556 0 0 1 1.94 507.29 A1.2441 1.2441 0 0 1 0.25 507.03 A1.22649 1.22649 0 0 1
							 1.02 505.52 A1.24319 1.24319 0 0 1 2.71 505.77 Z" class="st42"/>
			</g>
			<g id="shape226-302" v:mID="226" v:groupContext="shape" transform="translate(10.9208,-18.1778)">
				<title>工作表.226</title>
				<path d="M3.25 505.83 A1.35058 1.35058 -180 0 0 2.31 505.37 L0.07 506.59 L0 507.63 L3.25 505.83 ZM8.63 502.27 L5.06
							 504.36 a0.922463 0.922463 -180 0 0 -0.663502 -0.347846 a0.321326 0.321326 0 0 1 0.192329 -0.37988 A240.86
							 240.86 -180 0 0 7.81 501.78 L8.63 502.27 Z" class="st43"/>
			</g>
			<g id="shape227-304" v:mID="227" v:groupContext="shape" transform="translate(11.0125,-16.5079)">
				<title>工作表.227</title>
				<path d="M0 505.93 L3.16 504.16 A1.39048 1.39048 0 0 1 3.22 505.69 L0.12 507.63 L0 505.93 ZM8.54 500.62 L4.93 502.66
							 A1.01933 1.01933 0 0 1 4.77 504.05 a0.858413 0.858413 -180 0 0 1.19707 -0.176997 L8.62 502.34 L8.54
							 500.62 Z" class="st41"/>
				<path d="M0 505.93 L3.16 504.16 A1.39048 1.39048 0 0 1 3.22 505.69 L0.12 507.63M8.54 500.62 L4.93 502.66 A1.01933
							 1.01933 0 0 1 4.77 504.05 a0.858413 0.858413 -180 0 0 1.19707 -0.176997 L8.62 502.34 L8.54 500.62"
						class="st30"/>
			</g>
			<g id="shape228-307" v:mID="228" v:groupContext="shape" transform="translate(3.54189,-2.73827)">
				<title>工作表.228</title>
				<path d="M2.69 485.74 A2.64769 2.64769 0 0 1 1.78 483.69 A2.18454 2.18454 0 0 1 3.84 481.15 A2.40206 2.40206 0 0
							 1 5.93 483.69 A2.53349 2.53349 0 0 1 4.8 485.86 L4.8 486.25 A4.49069 4.49069 0 0 1 5.76 486.91 A4.41438
							 4.41438 0 0 1 7.38 489.87 A107.871 107.871 0 0 1 7.46 491.16 L9.42 490.02 a0.384521 0.384521 0 0 1 0.483115
							 -0.0967036 L10.07 489.86 A1.64117 1.64117 0 0 1 10.4 489.1 A1.55469 1.55469 0 0 1 11.78 488.57 a0.192735
							 0.192735 0 0 1 0.0844328 -0.305495 A366.903 366.903 0 0 1 15.15 486.32 L15.29 484 a0.934867 0.934867
							 0 0 1 0.499154 -1.07072 L17.66 481.97 A2.5725 2.5725 0 0 1 16.72 479.87 A2.27187 2.27187 0 0 1 18.79
							 477.39 A2.33851 2.33851 0 0 1 20.87 479.87 A2.4344 2.4344 0 0 1 19.99 481.9 L19.95 482.14 A10.5654 10.5654
							 -180 0 0 21.06 482.94 A4.03272 4.03272 0 0 1 22.65 485.9 A422.187 422.187 -180 0 0 22.59 493.44 a0.491579
							 0.491579 0 0 1 -0.277137 0.505619 A1.77607 1.77607 0 0 1 22.16 495.76 L21.89 500.71 L21.89 502.16 L18.26
							 504.22 L17.02 503.42 a0.323646 0.323646 0 0 1 -0.142478 -0.541669 L16.36 503.08 L15.04 502.36 A4.44474
							 4.44474 0 0 1 15.04 501.9 A48.0779 48.0779 -180 0 0 16.69 500.08 L15.96 488.64 A23.7922 23.9371 0 0
							 1 12.9 490.42 a0.743973 0.743973 0 0 1 -0.601985 -0.0815347 L12.06 490.48 A1.90982 1.90982 0 0 1 10.79
							 491.63 L10.7 491.93 L7.61 493.96 L7.3 494.17 A357.113 359.286 -180 0 0 6.72 503.79 A3.62677 3.62677
							 0 0 1 9 504.97 L9.01 505.18 L4.67 507.63 L3.46 506.88 L3.49 506.19 L2.7 506.59 L1.3 505.77 A62.5688
							 62.9497 -180 0 0 1.22 498.4 A1.15011 1.15011 0 0 1 0.42 496.65 a0.850941 0.850941 0 0 1 -0.415184 -0.386383
							 A530.427 530.427 0 0 1 0.21 487.24 A11.9421 11.9421 -180 0 0 0.67 486.85 L2.69 485.74 Z" class="st44"/>
			</g>
		</g>
		<g id="group229-309" transform="translate(674.9,-172.734)" v:mID="229" v:groupContext="group">
			<v:userDefs>
				<v:ud v:nameU="SkinColor" v:prompt="" v:val="VT5(#da8c36)"/>
				<v:ud v:nameU="visVersion" v:prompt="" v:val="VT0(15):26"/>
			</v:userDefs>
			<title>协议.229</title>
			<g id="shape230-310" v:mID="230" v:groupContext="shape" transform="translate(3.58062,-2.7334)">
				<title>工作表.230</title>
				<g id="shadow230-311" v:groupContext="shadow" v:shadowOffsetX="0.3456" v:shadowOffsetY="-1.9728" v:shadowType="1"
						transform="matrix(1,0,0,1,0.3456,1.9728)" class="st1">
					<path d="M2.69 485.74 A2.6409 2.6409 0 0 1 1.78 483.69 A2.18531 2.18531 0 0 1 3.84 481.15 A2.39231 2.39231 0
								 0 1 5.93 483.69 A2.53234 2.53234 0 0 1 4.8 485.86 L4.8 486.25 A4.49339 4.49339 0 0 1 5.76 486.91
								 A4.49666 4.49666 0 0 1 7.38 489.87 A88.512 88.512 0 0 1 7.46 491.16 L9.42 490.02 a0.246909 0.246909
								 0 0 1 0.483115 -0.0967036 L10.07 489.86 A1.6048 1.6048 0 0 1 10.4 489.1 A1.61312 1.61312 0 0 1 11.78
								 488.57 a0.187573 0.187573 0 0 1 0.0844328 -0.305495 A386.21 386.21 0 0 1 15.15 486.32 L15.29 484
								 a0.84988 0.84988 0 0 1 0.499154 -1.07072 L17.66 481.97 A2.57247 2.57247 0 0 1 16.72 479.87 A2.26571
								 2.26571 0 0 1 18.79 477.39 A2.28311 2.28311 0 0 1 20.87 479.87 A2.41319 2.41319 0 0 1 19.99 481.9
								 L19.95 482.14 A10.534 10.534 -180 0 0 21.06 482.94 A4.17429 4.17429 0 0 1 22.65 485.9 A254.513 254.513
								 -180 0 0 22.59 493.44 a0.456213 0.456213 0 0 1 -0.277137 0.505619 A1.84357 1.84357 0 0 1 22.16 495.76
								 L21.89 500.71 L21.89 502.16 L18.26 504.22 L17.02 503.42 a0.326892 0.326892 0 0 1 -0.142478 -0.541669
								 L16.36 503.08 L15.04 502.36 A2.34473 2.34473 0 0 1 15.04 501.9 A45.5285 45.5285 -180 0 0 16.69 500.08
								 L15.96 488.64 A23.7922 23.9371 0 0 1 12.9 490.42 a0.553323 0.553323 0 0 1 -0.601985 -0.0815347 L12.06
								 490.48 A1.70999 1.70999 0 0 1 10.79 491.63 L10.7 491.93 L7.61 493.96 L7.3 494.17 A357.113 359.286
								 -180 0 0 6.72 503.79 A3.5854 3.5854 0 0 1 9 504.97 L9.01 505.18 L4.67 507.63 L3.46 506.88 L3.49
								 506.19 L2.7 506.59 L1.3 505.77 A62.5688 62.9497 -180 0 0 1.22 498.4 A1.21205 1.21205 0 0 1 0.42
								 496.65 a0.813438 0.813438 0 0 1 -0.415184 -0.386383 A585.166 585.166 0 0 1 0.21 487.24 A3.31761
								 3.31761 -180 0 0 0.67 486.85 L2.69 485.74 Z" class="st25"/>
				</g>
				<path d="M2.69 485.74 A2.6409 2.6409 0 0 1 1.78 483.69 A2.18531 2.18531 0 0 1 3.84 481.15 A2.39231 2.39231 0 0 1
							 5.93 483.69 A2.53234 2.53234 0 0 1 4.8 485.86 L4.8 486.25 A4.49339 4.49339 0 0 1 5.76 486.91 A4.49666
							 4.49666 0 0 1 7.38 489.87 A88.512 88.512 0 0 1 7.46 491.16 L9.42 490.02 a0.246909 0.246909 0 0 1 0.483115
							 -0.0967036 L10.07 489.86 A1.6048 1.6048 0 0 1 10.4 489.1 A1.61312 1.61312 0 0 1 11.78 488.57 a0.187573
							 0.187573 0 0 1 0.0844328 -0.305495 A386.21 386.21 0 0 1 15.15 486.32 L15.29 484 a0.84988 0.84988 0 0
							 1 0.499154 -1.07072 L17.66 481.97 A2.57247 2.57247 0 0 1 16.72 479.87 A2.26571 2.26571 0 0 1 18.79 477.39
							 A2.28311 2.28311 0 0 1 20.87 479.87 A2.41319 2.41319 0 0 1 19.99 481.9 L19.95 482.14 A10.534 10.534
							 -180 0 0 21.06 482.94 A4.17429 4.17429 0 0 1 22.65 485.9 A254.513 254.513 -180 0 0 22.59 493.44 a0.456213
							 0.456213 0 0 1 -0.277137 0.505619 A1.84357 1.84357 0 0 1 22.16 495.76 L21.89 500.71 L21.89 502.16 L18.26
							 504.22 L17.02 503.42 a0.326892 0.326892 0 0 1 -0.142478 -0.541669 L16.36 503.08 L15.04 502.36 A2.34473
							 2.34473 0 0 1 15.04 501.9 A45.5285 45.5285 -180 0 0 16.69 500.08 L15.96 488.64 A23.7922 23.9371 0 0
							 1 12.9 490.42 a0.553323 0.553323 0 0 1 -0.601985 -0.0815347 L12.06 490.48 A1.70999 1.70999 0 0 1 10.79
							 491.63 L10.7 491.93 L7.61 493.96 L7.3 494.17 A357.113 359.286 -180 0 0 6.72 503.79 A3.5854 3.5854 0
							 0 1 9 504.97 L9.01 505.18 L4.67 507.63 L3.46 506.88 L3.49 506.19 L2.7 506.59 L1.3 505.77 A62.5688 62.9497
							 -180 0 0 1.22 498.4 A1.21205 1.21205 0 0 1 0.42 496.65 a0.813438 0.813438 0 0 1 -0.415184 -0.386383
							 A585.166 585.166 0 0 1 0.21 487.24 A3.31761 3.31761 -180 0 0 0.67 486.85 L2.69 485.74 Z" class="st26"/>
			</g>
			<g id="shape231-315" v:mID="231" v:groupContext="shape" transform="translate(18.5693,-6.15625)">
				<title>工作表.231</title>
				<path d="M5.75 492.11 A5.25308 5.25308 -180 0 0 2.76 486.64 A1.59564 1.59564 -180 0 0 0.4 486.7 A18.4129 18.4129
							 -180 0 0 0.12 489.8 L0.95 492.14 L1.17 494.38 L1.23 496.72 L1.66 503.49 L0 505.31 L0 505.77 L1.33 506.49
							 L1.84 506.28 L1.76 506.6 L3.22 507.63 L5.06 505.16 L5.46 497.58 L5.69 497.63 A228.87 228.87 -180 0 0
							 5.75 492.11 Z" class="st27"/>
			</g>
			<g id="shape232-318" v:mID="232" v:groupContext="shape" transform="translate(19.7814,-7.2836)">
				<title>工作表.232</title>
				<path d="M0.9 507.19 L0.09 507.63 A1.12337 1.12337 0 0 1 0.05 507.13 A5.83133 5.83133 0 0 1 1.66 505.34 L1.89 497.64
							 L2.32 497.89 L2.5 505.53 A22.9692 22.9692 -180 0 0 0.9 507.19 Z" class="st28"/>
			</g>
			<g id="shape233-320" v:mID="233" v:groupContext="shape" transform="translate(19.4544,-24.0925)">
				<title>工作表.233</title>
				<path d="M4.57 507.63 A4.67888 4.67888 -180 0 0 3.09 505.45 A3.48095 3.48095 -180 0 0 0 504.29 L2.06 503.13 A3.48095
							 3.48095 0 0 1 5.14 504.29 A4.69619 4.69619 0 0 1 6.61 506.43 L4.57 507.63 Z" class="st29"/>
				<path d="M4.57 507.63 A4.67888 4.67888 -180 0 0 3.09 505.45 A3.48095 3.48095 -180 0 0 0 504.29 L2.06 503.13 A3.48095
							 3.48095 0 0 1 5.14 504.29 A4.69619 4.69619 0 0 1 6.61 506.43" class="st30"/>
			</g>
			<g id="shape234-324" v:mID="234" v:groupContext="shape" transform="translate(24.0204,-16.1085)">
				<title>工作表.234</title>
				<path d="M2.05 498.44 A4.30888 4.30888 0 0 1 2.17 499.27 A213.063 213.063 0 0 1 2.08 507.02 A2.37488 2.37488 0 0
							 1 0.2 507.61 A594.524 594.524 -180 0 0 0.14 500.4 A3.81341 3.81341 -180 0 0 0.01 499.69 L0 499.65 A1.65959
							 1.65959 0 0 1 2.04 498.44 L2.05 498.44 Z" class="st31"/>
				<path d="M2.05 498.44 A4.30888 4.30888 0 0 1 2.17 499.27 A213.063 213.063 0 0 1 2.08 507.02 A2.37488 2.37488 0 0
							 1 0.2 507.61 A594.524 594.524 -180 0 0 0.14 500.4 A3.81341 3.81341 -180 0 0 0.01 499.69 L0 499.65 A1.65959
							 1.65959 0 0 1 2.04 498.44" class="st30"/>
			</g>
			<g id="shape235-328" v:mID="235" v:groupContext="shape" transform="translate(21.1078,-27.3066)">
				<title>工作表.235</title>
				<path d="M0.06 506.56 L0.07 507.07 a0.854449 0.854449 -180 0 0 1.00538 0.452038 A2.26502 2.26502 -180 0 0 2.39 507.35
							 L2.38 506.38 A2.03671 2.03671 0 0 1 0.1 506.53 L0.06 506.56 Z" class="st32"/>
				<path d="M0.06 506.56 L0.07 507.07 a0.854449 0.854449 -180 0 0 1.00538 0.452038 A2.26502 2.26502 -180 0 0 2.39 507.35
							 L2.38 506.38 A2.03671 2.03671 0 0 1 0.1 506.53" class="st30"/>
			</g>
			<g id="shape236-332" v:mID="236" v:groupContext="shape" transform="translate(20.2623,-28.0152)">
				<title>工作表.236</title>
				<path d="M4.15 505.15 A2.30562 2.30562 0 0 1 2.07 507.63 A2.30562 2.30562 0 0 1 -0 505.15 A2.30583 2.30583 0 0 1
							 2.07 502.67 A2.30562 2.30562 0 0 1 4.15 505.15 L-1.04 501.43 L4.15 505.15 Z" class="st33"/>
				<path d="M4.15 505.15 A2.30562 2.30562 0 0 1 2.07 507.63 A2.30562 2.30562 0 0 1 -0 505.15 A2.30583 2.30583 0 0 1
							 2.07 502.67 A2.30562 2.30562 0 0 1 4.15 505.15" class="st30"/>
			</g>
			<g id="shape237-336" v:mID="237" v:groupContext="shape" transform="translate(20.8557,-28.0139)">
				<title>工作表.237</title>
				<path d="M2.83 507.08 A1.89246 1.89246 0 0 1 1.52 507.63 A1.96096 1.96096 0 0 1 0 506.86 L2.83 507.08 Z"
						class="st34"/>
				<path d="M2.83 507.08 A1.89246 1.89246 0 0 1 1.52 507.63 A1.96096 1.96096 0 0 1 0 506.86" class="st35"/>
			</g>
			<g id="shape238-339" v:mID="238" v:groupContext="shape" transform="translate(3.82266,-12.0124)">
				<title>工作表.238</title>
				<path d="M0.84 505.41 a0.988767 0.988767 0 0 1 0.824312 1.10664 A1.01408 1.01408 0 0 1 0.83 507.63 a0.988062 0.988062
							 0 0 1 -0.824634 -1.10599 A1.01427 1.01427 0 0 1 0.84 505.41 Z" class="st36"/>
			</g>
			<g id="shape239-342" v:mID="239" v:groupContext="shape" transform="translate(3.54189,-2.74833)">
				<title>工作表.239</title>
				<path d="M1.28 505.78 L1.34 504.28 A154.243 155.182 -180 0 0 1.15 496.9 A2.02787 2.02787 0 0 1 -0 496.27 L0.21 487.25
							 L0.91 486.67 L3.53 487.58 L5.53 490.15 L5.65 493.3 L5.65 495.81 L4.64 507.63 L3.39 506.88 L3.42 506.11
							 L2.67 506.59 L1.28 505.78 Z" class="st27"/>
			</g>
			<g id="shape240-345" v:mID="240" v:groupContext="shape" transform="translate(6.23609,-3.78734)">
				<title>工作表.240</title>
				<path d="M0.8 507.13 A4.68326 4.68326 0 0 1 0 507.63 L0.1 506.12 L0.29 498.22 L0.72 498.47 L0.87 506.19 A10.8866
							 10.8866 -180 0 0 0.8 507.13 Z" class="st28"/>
			</g>
			<g id="shape241-347" v:mID="241" v:groupContext="shape" transform="translate(4.14074,-20.1148)">
				<title>工作表.241</title>
				<path d="M4.57 507.63 A4.67509 4.67509 -180 0 0 3.09 505.45 A3.48191 3.48191 -180 0 0 0 504.29 L2.06 503.13 A3.48095
							 3.48095 0 0 1 5.14 504.29 A4.69467 4.69467 0 0 1 6.61 506.43 L4.57 507.63 Z" class="st29"/>
				<path d="M4.57 507.63 A4.67509 4.67509 -180 0 0 3.09 505.45 A3.48191 3.48191 -180 0 0 0 504.29 L2.06 503.13 A3.48095
							 3.48095 0 0 1 5.14 504.29 A4.69467 4.69467 0 0 1 6.61 506.43" class="st30"/>
			</g>
			<g id="shape242-351" v:mID="242" v:groupContext="shape" transform="translate(8.70678,-15.1058)">
				<title>工作表.242</title>
				<path d="M2.05 501.42 A3.85726 3.85726 0 0 1 2.2 502.21 A484.473 484.473 0 0 1 2.43 506.32 L0.27 507.63 A18.8384
							 18.8384 -180 0 0 0.14 503.37 A6.58741 6.58741 -180 0 0 0.01 502.66 L0 502.62 A1.65991 1.65991 0 0 1
							 2.04 501.41 L2.05 501.42 Z" class="st37"/>
				<path d="M2.05 501.42 A3.85726 3.85726 0 0 1 2.2 502.21 A484.473 484.473 0 0 1 2.43 506.32 L0.27 507.63 A18.8384
							 18.8384 -180 0 0 0.14 503.37 A6.58741 6.58741 -180 0 0 0.01 502.66 L0 502.62 A1.65991 1.65991 0 0 1
							 2.04 501.41" class="st30"/>
			</g>
			<g id="shape243-355" v:mID="243" v:groupContext="shape" transform="translate(9.97975,-5.30298)">
				<title>工作表.243</title>
				<path d="M0.27 506.35 A4.15402 4.15402 0 0 1 2.28 507.3 L0.06 507.63 L0 506.41 L0.27 506.35 Z" class="st38"/>
			</g>
			<g id="shape244-357" v:mID="244" v:groupContext="shape" transform="translate(6.08686,-23.4958)">
				<title>工作表.244</title>
				<path d="M0.06 506.47 L0.06 507.02 a0.811725 0.811725 -180 0 0 0.950066 0.48925 A1.89488 1.89488 -180 0 0 2.26 507.32
							 L2.25 506.27 A1.74403 1.74403 0 0 1 0.09 506.44 L0.06 506.47 Z" class="st32"/>
				<path d="M0.06 506.47 L0.06 507.02 a0.811725 0.811725 -180 0 0 0.950066 0.48925 A1.89488 1.89488 -180 0 0 2.26 507.32
							 L2.25 506.27 A1.74403 1.74403 0 0 1 0.09 506.44" class="st30"/>
			</g>
			<g id="shape245-361" v:mID="245" v:groupContext="shape" transform="translate(5.30597,-24.2549)">
				<title>工作表.245</title>
				<path d="M4.15 505.15 A2.30531 2.30531 0 0 1 2.07 507.63 A2.30531 2.30531 0 0 1 0 505.15 A2.30635 2.30635 0 0 1 2.07
							 502.67 A2.30615 2.30615 0 0 1 4.15 505.15 L-1.04 501.43 L4.15 505.15 Z" class="st33"/>
				<path d="M4.15 505.15 A2.30531 2.30531 0 0 1 2.07 507.63 A2.30531 2.30531 0 0 1 0 505.15 A2.30635 2.30635 0 0 1 2.07
							 502.67 A2.30615 2.30615 0 0 1 4.15 505.15" class="st30"/>
			</g>
			<g id="shape246-365" v:mID="246" v:groupContext="shape" transform="translate(4.66112,-11.8363)">
				<title>工作表.246</title>
				<path d="M0.07 507.63 L0 499.26 L0.07 507.63 Z" class="st34"/>
				<path d="M0.07 507.63 L0 499.26" class="st39"/>
			</g>
			<g id="shape247-368" v:mID="247" v:groupContext="shape" transform="translate(7.89983,-15.0709)">
				<title>工作表.247</title>
				<path d="M6.33 504.25 A96.13 96.13 0 0 1 1.07 507.54 a0.705889 0.705889 0 0 1 -1.05717 -0.587617 A60.4735 60.4735
							 0 0 1 0.01 504.62" class="st39"/>
			</g>
			<g id="shape248-371" v:mID="248" v:groupContext="shape" transform="translate(5.32173,-24.3213)">
				<title>工作表.248</title>
				<path d="M4.15 505.15 A2.30531 2.30531 0 0 1 2.07 507.63 A2.30531 2.30531 0 0 1 0 505.15 A2.20107 2.20107 0 0 1 2.06
							 502.74 A2.27642 2.27642 0 0 1 4.15 505.15 Z" class="st40"/>
			</g>
			<g id="shape249-373" v:mID="249" v:groupContext="shape" transform="translate(8.20312,-2.74801)">
				<title>工作表.249</title>
				<path d="M0.77 495.22 L0.1 505.92 L0 507.63 L4.3 505.18 a0.341471 0.341471 -180 0 0 -0.399774 -0.436183 A5.31526
							 5.31526 -180 0 0 2 504.81 A241.569 241.569 0 0 1 2.59 494.17 L0.77 495.22 ZM17.54 494.81 L17.22 500.71
							 L17.22 502.16 L13.59 504.22 A1.85955 1.85955 0 0 1 13.55 503.72 A8.05714 8.05714 0 0 1 15.35 501.72
							 L15.77 494.77 L17.54 494.81 Z" class="st41"/>
				<path d="M0.77 495.22 L0.1 505.92 L0 507.63 L4.3 505.18 a0.341471 0.341471 -180 0 0 -0.399774 -0.436183 A5.31526
							 5.31526 -180 0 0 2 504.81 A241.569 241.569 0 0 1 2.59 494.17 L0.77 495.22M17.54 494.81 L17.22 500.71
							 L17.22 502.16 L13.59 504.22 A1.85955 1.85955 0 0 1 13.55 503.72 A8.05714 8.05714 0 0 1 15.35 501.72
							 L15.77 494.77" class="st30"/>
			</g>
			<g id="shape250-376" v:mID="250" v:groupContext="shape" transform="translate(23.922,-14.1156)">
				<title>工作表.250</title>
				<path d="M1.24 504.78 A1.2445 1.2445 0 0 1 2.08 506.28 A1.27458 1.27458 0 0 1 0.93 507.58 A1.24499 1.24499 0 0 1
							 0.09 506.08 A1.27294 1.27294 0 0 1 1.24 504.78 Z" class="st42"/>
			</g>
			<g id="shape251-379" v:mID="251" v:groupContext="shape" transform="translate(6.9562,-4.18016)">
				<title>工作表.251</title>
				<path d="M15.15 494.79 L15.33 502.42 A15.9563 15.9563 -180 0 0 13.56 504.24 L15.15 494.79 ZM0 498.86 L0.15 506.58
							 L0.13 507.63 L0 498.86 Z" class="st34"/>
				<path d="M15.15 494.79 L15.33 502.42 A15.9563 15.9563 -180 0 0 13.56 504.24M0 498.86 L0.15 506.58 L0.13 507.63"
						class="st39"/>
			</g>
			<g id="shape252-382" v:mID="252" v:groupContext="shape" transform="translate(19.5097,-14.1469)">
				<title>工作表.252</title>
				<path d="M6.32 506.91 A1.09999 1.09999 0 1 1 4.64 505.56 a0.825751 0.825751 0 0 1 -0.688083 -0.751205 A284.221 284.221
							 -180 0 0 3.94 499.3 L6.32 506.91 Z" class="st34"/>
				<path d="M6.32 506.91 A1.09999 1.09999 0 1 1 4.64 505.56 a0.825751 0.825751 0 0 1 -0.688083 -0.751205 A284.221 284.221
							 -180 0 0 3.94 499.3" class="st39"/>
				<path d="" class="st39"/>
				<path d="M0.12 499.98 L0 496.78" class="st39"/>
				<path d="" class="st39"/>
			</g>
			<g id="shape253-388" v:mID="253" v:groupContext="shape" transform="translate(13.3754,-19.4867)">
				<title>工作表.253</title>
				<path d="M2.78 505.92 A1.22943 1.22943 0 0 1 1.86 507.36 A1.25027 1.25027 0 0 1 0.2 506.9 A1.2304 1.2304 0 0 1 1.12
							 505.46 A1.2503 1.2503 0 0 1 2.78 505.92 Z" class="st42"/>
			</g>
			<g id="shape254-391" v:mID="254" v:groupContext="shape" transform="translate(12.6987,-18.4995)">
				<title>工作表.254</title>
				<path d="M2.71 505.77 A1.22556 1.22556 0 0 1 1.94 507.29 A1.2441 1.2441 0 0 1 0.25 507.03 A1.22649 1.22649 0 0 1
							 1.02 505.52 A1.24319 1.24319 0 0 1 2.71 505.77 Z" class="st42"/>
			</g>
			<g id="shape255-394" v:mID="255" v:groupContext="shape" transform="translate(10.9208,-18.1778)">
				<title>工作表.255</title>
				<path d="M3.25 505.83 A1.35058 1.35058 -180 0 0 2.31 505.37 L0.07 506.59 L0 507.63 L3.25 505.83 ZM8.63 502.27 L5.06
							 504.36 a0.922463 0.922463 -180 0 0 -0.663502 -0.347846 a0.321326 0.321326 0 0 1 0.192329 -0.37988 A240.86
							 240.86 -180 0 0 7.81 501.78 L8.63 502.27 Z" class="st43"/>
			</g>
			<g id="shape256-396" v:mID="256" v:groupContext="shape" transform="translate(11.0125,-16.5079)">
				<title>工作表.256</title>
				<path d="M0 505.93 L3.16 504.16 A1.39048 1.39048 0 0 1 3.22 505.69 L0.12 507.63 L0 505.93 ZM8.54 500.62 L4.93 502.66
							 A1.01933 1.01933 0 0 1 4.77 504.05 a0.858413 0.858413 -180 0 0 1.19707 -0.176997 L8.62 502.34 L8.54
							 500.62 Z" class="st41"/>
				<path d="M0 505.93 L3.16 504.16 A1.39048 1.39048 0 0 1 3.22 505.69 L0.12 507.63M8.54 500.62 L4.93 502.66 A1.01933
							 1.01933 0 0 1 4.77 504.05 a0.858413 0.858413 -180 0 0 1.19707 -0.176997 L8.62 502.34 L8.54 500.62"
						class="st30"/>
			</g>
			<g id="shape257-399" v:mID="257" v:groupContext="shape" transform="translate(3.54189,-2.73827)">
				<title>工作表.257</title>
				<path d="M2.69 485.74 A2.64769 2.64769 0 0 1 1.78 483.69 A2.18454 2.18454 0 0 1 3.84 481.15 A2.40206 2.40206 0 0
							 1 5.93 483.69 A2.53349 2.53349 0 0 1 4.8 485.86 L4.8 486.25 A4.49069 4.49069 0 0 1 5.76 486.91 A4.41438
							 4.41438 0 0 1 7.38 489.87 A107.871 107.871 0 0 1 7.46 491.16 L9.42 490.02 a0.384521 0.384521 0 0 1 0.483115
							 -0.0967036 L10.07 489.86 A1.64117 1.64117 0 0 1 10.4 489.1 A1.55469 1.55469 0 0 1 11.78 488.57 a0.192735
							 0.192735 0 0 1 0.0844328 -0.305495 A366.903 366.903 0 0 1 15.15 486.32 L15.29 484 a0.934867 0.934867
							 0 0 1 0.499154 -1.07072 L17.66 481.97 A2.5725 2.5725 0 0 1 16.72 479.87 A2.27187 2.27187 0 0 1 18.79
							 477.39 A2.33851 2.33851 0 0 1 20.87 479.87 A2.4344 2.4344 0 0 1 19.99 481.9 L19.95 482.14 A10.5654 10.5654
							 -180 0 0 21.06 482.94 A4.03272 4.03272 0 0 1 22.65 485.9 A422.187 422.187 -180 0 0 22.59 493.44 a0.491579
							 0.491579 0 0 1 -0.277137 0.505619 A1.77607 1.77607 0 0 1 22.16 495.76 L21.89 500.71 L21.89 502.16 L18.26
							 504.22 L17.02 503.42 a0.323646 0.323646 0 0 1 -0.142478 -0.541669 L16.36 503.08 L15.04 502.36 A4.44474
							 4.44474 0 0 1 15.04 501.9 A48.0779 48.0779 -180 0 0 16.69 500.08 L15.96 488.64 A23.7922 23.9371 0 0
							 1 12.9 490.42 a0.743973 0.743973 0 0 1 -0.601985 -0.0815347 L12.06 490.48 A1.90982 1.90982 0 0 1 10.79
							 491.63 L10.7 491.93 L7.61 493.96 L7.3 494.17 A357.113 359.286 -180 0 0 6.72 503.79 A3.62677 3.62677
							 0 0 1 9 504.97 L9.01 505.18 L4.67 507.63 L3.46 506.88 L3.49 506.19 L2.7 506.59 L1.3 505.77 A62.5688
							 62.9497 -180 0 0 1.22 498.4 A1.15011 1.15011 0 0 1 0.42 496.65 a0.850941 0.850941 0 0 1 -0.415184 -0.386383
							 A530.427 530.427 0 0 1 0.21 487.24 A11.9421 11.9421 -180 0 0 0.67 486.85 L2.69 485.74 Z" class="st44"/>
			</g>
		</g>
	</g>
</svg>
