<?xml version="1.0" encoding="UTF-8" standalone="no"?>
<!DOCTYPE svg PUBLIC "-//W3C//DTD SVG 1.1//EN" "http://www.w3.org/Graphics/SVG/1.1/DTD/svg11.dtd">
<!-- 由 Microsoft Visio, SVG Export 生成 rvant_ex_stage.svg EX stage -->
<svg xmlns="http://www.w3.org/2000/svg" xmlns:xlink="http://www.w3.org/1999/xlink" xmlns:ev="http://www.w3.org/2001/xml-events"
		xmlns:v="http://schemas.microsoft.com/visio/2003/SVGExtensions/" width="10.3223in" height="8.66462in"
		viewBox="0 0 743.206 623.852" xml:space="preserve" color-interpolation-filters="sRGB" class="st41">
	<v:documentProperties v:langID="2052" v:metric="true" v:viewMarkup="false">
		<v:userDefs>
			<v:ud v:nameU="msvSubprocessMaster" v:prompt="" v:val="VT4(Rectangle)"/>
			<v:ud v:nameU="msvNoAutoConnect" v:val="VT0(1):26"/>
		</v:userDefs>
	</v:documentProperties>

	<style type="text/css">
	<![CDATA[
		.st1 {visibility:visible}
		.st2 {fill:#bdd0e9;fill-opacity:0.22;filter:url(#filter_2);stroke:#bdd0e9;stroke-opacity:0.22}
		.st3 {fill:#d8d8d8;stroke:#c7c8c8;stroke-width:0.25}
		.st4 {fill:#5b9bd5;fill-opacity:0.22;filter:url(#filter_2);stroke:#5b9bd5;stroke-opacity:0.22}
		.st5 {fill:#5b9bd5;stroke:#c7c8c8;stroke-width:0.25}
		.st6 {fill:#feffff;font-family:Calibri;font-size:1.16666em}
		.st7 {marker-end:url(#mrkr4-17);stroke:#5b9bd5;stroke-linecap:round;stroke-linejoin:round;stroke-width:1.5}
		.st8 {fill:#5b9bd5;fill-opacity:1;stroke:#5b9bd5;stroke-opacity:1;stroke-width:0.37313432835821}
		.st9 {fill:none;stroke:none;stroke-width:0.25}
		.st10 {fill:#5b9bd5;font-family:Calibri;font-size:1.99999em;font-weight:bold}
		.st11 {fill:#5b9bd5;font-family:Calibri;font-size:1.00001em}
		.st12 {fill:#5b9bd5;fill-opacity:0.22;filter:url(#filter_2);stroke:none;stroke-linecap:round;stroke-linejoin:round}
		.st13 {fill:#000000;fill-opacity:0;stroke:none;stroke-linecap:round;stroke-linejoin:round;stroke-width:0.75}
		.st14 {fill:url(#grad7-33);stroke:none;stroke-linecap:round;stroke-linejoin:round;stroke-width:0.75}
		.st15 {fill:#5b9bd5;stroke:none;stroke-linecap:round;stroke-linejoin:round;stroke-width:0.75}
		.st16 {fill:url(#grad0-39)}
		.st17 {stroke:none;stroke-linecap:round;stroke-linejoin:round;stroke-width:0.75}
		.st18 {fill:url(#grad0-44)}
		.st19 {fill:url(#grad0-49)}
		.st20 {fill:url(#grad3-54)}
		.st21 {fill:none}
		.st22 {stroke:#996633;stroke-linecap:round;stroke-linejoin:round;stroke-width:0.130208}
		.st23 {fill:url(#grad1-62);stroke:none;stroke-linecap:round;stroke-linejoin:round;stroke-width:0.75}
		.st24 {fill:url(#grad10-75)}
		.st25 {fill:#4974ba;stroke:none;stroke-linecap:round;stroke-linejoin:round;stroke-width:0.75}
		.st26 {stroke:#1e4182;stroke-linecap:round;stroke-linejoin:round;stroke-width:0.130208}
		.st27 {fill:none;stroke:#b3732d;stroke-linecap:butt;stroke-width:0.130208}
		.st28 {fill:#5b9bd5}
		.st29 {fill:url(#grad2-105);stroke:none;stroke-linecap:round;stroke-linejoin:round;stroke-width:0.75}
		.st30 {fill:#ffffff;stroke:none;stroke-linecap:round;stroke-linejoin:round;stroke-width:0.75}
		.st31 {fill:none;stroke:#c8c8c8;stroke-width:0.25}
		.st32 {stroke:#5b9bd5;stroke-width:4.5}
		.st33 {fill:#feffff;font-family:Calibri;font-size:1.99999em;font-weight:bold}
		.st34 {marker-end:url(#mrkr4-185);stroke:#5b9bd5;stroke-linecap:round;stroke-linejoin:round;stroke-width:1}
		.st35 {fill:#5b9bd5;fill-opacity:1;stroke:#5b9bd5;stroke-opacity:1;stroke-width:0.28409090909091}
		.st36 {marker-end:url(#mrkr13-219);marker-start:url(#mrkr13-217);stroke:#5b9bd5;stroke-linecap:round;stroke-linejoin:round;stroke-width:1.5}
		.st37 {fill:url(#grad0-228)}
		.st38 {stroke:#4f87bb;stroke-width:0.75}
		.st39 {fill:#4f87bb;font-family:Calibri;font-size:1.16666em}
		.st40 {marker-end:url(#mrkr13-219);marker-start:url(#mrkr13-269);stroke:#5b9bd5;stroke-linecap:round;stroke-linejoin:round;stroke-width:1.5}
		.st41 {fill:none;fill-rule:evenodd;font-size:12px;overflow:visible;stroke-linecap:square;stroke-miterlimit:3}
	]]>
	</style>

	<defs id="Patterns_And_Gradients">
		<radialGradient id="grad7-33" cx="0" cy="0" r="1.4">
			<stop offset="0" stop-color="#dcf1fa" stop-opacity="1"/>
			<stop offset="1" stop-color="#5b9bd5" stop-opacity="1"/>
		</radialGradient>
		<linearGradient id="grad0-39" x1="0" y1="0" x2="1" y2="0" gradientTransform="rotate(0 0.5 0.5)">
			<stop offset="0" stop-color="#f7f3e8" stop-opacity="1"/>
			<stop offset="1" stop-color="#a8dbf0" stop-opacity="1"/>
		</linearGradient>
		<linearGradient id="grad0-44" x1="0" y1="0" x2="1" y2="0" gradientTransform="rotate(0 0.5 0.5)">
			<stop offset="0" stop-color="#a8dbf0" stop-opacity="1"/>
			<stop offset="1" stop-color="#5b9bd5" stop-opacity="1"/>
		</linearGradient>
		<linearGradient id="grad0-49" x1="0" y1="0" x2="1" y2="0" gradientTransform="rotate(0 0.5 0.5)">
			<stop offset="0" stop-color="#5b9bd5" stop-opacity="1"/>
			<stop offset="1" stop-color="#4974ba" stop-opacity="1"/>
		</linearGradient>
		<radialGradient id="grad3-54" cx="0.5" cy="0.5" r="0.73">
			<stop offset="0" stop-color="#ffffff" stop-opacity="1"/>
			<stop offset="1" stop-color="#da8c36" stop-opacity="1"/>
		</radialGradient>
		<radialGradient id="grad1-62" cx="1" cy="1" r="1.4">
			<stop offset="0" stop-color="#ffffff" stop-opacity="1"/>
			<stop offset="1" stop-color="#da8c36" stop-opacity="1"/>
		</radialGradient>
		<pattern id="grad10-75" x="0" y="0" width="1" height="1" patternContentUnits="objectBoundingBox">
			<path d="M 0.5 0.5 L 0 0 L 0 1 z" style="fill:url(#grad0-76)"/>
			<path d="M 0.5 0.5 L 1 0 L 1 1 z" style="fill:url(#grad0-77)"/>
			<path d="M 0.5 0.5 L 0 0 L 1 0 z" style="fill:url(#grad0-78)"/>
			<path d="M 0.5 0.5 L 0 1 L 1 1 z" style="fill:url(#grad0-79)"/>
		</pattern>
		<linearGradient id="grad0-76" x1="0" y1="0" x2="1" y2="0" gradientTransform="rotate(180 0.5 0.5)">
			<stop offset="0" stop-color="#a8dbf0" stop-opacity="1"/>
			<stop offset="1" stop-color="#5b9bd5" stop-opacity="1"/>
		</linearGradient>
		<linearGradient id="grad0-77" x1="0" y1="0" x2="1" y2="0" gradientTransform="rotate(360 0.5 0.5)">
			<stop offset="0" stop-color="#a8dbf0" stop-opacity="1"/>
			<stop offset="1" stop-color="#5b9bd5" stop-opacity="1"/>
		</linearGradient>
		<linearGradient id="grad0-78" x1="0" y1="0" x2="1" y2="0" gradientTransform="rotate(270 0.5 0.5)">
			<stop offset="0" stop-color="#a8dbf0" stop-opacity="1"/>
			<stop offset="1" stop-color="#5b9bd5" stop-opacity="1"/>
		</linearGradient>
		<linearGradient id="grad0-79" x1="0" y1="0" x2="1" y2="0" gradientTransform="rotate(90 0.5 0.5)">
			<stop offset="0" stop-color="#a8dbf0" stop-opacity="1"/>
			<stop offset="1" stop-color="#5b9bd5" stop-opacity="1"/>
		</linearGradient>
		<radialGradient id="grad2-105" cx="0" cy="1" r="1.4">
			<stop offset="0" stop-color="#ffffff" stop-opacity="1"/>
			<stop offset="1" stop-color="#da8c36" stop-opacity="1"/>
		</radialGradient>
		<linearGradient id="grad0-228" x1="0" y1="0" x2="1" y2="0" gradientTransform="rotate(60 0.5 0.5)">
			<stop offset="0" stop-color="#e9eff7" stop-opacity="1"/>
			<stop offset="0.24" stop-color="#f4f7fb" stop-opacity="1"/>
			<stop offset="0.54" stop-color="#feffff" stop-opacity="1"/>
		</linearGradient>
	</defs>
	<defs id="Markers">
		<g id="lend4">
			<path d="M 2 1 L 0 0 L 2 -1 L 2 1 " style="stroke:none"/>
		</g>
		<marker id="mrkr4-17" class="st8" v:arrowType="4" v:arrowSize="2" v:setback="5.36" refX="-5.36" orient="auto"
				markerUnits="strokeWidth" overflow="visible">
			<use xlink:href="#lend4" transform="scale(-2.68,-2.68) "/>
		</marker>
		<marker id="mrkr4-185" class="st35" v:arrowType="4" v:arrowSize="2" v:setback="7.04" refX="-7.04" orient="auto"
				markerUnits="strokeWidth" overflow="visible">
			<use xlink:href="#lend4" transform="scale(-3.52,-3.52) "/>
		</marker>
		<g id="lend13">
			<path d="M 3 1 L 0 0 L 3 -1 L 3 1 " style="stroke:none"/>
		</g>
		<marker id="mrkr13-217" class="st8" v:arrowType="13" v:arrowSize="2" v:setback="7.8" refX="7.8" orient="auto"
				markerUnits="strokeWidth" overflow="visible">
			<use xlink:href="#lend13" transform="scale(2.68) "/>
		</marker>
		<marker id="mrkr13-219" class="st8" v:arrowType="13" v:arrowSize="2" v:setback="8.04" refX="-8.04" orient="auto"
				markerUnits="strokeWidth" overflow="visible">
			<use xlink:href="#lend13" transform="scale(-2.68,-2.68) "/>
		</marker>
		<marker id="mrkr13-269" class="st8" v:arrowType="13" v:arrowSize="2" v:setback="0" refX="0" orient="auto"
				markerUnits="strokeWidth" overflow="visible">
			<use xlink:href="#lend13" transform="scale(2.68) "/>
		</marker>
	</defs>
	<defs id="Filters">
		<filter id="filter_2">
			<feGaussianBlur stdDeviation="2"/>
		</filter>
	</defs>
	<g v:mID="9" v:index="4" v:groupContext="foregroundPage">
		<v:userDefs>
			<v:ud v:nameU="msvThemeOrder" v:val="VT0(0):26"/>
		</v:userDefs>
		<title>EX stage</title>
		<v:pageProperties v:drawingScale="0.0393701" v:pageScale="0.0393701" v:drawingUnits="24" v:shadowOffsetX="8.50394"
				v:shadowOffsetY="-8.50394"/>
		<v:layer v:name="电气" v:index="0"/>
		<v:layer v:name="连接线" v:index="1"/>
		<v:layer v:name="流程图" v:index="2"/>
		<g id="shape194-1" v:mID="194" v:groupContext="shape" transform="translate(287.717,-136.734)">
			<title>矩形.194</title>
			<v:userDefs>
				<v:ud v:nameU="visVersion" v:val="VT0(15):26"/>
			</v:userDefs>
			<g id="shadow194-2" v:groupContext="shadow" v:shadowOffsetX="0.345598" v:shadowOffsetY="-1.97279" v:shadowType="1"
					transform="matrix(1,0,0,1,0.345598,1.97279)" class="st1">
				<rect x="0" y="156.136" width="433.769" height="467.717" class="st2"/>
			</g>
			<rect x="0" y="156.136" width="433.769" height="467.717" class="st3"/>
		</g>
		<g id="shape246-6" v:mID="246" v:groupContext="shape" transform="translate(387.057,-397.934)">
			<title>矩形.246</title>
			<desc>ALU</desc>
			<v:userDefs>
				<v:ud v:nameU="visVersion" v:val="VT0(15):26"/>
			</v:userDefs>
			<v:textBlock v:margins="rect(4,4,4,4)" v:tabSpace="42.5197"/>
			<v:textRect cx="34.9056" cy="606.136" width="69.82" height="35.4331"/>
			<g id="shadow246-7" v:groupContext="shadow" v:shadowOffsetX="0.345598" v:shadowOffsetY="-1.97279" v:shadowType="1"
					transform="matrix(1,0,0,1,0.345598,1.97279)" class="st1">
				<rect x="0" y="588.419" width="69.8112" height="35.4331" class="st4"/>
			</g>
			<rect x="0" y="588.419" width="69.8112" height="35.4331" class="st5"/>
			<text x="23.42" y="610.34" class="st6" v:langID="2052"><v:paragraph v:horizAlign="1"/><v:tabList/>ALU</text>		</g>
		<g id="shape276-12" v:mID="276" v:groupContext="shape" v:layerMember="1" transform="translate(331.76,-407.862)">
			<title>动态连接线.276</title>
			<path d="M0 617.47 L0 616.06 L47.26 616.06" class="st7"/>
		</g>
		<g id="shape277-18" v:mID="277" v:groupContext="shape" transform="translate(603.877,-150.907)">
			<title>工作表.277</title>
			<desc>EX stage</desc>
			<v:textBlock v:margins="rect(4,4,4,4)" v:tabSpace="42.5197"/>
			<v:textRect cx="46.7417" cy="606.136" width="93.49" height="35.4331"/>
			<rect x="0" y="588.419" width="93.4834" height="35.4331" class="st9"/>
			<text x="4.96" y="613.34" class="st10" v:langID="2052"><v:paragraph v:horizAlign="1"/><v:tabList/>EX stage</text>		</g>
		<g id="shape282-21" v:mID="282" v:groupContext="shape" transform="translate(250.934,-306.812)">
			<title>工作表.282</title>
			<desc>scoreboard_t</desc>
			<v:textBlock v:margins="rect(4,4,4,4)" v:tabSpace="42.5197"/>
			<v:textRect cx="37.2586" cy="612.514" width="74.52" height="22.6772"/>
			<rect x="0" y="601.175" width="74.5172" height="22.6772" class="st9"/>
			<text x="4.7" y="616.11" class="st11" v:langID="2052"><v:paragraph v:horizAlign="1"/><v:tabList/>scoreboard_t</text>		</g>
		<g id="group322-24" transform="translate(246.614,-259.32)" v:mID="322" v:groupContext="group">
			<v:userDefs>
				<v:ud v:nameU="SkinColor" v:prompt="" v:val="VT5(#da8c36)"/>
				<v:ud v:nameU="visVersion" v:prompt="" v:val="VT0(15):26"/>
			</v:userDefs>
			<title>协议.322</title>
			<g id="shape323-25" v:mID="323" v:groupContext="shape" transform="translate(3.58062,-2.7334)">
				<title>工作表.323</title>
				<g id="shadow323-26" v:groupContext="shadow" v:shadowOffsetX="0.3456" v:shadowOffsetY="-1.9728" v:shadowType="1"
						transform="matrix(1,0,0,1,0.3456,1.9728)" class="st1">
					<path d="M2.69 601.96 A2.6409 2.6409 0 0 1 1.78 599.91 A2.18531 2.18531 0 0 1 3.84 597.37 A2.39231 2.39231 0
								 0 1 5.93 599.91 A2.53234 2.53234 0 0 1 4.8 602.08 L4.8 602.48 A4.49339 4.49339 0 0 1 5.76 603.13
								 A4.49666 4.49666 0 0 1 7.38 606.09 A88.512 88.512 0 0 1 7.46 607.38 L9.42 606.24 a0.246909 0.246909
								 0 0 1 0.483115 -0.0967036 L10.07 606.08 A1.6048 1.6048 0 0 1 10.4 605.32 A1.61312 1.61312 0 0 1
								 11.78 604.79 a0.187573 0.187573 0 0 1 0.0844328 -0.305495 A386.21 386.21 0 0 1 15.15 602.54 L15.29
								 600.22 a0.84988 0.84988 0 0 1 0.499154 -1.07072 L17.66 598.19 A2.57247 2.57247 0 0 1 16.72 596.09
								 A2.26571 2.26571 0 0 1 18.79 593.61 A2.28311 2.28311 0 0 1 20.87 596.09 A2.41319 2.41319 0 0 1 19.99
								 598.12 L19.95 598.36 A10.534 10.534 -180 0 0 21.06 599.16 A4.17429 4.17429 0 0 1 22.65 602.12 A254.513
								 254.513 -180 0 0 22.59 609.66 a0.456213 0.456213 0 0 1 -0.277137 0.505619 A1.84357 1.84357 0 0 1
								 22.16 611.98 L21.89 616.93 L21.89 618.38 L18.26 620.44 L17.02 619.64 a0.326892 0.326892 0 0 1 -0.142478
								 -0.541669 L16.36 619.3 L15.04 618.58 A2.34473 2.34473 0 0 1 15.04 618.12 A45.5285 45.5285 -180 0
								 0 16.69 616.3 L15.96 604.86 A23.7922 23.9371 0 0 1 12.9 606.64 a0.553323 0.553323 0 0 1 -0.601985
								 -0.0815347 L12.06 606.7 A1.70999 1.70999 0 0 1 10.79 607.85 L10.7 608.15 L7.61 610.18 L7.3 610.39
								 A357.113 359.286 -180 0 0 6.72 620.01 A3.5854 3.5854 0 0 1 9 621.19 L9.01 621.4 L4.67 623.85 L3.46
								 623.1 L3.49 622.41 L2.7 622.81 L1.3 621.99 A62.5688 62.9497 -180 0 0 1.22 614.62 A1.21205 1.21205
								 0 0 1 0.42 612.87 a0.813438 0.813438 0 0 1 -0.415184 -0.386383 A585.166 585.166 0 0 1 0.21 603.46
								 A3.31761 3.31761 -180 0 0 0.67 603.07 L2.69 601.96 Z" class="st12"/>
				</g>
				<path d="M2.69 601.96 A2.6409 2.6409 0 0 1 1.78 599.91 A2.18531 2.18531 0 0 1 3.84 597.37 A2.39231 2.39231 0 0 1
							 5.93 599.91 A2.53234 2.53234 0 0 1 4.8 602.08 L4.8 602.48 A4.49339 4.49339 0 0 1 5.76 603.13 A4.49666
							 4.49666 0 0 1 7.38 606.09 A88.512 88.512 0 0 1 7.46 607.38 L9.42 606.24 a0.246909 0.246909 0 0 1 0.483115
							 -0.0967036 L10.07 606.08 A1.6048 1.6048 0 0 1 10.4 605.32 A1.61312 1.61312 0 0 1 11.78 604.79 a0.187573
							 0.187573 0 0 1 0.0844328 -0.305495 A386.21 386.21 0 0 1 15.15 602.54 L15.29 600.22 a0.84988 0.84988
							 0 0 1 0.499154 -1.07072 L17.66 598.19 A2.57247 2.57247 0 0 1 16.72 596.09 A2.26571 2.26571 0 0 1 18.79
							 593.61 A2.28311 2.28311 0 0 1 20.87 596.09 A2.41319 2.41319 0 0 1 19.99 598.12 L19.95 598.36 A10.534
							 10.534 -180 0 0 21.06 599.16 A4.17429 4.17429 0 0 1 22.65 602.12 A254.513 254.513 -180 0 0 22.59 609.66
							 a0.456213 0.456213 0 0 1 -0.277137 0.505619 A1.84357 1.84357 0 0 1 22.16 611.98 L21.89 616.93 L21.89
							 618.38 L18.26 620.44 L17.02 619.64 a0.326892 0.326892 0 0 1 -0.142478 -0.541669 L16.36 619.3 L15.04
							 618.58 A2.34473 2.34473 0 0 1 15.04 618.12 A45.5285 45.5285 -180 0 0 16.69 616.3 L15.96 604.86 A23.7922
							 23.9371 0 0 1 12.9 606.64 a0.553323 0.553323 0 0 1 -0.601985 -0.0815347 L12.06 606.7 A1.70999 1.70999
							 0 0 1 10.79 607.85 L10.7 608.15 L7.61 610.18 L7.3 610.39 A357.113 359.286 -180 0 0 6.72 620.01 A3.5854
							 3.5854 0 0 1 9 621.19 L9.01 621.4 L4.67 623.85 L3.46 623.1 L3.49 622.41 L2.7 622.81 L1.3 621.99 A62.5688
							 62.9497 -180 0 0 1.22 614.62 A1.21205 1.21205 0 0 1 0.42 612.87 a0.813438 0.813438 0 0 1 -0.415184 -0.386383
							 A585.166 585.166 0 0 1 0.21 603.46 A3.31761 3.31761 -180 0 0 0.67 603.07 L2.69 601.96 Z" class="st13"/>
			</g>
			<g id="shape324-30" v:mID="324" v:groupContext="shape" transform="translate(18.5693,-6.15625)">
				<title>工作表.324</title>
				<path d="M5.75 608.33 A5.25308 5.25308 -180 0 0 2.76 602.86 A1.59564 1.59564 -180 0 0 0.4 602.92 A18.4129 18.4129
							 -180 0 0 0.12 606.02 L0.95 608.36 L1.17 610.6 L1.23 612.94 L1.66 619.71 L0 621.53 L0 621.99 L1.33 622.71
							 L1.84 622.5 L1.76 622.82 L3.22 623.85 L5.06 621.38 L5.46 613.8 L5.69 613.85 A228.87 228.87 -180 0 0
							 5.75 608.33 Z" class="st14"/>
			</g>
			<g id="shape325-34" v:mID="325" v:groupContext="shape" transform="translate(19.7814,-7.2836)">
				<title>工作表.325</title>
				<path d="M0.9 623.41 L0.09 623.85 A1.12337 1.12337 0 0 1 0.05 623.35 A5.83133 5.83133 0 0 1 1.66 621.56 L1.89 613.86
							 L2.32 614.12 L2.5 621.75 A22.9692 22.9692 -180 0 0 0.9 623.41 Z" class="st15"/>
			</g>
			<g id="shape326-36" v:mID="326" v:groupContext="shape" transform="translate(19.4544,-24.0925)">
				<title>工作表.326</title>
				<path d="M4.57 623.85 A4.67888 4.67888 -180 0 0 3.09 621.68 A3.48095 3.48095 -180 0 0 0 620.51 L2.06 619.35 A3.48095
							 3.48095 0 0 1 5.14 620.51 A4.69619 4.69619 0 0 1 6.61 622.65 L4.57 623.85 Z" class="st16"/>
				<path d="M4.57 623.85 A4.67888 4.67888 -180 0 0 3.09 621.68 A3.48095 3.48095 -180 0 0 0 620.51 L2.06 619.35 A3.48095
							 3.48095 0 0 1 5.14 620.51 A4.69619 4.69619 0 0 1 6.61 622.65" class="st17"/>
			</g>
			<g id="shape327-41" v:mID="327" v:groupContext="shape" transform="translate(24.0204,-16.1085)">
				<title>工作表.327</title>
				<path d="M2.05 614.66 A4.30888 4.30888 0 0 1 2.17 615.49 A213.063 213.063 0 0 1 2.08 623.24 A2.37488 2.37488 0 0
							 1 0.2 623.83 A594.524 594.524 -180 0 0 0.14 616.62 A3.81341 3.81341 -180 0 0 0.01 615.91 L0 615.87 A1.65959
							 1.65959 0 0 1 2.04 614.66 L2.05 614.66 Z" class="st18"/>
				<path d="M2.05 614.66 A4.30888 4.30888 0 0 1 2.17 615.49 A213.063 213.063 0 0 1 2.08 623.24 A2.37488 2.37488 0 0
							 1 0.2 623.83 A594.524 594.524 -180 0 0 0.14 616.62 A3.81341 3.81341 -180 0 0 0.01 615.91 L0 615.87 A1.65959
							 1.65959 0 0 1 2.04 614.66" class="st17"/>
			</g>
			<g id="shape328-46" v:mID="328" v:groupContext="shape" transform="translate(21.1078,-27.3066)">
				<title>工作表.328</title>
				<path d="M0.06 622.78 L0.07 623.29 a0.854449 0.854449 -180 0 0 1.00538 0.452038 A2.26502 2.26502 -180 0 0 2.39 623.57
							 L2.38 622.6 A2.03671 2.03671 0 0 1 0.1 622.76 L0.06 622.78 Z" class="st19"/>
				<path d="M0.06 622.78 L0.07 623.29 a0.854449 0.854449 -180 0 0 1.00538 0.452038 A2.26502 2.26502 -180 0 0 2.39 623.57
							 L2.38 622.6 A2.03671 2.03671 0 0 1 0.1 622.76" class="st17"/>
			</g>
			<g id="shape329-51" v:mID="329" v:groupContext="shape" transform="translate(20.2623,-28.0152)">
				<title>工作表.329</title>
				<path d="M4.15 621.37 A2.30562 2.30562 0 0 1 2.07 623.85 A2.30562 2.30562 0 0 1 -0 621.37 A2.30583 2.30583 0 0 1
							 2.07 618.89 A2.30562 2.30562 0 0 1 4.15 621.37 L-1.04 617.65 L4.15 621.37 Z" class="st20"/>
				<path d="M4.15 621.37 A2.30562 2.30562 0 0 1 2.07 623.85 A2.30562 2.30562 0 0 1 -0 621.37 A2.30583 2.30583 0 0 1
							 2.07 618.89 A2.30562 2.30562 0 0 1 4.15 621.37" class="st17"/>
			</g>
			<g id="shape330-56" v:mID="330" v:groupContext="shape" transform="translate(20.8557,-28.0139)">
				<title>工作表.330</title>
				<path d="M2.83 623.3 A1.89246 1.89246 0 0 1 1.52 623.85 A1.96096 1.96096 0 0 1 0 623.08 L2.83 623.3 Z" class="st21"/>
				<path d="M2.83 623.3 A1.89246 1.89246 0 0 1 1.52 623.85 A1.96096 1.96096 0 0 1 0 623.08" class="st22"/>
			</g>
			<g id="shape331-59" v:mID="331" v:groupContext="shape" transform="translate(3.82266,-12.0124)">
				<title>工作表.331</title>
				<path d="M0.84 621.63 a0.988767 0.988767 0 0 1 0.824312 1.10664 A1.01408 1.01408 0 0 1 0.83 623.85 a0.988062 0.988062
							 0 0 1 -0.824634 -1.10599 A1.01427 1.01427 0 0 1 0.84 621.63 Z" class="st23"/>
			</g>
			<g id="shape332-63" v:mID="332" v:groupContext="shape" transform="translate(3.54189,-2.74833)">
				<title>工作表.332</title>
				<path d="M1.28 622 L1.34 620.5 A154.243 155.182 -180 0 0 1.15 613.12 A2.02787 2.02787 0 0 1 -0 612.49 L0.21 603.47
							 L0.91 602.89 L3.53 603.8 L5.53 606.37 L5.65 609.52 L5.65 612.03 L4.64 623.85 L3.39 623.1 L3.42 622.33
							 L2.67 622.81 L1.28 622 Z" class="st14"/>
			</g>
			<g id="shape333-66" v:mID="333" v:groupContext="shape" transform="translate(6.23609,-3.78734)">
				<title>工作表.333</title>
				<path d="M0.8 623.35 A4.68326 4.68326 0 0 1 0 623.85 L0.1 622.34 L0.29 614.44 L0.72 614.69 L0.87 622.41 A10.8866
							 10.8866 -180 0 0 0.8 623.35 Z" class="st15"/>
			</g>
			<g id="shape334-68" v:mID="334" v:groupContext="shape" transform="translate(4.14074,-20.1148)">
				<title>工作表.334</title>
				<path d="M4.57 623.85 A4.67509 4.67509 -180 0 0 3.09 621.68 A3.48191 3.48191 -180 0 0 0 620.51 L2.06 619.35 A3.48095
							 3.48095 0 0 1 5.14 620.51 A4.69467 4.69467 0 0 1 6.61 622.65 L4.57 623.85 Z" class="st16"/>
				<path d="M4.57 623.85 A4.67509 4.67509 -180 0 0 3.09 621.68 A3.48191 3.48191 -180 0 0 0 620.51 L2.06 619.35 A3.48095
							 3.48095 0 0 1 5.14 620.51 A4.69467 4.69467 0 0 1 6.61 622.65" class="st17"/>
			</g>
			<g id="shape335-72" v:mID="335" v:groupContext="shape" transform="translate(8.70678,-15.1058)">
				<title>工作表.335</title>
				<path d="M2.05 617.64 A3.85726 3.85726 0 0 1 2.2 618.43 A484.473 484.473 0 0 1 2.43 622.54 L0.27 623.85 A18.8384
							 18.8384 -180 0 0 0.14 619.59 A6.58741 6.58741 -180 0 0 0.01 618.88 L0 618.84 A1.65991 1.65991 0 0 1
							 2.04 617.63 L2.05 617.64 Z" class="st24"/>
				<path d="M2.05 617.64 A3.85726 3.85726 0 0 1 2.2 618.43 A484.473 484.473 0 0 1 2.43 622.54 L0.27 623.85 A18.8384
							 18.8384 -180 0 0 0.14 619.59 A6.58741 6.58741 -180 0 0 0.01 618.88 L0 618.84 A1.65991 1.65991 0 0 1
							 2.04 617.63" class="st17"/>
			</g>
			<g id="shape336-81" v:mID="336" v:groupContext="shape" transform="translate(9.97975,-5.30298)">
				<title>工作表.336</title>
				<path d="M0.27 622.57 A4.15402 4.15402 0 0 1 2.28 623.52 L0.06 623.85 L0 622.63 L0.27 622.57 Z" class="st25"/>
			</g>
			<g id="shape337-83" v:mID="337" v:groupContext="shape" transform="translate(6.08686,-23.4958)">
				<title>工作表.337</title>
				<path d="M0.06 622.69 L0.06 623.24 a0.811725 0.811725 -180 0 0 0.950066 0.48925 A1.89488 1.89488 -180 0 0 2.26 623.54
							 L2.25 622.49 A1.74403 1.74403 0 0 1 0.09 622.66 L0.06 622.69 Z" class="st19"/>
				<path d="M0.06 622.69 L0.06 623.24 a0.811725 0.811725 -180 0 0 0.950066 0.48925 A1.89488 1.89488 -180 0 0 2.26 623.54
							 L2.25 622.49 A1.74403 1.74403 0 0 1 0.09 622.66" class="st17"/>
			</g>
			<g id="shape338-87" v:mID="338" v:groupContext="shape" transform="translate(5.30597,-24.2549)">
				<title>工作表.338</title>
				<path d="M4.15 621.37 A2.30531 2.30531 0 0 1 2.07 623.85 A2.30531 2.30531 0 0 1 0 621.37 A2.30635 2.30635 0 0 1 2.07
							 618.89 A2.30615 2.30615 0 0 1 4.15 621.37 L-1.04 617.65 L4.15 621.37 Z" class="st20"/>
				<path d="M4.15 621.37 A2.30531 2.30531 0 0 1 2.07 623.85 A2.30531 2.30531 0 0 1 0 621.37 A2.30635 2.30635 0 0 1 2.07
							 618.89 A2.30615 2.30615 0 0 1 4.15 621.37" class="st17"/>
			</g>
			<g id="shape339-91" v:mID="339" v:groupContext="shape" transform="translate(4.66112,-11.8363)">
				<title>工作表.339</title>
				<path d="M0.07 623.85 L0 615.48 L0.07 623.85 Z" class="st21"/>
				<path d="M0.07 623.85 L0 615.48" class="st26"/>
			</g>
			<g id="shape340-94" v:mID="340" v:groupContext="shape" transform="translate(7.89983,-15.0709)">
				<title>工作表.340</title>
				<path d="M6.33 620.47 A96.13 96.13 0 0 1 1.07 623.77 a0.705889 0.705889 0 0 1 -1.05717 -0.587617 A60.4735 60.4735
							 0 0 1 0.01 620.84" class="st26"/>
			</g>
			<g id="shape341-97" v:mID="341" v:groupContext="shape" transform="translate(5.32173,-24.3213)">
				<title>工作表.341</title>
				<path d="M4.15 621.37 A2.30531 2.30531 0 0 1 2.07 623.85 A2.30531 2.30531 0 0 1 0 621.37 A2.20107 2.20107 0 0 1 2.06
							 618.96 A2.27642 2.27642 0 0 1 4.15 621.37 Z" class="st27"/>
			</g>
			<g id="shape342-99" v:mID="342" v:groupContext="shape" transform="translate(8.20312,-2.74801)">
				<title>工作表.342</title>
				<path d="M0.77 611.44 L0.1 622.14 L0 623.85 L4.3 621.4 a0.341471 0.341471 -180 0 0 -0.399774 -0.436183 A5.31526 5.31526
							 -180 0 0 2 621.03 A241.569 241.569 0 0 1 2.59 610.39 L0.77 611.44 ZM17.54 611.03 L17.22 616.93 L17.22
							 618.38 L13.59 620.44 A1.85955 1.85955 0 0 1 13.55 619.94 A8.05714 8.05714 0 0 1 15.35 617.94 L15.77
							 610.99 L17.54 611.03 Z" class="st28"/>
				<path d="M0.77 611.44 L0.1 622.14 L0 623.85 L4.3 621.4 a0.341471 0.341471 -180 0 0 -0.399774 -0.436183 A5.31526 5.31526
							 -180 0 0 2 621.03 A241.569 241.569 0 0 1 2.59 610.39 L0.77 611.44M17.54 611.03 L17.22 616.93 L17.22
							 618.38 L13.59 620.44 A1.85955 1.85955 0 0 1 13.55 619.94 A8.05714 8.05714 0 0 1 15.35 617.94 L15.77
							 610.99" class="st17"/>
			</g>
			<g id="shape343-102" v:mID="343" v:groupContext="shape" transform="translate(23.922,-14.1156)">
				<title>工作表.343</title>
				<path d="M1.24 621 A1.2445 1.2445 0 0 1 2.08 622.5 A1.27458 1.27458 0 0 1 0.93 623.8 A1.24499 1.24499 0 0 1 0.09
							 622.3 A1.27294 1.27294 0 0 1 1.24 621 Z" class="st29"/>
			</g>
			<g id="shape344-106" v:mID="344" v:groupContext="shape" transform="translate(6.9562,-4.18016)">
				<title>工作表.344</title>
				<path d="M15.15 611.01 L15.33 618.64 A15.9563 15.9563 -180 0 0 13.56 620.46 L15.15 611.01 ZM0 615.08 L0.15 622.8
							 L0.13 623.85 L0 615.08 Z" class="st21"/>
				<path d="M15.15 611.01 L15.33 618.64 A15.9563 15.9563 -180 0 0 13.56 620.46M0 615.08 L0.15 622.8 L0.13 623.85"
						class="st26"/>
			</g>
			<g id="shape345-109" v:mID="345" v:groupContext="shape" transform="translate(19.5097,-14.1469)">
				<title>工作表.345</title>
				<path d="M6.32 623.13 A1.09999 1.09999 0 1 1 4.64 621.78 a0.825751 0.825751 0 0 1 -0.688083 -0.751205 A284.221 284.221
							 -180 0 0 3.94 615.52 L6.32 623.13 Z" class="st21"/>
				<path d="M6.32 623.13 A1.09999 1.09999 0 1 1 4.64 621.78 a0.825751 0.825751 0 0 1 -0.688083 -0.751205 A284.221 284.221
							 -180 0 0 3.94 615.52" class="st26"/>
				<path d="" class="st26"/>
				<path d="M0.12 616.2 L0 613" class="st26"/>
				<path d="" class="st26"/>
			</g>
			<g id="shape346-115" v:mID="346" v:groupContext="shape" transform="translate(13.3754,-19.4867)">
				<title>工作表.346</title>
				<path d="M2.78 622.14 A1.22943 1.22943 0 0 1 1.86 623.58 A1.25027 1.25027 0 0 1 0.2 623.12 A1.2304 1.2304 0 0 1 1.12
							 621.68 A1.2503 1.2503 0 0 1 2.78 622.14 Z" class="st29"/>
			</g>
			<g id="shape347-118" v:mID="347" v:groupContext="shape" transform="translate(12.6987,-18.4995)">
				<title>工作表.347</title>
				<path d="M2.71 621.99 A1.22556 1.22556 0 0 1 1.94 623.51 A1.2441 1.2441 0 0 1 0.25 623.25 A1.22649 1.22649 0 0 1
							 1.02 621.74 A1.24319 1.24319 0 0 1 2.71 621.99 Z" class="st29"/>
			</g>
			<g id="shape348-121" v:mID="348" v:groupContext="shape" transform="translate(10.9208,-18.1778)">
				<title>工作表.348</title>
				<path d="M3.25 622.05 A1.35058 1.35058 -180 0 0 2.31 621.59 L0.07 622.81 L0 623.85 L3.25 622.05 ZM8.63 618.49 L5.06
							 620.58 a0.922463 0.922463 -180 0 0 -0.663502 -0.347846 a0.321326 0.321326 0 0 1 0.192329 -0.37988 A240.86
							 240.86 -180 0 0 7.81 618 L8.63 618.49 Z" class="st30"/>
			</g>
			<g id="shape349-123" v:mID="349" v:groupContext="shape" transform="translate(11.0125,-16.5079)">
				<title>工作表.349</title>
				<path d="M0 622.15 L3.16 620.38 A1.39048 1.39048 0 0 1 3.22 621.91 L0.12 623.85 L0 622.15 ZM8.54 616.84 L4.93 618.88
							 A1.01933 1.01933 0 0 1 4.77 620.27 a0.858413 0.858413 -180 0 0 1.19707 -0.176997 L8.62 618.56 L8.54
							 616.84 Z" class="st28"/>
				<path d="M0 622.15 L3.16 620.38 A1.39048 1.39048 0 0 1 3.22 621.91 L0.12 623.85M8.54 616.84 L4.93 618.88 A1.01933
							 1.01933 0 0 1 4.77 620.27 a0.858413 0.858413 -180 0 0 1.19707 -0.176997 L8.62 618.56 L8.54 616.84"
						class="st17"/>
			</g>
			<g id="shape350-126" v:mID="350" v:groupContext="shape" transform="translate(3.54189,-2.73827)">
				<title>工作表.350</title>
				<path d="M2.69 601.96 A2.64769 2.64769 0 0 1 1.78 599.91 A2.18454 2.18454 0 0 1 3.84 597.37 A2.40206 2.40206 0 0
							 1 5.93 599.91 A2.53349 2.53349 0 0 1 4.8 602.08 L4.8 602.48 A4.49069 4.49069 0 0 1 5.76 603.13 A4.41438
							 4.41438 0 0 1 7.38 606.09 A107.871 107.871 0 0 1 7.46 607.38 L9.42 606.24 a0.384521 0.384521 0 0 1 0.483115
							 -0.0967036 L10.07 606.08 A1.64117 1.64117 0 0 1 10.4 605.32 A1.55469 1.55469 0 0 1 11.78 604.79 a0.192735
							 0.192735 0 0 1 0.0844328 -0.305495 A366.903 366.903 0 0 1 15.15 602.54 L15.29 600.22 a0.934867 0.934867
							 0 0 1 0.499154 -1.07072 L17.66 598.19 A2.5725 2.5725 0 0 1 16.72 596.09 A2.27187 2.27187 0 0 1 18.79
							 593.61 A2.33851 2.33851 0 0 1 20.87 596.09 A2.4344 2.4344 0 0 1 19.99 598.12 L19.95 598.36 A10.5654
							 10.5654 -180 0 0 21.06 599.16 A4.03272 4.03272 0 0 1 22.65 602.12 A422.187 422.187 -180 0 0 22.59 609.66
							 a0.491579 0.491579 0 0 1 -0.277137 0.505619 A1.77607 1.77607 0 0 1 22.16 611.98 L21.89 616.93 L21.89
							 618.38 L18.26 620.44 L17.02 619.64 a0.323646 0.323646 0 0 1 -0.142478 -0.541669 L16.36 619.3 L15.04
							 618.58 A4.44474 4.44474 0 0 1 15.04 618.12 A48.0779 48.0779 -180 0 0 16.69 616.3 L15.96 604.86 A23.7922
							 23.9371 0 0 1 12.9 606.64 a0.743973 0.743973 0 0 1 -0.601985 -0.0815347 L12.06 606.7 A1.90982 1.90982
							 0 0 1 10.79 607.85 L10.7 608.15 L7.61 610.18 L7.3 610.39 A357.113 359.286 -180 0 0 6.72 620.01 A3.62677
							 3.62677 0 0 1 9 621.19 L9.01 621.4 L4.67 623.85 L3.46 623.1 L3.49 622.41 L2.7 622.81 L1.3 621.99 A62.5688
							 62.9497 -180 0 0 1.22 614.62 A1.15011 1.15011 0 0 1 0.42 612.87 a0.850941 0.850941 0 0 1 -0.415184 -0.386383
							 A530.427 530.427 0 0 1 0.21 603.46 A11.9421 11.9421 -180 0 0 0.67 603.07 L2.69 601.96 Z" class="st31"/>
			</g>
		</g>
		<g id="shape351-128" v:mID="351" v:groupContext="shape" transform="translate(387.057,-340.958)">
			<title>矩形.351</title>
			<desc>MUL</desc>
			<v:userDefs>
				<v:ud v:nameU="visVersion" v:val="VT0(15):26"/>
			</v:userDefs>
			<v:textBlock v:margins="rect(4,4,4,4)" v:tabSpace="42.5197"/>
			<v:textRect cx="34.9056" cy="605.994" width="69.82" height="35.7165"/>
			<g id="shadow351-129" v:groupContext="shadow" v:shadowOffsetX="0.345598" v:shadowOffsetY="-1.97279" v:shadowType="1"
					transform="matrix(1,0,0,1,0.345598,1.97279)" class="st1">
				<rect x="0" y="588.136" width="69.8112" height="35.7165" class="st4"/>
			</g>
			<rect x="0" y="588.136" width="69.8112" height="35.7165" class="st5"/>
			<text x="21.49" y="610.19" class="st6" v:langID="2052"><v:paragraph v:horizAlign="1"/><v:tabList/>MUL</text>		</g>
		<g id="shape352-134" v:mID="352" v:groupContext="shape" transform="translate(387.057,-283.982)">
			<title>矩形.352</title>
			<desc>DIV</desc>
			<v:userDefs>
				<v:ud v:nameU="visVersion" v:val="VT0(15):26"/>
			</v:userDefs>
			<v:textBlock v:margins="rect(4,4,4,4)" v:tabSpace="42.5197"/>
			<v:textRect cx="34.9056" cy="605.994" width="69.82" height="35.7165"/>
			<g id="shadow352-135" v:groupContext="shadow" v:shadowOffsetX="0.345598" v:shadowOffsetY="-1.97279" v:shadowType="1"
					transform="matrix(1,0,0,1,0.345598,1.97279)" class="st1">
				<rect x="0" y="588.136" width="69.8112" height="35.7165" class="st4"/>
			</g>
			<rect x="0" y="588.136" width="69.8112" height="35.7165" class="st5"/>
			<text x="24.86" y="610.19" class="st6" v:langID="2052"><v:paragraph v:horizAlign="1"/><v:tabList/>DIV</text>		</g>
		<g id="shape353-140" v:mID="353" v:groupContext="shape" transform="translate(387.057,-170.029)">
			<title>矩形.353</title>
			<desc>LSU</desc>
			<v:userDefs>
				<v:ud v:nameU="visVersion" v:val="VT0(15):26"/>
			</v:userDefs>
			<v:textBlock v:margins="rect(4,4,4,4)" v:tabSpace="42.5197"/>
			<v:textRect cx="34.9056" cy="605.994" width="69.82" height="35.7165"/>
			<g id="shadow353-141" v:groupContext="shadow" v:shadowOffsetX="0.345598" v:shadowOffsetY="-1.97279" v:shadowType="1"
					transform="matrix(1,0,0,1,0.345598,1.97279)" class="st1">
				<rect x="0" y="588.136" width="69.8112" height="35.7165" class="st4"/>
			</g>
			<rect x="0" y="588.136" width="69.8112" height="35.7165" class="st5"/>
			<text x="24.26" y="610.19" class="st6" v:langID="2052"><v:paragraph v:horizAlign="1"/><v:tabList/>LSU</text>		</g>
		<g id="shape354-146" v:mID="354" v:groupContext="shape" transform="translate(955.574,167.641) rotate(89.9467)">
			<title>工作表.354</title>
			<path d="M0 623.85 L304.72 623.85" class="st32"/>
		</g>
		<g id="shape355-149" v:mID="355" v:groupContext="shape" transform="translate(267.47,-23.3478)">
			<title>矩形.187</title>
			<desc>TCM</desc>
			<v:userDefs>
				<v:ud v:nameU="visVersion" v:val="VT0(15):26"/>
			</v:userDefs>
			<v:textBlock v:margins="rect(4,4,4,4)" v:tabSpace="42.5197"/>
			<v:textRect cx="226.772" cy="581.333" width="453.55" height="85.0394"/>
			<g id="shadow355-150" v:groupContext="shadow" v:shadowOffsetX="0.345598" v:shadowOffsetY="-1.97279" v:shadowType="1"
					transform="matrix(1,0,0,1,0.345598,1.97279)" class="st1">
				<rect x="0" y="538.813" width="453.543" height="85.0394" class="st4"/>
			</g>
			<rect x="0" y="538.813" width="453.543" height="85.0394" class="st5"/>
			<text x="203.99" y="588.53" class="st33" v:langID="2052"><v:paragraph v:horizAlign="1"/><v:tabList/>TCM</text>		</g>
		<g id="shape356-155" v:mID="356" v:groupContext="shape" transform="translate(387.057,-227.005)">
			<title>矩形.356</title>
			<desc>CSR</desc>
			<v:userDefs>
				<v:ud v:nameU="visVersion" v:val="VT0(15):26"/>
			</v:userDefs>
			<v:textBlock v:margins="rect(4,4,4,4)" v:tabSpace="42.5197"/>
			<v:textRect cx="34.9056" cy="605.994" width="69.82" height="35.7165"/>
			<g id="shadow356-156" v:groupContext="shadow" v:shadowOffsetX="0.345598" v:shadowOffsetY="-1.97279" v:shadowType="1"
					transform="matrix(1,0,0,1,0.345598,1.97279)" class="st1">
				<rect x="0" y="588.136" width="69.8112" height="35.7165" class="st4"/>
			</g>
			<rect x="0" y="588.136" width="69.8112" height="35.7165" class="st5"/>
			<text x="24.16" y="610.19" class="st6" v:langID="2052"><v:paragraph v:horizAlign="1"/><v:tabList/>CSR</text>		</g>
		<g id="shape359-161" v:mID="359" v:groupContext="shape" transform="translate(120.472,-259.32)">
			<title>矩形.359</title>
			<desc>ID stage</desc>
			<v:userDefs>
				<v:ud v:nameU="visVersion" v:val="VT0(15):26"/>
			</v:userDefs>
			<v:textBlock v:margins="rect(4,4,4,4)" v:tabSpace="42.5197"/>
			<v:textRect cx="56.6929" cy="581.333" width="113.39" height="85.0394"/>
			<g id="shadow359-162" v:groupContext="shadow" v:shadowOffsetX="0.345598" v:shadowOffsetY="-1.97279" v:shadowType="1"
					transform="matrix(1,0,0,1,0.345598,1.97279)" class="st1">
				<rect x="0" y="538.813" width="113.386" height="85.0394" class="st4"/>
			</g>
			<rect x="0" y="538.813" width="113.386" height="85.0394" class="st5"/>
			<text x="16.61" y="588.53" class="st33" v:langID="2052"><v:paragraph v:horizAlign="1"/><v:tabList/>ID stage</text>		</g>
		<g id="shape360-167" v:mID="360" v:groupContext="shape" v:layerMember="1" transform="translate(456.868,-422.678)">
			<title>动态连接线.360</title>
			<path d="M0 630.88 L44.02 630.98" class="st7"/>
		</g>
		<g id="shape361-172" v:mID="361" v:groupContext="shape" transform="translate(1132.74,168.208) rotate(89.9467)">
			<title>工作表.361</title>
			<path d="M0 623.85 L304.72 623.85" class="st32"/>
		</g>
		<g id="shape362-175" v:mID="362" v:groupContext="shape" v:layerMember="1" transform="translate(456.868,-365.843)">
			<title>动态连接线.362</title>
			<path d="M0 630.88 L44.02 630.98" class="st7"/>
		</g>
		<g id="shape363-180" v:mID="363" v:groupContext="shape" v:layerMember="1" transform="translate(456.868,-308.867)">
			<title>动态连接线.363</title>
			<path d="M0 630.88 L45.02 630.98" class="st34"/>
		</g>
		<g id="shape364-186" v:mID="364" v:groupContext="shape" v:layerMember="1" transform="translate(456.868,-251.89)">
			<title>动态连接线.364</title>
			<path d="M0 630.88 L44.02 630.98" class="st7"/>
		</g>
		<g id="shape366-191" v:mID="366" v:groupContext="shape" v:layerMember="1" transform="translate(456.868,-194.914)">
			<title>动态连接线.366</title>
			<path d="M0 630.88 L44.02 630.98" class="st7"/>
		</g>
		<g id="shape367-196" v:mID="367" v:groupContext="shape" v:layerMember="1" transform="translate(331.76,-351.027)">
			<title>动态连接线.367</title>
			<path d="M0 617.47 L0 616.06 L47.26 616.06" class="st7"/>
		</g>
		<g id="shape369-201" v:mID="369" v:groupContext="shape" v:layerMember="1" transform="translate(331.76,-237.075)">
			<title>动态连接线.369</title>
			<path d="M0 617.47 L0 616.06 L47.26 616.06" class="st7"/>
		</g>
		<g id="shape370-206" v:mID="370" v:groupContext="shape" v:layerMember="1" transform="translate(331.76,-180.098)">
			<title>动态连接线.370</title>
			<path d="M0 617.47 L0 616.06 L47.26 616.06" class="st7"/>
		</g>
		<g id="shape371-211" v:mID="371" v:groupContext="shape" v:layerMember="1" transform="translate(233.858,-294.753)">
			<title>动态连接线.371</title>
			<path d="M11.7 616.77 L12.06 616.77 L141.14 616.77" class="st36"/>
		</g>
		<g id="shape372-220" v:mID="372" v:groupContext="shape" v:layerMember="1" transform="translate(456.868,-308.923)">
			<title>动态连接线.372</title>
			<path d="M0 630.94 L10.63 630.94 L10.63 630.94 L86.5 630.94" class="st7"/>
		</g>
		<g id="shape373-225" v:mID="373" v:groupContext="shape" transform="translate(358.607,-468.387)">
			<title>云朵.242</title>
			<desc>commit</desc>
			<v:userDefs>
				<v:ud v:nameU="visVersion" v:prompt="" v:val="VT0(15):26"/>
			</v:userDefs>
			<v:textBlock v:margins="rect(4,4,4,4)" v:tabSpace="42.5197"/>
			<v:textRect cx="56.6929" cy="581.333" width="113.39" height="85.0394"/>
			<path d="M5.58 589.05 A8.95424 11.2986 0 0 1 9.88 567.34 A18.1582 22.9124 0 0 1 36.23 549.03 A20.8506 26.3097 0 0 1 58.8
						 544.95 A13.0752 16.4985 0 0 1 78.16 543.59 A14.8864 18.7839 0 0 1 101.82 550.38 A10.6442 13.4306 0 0 1 110.42
						 569.38 A13.1842 16.6355 0 0 1 99.67 596.51 A16.6329 20.987 0 0 1 76.01 610.08 A19.6116 24.7455 0 0 1 43.76
						 615.51 A24.8602 31.3681 0 0 1 15.79 610.08 A9.80787 12.3758 0 0 1 5.58 589.05 Z" class="st37"/>
			<path d="M5.58 589.05 A8.95424 11.2986 0 0 1 9.88 567.34 A18.1582 22.9124 0 0 1 36.23 549.03 A20.8506 26.3097 0 0 1 58.8
						 544.95 A13.0752 16.4985 0 0 1 78.16 543.59 A14.8864 18.7839 0 0 1 101.82 550.38 A10.6442 13.4306 0 0 1 110.42
						 569.38 A13.1842 16.6355 0 0 1 99.67 596.51 A16.6329 20.987 0 0 1 76.01 610.08 A19.6116 24.7455 0 0 1 43.76
						 615.51 A24.8602 31.3681 0 0 1 15.79 610.08 A9.80787 12.3758 0 0 1 5.58 589.05" class="st38"/>
			<path d="M11.49 589.73 A8.9295 11.2674 0 0 1 5.58 589.05" class="st38"/>
			<path d="M42.13 612.12 A8.96837 11.3165 -180 0 0 43.76 615.51" class="st38"/>
			<path d="M76.82 606.01 A7.23966 9.13514 0 0 1 76.01 610.08" class="st38"/>
			<path d="M93.21 585.65 A7.59674 9.58572 0 0 1 99.67 596.51" class="st38"/>
			<path d="M107.19 573.45 A6.93548 8.75133 -180 0 0 110.42 569.38" class="st38"/>
			<path d="M39.45 551.74 A10.6952 13.4949 -180 0 0 36.23 549.03" class="st38"/>
			<text x="34.91" y="585.53" class="st39" v:langID="2052"><v:paragraph v:horizAlign="1"/><v:tabList/>commit</text>		</g>
		<g id="shape375-237" v:mID="375" v:groupContext="shape" transform="translate(551.407,-256.659)">
			<title>云朵.375</title>
			<desc>write back</desc>
			<v:userDefs>
				<v:ud v:nameU="visVersion" v:prompt="" v:val="VT0(15):26"/>
			</v:userDefs>
			<v:textBlock v:margins="rect(4,4,4,4)" v:tabSpace="42.5197"/>
			<v:textRect cx="56.6929" cy="581.333" width="113.39" height="85.0394"/>
			<path d="M5.58 589.05 A8.95424 11.2986 0 0 1 9.88 567.34 A18.1582 22.9124 0 0 1 36.23 549.03 A20.8506 26.3097 0 0 1 58.8
						 544.95 A13.0752 16.4985 0 0 1 78.16 543.59 A14.8864 18.7839 0 0 1 101.82 550.38 A10.6442 13.4306 0 0 1 110.42
						 569.38 A13.1842 16.6355 0 0 1 99.67 596.51 A16.6329 20.987 0 0 1 76.01 610.08 A19.6116 24.7455 0 0 1 43.76
						 615.51 A24.8602 31.3681 0 0 1 15.79 610.08 A9.80787 12.3758 0 0 1 5.58 589.05 Z" class="st37"/>
			<path d="M5.58 589.05 A8.95424 11.2986 0 0 1 9.88 567.34 A18.1582 22.9124 0 0 1 36.23 549.03 A20.8506 26.3097 0 0 1 58.8
						 544.95 A13.0752 16.4985 0 0 1 78.16 543.59 A14.8864 18.7839 0 0 1 101.82 550.38 A10.6442 13.4306 0 0 1 110.42
						 569.38 A13.1842 16.6355 0 0 1 99.67 596.51 A16.6329 20.987 0 0 1 76.01 610.08 A19.6116 24.7455 0 0 1 43.76
						 615.51 A24.8602 31.3681 0 0 1 15.79 610.08 A9.80787 12.3758 0 0 1 5.58 589.05" class="st38"/>
			<path d="M11.49 589.73 A8.9295 11.2674 0 0 1 5.58 589.05" class="st38"/>
			<path d="M42.13 612.12 A8.96837 11.3165 -180 0 0 43.76 615.51" class="st38"/>
			<path d="M76.82 606.01 A7.23966 9.13514 0 0 1 76.01 610.08" class="st38"/>
			<path d="M93.21 585.65 A7.59674 9.58572 0 0 1 99.67 596.51" class="st38"/>
			<path d="M107.19 573.45 A6.93548 8.75133 -180 0 0 110.42 569.38" class="st38"/>
			<path d="M39.45 551.74 A10.6952 13.4949 -180 0 0 36.23 549.03" class="st38"/>
			<text x="27.06" y="585.53" class="st39" v:langID="2052"><v:paragraph v:horizAlign="1"/><v:tabList/>write back</text>		</g>
		<g id="shape376-248" v:mID="376" v:groupContext="shape" v:layerMember="1" transform="translate(663.472,-293.366)">
			<title>动态连接线</title>
			<path d="M0 623.85 L35.07 623.85 L35.07 341.11 L-486.31 341.11 L-486.31 564.82" class="st7"/>
		</g>
		<g id="shape377-253" v:mID="377" v:groupContext="shape" v:layerMember="1" transform="translate(414.876,-433.368)">
			<title>动态连接线.377</title>
			<path d="M7.09 623.85 L7.09 613.22 L7.09 613.22 L7.09 596.08" class="st7"/>
		</g>
		<g id="shape378-258" v:mID="378" v:groupContext="shape" v:layerMember="1" transform="translate(358.607,-520.455)">
			<title>动态连接线.378</title>
			<path d="M0 630.75 L-179.08 631.04 A2.3622 2.3622 -180 1 0 -183.8 631.04 L-230.09 631.12" class="st7"/>
		</g>
		<g id="shape379-263" v:mID="379" v:groupContext="shape" v:layerMember="1" transform="translate(429.047,-170.029)">
			<title>动态连接线.379</title>
			<path d="M-7.08 623.85 L-7.08 634.48 L-7.09 634.48 L-7.09 673.43" class="st40"/>
		</g>
		<g id="shape380-271" v:mID="380" v:groupContext="shape" transform="translate(7.08661,-470.655)">
			<title>矩形.380</title>
			<desc>IF stage</desc>
			<v:userDefs>
				<v:ud v:nameU="visVersion" v:val="VT0(15):26"/>
			</v:userDefs>
			<v:textBlock v:margins="rect(4,4,4,4)" v:tabSpace="42.5197"/>
			<v:textRect cx="56.6929" cy="581.333" width="113.39" height="85.0394"/>
			<g id="shadow380-272" v:groupContext="shadow" v:shadowOffsetX="0.345598" v:shadowOffsetY="-1.97279" v:shadowType="1"
					transform="matrix(1,0,0,1,0.345598,1.97279)" class="st1">
				<rect x="0" y="538.813" width="113.386" height="85.0394" class="st4"/>
			</g>
			<rect x="0" y="538.813" width="113.386" height="85.0394" class="st5"/>
			<text x="18.67" y="588.53" class="st33" v:langID="2052"><v:paragraph v:horizAlign="1"/><v:tabList/>IF stage</text>		</g>
		<g id="shape381-277" v:mID="381" v:groupContext="shape" v:layerMember="1" transform="translate(470.673,-505.094)">
			<title>动态连接线.381</title>
			<path d="M11.7 623.85 L12.06 623.85 L149.74 623.85 L149.74 775.2" class="st36"/>
		</g>
	</g>
</svg>
