<?xml version="1.0" encoding="UTF-8" standalone="no"?>
<!DOCTYPE svg PUBLIC "-//W3C//DTD SVG 1.1//EN" "http://www.w3.org/Graphics/SVG/1.1/DTD/svg11.dtd">
<!-- 由 Microsoft Visio, SVG Export 生成 rvant_id_stage.svg IFU -->
<svg xmlns="http://www.w3.org/2000/svg" xmlns:xlink="http://www.w3.org/1999/xlink" xmlns:ev="http://www.w3.org/2001/xml-events"
		xmlns:v="http://schemas.microsoft.com/visio/2003/SVGExtensions/" width="7.96426in" height="6.10556in"
		viewBox="0 0 573.427 439.6" xml:space="preserve" color-interpolation-filters="sRGB" class="st47">
	<v:documentProperties v:langID="2052" v:metric="true" v:viewMarkup="false">
		<v:userDefs>
			<v:ud v:nameU="msvSubprocessMaster" v:prompt="" v:val="VT4(Rectangle)"/>
			<v:ud v:nameU="msvNoAutoConnect" v:val="VT0(1):26"/>
		</v:userDefs>
	</v:documentProperties>

	<style type="text/css">
	<![CDATA[
		.st1 {visibility:visible}
		.st2 {fill:#bdd0e9;fill-opacity:0.22;filter:url(#filter_2);stroke:#bdd0e9;stroke-opacity:0.22}
		.st3 {fill:#d8d8d8;stroke:#c7c8c8;stroke-width:0.25}
		.st4 {fill:url(#grad0-9)}
		.st5 {stroke:#4f87bb;stroke-width:0.75}
		.st6 {fill:#4f87bb;font-family:Calibri;font-size:1.16666em}
		.st7 {fill:#5b9bd5;fill-opacity:0.22;filter:url(#filter_2);stroke:#5b9bd5;stroke-opacity:0.22}
		.st8 {fill:#5b9bd5;stroke:#c7c8c8;stroke-width:0.25}
		.st9 {fill:#feffff;font-family:Calibri;font-size:1.16666em}
		.st10 {fill:#5b9bd5;fill-opacity:0.22;filter:url(#filter_2)}
		.st11 {fill:none;filter:url(#filter_2);stroke:#5b9bd5;stroke-opacity:0.22}
		.st12 {fill:#5b9bd5}
		.st13 {stroke:#c8c8c8;stroke-width:0.25}
		.st14 {marker-end:url(#mrkr4-53);stroke:#5b9bd5;stroke-linecap:round;stroke-linejoin:round;stroke-width:1.5}
		.st15 {fill:#5b9bd5;fill-opacity:1;stroke:#5b9bd5;stroke-opacity:1;stroke-width:0.37313432835821}
		.st16 {fill:#7ca9da}
		.st17 {stroke:#4a80b0;stroke-linecap:butt;stroke-width:1.25}
		.st18 {fill:none;stroke:none;stroke-linecap:butt;stroke-width:1.25}
		.st19 {fill:#feffff;font-family:Calibri;font-size:1.04166em;font-style:italic}
		.st20 {fill:#feffff;font-family:Calibri;font-size:0.520844em}
		.st21 {font-size:1em}
		.st22 {fill:#feffff;font-family:Calibri;font-size:1.09362em}
		.st23 {fill:#4a80b0;font-family:Calibri;font-size:1.00001em}
		.st24 {marker-end:url(#mrkr13-93);marker-start:url(#mrkr13-91);stroke:#5b9bd5;stroke-linecap:round;stroke-linejoin:round;stroke-width:1.5}
		.st25 {fill:none;stroke:none;stroke-width:0.25}
		.st26 {fill:#5b9bd5;font-family:Calibri;font-size:1.99999em;font-weight:bold}
		.st27 {fill:#5b9bd5;font-family:Calibri;font-size:1.00001em}
		.st28 {fill:#5b9bd5;fill-opacity:0.22;filter:url(#filter_2);stroke:none;stroke-linecap:round;stroke-linejoin:round}
		.st29 {fill:#000000;fill-opacity:0;stroke:none;stroke-linecap:round;stroke-linejoin:round;stroke-width:0.75}
		.st30 {fill:url(#grad7-144);stroke:none;stroke-linecap:round;stroke-linejoin:round;stroke-width:0.75}
		.st31 {fill:#5b9bd5;stroke:none;stroke-linecap:round;stroke-linejoin:round;stroke-width:0.75}
		.st32 {fill:url(#grad0-150)}
		.st33 {stroke:none;stroke-linecap:round;stroke-linejoin:round;stroke-width:0.75}
		.st34 {fill:url(#grad0-155)}
		.st35 {fill:url(#grad0-160)}
		.st36 {fill:url(#grad3-165)}
		.st37 {fill:none}
		.st38 {stroke:#996633;stroke-linecap:round;stroke-linejoin:round;stroke-width:0.130208}
		.st39 {fill:url(#grad1-173);stroke:none;stroke-linecap:round;stroke-linejoin:round;stroke-width:0.75}
		.st40 {fill:url(#grad10-186)}
		.st41 {fill:#4974ba;stroke:none;stroke-linecap:round;stroke-linejoin:round;stroke-width:0.75}
		.st42 {stroke:#1e4182;stroke-linecap:round;stroke-linejoin:round;stroke-width:0.130208}
		.st43 {fill:none;stroke:#b3732d;stroke-linecap:butt;stroke-width:0.130208}
		.st44 {fill:url(#grad2-216);stroke:none;stroke-linecap:round;stroke-linejoin:round;stroke-width:0.75}
		.st45 {fill:#ffffff;stroke:none;stroke-linecap:round;stroke-linejoin:round;stroke-width:0.75}
		.st46 {fill:none;stroke:#c8c8c8;stroke-width:0.25}
		.st47 {fill:none;fill-rule:evenodd;font-size:12px;overflow:visible;stroke-linecap:square;stroke-miterlimit:3}
	]]>
	</style>

	<defs id="Patterns_And_Gradients">
		<linearGradient id="grad0-9" x1="0" y1="0" x2="1" y2="0" gradientTransform="rotate(60 0.5 0.5)">
			<stop offset="0" stop-color="#e9eff7" stop-opacity="1"/>
			<stop offset="0.24" stop-color="#f4f7fb" stop-opacity="1"/>
			<stop offset="0.54" stop-color="#feffff" stop-opacity="1"/>
		</linearGradient>
		<radialGradient id="grad7-144" cx="0" cy="0" r="1.4">
			<stop offset="0" stop-color="#dcf1fa" stop-opacity="1"/>
			<stop offset="1" stop-color="#5b9bd5" stop-opacity="1"/>
		</radialGradient>
		<linearGradient id="grad0-150" x1="0" y1="0" x2="1" y2="0" gradientTransform="rotate(0 0.5 0.5)">
			<stop offset="0" stop-color="#f7f3e8" stop-opacity="1"/>
			<stop offset="1" stop-color="#a8dbf0" stop-opacity="1"/>
		</linearGradient>
		<linearGradient id="grad0-155" x1="0" y1="0" x2="1" y2="0" gradientTransform="rotate(0 0.5 0.5)">
			<stop offset="0" stop-color="#a8dbf0" stop-opacity="1"/>
			<stop offset="1" stop-color="#5b9bd5" stop-opacity="1"/>
		</linearGradient>
		<linearGradient id="grad0-160" x1="0" y1="0" x2="1" y2="0" gradientTransform="rotate(0 0.5 0.5)">
			<stop offset="0" stop-color="#5b9bd5" stop-opacity="1"/>
			<stop offset="1" stop-color="#4974ba" stop-opacity="1"/>
		</linearGradient>
		<radialGradient id="grad3-165" cx="0.5" cy="0.5" r="0.73">
			<stop offset="0" stop-color="#ffffff" stop-opacity="1"/>
			<stop offset="1" stop-color="#da8c36" stop-opacity="1"/>
		</radialGradient>
		<radialGradient id="grad1-173" cx="1" cy="1" r="1.4">
			<stop offset="0" stop-color="#ffffff" stop-opacity="1"/>
			<stop offset="1" stop-color="#da8c36" stop-opacity="1"/>
		</radialGradient>
		<pattern id="grad10-186" x="0" y="0" width="1" height="1" patternContentUnits="objectBoundingBox">
			<path d="M 0.5 0.5 L 0 0 L 0 1 z" style="fill:url(#grad0-187)"/>
			<path d="M 0.5 0.5 L 1 0 L 1 1 z" style="fill:url(#grad0-188)"/>
			<path d="M 0.5 0.5 L 0 0 L 1 0 z" style="fill:url(#grad0-189)"/>
			<path d="M 0.5 0.5 L 0 1 L 1 1 z" style="fill:url(#grad0-190)"/>
		</pattern>
		<linearGradient id="grad0-187" x1="0" y1="0" x2="1" y2="0" gradientTransform="rotate(180 0.5 0.5)">
			<stop offset="0" stop-color="#a8dbf0" stop-opacity="1"/>
			<stop offset="1" stop-color="#5b9bd5" stop-opacity="1"/>
		</linearGradient>
		<linearGradient id="grad0-188" x1="0" y1="0" x2="1" y2="0" gradientTransform="rotate(360 0.5 0.5)">
			<stop offset="0" stop-color="#a8dbf0" stop-opacity="1"/>
			<stop offset="1" stop-color="#5b9bd5" stop-opacity="1"/>
		</linearGradient>
		<linearGradient id="grad0-189" x1="0" y1="0" x2="1" y2="0" gradientTransform="rotate(270 0.5 0.5)">
			<stop offset="0" stop-color="#a8dbf0" stop-opacity="1"/>
			<stop offset="1" stop-color="#5b9bd5" stop-opacity="1"/>
		</linearGradient>
		<linearGradient id="grad0-190" x1="0" y1="0" x2="1" y2="0" gradientTransform="rotate(90 0.5 0.5)">
			<stop offset="0" stop-color="#a8dbf0" stop-opacity="1"/>
			<stop offset="1" stop-color="#5b9bd5" stop-opacity="1"/>
		</linearGradient>
		<radialGradient id="grad2-216" cx="0" cy="1" r="1.4">
			<stop offset="0" stop-color="#ffffff" stop-opacity="1"/>
			<stop offset="1" stop-color="#da8c36" stop-opacity="1"/>
		</radialGradient>
	</defs>
	<defs id="Markers">
		<g id="lend4">
			<path d="M 2 1 L 0 0 L 2 -1 L 2 1 " style="stroke:none"/>
		</g>
		<marker id="mrkr4-53" class="st15" v:arrowType="4" v:arrowSize="2" v:setback="5.36" refX="-5.36" orient="auto"
				markerUnits="strokeWidth" overflow="visible">
			<use xlink:href="#lend4" transform="scale(-2.68,-2.68) "/>
		</marker>
		<g id="lend13">
			<path d="M 3 1 L 0 0 L 3 -1 L 3 1 " style="stroke:none"/>
		</g>
		<marker id="mrkr13-91" class="st15" v:arrowType="13" v:arrowSize="2" v:setback="0" refX="0" orient="auto"
				markerUnits="strokeWidth" overflow="visible">
			<use xlink:href="#lend13" transform="scale(2.68) "/>
		</marker>
		<marker id="mrkr13-93" class="st15" v:arrowType="13" v:arrowSize="2" v:setback="8.04" refX="-8.04" orient="auto"
				markerUnits="strokeWidth" overflow="visible">
			<use xlink:href="#lend13" transform="scale(-2.68,-2.68) "/>
		</marker>
	</defs>
	<defs id="Filters">
		<filter id="filter_2">
			<feGaussianBlur stdDeviation="2"/>
		</filter>
	</defs>
	<g v:mID="0" v:index="3" v:groupContext="foregroundPage">
		<v:userDefs>
			<v:ud v:nameU="msvThemeOrder" v:val="VT0(0):26"/>
		</v:userDefs>
		<title>ID stage</title>
		<v:pageProperties v:drawingScale="0.0393701" v:pageScale="0.0393701" v:drawingUnits="24" v:shadowOffsetX="8.50394"
				v:shadowOffsetY="-8.50394"/>
		<v:layer v:name="电气" v:index="0"/>
		<v:layer v:name="连接线" v:index="1"/>
		<v:layer v:name="流程图" v:index="2"/>
		<g id="shape194-1" v:mID="194" v:groupContext="shape" transform="translate(68.0914,-23.3478)">
			<title>矩形.194</title>
			<v:userDefs>
				<v:ud v:nameU="visVersion" v:val="VT0(15):26"/>
			</v:userDefs>
			<g id="shadow194-2" v:groupContext="shadow" v:shadowOffsetX="0.345598" v:shadowOffsetY="-1.97279" v:shadowType="1"
					transform="matrix(1,0,0,1,0.345598,1.97279)" class="st1">
				<rect x="0" y="42.75" width="433.701" height="396.85" class="st2"/>
			</g>
			<rect x="0" y="42.75" width="433.701" height="396.85" class="st3"/>
		</g>
		<g id="shape242-6" v:mID="242" v:groupContext="shape" transform="translate(263.682,-150.55)">
			<title>云朵.242</title>
			<desc>issue</desc>
			<v:userDefs>
				<v:ud v:nameU="visVersion" v:prompt="" v:val="VT0(15):26"/>
			</v:userDefs>
			<v:textBlock v:margins="rect(4,4,4,4)" v:tabSpace="42.5197"/>
			<v:textRect cx="56.6929" cy="397.081" width="113.39" height="85.0394"/>
			<path d="M5.58 404.79 A8.95424 11.2986 0 0 1 9.88 383.09 A18.1582 22.9124 0 0 1 36.23 364.77 A20.8506 26.3097 0 0 1 58.8
						 360.7 A13.0752 16.4985 0 0 1 78.16 359.34 A14.8864 18.7839 0 0 1 101.82 366.13 A10.6442 13.4306 0 0 1 110.42
						 385.12 A13.1842 16.6355 0 0 1 99.67 412.26 A16.6329 20.987 0 0 1 76.01 425.82 A19.6116 24.7455 0 0 1 43.76
						 431.26 A24.8602 31.3681 0 0 1 15.79 425.82 A9.80787 12.3758 0 0 1 5.58 404.79 Z" class="st4"/>
			<path d="M5.58 404.79 A8.95424 11.2986 0 0 1 9.88 383.09 A18.1582 22.9124 0 0 1 36.23 364.77 A20.8506 26.3097 0 0 1 58.8
						 360.7 A13.0752 16.4985 0 0 1 78.16 359.34 A14.8864 18.7839 0 0 1 101.82 366.13 A10.6442 13.4306 0 0 1 110.42
						 385.12 A13.1842 16.6355 0 0 1 99.67 412.26 A16.6329 20.987 0 0 1 76.01 425.82 A19.6116 24.7455 0 0 1 43.76
						 431.26 A24.8602 31.3681 0 0 1 15.79 425.82 A9.80787 12.3758 0 0 1 5.58 404.79" class="st5"/>
			<path d="M11.49 405.47 A8.9295 11.2674 0 0 1 5.58 404.79" class="st5"/>
			<path d="M42.13 427.86 A8.96837 11.3165 -180 0 0 43.76 431.26" class="st5"/>
			<path d="M76.82 421.76 A7.23966 9.13514 0 0 1 76.01 425.82" class="st5"/>
			<path d="M93.21 401.4 A7.59674 9.58572 0 0 1 99.67 412.26" class="st5"/>
			<path d="M107.19 389.2 A6.93548 8.75133 -180 0 0 110.42 385.12" class="st5"/>
			<path d="M39.45 367.49 A10.6952 13.4949 -180 0 0 36.23 364.77" class="st5"/>
			<text x="42.45" y="401.28" class="st6" v:langID="2052"><v:paragraph v:horizAlign="1"/><v:tabList/>issue</text>		</g>
		<g id="shape246-18" v:mID="246" v:groupContext="shape" transform="translate(270.346,-40.3557)">
			<title>矩形.246</title>
			<desc>Register File</desc>
			<v:userDefs>
				<v:ud v:nameU="visVersion" v:val="VT0(15):26"/>
			</v:userDefs>
			<v:textBlock v:margins="rect(4,4,4,4)" v:tabSpace="42.5197"/>
			<v:textRect cx="56.6929" cy="405.585" width="113.39" height="68.0315"/>
			<g id="shadow246-19" v:groupContext="shadow" v:shadowOffsetX="0.345598" v:shadowOffsetY="-1.97279" v:shadowType="1"
					transform="matrix(1,0,0,1,0.345598,1.97279)" class="st1">
				<rect x="0" y="371.569" width="113.386" height="68.0315" class="st7"/>
			</g>
			<rect x="0" y="371.569" width="113.386" height="68.0315" class="st8"/>
			<text x="22.01" y="409.78" class="st9" v:langID="2052"><v:paragraph v:horizAlign="1"/><v:tabList/>Register File</text>		</g>
		<g id="shape247-24" v:mID="247" v:groupContext="shape" v:layerMember="2" transform="translate(275.996,-284.839)">
			<title>内部存储器</title>
			<desc>scoreboard</desc>
			<v:custProps>
				<v:cp v:nameU="Cost" v:lbl="成本" v:type="7" v:format="@" v:langID="2052"/>
				<v:cp v:nameU="Duration" v:lbl="持续时间" v:type="2" v:langID="2052"/>
				<v:cp v:nameU="Resources" v:lbl="资源" v:langID="2052"/>
			</v:custProps>
			<v:userDefs>
				<v:ud v:nameU="AntiScale" v:val="VT0(1):26"/>
				<v:ud v:nameU="visVersion" v:val="VT0(11):26"/>
			</v:userDefs>
			<v:textBlock v:margins="rect(2,2,2,2)" v:tabSpace="42.5197"/>
			<v:textRect cx="56.6929" cy="379.364" width="96.38" height="103.465"/>
			<g id="shadow247-25" v:groupContext="shadow" v:shadowOffsetX="0.345598" v:shadowOffsetY="-1.97279" v:shadowType="1"
					transform="matrix(1,0,0,1,0.345598,1.97279)" class="st1">
				<path d="M0 439.6 L113.39 439.6 L113.39 319.13 L0 319.13 L0 439.6 Z" class="st10"/>
				<path d="M0 439.6 L113.39 439.6 L113.39 319.13 L0 319.13 L0 439.6" class="st11"/>
				<path d="M8.5 439.6 L8.5 319.13" class="st11"/>
				<path d="M0 327.63 L113.39 327.63" class="st11"/>
			</g>
			<path d="M0 439.6 L113.39 439.6 L113.39 319.13 L0 319.13 L0 439.6 Z" class="st12"/>
			<path d="M0 439.6 L113.39 439.6 L113.39 319.13 L0 319.13 L0 439.6" class="st13"/>
			<path d="M8.5 439.6 L8.5 319.13" class="st13"/>
			<path d="M0 327.63 L113.39 327.63" class="st13"/>
			<text x="24.54" y="383.56" class="st9" v:langID="2052"><v:paragraph v:horizAlign="1"/><v:tabList/>scoreboard</text>		</g>
		<g id="shape248-37" v:mID="248" v:groupContext="shape" transform="translate(104.942,-159.012)">
			<title>云朵.248</title>
			<desc>decoder</desc>
			<v:userDefs>
				<v:ud v:nameU="visVersion" v:prompt="" v:val="VT0(15):26"/>
			</v:userDefs>
			<v:textBlock v:margins="rect(4,4,4,4)" v:tabSpace="42.5197"/>
			<v:textRect cx="56.6929" cy="397.081" width="113.39" height="85.0394"/>
			<path d="M5.58 404.79 A8.95424 11.2986 0 0 1 9.88 383.09 A18.1582 22.9124 0 0 1 36.23 364.77 A20.8506 26.3097 0 0 1 58.8
						 360.7 A13.0752 16.4985 0 0 1 78.16 359.34 A14.8864 18.7839 0 0 1 101.82 366.13 A10.6442 13.4306 0 0 1 110.42
						 385.12 A13.1842 16.6355 0 0 1 99.67 412.26 A16.6329 20.987 0 0 1 76.01 425.82 A19.6116 24.7455 0 0 1 43.76
						 431.26 A24.8602 31.3681 0 0 1 15.79 425.82 A9.80787 12.3758 0 0 1 5.58 404.79 Z" class="st4"/>
			<path d="M5.58 404.79 A8.95424 11.2986 0 0 1 9.88 383.09 A18.1582 22.9124 0 0 1 36.23 364.77 A20.8506 26.3097 0 0 1 58.8
						 360.7 A13.0752 16.4985 0 0 1 78.16 359.34 A14.8864 18.7839 0 0 1 101.82 366.13 A10.6442 13.4306 0 0 1 110.42
						 385.12 A13.1842 16.6355 0 0 1 99.67 412.26 A16.6329 20.987 0 0 1 76.01 425.82 A19.6116 24.7455 0 0 1 43.76
						 431.26 A24.8602 31.3681 0 0 1 15.79 425.82 A9.80787 12.3758 0 0 1 5.58 404.79" class="st5"/>
			<path d="M11.49 405.47 A8.9295 11.2674 0 0 1 5.58 404.79" class="st5"/>
			<path d="M42.13 427.86 A8.96837 11.3165 -180 0 0 43.76 431.26" class="st5"/>
			<path d="M76.82 421.76 A7.23966 9.13514 0 0 1 76.01 425.82" class="st5"/>
			<path d="M93.21 401.4 A7.59674 9.58572 0 0 1 99.67 412.26" class="st5"/>
			<path d="M107.19 389.2 A6.93548 8.75133 -180 0 0 110.42 385.12" class="st5"/>
			<path d="M39.45 367.49 A10.6952 13.4949 -180 0 0 36.23 364.77" class="st5"/>
			<text x="33.28" y="401.28" class="st6" v:langID="2052"><v:paragraph v:horizAlign="1"/><v:tabList/>decoder</text>		</g>
		<g id="shape249-48" v:mID="249" v:groupContext="shape" v:layerMember="1" transform="translate(217.007,-188.635)">
			<title>动态连接线.249</title>
			<path d="M0 432.52 L11.95 432.52 L11.95 432.51 L38.63 432.51" class="st14"/>
		</g>
		<g id="group250-54" transform="translate(416.753,-156.555)" v:mID="250" v:groupContext="group" v:layerMember="0">
			<v:custProps>
				<v:cp v:nameU="SubType" v:lbl="触发器类型" v:type="1" v:format="RS 触发器;JK 触发器;闭锁触发器;D 触发器" v:sortKey="" v:invis="false"
						v:ask="false" v:langID="2052" v:val="VT4(RS 触发器)"/>
				<v:cp v:nameU="SubType" v:lbl="" v:prompt="" v:type="0" v:format="" v:sortKey="" v:invis="false" v:ask="false"
						v:langID="1033" v:cal="0" v:val="VT4(D 触发器)"/>
			</v:custProps>
			<v:userDefs>
				<v:ud v:nameU="Ratio" v:val="VT0(0.8):26"/>
				<v:ud v:nameU="SubType" v:val="VT0(0):26"/>
				<v:ud v:nameU="Low" v:val="VT0(0.039370078740157):24"/>
				<v:ud v:nameU="visDescription" v:val="VT4(表示各种形式的触发器。)"/>
				<v:ud v:nameU="visVersion" v:val="VT0(15):26"/>
				<v:ud v:nameU="AntiScale" v:val="VT0(1):26"/>
				<v:ud v:nameU="FontSize" v:val="VT0(0.069444444444444):29"/>
				<v:ud v:nameU="SubType" v:prompt="" v:val="VT0(3):26"/>
				<v:ud v:nameU="Low" v:prompt="" v:val="VT0(0.098425196850393):1"/>
				<v:ud v:nameU="FontSize" v:prompt="" v:val="VT0(0.17361111111111):29"/>
			</v:userDefs>
			<title>触发器.250</title>
			<desc>scoreboard_t</desc>
			<g id="shape251-55" v:mID="251" v:groupContext="shape" v:layerMember="0">
				<title>工作表.251</title>
				<path d="M0 439.6 L56.69 439.6 L56.69 368.73 L0 368.73 L0 439.6 Z" class="st16"/>
				<path d="M40.75 420.41 L51.38 420.41" class="st17"/>
				<path d="M0 397.94 L10.63 403.84 L0 410.4" class="st17"/>
				<path d="M0 439.6 L56.69 439.6 L56.69 368.73 L0 368.73 L0 439.6" class="st17"/>
			</g>
			<g id="shape252-60" v:mID="252" v:groupContext="shape" v:layerMember="0" transform="translate(3.54331,-53.1496)">
				<title>工作表.252</title>
				<desc>J</desc>
				<v:textBlock v:margins="rect(1,1,1,1)" v:tabSpace="42.5197"/>
				<v:textRect cx="7.08661" cy="433.695" width="14.18" height="11.811"/>
				<rect x="0" y="427.789" width="14.1732" height="11.811" class="st18"/>
			</g>
			<g id="shape253-62" v:mID="253" v:groupContext="shape" v:layerMember="0" transform="translate(38.9764,-5.90551)">
				<title>工作表.253</title>
				<desc>Q</desc>
				<v:textBlock v:margins="rect(1,1,1,1)" v:tabSpace="42.5197"/>
				<v:textRect cx="7.08661" cy="433.695" width="14.18" height="11.811"/>
				<rect x="0" y="427.789" width="14.1732" height="11.811" class="st18"/>
				<text x="2.94" y="437.45" class="st19" v:langID="2052"><v:paragraph v:horizAlign="1"/><v:tabList/>Q</text>			</g>
			<g id="shape254-65" v:mID="254" v:groupContext="shape" v:layerMember="0" transform="translate(38.9764,-53.1496)">
				<title>工作表.254</title>
				<desc>Q</desc>
				<v:textBlock v:margins="rect(1,1,1,1)" v:tabSpace="42.5197"/>
				<v:textRect cx="7.08661" cy="433.695" width="14.18" height="11.811"/>
				<rect x="0" y="427.789" width="14.1732" height="11.811" class="st18"/>
				<text x="2.94" y="437.45" class="st19" v:langID="2052"><v:paragraph v:horizAlign="1"/><v:tabList/>Q</text>			</g>
			<g id="shape255-68" v:mID="255" v:groupContext="shape" v:layerMember="0" transform="translate(4.33071,-5.90551)">
				<title>工作表.255</title>
				<desc>K</desc>
				<v:textBlock v:margins="rect(1,1,1,1)" v:tabSpace="42.5197"/>
				<v:textRect cx="7.08661" cy="433.695" width="14.18" height="11.811"/>
				<rect x="0" y="427.789" width="14.1732" height="11.811" class="st18"/>
			</g>
			<g id="shape256-70" v:mID="256" v:groupContext="shape" v:layerMember="0" transform="translate(17.7165,-2.95276)">
				<title>工作表.256</title>
				<desc>SET CLR</desc>
				<v:textBlock v:margins="rect(1,1,1,1)" v:tabSpace="42.5197"/>
				<v:textRect cx="10.6299" cy="407.12" width="21.26" height="64.9606"/>
				<rect x="0" y="374.64" width="21.2598" height="64.9606" class="st18"/>
				<text x="6.15" y="380.05" class="st20" v:langID="2052"><v:paragraph v:spLine="0" v:spAfter="54.1339"
							v:horizAlign="1"/><v:tabList/>SET<v:newlineChar/><tspan x="5.95" dy="8.661em" class="st21">CLR</tspan></text>			</g>
			<g id="shape257-74" v:mID="257" v:groupContext="shape" v:layerMember="0" transform="translate(3.54331,-53.1496)">
				<title>工作表.257</title>
				<desc>D</desc>
				<v:textBlock v:margins="rect(1,1,1,1)" v:tabSpace="42.5197"/>
				<v:textRect cx="7.08661" cy="433.695" width="14.18" height="11.811"/>
				<rect x="0" y="427.789" width="14.1732" height="11.811" class="st18"/>
				<text x="3.05" y="437.63" class="st22" v:langID="2052"><v:paragraph v:horizAlign="1"/><v:tabList/>D</text>			</g>
			<g id="shape258-77" v:mID="258" v:groupContext="shape" v:layerMember="0" transform="translate(4.33071,-5.90551)">
				<title>工作表.258</title>
				<desc>L</desc>
				<v:textBlock v:margins="rect(1,1,1,1)" v:tabSpace="42.5197"/>
				<v:textRect cx="7.08661" cy="433.695" width="14.18" height="11.811"/>
				<rect x="0" y="427.789" width="14.1732" height="11.811" class="st18"/>
			</g>
			<g id="shape259-79" v:mID="259" v:groupContext="shape" v:layerMember="0" transform="translate(3.54331,-53.1496)">
				<title>工作表.259</title>
				<desc>S</desc>
				<v:textBlock v:margins="rect(1,1,1,1)" v:tabSpace="42.5197"/>
				<v:textRect cx="7.08661" cy="433.695" width="14.18" height="11.811"/>
				<rect x="0" y="427.789" width="14.1732" height="11.811" class="st18"/>
			</g>
			<g id="shape260-81" v:mID="260" v:groupContext="shape" v:layerMember="0" transform="translate(4.33071,-5.90551)">
				<title>工作表.260</title>
				<desc>R</desc>
				<v:textBlock v:margins="rect(1,1,1,1)" v:tabSpace="42.5197"/>
				<v:textRect cx="7.08661" cy="433.695" width="14.18" height="11.811"/>
				<rect x="0" y="427.789" width="14.1732" height="11.811" class="st18"/>
			</g>
			<g id="shape250-83" v:mID="250" v:groupContext="groupContent" v:layerMember="0">
				<v:textBlock v:margins="rect(1,1,1,1)" v:tabSpace="42.5197"/>
				<v:textRect cx="28.3465" cy="447.802" width="69.84" height="16.4037"/>
				<text x="-4.21" y="451.4" class="st23" v:langID="2052"><v:paragraph v:horizAlign="1"/><v:tabList/>scoreboard_t</text>			</g>
		</g>
		<g id="shape272-85" v:mID="272" v:groupContext="shape" v:layerMember="1" transform="translate(325.602,-235.572)">
			<title>动态连接线.272</title>
			<path d="M7.09 439.6 L7.09 428.95 L7.09 428.95 L7.09 402.39" class="st24"/>
		</g>
		<g id="shape273-94" v:mID="273" v:groupContext="shape" v:layerMember="1" transform="translate(319.952,-151.342)">
			<title>动态连接线.273</title>
			<path d="M7.09 439.6 L7.09 451.02 L7.09 451.02 L7.09 470.5" class="st24"/>
		</g>
		<g id="shape274-101" v:mID="274" v:groupContext="shape" v:layerMember="1" transform="translate(374.323,-222.711)">
			<title>动态连接线.274</title>
			<path d="M0 446.67 L13.37 446.67 L13.37 446.7 L34.39 446.7" class="st14"/>
		</g>
		<g id="shape276-106" v:mID="276" v:groupContext="shape" v:layerMember="1" transform="translate(26.989,-211.279)">
			<title>动态连接线.276</title>
			<path d="M0 446.68 L69.91 446.69" class="st14"/>
		</g>
		<g id="shape277-111" v:mID="277" v:groupContext="shape" transform="translate(76.5953,-369.878)">
			<title>工作表.277</title>
			<desc>ID stage</desc>
			<v:textBlock v:margins="rect(4,4,4,4)" v:tabSpace="42.5197"/>
			<v:textRect cx="46.7417" cy="421.884" width="93.49" height="35.4331"/>
			<rect x="0" y="404.167" width="93.4834" height="35.4331" class="st25"/>
			<text x="6.66" y="429.08" class="st26" v:langID="2052"><v:paragraph v:horizAlign="1"/><v:tabList/>ID stage</text>		</g>
		<g id="shape279-114" v:mID="279" v:groupContext="shape" v:layerMember="1" transform="translate(473.446,-208.719)">
			<title>动态连接线</title>
			<path d="M0 432.71 L57.1 432.37" class="st14"/>
		</g>
		<g id="shape281-119" v:mID="281" v:groupContext="shape" v:layerMember="1" transform="translate(173.948,-244.034)">
			<title>动态连接线.281</title>
			<path d="M0 439.6 L0 338.56 L94.01 338.56" class="st14"/>
		</g>
		<g id="shape282-124" v:mID="282" v:groupContext="shape" transform="translate(24.1543,-209.017)">
			<title>工作表.282</title>
			<desc>PC &#38; IR</desc>
			<v:textBlock v:margins="rect(4,4,4,4)" v:tabSpace="42.5197"/>
			<v:textRect cx="21.9685" cy="428.262" width="43.94" height="22.6772"/>
			<rect x="0" y="416.923" width="43.937" height="22.6772" class="st25"/>
			<text x="4.09" y="431.86" class="st27" v:langID="2052"><v:paragraph v:horizAlign="1"/><v:tabList/>PC &#38; IR</text>		</g>
		<g id="shape283-127" v:mID="283" v:groupContext="shape" v:layerMember="1" transform="translate(538.583,-337.939)">
			<title>动态连接线.283</title>
			<path d="M0 432.56 L0 432.46 L-141.16 432.46" class="st14"/>
		</g>
		<g id="shape284-132" v:mID="284" v:groupContext="shape" transform="translate(430.866,-350.646)">
			<title>工作表.284</title>
			<desc>write back</desc>
			<v:textBlock v:margins="rect(4,4,4,4)" v:tabSpace="42.5197"/>
			<v:textRect cx="32.9528" cy="428.262" width="65.91" height="22.6772"/>
			<rect x="0" y="416.923" width="65.9055" height="22.6772" class="st25"/>
			<text x="7.55" y="431.86" class="st27" v:langID="2052"><v:paragraph v:horizAlign="1"/><v:tabList/>write back</text>		</g>
		<g id="group288-135" transform="translate(507.402,-170.362)" v:mID="288" v:groupContext="group">
			<v:userDefs>
				<v:ud v:nameU="SkinColor" v:prompt="" v:val="VT5(#da8c36)"/>
				<v:ud v:nameU="visVersion" v:prompt="" v:val="VT0(15):26"/>
			</v:userDefs>
			<title>协议</title>
			<g id="shape289-136" v:mID="289" v:groupContext="shape" transform="translate(3.58062,-2.7334)">
				<title>工作表.289</title>
				<g id="shadow289-137" v:groupContext="shadow" v:shadowOffsetX="0.3456" v:shadowOffsetY="-1.9728" v:shadowType="1"
						transform="matrix(1,0,0,1,0.3456,1.9728)" class="st1">
					<path d="M2.69 417.7 A2.6409 2.6409 0 0 1 1.78 415.65 A2.18531 2.18531 0 0 1 3.84 413.12 A2.39231 2.39231 0 0
								 1 5.93 415.65 A2.53234 2.53234 0 0 1 4.8 417.83 L4.8 418.22 A4.49339 4.49339 0 0 1 5.76 418.88 A4.49666
								 4.49666 0 0 1 7.38 421.84 A88.512 88.512 0 0 1 7.46 423.13 L9.42 421.99 a0.246909 0.246909 0 0 1
								 0.483115 -0.0967036 L10.07 421.83 A1.6048 1.6048 0 0 1 10.4 421.07 A1.61312 1.61312 0 0 1 11.78
								 420.54 a0.187573 0.187573 0 0 1 0.0844328 -0.305495 A386.21 386.21 0 0 1 15.15 418.29 L15.29 415.97
								 a0.84988 0.84988 0 0 1 0.499154 -1.07072 L17.66 413.94 A2.57247 2.57247 0 0 1 16.72 411.84 A2.26571
								 2.26571 0 0 1 18.79 409.36 A2.28311 2.28311 0 0 1 20.87 411.84 A2.41319 2.41319 0 0 1 19.99 413.87
								 L19.95 414.11 A10.534 10.534 -180 0 0 21.06 414.9 A4.17429 4.17429 0 0 1 22.65 417.87 A254.513 254.513
								 -180 0 0 22.59 425.41 a0.456213 0.456213 0 0 1 -0.277137 0.505619 A1.84357 1.84357 0 0 1 22.16 427.73
								 L21.89 432.68 L21.89 434.13 L18.26 436.19 L17.02 435.39 a0.326892 0.326892 0 0 1 -0.142478 -0.541669
								 L16.36 435.05 L15.04 434.33 A2.34473 2.34473 0 0 1 15.04 433.87 A45.5285 45.5285 -180 0 0 16.69
								 432.05 L15.96 420.61 A23.7922 23.9371 0 0 1 12.9 422.39 a0.553323 0.553323 0 0 1 -0.601985 -0.0815347
								 L12.06 422.45 A1.70999 1.70999 0 0 1 10.79 423.6 L10.7 423.89 L7.61 425.93 L7.3 426.14 A357.113
								 359.286 -180 0 0 6.72 435.76 A3.5854 3.5854 0 0 1 9 436.94 L9.01 437.15 L4.67 439.6 L3.46 438.85
								 L3.49 438.16 L2.7 438.56 L1.3 437.74 A62.5688 62.9497 -180 0 0 1.22 430.36 A1.21205 1.21205 0 0
								 1 0.42 428.61 a0.813438 0.813438 0 0 1 -0.415184 -0.386383 A585.166 585.166 0 0 1 0.21 419.21 A3.31761
								 3.31761 -180 0 0 0.67 418.82 L2.69 417.7 Z" class="st28"/>
				</g>
				<path d="M2.69 417.7 A2.6409 2.6409 0 0 1 1.78 415.65 A2.18531 2.18531 0 0 1 3.84 413.12 A2.39231 2.39231 0 0 1 5.93
							 415.65 A2.53234 2.53234 0 0 1 4.8 417.83 L4.8 418.22 A4.49339 4.49339 0 0 1 5.76 418.88 A4.49666 4.49666
							 0 0 1 7.38 421.84 A88.512 88.512 0 0 1 7.46 423.13 L9.42 421.99 a0.246909 0.246909 0 0 1 0.483115 -0.0967036
							 L10.07 421.83 A1.6048 1.6048 0 0 1 10.4 421.07 A1.61312 1.61312 0 0 1 11.78 420.54 a0.187573 0.187573
							 0 0 1 0.0844328 -0.305495 A386.21 386.21 0 0 1 15.15 418.29 L15.29 415.97 a0.84988 0.84988 0 0 1 0.499154
							 -1.07072 L17.66 413.94 A2.57247 2.57247 0 0 1 16.72 411.84 A2.26571 2.26571 0 0 1 18.79 409.36 A2.28311
							 2.28311 0 0 1 20.87 411.84 A2.41319 2.41319 0 0 1 19.99 413.87 L19.95 414.11 A10.534 10.534 -180 0 0
							 21.06 414.9 A4.17429 4.17429 0 0 1 22.65 417.87 A254.513 254.513 -180 0 0 22.59 425.41 a0.456213 0.456213
							 0 0 1 -0.277137 0.505619 A1.84357 1.84357 0 0 1 22.16 427.73 L21.89 432.68 L21.89 434.13 L18.26 436.19
							 L17.02 435.39 a0.326892 0.326892 0 0 1 -0.142478 -0.541669 L16.36 435.05 L15.04 434.33 A2.34473 2.34473
							 0 0 1 15.04 433.87 A45.5285 45.5285 -180 0 0 16.69 432.05 L15.96 420.61 A23.7922 23.9371 0 0 1 12.9
							 422.39 a0.553323 0.553323 0 0 1 -0.601985 -0.0815347 L12.06 422.45 A1.70999 1.70999 0 0 1 10.79 423.6
							 L10.7 423.89 L7.61 425.93 L7.3 426.14 A357.113 359.286 -180 0 0 6.72 435.76 A3.5854 3.5854 0 0 1 9 436.94
							 L9.01 437.15 L4.67 439.6 L3.46 438.85 L3.49 438.16 L2.7 438.56 L1.3 437.74 A62.5688 62.9497 -180 0 0
							 1.22 430.36 A1.21205 1.21205 0 0 1 0.42 428.61 a0.813438 0.813438 0 0 1 -0.415184 -0.386383 A585.166
							 585.166 0 0 1 0.21 419.21 A3.31761 3.31761 -180 0 0 0.67 418.82 L2.69 417.7 Z" class="st29"/>
			</g>
			<g id="shape290-141" v:mID="290" v:groupContext="shape" transform="translate(18.5693,-6.15625)">
				<title>工作表.290</title>
				<path d="M5.75 424.08 A5.25308 5.25308 -180 0 0 2.76 418.61 A1.59564 1.59564 -180 0 0 0.4 418.67 A18.4129 18.4129
							 -180 0 0 0.12 421.77 L0.95 424.11 L1.17 426.35 L1.23 428.69 L1.66 435.46 L0 437.28 L0 437.74 L1.33 438.45
							 L1.84 438.25 L1.76 438.57 L3.22 439.6 L5.06 437.13 L5.46 429.55 L5.69 429.59 A228.87 228.87 -180 0 0
							 5.75 424.08 Z" class="st30"/>
			</g>
			<g id="shape291-145" v:mID="291" v:groupContext="shape" transform="translate(19.7814,-7.2836)">
				<title>工作表.291</title>
				<path d="M0.9 439.16 L0.09 439.6 A1.12337 1.12337 0 0 1 0.05 439.1 A5.83133 5.83133 0 0 1 1.66 437.31 L1.89 429.61
							 L2.32 429.86 L2.5 437.5 A22.9692 22.9692 -180 0 0 0.9 439.16 Z" class="st31"/>
			</g>
			<g id="shape292-147" v:mID="292" v:groupContext="shape" transform="translate(19.4544,-24.0925)">
				<title>工作表.292</title>
				<path d="M4.57 439.6 A4.67888 4.67888 -180 0 0 3.09 437.42 A3.48095 3.48095 -180 0 0 0 436.26 L2.06 435.1 A3.48095
							 3.48095 0 0 1 5.14 436.26 A4.69619 4.69619 0 0 1 6.61 438.39 L4.57 439.6 Z" class="st32"/>
				<path d="M4.57 439.6 A4.67888 4.67888 -180 0 0 3.09 437.42 A3.48095 3.48095 -180 0 0 0 436.26 L2.06 435.1 A3.48095
							 3.48095 0 0 1 5.14 436.26 A4.69619 4.69619 0 0 1 6.61 438.39" class="st33"/>
			</g>
			<g id="shape293-152" v:mID="293" v:groupContext="shape" transform="translate(24.0204,-16.1085)">
				<title>工作表.293</title>
				<path d="M2.05 430.41 A4.30888 4.30888 0 0 1 2.17 431.24 A213.063 213.063 0 0 1 2.08 438.99 A2.37488 2.37488 0 0
							 1 0.2 439.57 A594.524 594.524 -180 0 0 0.14 432.36 A3.81341 3.81341 -180 0 0 0.01 431.65 L0 431.62 A1.65959
							 1.65959 0 0 1 2.04 430.4 L2.05 430.41 Z" class="st34"/>
				<path d="M2.05 430.41 A4.30888 4.30888 0 0 1 2.17 431.24 A213.063 213.063 0 0 1 2.08 438.99 A2.37488 2.37488 0 0
							 1 0.2 439.57 A594.524 594.524 -180 0 0 0.14 432.36 A3.81341 3.81341 -180 0 0 0.01 431.65 L0 431.62 A1.65959
							 1.65959 0 0 1 2.04 430.4" class="st33"/>
			</g>
			<g id="shape294-157" v:mID="294" v:groupContext="shape" transform="translate(21.1078,-27.3066)">
				<title>工作表.294</title>
				<path d="M0.06 438.52 L0.07 439.04 a0.854449 0.854449 -180 0 0 1.00538 0.452038 A2.26502 2.26502 -180 0 0 2.39 439.31
							 L2.38 438.35 A2.03671 2.03671 0 0 1 0.1 438.5 L0.06 438.52 Z" class="st35"/>
				<path d="M0.06 438.52 L0.07 439.04 a0.854449 0.854449 -180 0 0 1.00538 0.452038 A2.26502 2.26502 -180 0 0 2.39 439.31
							 L2.38 438.35 A2.03671 2.03671 0 0 1 0.1 438.5" class="st33"/>
			</g>
			<g id="shape295-162" v:mID="295" v:groupContext="shape" transform="translate(20.2623,-28.0152)">
				<title>工作表.295</title>
				<path d="M4.15 437.12 A2.30562 2.30562 0 0 1 2.07 439.6 A2.30562 2.30562 0 0 1 -0 437.12 A2.30583 2.30583 0 0 1 2.07
							 434.64 A2.30562 2.30562 0 0 1 4.15 437.12 L-1.04 433.4 L4.15 437.12 Z" class="st36"/>
				<path d="M4.15 437.12 A2.30562 2.30562 0 0 1 2.07 439.6 A2.30562 2.30562 0 0 1 -0 437.12 A2.30583 2.30583 0 0 1 2.07
							 434.64 A2.30562 2.30562 0 0 1 4.15 437.12" class="st33"/>
			</g>
			<g id="shape296-167" v:mID="296" v:groupContext="shape" transform="translate(20.8557,-28.0139)">
				<title>工作表.296</title>
				<path d="M2.83 439.04 A1.89246 1.89246 0 0 1 1.52 439.6 A1.96096 1.96096 0 0 1 0 438.83 L2.83 439.04 Z"
						class="st37"/>
				<path d="M2.83 439.04 A1.89246 1.89246 0 0 1 1.52 439.6 A1.96096 1.96096 0 0 1 0 438.83" class="st38"/>
			</g>
			<g id="shape297-170" v:mID="297" v:groupContext="shape" transform="translate(3.82266,-12.0124)">
				<title>工作表.297</title>
				<path d="M0.84 437.38 a0.988767 0.988767 0 0 1 0.824312 1.10664 A1.01408 1.01408 0 0 1 0.83 439.6 a0.988062 0.988062
							 0 0 1 -0.824634 -1.10599 A1.01427 1.01427 0 0 1 0.84 437.38 Z" class="st39"/>
			</g>
			<g id="shape298-174" v:mID="298" v:groupContext="shape" transform="translate(3.54189,-2.74833)">
				<title>工作表.298</title>
				<path d="M1.28 437.75 L1.34 436.25 A154.243 155.182 -180 0 0 1.15 428.87 A2.02787 2.02787 0 0 1 -0 428.24 L0.21 419.22
							 L0.91 418.64 L3.53 419.55 L5.53 422.12 L5.65 425.27 L5.65 427.78 L4.64 439.6 L3.39 438.85 L3.42 438.08
							 L2.67 438.56 L1.28 437.75 Z" class="st30"/>
			</g>
			<g id="shape299-177" v:mID="299" v:groupContext="shape" transform="translate(6.23609,-3.78734)">
				<title>工作表.299</title>
				<path d="M0.8 439.1 A4.68326 4.68326 0 0 1 0 439.6 L0.1 438.09 L0.29 430.19 L0.72 430.44 L0.87 438.16 A10.8866 10.8866
							 -180 0 0 0.8 439.1 Z" class="st31"/>
			</g>
			<g id="shape300-179" v:mID="300" v:groupContext="shape" transform="translate(4.14074,-20.1148)">
				<title>工作表.300</title>
				<path d="M4.57 439.6 A4.67509 4.67509 -180 0 0 3.09 437.42 A3.48191 3.48191 -180 0 0 0 436.26 L2.06 435.1 A3.48095
							 3.48095 0 0 1 5.14 436.26 A4.69467 4.69467 0 0 1 6.61 438.39 L4.57 439.6 Z" class="st32"/>
				<path d="M4.57 439.6 A4.67509 4.67509 -180 0 0 3.09 437.42 A3.48191 3.48191 -180 0 0 0 436.26 L2.06 435.1 A3.48095
							 3.48095 0 0 1 5.14 436.26 A4.69467 4.69467 0 0 1 6.61 438.39" class="st33"/>
			</g>
			<g id="shape301-183" v:mID="301" v:groupContext="shape" transform="translate(8.70678,-15.1058)">
				<title>工作表.301</title>
				<path d="M2.05 433.39 A3.85726 3.85726 0 0 1 2.2 434.17 A484.473 484.473 0 0 1 2.43 438.29 L0.27 439.6 A18.8384 18.8384
							 -180 0 0 0.14 435.34 A6.58741 6.58741 -180 0 0 0.01 434.63 L0 434.59 A1.65991 1.65991 0 0 1 2.04 433.38
							 L2.05 433.39 Z" class="st40"/>
				<path d="M2.05 433.39 A3.85726 3.85726 0 0 1 2.2 434.17 A484.473 484.473 0 0 1 2.43 438.29 L0.27 439.6 A18.8384 18.8384
							 -180 0 0 0.14 435.34 A6.58741 6.58741 -180 0 0 0.01 434.63 L0 434.59 A1.65991 1.65991 0 0 1 2.04 433.38"
						class="st33"/>
			</g>
			<g id="shape302-192" v:mID="302" v:groupContext="shape" transform="translate(9.97975,-5.30298)">
				<title>工作表.302</title>
				<path d="M0.27 438.32 A4.15402 4.15402 0 0 1 2.28 439.26 L0.06 439.6 L0 438.38 L0.27 438.32 Z" class="st41"/>
			</g>
			<g id="shape303-194" v:mID="303" v:groupContext="shape" transform="translate(6.08686,-23.4958)">
				<title>工作表.303</title>
				<path d="M0.06 438.43 L0.06 438.99 a0.811725 0.811725 -180 0 0 0.950066 0.48925 A1.89488 1.89488 -180 0 0 2.26 439.29
							 L2.25 438.24 A1.74403 1.74403 0 0 1 0.09 438.41 L0.06 438.43 Z" class="st35"/>
				<path d="M0.06 438.43 L0.06 438.99 a0.811725 0.811725 -180 0 0 0.950066 0.48925 A1.89488 1.89488 -180 0 0 2.26 439.29
							 L2.25 438.24 A1.74403 1.74403 0 0 1 0.09 438.41" class="st33"/>
			</g>
			<g id="shape304-198" v:mID="304" v:groupContext="shape" transform="translate(5.30597,-24.2549)">
				<title>工作表.304</title>
				<path d="M4.15 437.12 A2.30531 2.30531 0 0 1 2.07 439.6 A2.30531 2.30531 0 0 1 0 437.12 A2.30635 2.30635 0 0 1 2.07
							 434.64 A2.30615 2.30615 0 0 1 4.15 437.12 L-1.04 433.4 L4.15 437.12 Z" class="st36"/>
				<path d="M4.15 437.12 A2.30531 2.30531 0 0 1 2.07 439.6 A2.30531 2.30531 0 0 1 0 437.12 A2.30635 2.30635 0 0 1 2.07
							 434.64 A2.30615 2.30615 0 0 1 4.15 437.12" class="st33"/>
			</g>
			<g id="shape305-202" v:mID="305" v:groupContext="shape" transform="translate(4.66112,-11.8363)">
				<title>工作表.305</title>
				<path d="M0.07 439.6 L0 431.22 L0.07 439.6 Z" class="st37"/>
				<path d="M0.07 439.6 L0 431.22" class="st42"/>
			</g>
			<g id="shape306-205" v:mID="306" v:groupContext="shape" transform="translate(7.89983,-15.0709)">
				<title>工作表.306</title>
				<path d="M6.33 436.22 A96.13 96.13 0 0 1 1.07 439.51 a0.705889 0.705889 0 0 1 -1.05717 -0.587617 A60.4735 60.4735
							 0 0 1 0.01 436.59" class="st42"/>
			</g>
			<g id="shape307-208" v:mID="307" v:groupContext="shape" transform="translate(5.32173,-24.3213)">
				<title>工作表.307</title>
				<path d="M4.15 437.12 A2.30531 2.30531 0 0 1 2.07 439.6 A2.30531 2.30531 0 0 1 0 437.12 A2.20107 2.20107 0 0 1 2.06
							 434.7 A2.27642 2.27642 0 0 1 4.15 437.12 Z" class="st43"/>
			</g>
			<g id="shape308-210" v:mID="308" v:groupContext="shape" transform="translate(8.20312,-2.74801)">
				<title>工作表.308</title>
				<path d="M0.77 427.19 L0.1 437.89 L0 439.6 L4.3 437.15 a0.341471 0.341471 -180 0 0 -0.399774 -0.436183 A5.31526 5.31526
							 -180 0 0 2 436.78 A241.569 241.569 0 0 1 2.59 426.14 L0.77 427.19 ZM17.54 426.78 L17.22 432.68 L17.22
							 434.13 L13.59 436.19 A1.85955 1.85955 0 0 1 13.55 435.69 A8.05714 8.05714 0 0 1 15.35 433.69 L15.77
							 426.73 L17.54 426.78 Z" class="st12"/>
				<path d="M0.77 427.19 L0.1 437.89 L0 439.6 L4.3 437.15 a0.341471 0.341471 -180 0 0 -0.399774 -0.436183 A5.31526 5.31526
							 -180 0 0 2 436.78 A241.569 241.569 0 0 1 2.59 426.14 L0.77 427.19M17.54 426.78 L17.22 432.68 L17.22
							 434.13 L13.59 436.19 A1.85955 1.85955 0 0 1 13.55 435.69 A8.05714 8.05714 0 0 1 15.35 433.69 L15.77
							 426.73" class="st33"/>
			</g>
			<g id="shape309-213" v:mID="309" v:groupContext="shape" transform="translate(23.922,-14.1156)">
				<title>工作表.309</title>
				<path d="M1.24 436.74 A1.2445 1.2445 0 0 1 2.08 438.24 A1.27458 1.27458 0 0 1 0.93 439.55 A1.24499 1.24499 0 0 1
							 0.09 438.04 A1.27294 1.27294 0 0 1 1.24 436.74 Z" class="st44"/>
			</g>
			<g id="shape310-217" v:mID="310" v:groupContext="shape" transform="translate(6.9562,-4.18016)">
				<title>工作表.310</title>
				<path d="M15.15 426.76 L15.33 434.39 A15.9563 15.9563 -180 0 0 13.56 436.21 L15.15 426.76 ZM0 430.83 L0.15 438.55
							 L0.13 439.6 L0 430.83 Z" class="st37"/>
				<path d="M15.15 426.76 L15.33 434.39 A15.9563 15.9563 -180 0 0 13.56 436.21M0 430.83 L0.15 438.55 L0.13 439.6"
						class="st42"/>
			</g>
			<g id="shape311-220" v:mID="311" v:groupContext="shape" transform="translate(19.5097,-14.1469)">
				<title>工作表.311</title>
				<path d="M6.32 438.88 A1.09999 1.09999 0 1 1 4.64 437.53 a0.825751 0.825751 0 0 1 -0.688083 -0.751205 A284.221 284.221
							 -180 0 0 3.94 431.26 L6.32 438.88 Z" class="st37"/>
				<path d="M6.32 438.88 A1.09999 1.09999 0 1 1 4.64 437.53 a0.825751 0.825751 0 0 1 -0.688083 -0.751205 A284.221 284.221
							 -180 0 0 3.94 431.26" class="st42"/>
				<path d="" class="st42"/>
				<path d="M0.12 431.95 L0 428.75" class="st42"/>
				<path d="" class="st42"/>
			</g>
			<g id="shape312-226" v:mID="312" v:groupContext="shape" transform="translate(13.3754,-19.4867)">
				<title>工作表.312</title>
				<path d="M2.78 437.89 A1.22943 1.22943 0 0 1 1.86 439.33 A1.25027 1.25027 0 0 1 0.2 438.87 A1.2304 1.2304 0 0 1 1.12
							 437.43 A1.2503 1.2503 0 0 1 2.78 437.89 Z" class="st44"/>
			</g>
			<g id="shape313-229" v:mID="313" v:groupContext="shape" transform="translate(12.6987,-18.4995)">
				<title>工作表.313</title>
				<path d="M2.71 437.74 A1.22556 1.22556 0 0 1 1.94 439.25 A1.2441 1.2441 0 0 1 0.25 439 A1.22649 1.22649 0 0 1 1.02
							 437.49 A1.24319 1.24319 0 0 1 2.71 437.74 Z" class="st44"/>
			</g>
			<g id="shape314-232" v:mID="314" v:groupContext="shape" transform="translate(10.9208,-18.1778)">
				<title>工作表.314</title>
				<path d="M3.25 437.8 A1.35058 1.35058 -180 0 0 2.31 437.34 L0.07 438.56 L0 439.6 L3.25 437.8 ZM8.63 434.24 L5.06
							 436.33 a0.922463 0.922463 -180 0 0 -0.663502 -0.347846 a0.321326 0.321326 0 0 1 0.192329 -0.37988 A240.86
							 240.86 -180 0 0 7.81 433.75 L8.63 434.24 Z" class="st45"/>
			</g>
			<g id="shape315-234" v:mID="315" v:groupContext="shape" transform="translate(11.0125,-16.5079)">
				<title>工作表.315</title>
				<path d="M0 437.9 L3.16 436.13 A1.39048 1.39048 0 0 1 3.22 437.66 L0.12 439.6 L0 437.9 ZM8.54 432.59 L4.93 434.63
							 A1.01933 1.01933 0 0 1 4.77 436.01 a0.858413 0.858413 -180 0 0 1.19707 -0.176997 L8.62 434.31 L8.54
							 432.59 Z" class="st12"/>
				<path d="M0 437.9 L3.16 436.13 A1.39048 1.39048 0 0 1 3.22 437.66 L0.12 439.6M8.54 432.59 L4.93 434.63 A1.01933 1.01933
							 0 0 1 4.77 436.01 a0.858413 0.858413 -180 0 0 1.19707 -0.176997 L8.62 434.31 L8.54 432.59"
						class="st33"/>
			</g>
			<g id="shape316-237" v:mID="316" v:groupContext="shape" transform="translate(3.54189,-2.73827)">
				<title>工作表.316</title>
				<path d="M2.69 417.7 A2.64769 2.64769 0 0 1 1.78 415.65 A2.18454 2.18454 0 0 1 3.84 413.12 A2.40206 2.40206 0 0 1
							 5.93 415.65 A2.53349 2.53349 0 0 1 4.8 417.83 L4.8 418.22 A4.49069 4.49069 0 0 1 5.76 418.88 A4.41438
							 4.41438 0 0 1 7.38 421.84 A107.871 107.871 0 0 1 7.46 423.13 L9.42 421.99 a0.384521 0.384521 0 0 1 0.483115
							 -0.0967036 L10.07 421.83 A1.64117 1.64117 0 0 1 10.4 421.07 A1.55469 1.55469 0 0 1 11.78 420.54 a0.192735
							 0.192735 0 0 1 0.0844328 -0.305495 A366.903 366.903 0 0 1 15.15 418.29 L15.29 415.97 a0.934867 0.934867
							 0 0 1 0.499154 -1.07072 L17.66 413.94 A2.5725 2.5725 0 0 1 16.72 411.84 A2.27187 2.27187 0 0 1 18.79
							 409.36 A2.33851 2.33851 0 0 1 20.87 411.84 A2.4344 2.4344 0 0 1 19.99 413.87 L19.95 414.11 A10.5654
							 10.5654 -180 0 0 21.06 414.9 A4.03272 4.03272 0 0 1 22.65 417.87 A422.187 422.187 -180 0 0 22.59 425.41
							 a0.491579 0.491579 0 0 1 -0.277137 0.505619 A1.77607 1.77607 0 0 1 22.16 427.73 L21.89 432.68 L21.89
							 434.13 L18.26 436.19 L17.02 435.39 a0.323646 0.323646 0 0 1 -0.142478 -0.541669 L16.36 435.05 L15.04
							 434.33 A4.44474 4.44474 0 0 1 15.04 433.87 A48.0779 48.0779 -180 0 0 16.69 432.05 L15.96 420.61 A23.7922
							 23.9371 0 0 1 12.9 422.39 a0.743973 0.743973 0 0 1 -0.601985 -0.0815347 L12.06 422.45 A1.90982 1.90982
							 0 0 1 10.79 423.6 L10.7 423.89 L7.61 425.93 L7.3 426.14 A357.113 359.286 -180 0 0 6.72 435.76 A3.62677
							 3.62677 0 0 1 9 436.94 L9.01 437.15 L4.67 439.6 L3.46 438.85 L3.49 438.16 L2.7 438.56 L1.3 437.74 A62.5688
							 62.9497 -180 0 0 1.22 430.36 A1.15011 1.15011 0 0 1 0.42 428.61 a0.850941 0.850941 0 0 1 -0.415184 -0.386383
							 A530.427 530.427 0 0 1 0.21 419.21 A11.9421 11.9421 -180 0 0 0.67 418.82 L2.69 417.7 Z" class="st46"/>
			</g>
		</g>
		<g id="group322-239" transform="translate(29.8236,-159.012)" v:mID="322" v:groupContext="group">
			<v:userDefs>
				<v:ud v:nameU="SkinColor" v:prompt="" v:val="VT5(#da8c36)"/>
				<v:ud v:nameU="visVersion" v:prompt="" v:val="VT0(15):26"/>
			</v:userDefs>
			<title>协议.322</title>
			<g id="shape323-240" v:mID="323" v:groupContext="shape" transform="translate(3.58062,-2.7334)">
				<title>工作表.323</title>
				<g id="shadow323-241" v:groupContext="shadow" v:shadowOffsetX="0.3456" v:shadowOffsetY="-1.9728" v:shadowType="1"
						transform="matrix(1,0,0,1,0.3456,1.9728)" class="st1">
					<path d="M2.69 417.7 A2.6409 2.6409 0 0 1 1.78 415.65 A2.18531 2.18531 0 0 1 3.84 413.12 A2.39231 2.39231 0 0
								 1 5.93 415.65 A2.53234 2.53234 0 0 1 4.8 417.83 L4.8 418.22 A4.49339 4.49339 0 0 1 5.76 418.88 A4.49666
								 4.49666 0 0 1 7.38 421.84 A88.512 88.512 0 0 1 7.46 423.13 L9.42 421.99 a0.246909 0.246909 0 0 1
								 0.483115 -0.0967036 L10.07 421.83 A1.6048 1.6048 0 0 1 10.4 421.07 A1.61312 1.61312 0 0 1 11.78
								 420.54 a0.187573 0.187573 0 0 1 0.0844328 -0.305495 A386.21 386.21 0 0 1 15.15 418.29 L15.29 415.97
								 a0.84988 0.84988 0 0 1 0.499154 -1.07072 L17.66 413.94 A2.57247 2.57247 0 0 1 16.72 411.84 A2.26571
								 2.26571 0 0 1 18.79 409.36 A2.28311 2.28311 0 0 1 20.87 411.84 A2.41319 2.41319 0 0 1 19.99 413.87
								 L19.95 414.11 A10.534 10.534 -180 0 0 21.06 414.9 A4.17429 4.17429 0 0 1 22.65 417.87 A254.513 254.513
								 -180 0 0 22.59 425.41 a0.456213 0.456213 0 0 1 -0.277137 0.505619 A1.84357 1.84357 0 0 1 22.16 427.73
								 L21.89 432.68 L21.89 434.13 L18.26 436.19 L17.02 435.39 a0.326892 0.326892 0 0 1 -0.142478 -0.541669
								 L16.36 435.05 L15.04 434.33 A2.34473 2.34473 0 0 1 15.04 433.87 A45.5285 45.5285 -180 0 0 16.69
								 432.05 L15.96 420.61 A23.7922 23.9371 0 0 1 12.9 422.39 a0.553323 0.553323 0 0 1 -0.601985 -0.0815347
								 L12.06 422.45 A1.70999 1.70999 0 0 1 10.79 423.6 L10.7 423.89 L7.61 425.93 L7.3 426.14 A357.113
								 359.286 -180 0 0 6.72 435.76 A3.5854 3.5854 0 0 1 9 436.94 L9.01 437.15 L4.67 439.6 L3.46 438.85
								 L3.49 438.16 L2.7 438.56 L1.3 437.74 A62.5688 62.9497 -180 0 0 1.22 430.36 A1.21205 1.21205 0 0
								 1 0.42 428.61 a0.813438 0.813438 0 0 1 -0.415184 -0.386383 A585.166 585.166 0 0 1 0.21 419.21 A3.31761
								 3.31761 -180 0 0 0.67 418.82 L2.69 417.7 Z" class="st28"/>
				</g>
				<path d="M2.69 417.7 A2.6409 2.6409 0 0 1 1.78 415.65 A2.18531 2.18531 0 0 1 3.84 413.12 A2.39231 2.39231 0 0 1 5.93
							 415.65 A2.53234 2.53234 0 0 1 4.8 417.83 L4.8 418.22 A4.49339 4.49339 0 0 1 5.76 418.88 A4.49666 4.49666
							 0 0 1 7.38 421.84 A88.512 88.512 0 0 1 7.46 423.13 L9.42 421.99 a0.246909 0.246909 0 0 1 0.483115 -0.0967036
							 L10.07 421.83 A1.6048 1.6048 0 0 1 10.4 421.07 A1.61312 1.61312 0 0 1 11.78 420.54 a0.187573 0.187573
							 0 0 1 0.0844328 -0.305495 A386.21 386.21 0 0 1 15.15 418.29 L15.29 415.97 a0.84988 0.84988 0 0 1 0.499154
							 -1.07072 L17.66 413.94 A2.57247 2.57247 0 0 1 16.72 411.84 A2.26571 2.26571 0 0 1 18.79 409.36 A2.28311
							 2.28311 0 0 1 20.87 411.84 A2.41319 2.41319 0 0 1 19.99 413.87 L19.95 414.11 A10.534 10.534 -180 0 0
							 21.06 414.9 A4.17429 4.17429 0 0 1 22.65 417.87 A254.513 254.513 -180 0 0 22.59 425.41 a0.456213 0.456213
							 0 0 1 -0.277137 0.505619 A1.84357 1.84357 0 0 1 22.16 427.73 L21.89 432.68 L21.89 434.13 L18.26 436.19
							 L17.02 435.39 a0.326892 0.326892 0 0 1 -0.142478 -0.541669 L16.36 435.05 L15.04 434.33 A2.34473 2.34473
							 0 0 1 15.04 433.87 A45.5285 45.5285 -180 0 0 16.69 432.05 L15.96 420.61 A23.7922 23.9371 0 0 1 12.9
							 422.39 a0.553323 0.553323 0 0 1 -0.601985 -0.0815347 L12.06 422.45 A1.70999 1.70999 0 0 1 10.79 423.6
							 L10.7 423.89 L7.61 425.93 L7.3 426.14 A357.113 359.286 -180 0 0 6.72 435.76 A3.5854 3.5854 0 0 1 9 436.94
							 L9.01 437.15 L4.67 439.6 L3.46 438.85 L3.49 438.16 L2.7 438.56 L1.3 437.74 A62.5688 62.9497 -180 0 0
							 1.22 430.36 A1.21205 1.21205 0 0 1 0.42 428.61 a0.813438 0.813438 0 0 1 -0.415184 -0.386383 A585.166
							 585.166 0 0 1 0.21 419.21 A3.31761 3.31761 -180 0 0 0.67 418.82 L2.69 417.7 Z" class="st29"/>
			</g>
			<g id="shape324-245" v:mID="324" v:groupContext="shape" transform="translate(18.5693,-6.15625)">
				<title>工作表.324</title>
				<path d="M5.75 424.08 A5.25308 5.25308 -180 0 0 2.76 418.61 A1.59564 1.59564 -180 0 0 0.4 418.67 A18.4129 18.4129
							 -180 0 0 0.12 421.77 L0.95 424.11 L1.17 426.35 L1.23 428.69 L1.66 435.46 L0 437.28 L0 437.74 L1.33 438.45
							 L1.84 438.25 L1.76 438.57 L3.22 439.6 L5.06 437.13 L5.46 429.55 L5.69 429.59 A228.87 228.87 -180 0 0
							 5.75 424.08 Z" class="st30"/>
			</g>
			<g id="shape325-248" v:mID="325" v:groupContext="shape" transform="translate(19.7814,-7.2836)">
				<title>工作表.325</title>
				<path d="M0.9 439.16 L0.09 439.6 A1.12337 1.12337 0 0 1 0.05 439.1 A5.83133 5.83133 0 0 1 1.66 437.31 L1.89 429.61
							 L2.32 429.86 L2.5 437.5 A22.9692 22.9692 -180 0 0 0.9 439.16 Z" class="st31"/>
			</g>
			<g id="shape326-250" v:mID="326" v:groupContext="shape" transform="translate(19.4544,-24.0925)">
				<title>工作表.326</title>
				<path d="M4.57 439.6 A4.67888 4.67888 -180 0 0 3.09 437.42 A3.48095 3.48095 -180 0 0 0 436.26 L2.06 435.1 A3.48095
							 3.48095 0 0 1 5.14 436.26 A4.69619 4.69619 0 0 1 6.61 438.39 L4.57 439.6 Z" class="st32"/>
				<path d="M4.57 439.6 A4.67888 4.67888 -180 0 0 3.09 437.42 A3.48095 3.48095 -180 0 0 0 436.26 L2.06 435.1 A3.48095
							 3.48095 0 0 1 5.14 436.26 A4.69619 4.69619 0 0 1 6.61 438.39" class="st33"/>
			</g>
			<g id="shape327-254" v:mID="327" v:groupContext="shape" transform="translate(24.0204,-16.1085)">
				<title>工作表.327</title>
				<path d="M2.05 430.41 A4.30888 4.30888 0 0 1 2.17 431.24 A213.063 213.063 0 0 1 2.08 438.99 A2.37488 2.37488 0 0
							 1 0.2 439.57 A594.524 594.524 -180 0 0 0.14 432.36 A3.81341 3.81341 -180 0 0 0.01 431.65 L0 431.62 A1.65959
							 1.65959 0 0 1 2.04 430.4 L2.05 430.41 Z" class="st34"/>
				<path d="M2.05 430.41 A4.30888 4.30888 0 0 1 2.17 431.24 A213.063 213.063 0 0 1 2.08 438.99 A2.37488 2.37488 0 0
							 1 0.2 439.57 A594.524 594.524 -180 0 0 0.14 432.36 A3.81341 3.81341 -180 0 0 0.01 431.65 L0 431.62 A1.65959
							 1.65959 0 0 1 2.04 430.4" class="st33"/>
			</g>
			<g id="shape328-258" v:mID="328" v:groupContext="shape" transform="translate(21.1078,-27.3066)">
				<title>工作表.328</title>
				<path d="M0.06 438.52 L0.07 439.04 a0.854449 0.854449 -180 0 0 1.00538 0.452038 A2.26502 2.26502 -180 0 0 2.39 439.31
							 L2.38 438.35 A2.03671 2.03671 0 0 1 0.1 438.5 L0.06 438.52 Z" class="st35"/>
				<path d="M0.06 438.52 L0.07 439.04 a0.854449 0.854449 -180 0 0 1.00538 0.452038 A2.26502 2.26502 -180 0 0 2.39 439.31
							 L2.38 438.35 A2.03671 2.03671 0 0 1 0.1 438.5" class="st33"/>
			</g>
			<g id="shape329-262" v:mID="329" v:groupContext="shape" transform="translate(20.2623,-28.0152)">
				<title>工作表.329</title>
				<path d="M4.15 437.12 A2.30562 2.30562 0 0 1 2.07 439.6 A2.30562 2.30562 0 0 1 -0 437.12 A2.30583 2.30583 0 0 1 2.07
							 434.64 A2.30562 2.30562 0 0 1 4.15 437.12 L-1.04 433.4 L4.15 437.12 Z" class="st36"/>
				<path d="M4.15 437.12 A2.30562 2.30562 0 0 1 2.07 439.6 A2.30562 2.30562 0 0 1 -0 437.12 A2.30583 2.30583 0 0 1 2.07
							 434.64 A2.30562 2.30562 0 0 1 4.15 437.12" class="st33"/>
			</g>
			<g id="shape330-266" v:mID="330" v:groupContext="shape" transform="translate(20.8557,-28.0139)">
				<title>工作表.330</title>
				<path d="M2.83 439.04 A1.89246 1.89246 0 0 1 1.52 439.6 A1.96096 1.96096 0 0 1 0 438.83 L2.83 439.04 Z"
						class="st37"/>
				<path d="M2.83 439.04 A1.89246 1.89246 0 0 1 1.52 439.6 A1.96096 1.96096 0 0 1 0 438.83" class="st38"/>
			</g>
			<g id="shape331-269" v:mID="331" v:groupContext="shape" transform="translate(3.82266,-12.0124)">
				<title>工作表.331</title>
				<path d="M0.84 437.38 a0.988767 0.988767 0 0 1 0.824312 1.10664 A1.01408 1.01408 0 0 1 0.83 439.6 a0.988062 0.988062
							 0 0 1 -0.824634 -1.10599 A1.01427 1.01427 0 0 1 0.84 437.38 Z" class="st39"/>
			</g>
			<g id="shape332-272" v:mID="332" v:groupContext="shape" transform="translate(3.54189,-2.74833)">
				<title>工作表.332</title>
				<path d="M1.28 437.75 L1.34 436.25 A154.243 155.182 -180 0 0 1.15 428.87 A2.02787 2.02787 0 0 1 -0 428.24 L0.21 419.22
							 L0.91 418.64 L3.53 419.55 L5.53 422.12 L5.65 425.27 L5.65 427.78 L4.64 439.6 L3.39 438.85 L3.42 438.08
							 L2.67 438.56 L1.28 437.75 Z" class="st30"/>
			</g>
			<g id="shape333-275" v:mID="333" v:groupContext="shape" transform="translate(6.23609,-3.78734)">
				<title>工作表.333</title>
				<path d="M0.8 439.1 A4.68326 4.68326 0 0 1 0 439.6 L0.1 438.09 L0.29 430.19 L0.72 430.44 L0.87 438.16 A10.8866 10.8866
							 -180 0 0 0.8 439.1 Z" class="st31"/>
			</g>
			<g id="shape334-277" v:mID="334" v:groupContext="shape" transform="translate(4.14074,-20.1148)">
				<title>工作表.334</title>
				<path d="M4.57 439.6 A4.67509 4.67509 -180 0 0 3.09 437.42 A3.48191 3.48191 -180 0 0 0 436.26 L2.06 435.1 A3.48095
							 3.48095 0 0 1 5.14 436.26 A4.69467 4.69467 0 0 1 6.61 438.39 L4.57 439.6 Z" class="st32"/>
				<path d="M4.57 439.6 A4.67509 4.67509 -180 0 0 3.09 437.42 A3.48191 3.48191 -180 0 0 0 436.26 L2.06 435.1 A3.48095
							 3.48095 0 0 1 5.14 436.26 A4.69467 4.69467 0 0 1 6.61 438.39" class="st33"/>
			</g>
			<g id="shape335-281" v:mID="335" v:groupContext="shape" transform="translate(8.70678,-15.1058)">
				<title>工作表.335</title>
				<path d="M2.05 433.39 A3.85726 3.85726 0 0 1 2.2 434.17 A484.473 484.473 0 0 1 2.43 438.29 L0.27 439.6 A18.8384 18.8384
							 -180 0 0 0.14 435.34 A6.58741 6.58741 -180 0 0 0.01 434.63 L0 434.59 A1.65991 1.65991 0 0 1 2.04 433.38
							 L2.05 433.39 Z" class="st40"/>
				<path d="M2.05 433.39 A3.85726 3.85726 0 0 1 2.2 434.17 A484.473 484.473 0 0 1 2.43 438.29 L0.27 439.6 A18.8384 18.8384
							 -180 0 0 0.14 435.34 A6.58741 6.58741 -180 0 0 0.01 434.63 L0 434.59 A1.65991 1.65991 0 0 1 2.04 433.38"
						class="st33"/>
			</g>
			<g id="shape336-285" v:mID="336" v:groupContext="shape" transform="translate(9.97975,-5.30298)">
				<title>工作表.336</title>
				<path d="M0.27 438.32 A4.15402 4.15402 0 0 1 2.28 439.26 L0.06 439.6 L0 438.38 L0.27 438.32 Z" class="st41"/>
			</g>
			<g id="shape337-287" v:mID="337" v:groupContext="shape" transform="translate(6.08686,-23.4958)">
				<title>工作表.337</title>
				<path d="M0.06 438.43 L0.06 438.99 a0.811725 0.811725 -180 0 0 0.950066 0.48925 A1.89488 1.89488 -180 0 0 2.26 439.29
							 L2.25 438.24 A1.74403 1.74403 0 0 1 0.09 438.41 L0.06 438.43 Z" class="st35"/>
				<path d="M0.06 438.43 L0.06 438.99 a0.811725 0.811725 -180 0 0 0.950066 0.48925 A1.89488 1.89488 -180 0 0 2.26 439.29
							 L2.25 438.24 A1.74403 1.74403 0 0 1 0.09 438.41" class="st33"/>
			</g>
			<g id="shape338-291" v:mID="338" v:groupContext="shape" transform="translate(5.30597,-24.2549)">
				<title>工作表.338</title>
				<path d="M4.15 437.12 A2.30531 2.30531 0 0 1 2.07 439.6 A2.30531 2.30531 0 0 1 0 437.12 A2.30635 2.30635 0 0 1 2.07
							 434.64 A2.30615 2.30615 0 0 1 4.15 437.12 L-1.04 433.4 L4.15 437.12 Z" class="st36"/>
				<path d="M4.15 437.12 A2.30531 2.30531 0 0 1 2.07 439.6 A2.30531 2.30531 0 0 1 0 437.12 A2.30635 2.30635 0 0 1 2.07
							 434.64 A2.30615 2.30615 0 0 1 4.15 437.12" class="st33"/>
			</g>
			<g id="shape339-295" v:mID="339" v:groupContext="shape" transform="translate(4.66112,-11.8363)">
				<title>工作表.339</title>
				<path d="M0.07 439.6 L0 431.22 L0.07 439.6 Z" class="st37"/>
				<path d="M0.07 439.6 L0 431.22" class="st42"/>
			</g>
			<g id="shape340-298" v:mID="340" v:groupContext="shape" transform="translate(7.89983,-15.0709)">
				<title>工作表.340</title>
				<path d="M6.33 436.22 A96.13 96.13 0 0 1 1.07 439.51 a0.705889 0.705889 0 0 1 -1.05717 -0.587617 A60.4735 60.4735
							 0 0 1 0.01 436.59" class="st42"/>
			</g>
			<g id="shape341-301" v:mID="341" v:groupContext="shape" transform="translate(5.32173,-24.3213)">
				<title>工作表.341</title>
				<path d="M4.15 437.12 A2.30531 2.30531 0 0 1 2.07 439.6 A2.30531 2.30531 0 0 1 0 437.12 A2.20107 2.20107 0 0 1 2.06
							 434.7 A2.27642 2.27642 0 0 1 4.15 437.12 Z" class="st43"/>
			</g>
			<g id="shape342-303" v:mID="342" v:groupContext="shape" transform="translate(8.20312,-2.74801)">
				<title>工作表.342</title>
				<path d="M0.77 427.19 L0.1 437.89 L0 439.6 L4.3 437.15 a0.341471 0.341471 -180 0 0 -0.399774 -0.436183 A5.31526 5.31526
							 -180 0 0 2 436.78 A241.569 241.569 0 0 1 2.59 426.14 L0.77 427.19 ZM17.54 426.78 L17.22 432.68 L17.22
							 434.13 L13.59 436.19 A1.85955 1.85955 0 0 1 13.55 435.69 A8.05714 8.05714 0 0 1 15.35 433.69 L15.77
							 426.73 L17.54 426.78 Z" class="st12"/>
				<path d="M0.77 427.19 L0.1 437.89 L0 439.6 L4.3 437.15 a0.341471 0.341471 -180 0 0 -0.399774 -0.436183 A5.31526 5.31526
							 -180 0 0 2 436.78 A241.569 241.569 0 0 1 2.59 426.14 L0.77 427.19M17.54 426.78 L17.22 432.68 L17.22
							 434.13 L13.59 436.19 A1.85955 1.85955 0 0 1 13.55 435.69 A8.05714 8.05714 0 0 1 15.35 433.69 L15.77
							 426.73" class="st33"/>
			</g>
			<g id="shape343-306" v:mID="343" v:groupContext="shape" transform="translate(23.922,-14.1156)">
				<title>工作表.343</title>
				<path d="M1.24 436.74 A1.2445 1.2445 0 0 1 2.08 438.24 A1.27458 1.27458 0 0 1 0.93 439.55 A1.24499 1.24499 0 0 1
							 0.09 438.04 A1.27294 1.27294 0 0 1 1.24 436.74 Z" class="st44"/>
			</g>
			<g id="shape344-309" v:mID="344" v:groupContext="shape" transform="translate(6.9562,-4.18016)">
				<title>工作表.344</title>
				<path d="M15.15 426.76 L15.33 434.39 A15.9563 15.9563 -180 0 0 13.56 436.21 L15.15 426.76 ZM0 430.83 L0.15 438.55
							 L0.13 439.6 L0 430.83 Z" class="st37"/>
				<path d="M15.15 426.76 L15.33 434.39 A15.9563 15.9563 -180 0 0 13.56 436.21M0 430.83 L0.15 438.55 L0.13 439.6"
						class="st42"/>
			</g>
			<g id="shape345-312" v:mID="345" v:groupContext="shape" transform="translate(19.5097,-14.1469)">
				<title>工作表.345</title>
				<path d="M6.32 438.88 A1.09999 1.09999 0 1 1 4.64 437.53 a0.825751 0.825751 0 0 1 -0.688083 -0.751205 A284.221 284.221
							 -180 0 0 3.94 431.26 L6.32 438.88 Z" class="st37"/>
				<path d="M6.32 438.88 A1.09999 1.09999 0 1 1 4.64 437.53 a0.825751 0.825751 0 0 1 -0.688083 -0.751205 A284.221 284.221
							 -180 0 0 3.94 431.26" class="st42"/>
				<path d="" class="st42"/>
				<path d="M0.12 431.95 L0 428.75" class="st42"/>
				<path d="" class="st42"/>
			</g>
			<g id="shape346-318" v:mID="346" v:groupContext="shape" transform="translate(13.3754,-19.4867)">
				<title>工作表.346</title>
				<path d="M2.78 437.89 A1.22943 1.22943 0 0 1 1.86 439.33 A1.25027 1.25027 0 0 1 0.2 438.87 A1.2304 1.2304 0 0 1 1.12
							 437.43 A1.2503 1.2503 0 0 1 2.78 437.89 Z" class="st44"/>
			</g>
			<g id="shape347-321" v:mID="347" v:groupContext="shape" transform="translate(12.6987,-18.4995)">
				<title>工作表.347</title>
				<path d="M2.71 437.74 A1.22556 1.22556 0 0 1 1.94 439.25 A1.2441 1.2441 0 0 1 0.25 439 A1.22649 1.22649 0 0 1 1.02
							 437.49 A1.24319 1.24319 0 0 1 2.71 437.74 Z" class="st44"/>
			</g>
			<g id="shape348-324" v:mID="348" v:groupContext="shape" transform="translate(10.9208,-18.1778)">
				<title>工作表.348</title>
				<path d="M3.25 437.8 A1.35058 1.35058 -180 0 0 2.31 437.34 L0.07 438.56 L0 439.6 L3.25 437.8 ZM8.63 434.24 L5.06
							 436.33 a0.922463 0.922463 -180 0 0 -0.663502 -0.347846 a0.321326 0.321326 0 0 1 0.192329 -0.37988 A240.86
							 240.86 -180 0 0 7.81 433.75 L8.63 434.24 Z" class="st45"/>
			</g>
			<g id="shape349-326" v:mID="349" v:groupContext="shape" transform="translate(11.0125,-16.5079)">
				<title>工作表.349</title>
				<path d="M0 437.9 L3.16 436.13 A1.39048 1.39048 0 0 1 3.22 437.66 L0.12 439.6 L0 437.9 ZM8.54 432.59 L4.93 434.63
							 A1.01933 1.01933 0 0 1 4.77 436.01 a0.858413 0.858413 -180 0 0 1.19707 -0.176997 L8.62 434.31 L8.54
							 432.59 Z" class="st12"/>
				<path d="M0 437.9 L3.16 436.13 A1.39048 1.39048 0 0 1 3.22 437.66 L0.12 439.6M8.54 432.59 L4.93 434.63 A1.01933 1.01933
							 0 0 1 4.77 436.01 a0.858413 0.858413 -180 0 0 1.19707 -0.176997 L8.62 434.31 L8.54 432.59"
						class="st33"/>
			</g>
			<g id="shape350-329" v:mID="350" v:groupContext="shape" transform="translate(3.54189,-2.73827)">
				<title>工作表.350</title>
				<path d="M2.69 417.7 A2.64769 2.64769 0 0 1 1.78 415.65 A2.18454 2.18454 0 0 1 3.84 413.12 A2.40206 2.40206 0 0 1
							 5.93 415.65 A2.53349 2.53349 0 0 1 4.8 417.83 L4.8 418.22 A4.49069 4.49069 0 0 1 5.76 418.88 A4.41438
							 4.41438 0 0 1 7.38 421.84 A107.871 107.871 0 0 1 7.46 423.13 L9.42 421.99 a0.384521 0.384521 0 0 1 0.483115
							 -0.0967036 L10.07 421.83 A1.64117 1.64117 0 0 1 10.4 421.07 A1.55469 1.55469 0 0 1 11.78 420.54 a0.192735
							 0.192735 0 0 1 0.0844328 -0.305495 A366.903 366.903 0 0 1 15.15 418.29 L15.29 415.97 a0.934867 0.934867
							 0 0 1 0.499154 -1.07072 L17.66 413.94 A2.5725 2.5725 0 0 1 16.72 411.84 A2.27187 2.27187 0 0 1 18.79
							 409.36 A2.33851 2.33851 0 0 1 20.87 411.84 A2.4344 2.4344 0 0 1 19.99 413.87 L19.95 414.11 A10.5654
							 10.5654 -180 0 0 21.06 414.9 A4.03272 4.03272 0 0 1 22.65 417.87 A422.187 422.187 -180 0 0 22.59 425.41
							 a0.491579 0.491579 0 0 1 -0.277137 0.505619 A1.77607 1.77607 0 0 1 22.16 427.73 L21.89 432.68 L21.89
							 434.13 L18.26 436.19 L17.02 435.39 a0.323646 0.323646 0 0 1 -0.142478 -0.541669 L16.36 435.05 L15.04
							 434.33 A4.44474 4.44474 0 0 1 15.04 433.87 A48.0779 48.0779 -180 0 0 16.69 432.05 L15.96 420.61 A23.7922
							 23.9371 0 0 1 12.9 422.39 a0.743973 0.743973 0 0 1 -0.601985 -0.0815347 L12.06 422.45 A1.90982 1.90982
							 0 0 1 10.79 423.6 L10.7 423.89 L7.61 425.93 L7.3 426.14 A357.113 359.286 -180 0 0 6.72 435.76 A3.62677
							 3.62677 0 0 1 9 436.94 L9.01 437.15 L4.67 439.6 L3.46 438.85 L3.49 438.16 L2.7 438.56 L1.3 437.74 A62.5688
							 62.9497 -180 0 0 1.22 430.36 A1.15011 1.15011 0 0 1 0.42 428.61 a0.850941 0.850941 0 0 1 -0.415184 -0.386383
							 A530.427 530.427 0 0 1 0.21 419.21 A11.9421 11.9421 -180 0 0 0.67 418.82 L2.69 417.7 Z" class="st46"/>
			</g>
		</g>
	</g>
</svg>
