<?xml version="1.0" encoding="UTF-8" standalone="no"?>
<!DOCTYPE svg PUBLIC "-//W3C//DTD SVG 1.1//EN" "http://www.w3.org/Graphics/SVG/1.1/DTD/svg11.dtd">
<!-- 由 Microsoft Visio, SVG Export 生成 rvant_ex_stage.svg EX -->
<svg xmlns="http://www.w3.org/2000/svg" xmlns:xlink="http://www.w3.org/1999/xlink" xmlns:ev="http://www.w3.org/2001/xml-events"
		xmlns:v="http://schemas.microsoft.com/visio/2003/SVGExtensions/" width="9.37155in" height="7.22655in"
		viewBox="0 0 674.751 520.312" xml:space="preserve" color-interpolation-filters="sRGB" class="st43">
	<v:documentProperties v:langID="2052" v:metric="true" v:viewMarkup="false">
		<v:userDefs>
			<v:ud v:nameU="msvSubprocessMaster" v:prompt="" v:val="VT4(Rectangle)"/>
			<v:ud v:nameU="msvNoAutoConnect" v:val="VT0(1):26"/>
		</v:userDefs>
	</v:documentProperties>

	<style type="text/css">
	<![CDATA[
		.st1 {visibility:visible}
		.st2 {fill:#bdd0e9;fill-opacity:0.22;filter:url(#filter_2);stroke:#bdd0e9;stroke-opacity:0.22}
		.st3 {fill:#c5e0b3;stroke:#c7c8c8;stroke-width:0.25}
		.st4 {marker-end:url(#mrkr4-11);stroke:#5b9bd5;stroke-linecap:round;stroke-linejoin:round;stroke-width:1.5}
		.st5 {fill:#5b9bd5;fill-opacity:1;stroke:#5b9bd5;stroke-opacity:1;stroke-width:0.37313432835821}
		.st6 {fill:none;stroke:none;stroke-width:0.25}
		.st7 {fill:#5b9bd5;font-family:Calibri;font-size:1.00001em}
		.st8 {fill:#5b9bd5;fill-opacity:0.22;filter:url(#filter_2);stroke:none;stroke-linecap:round;stroke-linejoin:round}
		.st9 {fill:#000000;fill-opacity:0;stroke:none;stroke-linecap:round;stroke-linejoin:round;stroke-width:0.75}
		.st10 {fill:url(#grad7-27);stroke:none;stroke-linecap:round;stroke-linejoin:round;stroke-width:0.75}
		.st11 {fill:#5b9bd5;stroke:none;stroke-linecap:round;stroke-linejoin:round;stroke-width:0.75}
		.st12 {fill:url(#grad0-33)}
		.st13 {stroke:none;stroke-linecap:round;stroke-linejoin:round;stroke-width:0.75}
		.st14 {fill:url(#grad0-38)}
		.st15 {fill:url(#grad0-43)}
		.st16 {fill:url(#grad3-48)}
		.st17 {fill:none}
		.st18 {stroke:#996633;stroke-linecap:round;stroke-linejoin:round;stroke-width:0.130208}
		.st19 {fill:url(#grad1-56);stroke:none;stroke-linecap:round;stroke-linejoin:round;stroke-width:0.75}
		.st20 {fill:url(#grad10-69)}
		.st21 {fill:#4974ba;stroke:none;stroke-linecap:round;stroke-linejoin:round;stroke-width:0.75}
		.st22 {stroke:#1e4182;stroke-linecap:round;stroke-linejoin:round;stroke-width:0.130208}
		.st23 {fill:none;stroke:#b3732d;stroke-linecap:butt;stroke-width:0.130208}
		.st24 {fill:#5b9bd5}
		.st25 {fill:url(#grad2-99);stroke:none;stroke-linecap:round;stroke-linejoin:round;stroke-width:0.75}
		.st26 {fill:#ffffff;stroke:none;stroke-linecap:round;stroke-linejoin:round;stroke-width:0.75}
		.st27 {fill:none;stroke:#c8c8c8;stroke-width:0.25}
		.st28 {fill:#5b9bd5;fill-opacity:0.22;filter:url(#filter_2);stroke:#5b9bd5;stroke-opacity:0.22}
		.st29 {fill:#5b9bd5;stroke:#c7c8c8;stroke-width:0.25}
		.st30 {fill:#feffff;font-family:Calibri;font-size:1.16666em}
		.st31 {fill:#5b9bd5;font-family:Calibri;font-size:1.99999em;font-weight:bold}
		.st32 {fill:#5b9bd5;fill-opacity:0.25;filter:url(#filter_2);stroke:#5b9bd5;stroke-opacity:0.25}
		.st33 {fill:#4f87bb;stroke:#40709c;stroke-width:0.75}
		.st34 {fill:#feffff;font-family:Calibri;font-size:1.99999em;font-weight:bold}
		.st35 {fill:url(#grad0-169)}
		.st36 {stroke:#4f87bb;stroke-width:0.75}
		.st37 {fill:#4f87bb;font-family:Calibri;font-size:1.16666em}
		.st38 {marker-end:url(#mrkr13-207);marker-start:url(#mrkr13-205);stroke:#5b9bd5;stroke-linecap:round;stroke-linejoin:round;stroke-width:1.5}
		.st39 {marker-end:url(#mrkr4-220);stroke:#5b9bd5;stroke-linecap:round;stroke-linejoin:round;stroke-width:1}
		.st40 {fill:#5b9bd5;fill-opacity:1;stroke:#5b9bd5;stroke-opacity:1;stroke-width:0.28409090909091}
		.st41 {stroke:#5b9bd5;stroke-width:4.5}
		.st42 {fill:#feffff;font-family:Calibri;font-size:1.5em;font-weight:bold}
		.st43 {fill:none;fill-rule:evenodd;font-size:12px;overflow:visible;stroke-linecap:square;stroke-miterlimit:3}
	]]>
	</style>

	<defs id="Patterns_And_Gradients">
		<radialGradient id="grad7-27" cx="0" cy="0" r="1.4">
			<stop offset="0" stop-color="#dcf1fa" stop-opacity="1"/>
			<stop offset="1" stop-color="#5b9bd5" stop-opacity="1"/>
		</radialGradient>
		<linearGradient id="grad0-33" x1="0" y1="0" x2="1" y2="0" gradientTransform="rotate(0 0.5 0.5)">
			<stop offset="0" stop-color="#f7f3e8" stop-opacity="1"/>
			<stop offset="1" stop-color="#a8dbf0" stop-opacity="1"/>
		</linearGradient>
		<linearGradient id="grad0-38" x1="0" y1="0" x2="1" y2="0" gradientTransform="rotate(0 0.5 0.5)">
			<stop offset="0" stop-color="#a8dbf0" stop-opacity="1"/>
			<stop offset="1" stop-color="#5b9bd5" stop-opacity="1"/>
		</linearGradient>
		<linearGradient id="grad0-43" x1="0" y1="0" x2="1" y2="0" gradientTransform="rotate(0 0.5 0.5)">
			<stop offset="0" stop-color="#5b9bd5" stop-opacity="1"/>
			<stop offset="1" stop-color="#4974ba" stop-opacity="1"/>
		</linearGradient>
		<radialGradient id="grad3-48" cx="0.5" cy="0.5" r="0.73">
			<stop offset="0" stop-color="#ffffff" stop-opacity="1"/>
			<stop offset="1" stop-color="#da8c36" stop-opacity="1"/>
		</radialGradient>
		<radialGradient id="grad1-56" cx="1" cy="1" r="1.4">
			<stop offset="0" stop-color="#ffffff" stop-opacity="1"/>
			<stop offset="1" stop-color="#da8c36" stop-opacity="1"/>
		</radialGradient>
		<pattern id="grad10-69" x="0" y="0" width="1" height="1" patternContentUnits="objectBoundingBox">
			<path d="M 0.5 0.5 L 0 0 L 0 1 z" style="fill:url(#grad0-70)"/>
			<path d="M 0.5 0.5 L 1 0 L 1 1 z" style="fill:url(#grad0-71)"/>
			<path d="M 0.5 0.5 L 0 0 L 1 0 z" style="fill:url(#grad0-72)"/>
			<path d="M 0.5 0.5 L 0 1 L 1 1 z" style="fill:url(#grad0-73)"/>
		</pattern>
		<linearGradient id="grad0-70" x1="0" y1="0" x2="1" y2="0" gradientTransform="rotate(180 0.5 0.5)">
			<stop offset="0" stop-color="#a8dbf0" stop-opacity="1"/>
			<stop offset="1" stop-color="#5b9bd5" stop-opacity="1"/>
		</linearGradient>
		<linearGradient id="grad0-71" x1="0" y1="0" x2="1" y2="0" gradientTransform="rotate(360 0.5 0.5)">
			<stop offset="0" stop-color="#a8dbf0" stop-opacity="1"/>
			<stop offset="1" stop-color="#5b9bd5" stop-opacity="1"/>
		</linearGradient>
		<linearGradient id="grad0-72" x1="0" y1="0" x2="1" y2="0" gradientTransform="rotate(270 0.5 0.5)">
			<stop offset="0" stop-color="#a8dbf0" stop-opacity="1"/>
			<stop offset="1" stop-color="#5b9bd5" stop-opacity="1"/>
		</linearGradient>
		<linearGradient id="grad0-73" x1="0" y1="0" x2="1" y2="0" gradientTransform="rotate(90 0.5 0.5)">
			<stop offset="0" stop-color="#a8dbf0" stop-opacity="1"/>
			<stop offset="1" stop-color="#5b9bd5" stop-opacity="1"/>
		</linearGradient>
		<radialGradient id="grad2-99" cx="0" cy="1" r="1.4">
			<stop offset="0" stop-color="#ffffff" stop-opacity="1"/>
			<stop offset="1" stop-color="#da8c36" stop-opacity="1"/>
		</radialGradient>
		<linearGradient id="grad0-169" x1="0" y1="0" x2="1" y2="0" gradientTransform="rotate(60 0.5 0.5)">
			<stop offset="0" stop-color="#e9eff7" stop-opacity="1"/>
			<stop offset="0.24" stop-color="#f4f7fb" stop-opacity="1"/>
			<stop offset="0.54" stop-color="#feffff" stop-opacity="1"/>
		</linearGradient>
	</defs>
	<defs id="Markers">
		<g id="lend4">
			<path d="M 2 1 L 0 0 L 2 -1 L 2 1 " style="stroke:none"/>
		</g>
		<marker id="mrkr4-11" class="st5" v:arrowType="4" v:arrowSize="2" v:setback="5.36" refX="-5.36" orient="auto"
				markerUnits="strokeWidth" overflow="visible">
			<use xlink:href="#lend4" transform="scale(-2.68,-2.68) "/>
		</marker>
		<g id="lend13">
			<path d="M 3 1 L 0 0 L 3 -1 L 3 1 " style="stroke:none"/>
		</g>
		<marker id="mrkr13-205" class="st5" v:arrowType="13" v:arrowSize="2" v:setback="7.8" refX="7.8" orient="auto"
				markerUnits="strokeWidth" overflow="visible">
			<use xlink:href="#lend13" transform="scale(2.68) "/>
		</marker>
		<marker id="mrkr13-207" class="st5" v:arrowType="13" v:arrowSize="2" v:setback="8.04" refX="-8.04" orient="auto"
				markerUnits="strokeWidth" overflow="visible">
			<use xlink:href="#lend13" transform="scale(-2.68,-2.68) "/>
		</marker>
		<marker id="mrkr4-220" class="st40" v:arrowType="4" v:arrowSize="2" v:setback="7.04" refX="-7.04" orient="auto"
				markerUnits="strokeWidth" overflow="visible">
			<use xlink:href="#lend4" transform="scale(-3.52,-3.52) "/>
		</marker>
	</defs>
	<defs id="Filters">
		<filter id="filter_2">
			<feGaussianBlur stdDeviation="2"/>
		</filter>
	</defs>
	<g v:mID="13" v:index="5" v:groupContext="foregroundPage">
		<v:userDefs>
			<v:ud v:nameU="msvThemeOrder" v:val="VT0(0):26"/>
		</v:userDefs>
		<title>EX</title>
		<v:pageProperties v:drawingScale="0.0393701" v:pageScale="0.0393701" v:drawingUnits="24" v:shadowOffsetX="8.50394"
				v:shadowOffsetY="-8.50394"/>
		<v:layer v:name="连接线" v:index="0"/>
		<g id="shape1-1" v:mID="1" v:groupContext="shape" transform="translate(276.023,-132.406)">
			<title>矩形.346</title>
			<v:userDefs>
				<v:ud v:nameU="visVersion" v:val="VT0(15):26"/>
			</v:userDefs>
			<g id="shadow1-2" v:groupContext="shadow" v:shadowOffsetX="0.345598" v:shadowOffsetY="-1.97279" v:shadowType="1"
					transform="matrix(1,0,0,1,0.345598,1.97279)" class="st1">
				<rect x="0" y="151.808" width="377.008" height="368.504" class="st2"/>
			</g>
			<rect x="0" y="151.808" width="377.008" height="368.504" class="st3"/>
		</g>
		<g id="shape2-6" v:mID="2" v:groupContext="shape" v:layerMember="0" transform="translate(333.145,-432.117)">
			<title>动态连接线.197</title>
			<path d="M0 514.06 L-134.13 512.93 A2.3622 2.3622 -180 0 0 -138.85 512.89 L-190.69 512.46" class="st4"/>
		</g>
		<g id="shape3-12" v:mID="3" v:groupContext="shape" transform="translate(276.023,-415.663)">
			<title>工作表.3</title>
			<desc>flush</desc>
			<v:textBlock v:margins="rect(4,4,4,4)" v:tabSpace="42.5197"/>
			<v:textRect cx="25.5118" cy="508.973" width="51.03" height="22.6772"/>
			<rect x="0" y="497.635" width="51.0236" height="22.6772" class="st6"/>
			<text x="13.65" y="512.57" class="st7" v:langID="2052"><v:paragraph v:horizAlign="1"/><v:tabList/>flush</text>		</g>
		<g id="shape4-15" v:mID="4" v:groupContext="shape" transform="translate(276.023,-465.553)">
			<title>工作表.4</title>
			<desc>write back</desc>
			<v:textBlock v:margins="rect(4,4,4,4)" v:tabSpace="42.5197"/>
			<v:textRect cx="32.9528" cy="508.973" width="65.91" height="22.6772"/>
			<rect x="0" y="497.635" width="65.9055" height="22.6772" class="st6"/>
			<text x="7.55" y="512.57" class="st7" v:langID="2052"><v:paragraph v:horizAlign="1"/><v:tabList/>write back</text>		</g>
		<g id="group5-18" transform="translate(261.141,-258.598)" v:mID="5" v:groupContext="group">
			<v:userDefs>
				<v:ud v:nameU="SkinColor" v:prompt="" v:val="VT5(#da8c36)"/>
				<v:ud v:nameU="visVersion" v:prompt="" v:val="VT0(15):26"/>
			</v:userDefs>
			<title>协议</title>
			<g id="shape6-19" v:mID="6" v:groupContext="shape" transform="translate(3.58062,-2.7334)">
				<title>工作表.6</title>
				<g id="shadow6-20" v:groupContext="shadow" v:shadowOffsetX="0.3456" v:shadowOffsetY="-1.9728" v:shadowType="1"
						transform="matrix(1,0,0,1,0.3456,1.9728)" class="st1">
					<path d="M2.69 498.41 A2.6409 2.6409 0 0 1 1.78 496.37 A2.18531 2.18531 0 0 1 3.84 493.83 A2.39231 2.39231 0
								 0 1 5.93 496.37 A2.53234 2.53234 0 0 1 4.8 498.54 L4.8 498.93 A4.49339 4.49339 0 0 1 5.76 499.59
								 A4.49666 4.49666 0 0 1 7.38 502.55 A88.512 88.512 0 0 1 7.46 503.84 L9.42 502.7 a0.246909 0.246909
								 0 0 1 0.483115 -0.0967036 L10.07 502.54 A1.6048 1.6048 0 0 1 10.4 501.78 A1.61312 1.61312 0 0 1
								 11.78 501.25 a0.187573 0.187573 0 0 1 0.0844328 -0.305495 A386.21 386.21 0 0 1 15.15 499 L15.29
								 496.68 a0.84988 0.84988 0 0 1 0.499154 -1.07072 L17.66 494.65 A2.57247 2.57247 0 0 1 16.72 492.55
								 A2.26571 2.26571 0 0 1 18.79 490.07 A2.28311 2.28311 0 0 1 20.87 492.55 A2.41319 2.41319 0 0 1 19.99
								 494.58 L19.95 494.82 A10.534 10.534 -180 0 0 21.06 495.62 A4.17429 4.17429 0 0 1 22.65 498.58 A254.513
								 254.513 -180 0 0 22.59 506.12 a0.456213 0.456213 0 0 1 -0.277137 0.505619 A1.84357 1.84357 0 0 1
								 22.16 508.44 L21.89 513.39 L21.89 514.84 L18.26 516.9 L17.02 516.1 a0.326892 0.326892 0 0 1 -0.142478
								 -0.541669 L16.36 515.76 L15.04 515.04 A2.34473 2.34473 0 0 1 15.04 514.58 A45.5285 45.5285 -180
								 0 0 16.69 512.76 L15.96 501.32 A23.7922 23.9371 0 0 1 12.9 503.1 a0.553323 0.553323 0 0 1 -0.601985
								 -0.0815347 L12.06 503.16 A1.70999 1.70999 0 0 1 10.79 504.31 L10.7 504.61 L7.61 506.64 L7.3 506.85
								 A357.113 359.286 -180 0 0 6.72 516.47 A3.5854 3.5854 0 0 1 9 517.65 L9.01 517.86 L4.67 520.31 L3.46
								 519.56 L3.49 518.87 L2.7 519.27 L1.3 518.45 A62.5688 62.9497 -180 0 0 1.22 511.08 A1.21205 1.21205
								 0 0 1 0.42 509.33 a0.813438 0.813438 0 0 1 -0.415184 -0.386383 A585.166 585.166 0 0 1 0.21 499.92
								 A3.31761 3.31761 -180 0 0 0.67 499.53 L2.69 498.41 Z" class="st8"/>
				</g>
				<path d="M2.69 498.41 A2.6409 2.6409 0 0 1 1.78 496.37 A2.18531 2.18531 0 0 1 3.84 493.83 A2.39231 2.39231 0 0 1
							 5.93 496.37 A2.53234 2.53234 0 0 1 4.8 498.54 L4.8 498.93 A4.49339 4.49339 0 0 1 5.76 499.59 A4.49666
							 4.49666 0 0 1 7.38 502.55 A88.512 88.512 0 0 1 7.46 503.84 L9.42 502.7 a0.246909 0.246909 0 0 1 0.483115
							 -0.0967036 L10.07 502.54 A1.6048 1.6048 0 0 1 10.4 501.78 A1.61312 1.61312 0 0 1 11.78 501.25 a0.187573
							 0.187573 0 0 1 0.0844328 -0.305495 A386.21 386.21 0 0 1 15.15 499 L15.29 496.68 a0.84988 0.84988 0 0
							 1 0.499154 -1.07072 L17.66 494.65 A2.57247 2.57247 0 0 1 16.72 492.55 A2.26571 2.26571 0 0 1 18.79 490.07
							 A2.28311 2.28311 0 0 1 20.87 492.55 A2.41319 2.41319 0 0 1 19.99 494.58 L19.95 494.82 A10.534 10.534
							 -180 0 0 21.06 495.62 A4.17429 4.17429 0 0 1 22.65 498.58 A254.513 254.513 -180 0 0 22.59 506.12 a0.456213
							 0.456213 0 0 1 -0.277137 0.505619 A1.84357 1.84357 0 0 1 22.16 508.44 L21.89 513.39 L21.89 514.84 L18.26
							 516.9 L17.02 516.1 a0.326892 0.326892 0 0 1 -0.142478 -0.541669 L16.36 515.76 L15.04 515.04 A2.34473
							 2.34473 0 0 1 15.04 514.58 A45.5285 45.5285 -180 0 0 16.69 512.76 L15.96 501.32 A23.7922 23.9371 0 0
							 1 12.9 503.1 a0.553323 0.553323 0 0 1 -0.601985 -0.0815347 L12.06 503.16 A1.70999 1.70999 0 0 1 10.79
							 504.31 L10.7 504.61 L7.61 506.64 L7.3 506.85 A357.113 359.286 -180 0 0 6.72 516.47 A3.5854 3.5854 0
							 0 1 9 517.65 L9.01 517.86 L4.67 520.31 L3.46 519.56 L3.49 518.87 L2.7 519.27 L1.3 518.45 A62.5688 62.9497
							 -180 0 0 1.22 511.08 A1.21205 1.21205 0 0 1 0.42 509.33 a0.813438 0.813438 0 0 1 -0.415184 -0.386383
							 A585.166 585.166 0 0 1 0.21 499.92 A3.31761 3.31761 -180 0 0 0.67 499.53 L2.69 498.41 Z" class="st9"/>
			</g>
			<g id="shape7-24" v:mID="7" v:groupContext="shape" transform="translate(18.5693,-6.15625)">
				<title>工作表.7</title>
				<path d="M5.75 504.79 A5.25308 5.25308 -180 0 0 2.76 499.32 A1.59564 1.59564 -180 0 0 0.4 499.38 A18.4129 18.4129
							 -180 0 0 0.12 502.48 L0.95 504.82 L1.17 507.06 L1.23 509.4 L1.66 516.17 L0 517.99 L0 518.45 L1.33 519.16
							 L1.84 518.96 L1.76 519.28 L3.22 520.31 L5.06 517.84 L5.46 510.26 L5.69 510.31 A228.87 228.87 -180 0
							 0 5.75 504.79 Z" class="st10"/>
			</g>
			<g id="shape8-28" v:mID="8" v:groupContext="shape" transform="translate(19.7814,-7.2836)">
				<title>工作表.8</title>
				<path d="M0.9 519.87 L0.09 520.31 A1.12337 1.12337 0 0 1 0.05 519.81 A5.83133 5.83133 0 0 1 1.66 518.02 L1.89 510.32
							 L2.32 510.57 L2.5 518.21 A22.9692 22.9692 -180 0 0 0.9 519.87 Z" class="st11"/>
			</g>
			<g id="shape9-30" v:mID="9" v:groupContext="shape" transform="translate(19.4544,-24.0925)">
				<title>工作表.9</title>
				<path d="M4.57 520.31 A4.67888 4.67888 -180 0 0 3.09 518.13 A3.48095 3.48095 -180 0 0 0 516.97 L2.06 515.81 A3.48095
							 3.48095 0 0 1 5.14 516.97 A4.69619 4.69619 0 0 1 6.61 519.11 L4.57 520.31 Z" class="st12"/>
				<path d="M4.57 520.31 A4.67888 4.67888 -180 0 0 3.09 518.13 A3.48095 3.48095 -180 0 0 0 516.97 L2.06 515.81 A3.48095
							 3.48095 0 0 1 5.14 516.97 A4.69619 4.69619 0 0 1 6.61 519.11" class="st13"/>
			</g>
			<g id="shape10-35" v:mID="10" v:groupContext="shape" transform="translate(24.0204,-16.1085)">
				<title>工作表.10</title>
				<path d="M2.05 511.12 A4.30888 4.30888 0 0 1 2.17 511.95 A213.063 213.063 0 0 1 2.08 519.7 A2.37488 2.37488 0 0 1
							 0.2 520.29 A594.524 594.524 -180 0 0 0.14 513.08 A3.81341 3.81341 -180 0 0 0.01 512.37 L0 512.33 A1.65959
							 1.65959 0 0 1 2.04 511.12 L2.05 511.12 Z" class="st14"/>
				<path d="M2.05 511.12 A4.30888 4.30888 0 0 1 2.17 511.95 A213.063 213.063 0 0 1 2.08 519.7 A2.37488 2.37488 0 0 1
							 0.2 520.29 A594.524 594.524 -180 0 0 0.14 513.08 A3.81341 3.81341 -180 0 0 0.01 512.37 L0 512.33 A1.65959
							 1.65959 0 0 1 2.04 511.12" class="st13"/>
			</g>
			<g id="shape11-40" v:mID="11" v:groupContext="shape" transform="translate(21.1078,-27.3066)">
				<title>工作表.11</title>
				<path d="M0.06 519.24 L0.07 519.75 a0.854449 0.854449 -180 0 0 1.00538 0.452038 A2.26502 2.26502 -180 0 0 2.39 520.03
							 L2.38 519.06 A2.03671 2.03671 0 0 1 0.1 519.21 L0.06 519.24 Z" class="st15"/>
				<path d="M0.06 519.24 L0.07 519.75 a0.854449 0.854449 -180 0 0 1.00538 0.452038 A2.26502 2.26502 -180 0 0 2.39 520.03
							 L2.38 519.06 A2.03671 2.03671 0 0 1 0.1 519.21" class="st13"/>
			</g>
			<g id="shape12-45" v:mID="12" v:groupContext="shape" transform="translate(20.2623,-28.0152)">
				<title>工作表.12</title>
				<path d="M4.15 517.83 A2.30562 2.30562 0 0 1 2.07 520.31 A2.30562 2.30562 0 0 1 -0 517.83 A2.30583 2.30583 0 0 1
							 2.07 515.35 A2.30562 2.30562 0 0 1 4.15 517.83 L-1.04 514.11 L4.15 517.83 Z" class="st16"/>
				<path d="M4.15 517.83 A2.30562 2.30562 0 0 1 2.07 520.31 A2.30562 2.30562 0 0 1 -0 517.83 A2.30583 2.30583 0 0 1
							 2.07 515.35 A2.30562 2.30562 0 0 1 4.15 517.83" class="st13"/>
			</g>
			<g id="shape13-50" v:mID="13" v:groupContext="shape" transform="translate(20.8557,-28.0139)">
				<title>工作表.13</title>
				<path d="M2.83 519.76 A1.89246 1.89246 0 0 1 1.52 520.31 A1.96096 1.96096 0 0 1 0 519.54 L2.83 519.76 Z"
						class="st17"/>
				<path d="M2.83 519.76 A1.89246 1.89246 0 0 1 1.52 520.31 A1.96096 1.96096 0 0 1 0 519.54" class="st18"/>
			</g>
			<g id="shape14-53" v:mID="14" v:groupContext="shape" transform="translate(3.82266,-12.0124)">
				<title>工作表.14</title>
				<path d="M0.84 518.09 a0.988767 0.988767 0 0 1 0.824312 1.10664 A1.01408 1.01408 0 0 1 0.83 520.31 a0.988062 0.988062
							 0 0 1 -0.824634 -1.10599 A1.01427 1.01427 0 0 1 0.84 518.09 Z" class="st19"/>
			</g>
			<g id="shape15-57" v:mID="15" v:groupContext="shape" transform="translate(3.54189,-2.74833)">
				<title>工作表.15</title>
				<path d="M1.28 518.46 L1.34 516.96 A154.243 155.182 -180 0 0 1.15 509.58 A2.02787 2.02787 0 0 1 -0 508.95 L0.21 499.93
							 L0.91 499.35 L3.53 500.26 L5.53 502.83 L5.65 505.98 L5.65 508.49 L4.64 520.31 L3.39 519.56 L3.42 518.79
							 L2.67 519.27 L1.28 518.46 Z" class="st10"/>
			</g>
			<g id="shape16-60" v:mID="16" v:groupContext="shape" transform="translate(6.23609,-3.78734)">
				<title>工作表.16</title>
				<path d="M0.8 519.81 A4.68326 4.68326 0 0 1 0 520.31 L0.1 518.8 L0.29 510.9 L0.72 511.15 L0.87 518.87 A10.8866 10.8866
							 -180 0 0 0.8 519.81 Z" class="st11"/>
			</g>
			<g id="shape17-62" v:mID="17" v:groupContext="shape" transform="translate(4.14074,-20.1148)">
				<title>工作表.17</title>
				<path d="M4.57 520.31 A4.67509 4.67509 -180 0 0 3.09 518.13 A3.48191 3.48191 -180 0 0 0 516.97 L2.06 515.81 A3.48095
							 3.48095 0 0 1 5.14 516.97 A4.69467 4.69467 0 0 1 6.61 519.11 L4.57 520.31 Z" class="st12"/>
				<path d="M4.57 520.31 A4.67509 4.67509 -180 0 0 3.09 518.13 A3.48191 3.48191 -180 0 0 0 516.97 L2.06 515.81 A3.48095
							 3.48095 0 0 1 5.14 516.97 A4.69467 4.69467 0 0 1 6.61 519.11" class="st13"/>
			</g>
			<g id="shape18-66" v:mID="18" v:groupContext="shape" transform="translate(8.70678,-15.1058)">
				<title>工作表.18</title>
				<path d="M2.05 514.1 A3.85726 3.85726 0 0 1 2.2 514.89 A484.473 484.473 0 0 1 2.43 519 L0.27 520.31 A18.8384 18.8384
							 -180 0 0 0.14 516.05 A6.58741 6.58741 -180 0 0 0.01 515.34 L0 515.3 A1.65991 1.65991 0 0 1 2.04 514.09
							 L2.05 514.1 Z" class="st20"/>
				<path d="M2.05 514.1 A3.85726 3.85726 0 0 1 2.2 514.89 A484.473 484.473 0 0 1 2.43 519 L0.27 520.31 A18.8384 18.8384
							 -180 0 0 0.14 516.05 A6.58741 6.58741 -180 0 0 0.01 515.34 L0 515.3 A1.65991 1.65991 0 0 1 2.04 514.09"
						class="st13"/>
			</g>
			<g id="shape19-75" v:mID="19" v:groupContext="shape" transform="translate(9.97975,-5.30298)">
				<title>工作表.19</title>
				<path d="M0.27 519.03 A4.15402 4.15402 0 0 1 2.28 519.98 L0.06 520.31 L0 519.09 L0.27 519.03 Z" class="st21"/>
			</g>
			<g id="shape20-77" v:mID="20" v:groupContext="shape" transform="translate(6.08686,-23.4958)">
				<title>工作表.20</title>
				<path d="M0.06 519.15 L0.06 519.7 a0.811725 0.811725 -180 0 0 0.950066 0.48925 A1.89488 1.89488 -180 0 0 2.26 520
							 L2.25 518.95 A1.74403 1.74403 0 0 1 0.09 519.12 L0.06 519.15 Z" class="st15"/>
				<path d="M0.06 519.15 L0.06 519.7 a0.811725 0.811725 -180 0 0 0.950066 0.48925 A1.89488 1.89488 -180 0 0 2.26 520
							 L2.25 518.95 A1.74403 1.74403 0 0 1 0.09 519.12" class="st13"/>
			</g>
			<g id="shape21-81" v:mID="21" v:groupContext="shape" transform="translate(5.30597,-24.2549)">
				<title>工作表.21</title>
				<path d="M4.15 517.83 A2.30531 2.30531 0 0 1 2.07 520.31 A2.30531 2.30531 0 0 1 0 517.83 A2.30635 2.30635 0 0 1 2.07
							 515.35 A2.30615 2.30615 0 0 1 4.15 517.83 L-1.04 514.11 L4.15 517.83 Z" class="st16"/>
				<path d="M4.15 517.83 A2.30531 2.30531 0 0 1 2.07 520.31 A2.30531 2.30531 0 0 1 0 517.83 A2.30635 2.30635 0 0 1 2.07
							 515.35 A2.30615 2.30615 0 0 1 4.15 517.83" class="st13"/>
			</g>
			<g id="shape22-85" v:mID="22" v:groupContext="shape" transform="translate(4.66112,-11.8363)">
				<title>工作表.22</title>
				<path d="M0.07 520.31 L0 511.94 L0.07 520.31 Z" class="st17"/>
				<path d="M0.07 520.31 L0 511.94" class="st22"/>
			</g>
			<g id="shape23-88" v:mID="23" v:groupContext="shape" transform="translate(7.89983,-15.0709)">
				<title>工作表.23</title>
				<path d="M6.33 516.93 A96.13 96.13 0 0 1 1.07 520.22 a0.705889 0.705889 0 0 1 -1.05717 -0.587617 A60.4735 60.4735
							 0 0 1 0.01 517.3" class="st22"/>
			</g>
			<g id="shape24-91" v:mID="24" v:groupContext="shape" transform="translate(5.32173,-24.3213)">
				<title>工作表.24</title>
				<path d="M4.15 517.83 A2.30531 2.30531 0 0 1 2.07 520.31 A2.30531 2.30531 0 0 1 0 517.83 A2.20107 2.20107 0 0 1 2.06
							 515.41 A2.27642 2.27642 0 0 1 4.15 517.83 Z" class="st23"/>
			</g>
			<g id="shape25-93" v:mID="25" v:groupContext="shape" transform="translate(8.20312,-2.74801)">
				<title>工作表.25</title>
				<path d="M0.77 507.9 L0.1 518.6 L0 520.31 L4.3 517.86 a0.341471 0.341471 -180 0 0 -0.399774 -0.436183 A5.31526 5.31526
							 -180 0 0 2 517.49 A241.569 241.569 0 0 1 2.59 506.85 L0.77 507.9 ZM17.54 507.49 L17.22 513.39 L17.22
							 514.84 L13.59 516.9 A1.85955 1.85955 0 0 1 13.55 516.4 A8.05714 8.05714 0 0 1 15.35 514.4 L15.77 507.45
							 L17.54 507.49 Z" class="st24"/>
				<path d="M0.77 507.9 L0.1 518.6 L0 520.31 L4.3 517.86 a0.341471 0.341471 -180 0 0 -0.399774 -0.436183 A5.31526 5.31526
							 -180 0 0 2 517.49 A241.569 241.569 0 0 1 2.59 506.85 L0.77 507.9M17.54 507.49 L17.22 513.39 L17.22 514.84
							 L13.59 516.9 A1.85955 1.85955 0 0 1 13.55 516.4 A8.05714 8.05714 0 0 1 15.35 514.4 L15.77 507.45"
						class="st13"/>
			</g>
			<g id="shape26-96" v:mID="26" v:groupContext="shape" transform="translate(23.922,-14.1156)">
				<title>工作表.26</title>
				<path d="M1.24 517.46 A1.2445 1.2445 0 0 1 2.08 518.96 A1.27458 1.27458 0 0 1 0.93 520.26 A1.24499 1.24499 0 0 1
							 0.09 518.76 A1.27294 1.27294 0 0 1 1.24 517.46 Z" class="st25"/>
			</g>
			<g id="shape27-100" v:mID="27" v:groupContext="shape" transform="translate(6.9562,-4.18016)">
				<title>工作表.27</title>
				<path d="M15.15 507.47 L15.33 515.1 A15.9563 15.9563 -180 0 0 13.56 516.92 L15.15 507.47 ZM0 511.54 L0.15 519.26
							 L0.13 520.31 L0 511.54 Z" class="st17"/>
				<path d="M15.15 507.47 L15.33 515.1 A15.9563 15.9563 -180 0 0 13.56 516.92M0 511.54 L0.15 519.26 L0.13 520.31"
						class="st22"/>
			</g>
			<g id="shape28-103" v:mID="28" v:groupContext="shape" transform="translate(19.5097,-14.1469)">
				<title>工作表.28</title>
				<path d="M6.32 519.59 A1.09999 1.09999 0 1 1 4.64 518.24 a0.825751 0.825751 0 0 1 -0.688083 -0.751205 A284.221 284.221
							 -180 0 0 3.94 511.98 L6.32 519.59 Z" class="st17"/>
				<path d="M6.32 519.59 A1.09999 1.09999 0 1 1 4.64 518.24 a0.825751 0.825751 0 0 1 -0.688083 -0.751205 A284.221 284.221
							 -180 0 0 3.94 511.98" class="st22"/>
				<path d="" class="st22"/>
				<path d="M0.12 512.66 L0 509.46" class="st22"/>
				<path d="" class="st22"/>
			</g>
			<g id="shape29-109" v:mID="29" v:groupContext="shape" transform="translate(13.3754,-19.4867)">
				<title>工作表.29</title>
				<path d="M2.78 518.6 A1.22943 1.22943 0 0 1 1.86 520.04 A1.25027 1.25027 0 0 1 0.2 519.58 A1.2304 1.2304 0 0 1 1.12
							 518.14 A1.2503 1.2503 0 0 1 2.78 518.6 Z" class="st25"/>
			</g>
			<g id="shape30-112" v:mID="30" v:groupContext="shape" transform="translate(12.6987,-18.4995)">
				<title>工作表.30</title>
				<path d="M2.71 518.45 A1.22556 1.22556 0 0 1 1.94 519.96 A1.2441 1.2441 0 0 1 0.25 519.71 A1.22649 1.22649 0 0 1
							 1.02 518.2 A1.24319 1.24319 0 0 1 2.71 518.45 Z" class="st25"/>
			</g>
			<g id="shape31-115" v:mID="31" v:groupContext="shape" transform="translate(10.9208,-18.1778)">
				<title>工作表.31</title>
				<path d="M3.25 518.51 A1.35058 1.35058 -180 0 0 2.31 518.05 L0.07 519.27 L0 520.31 L3.25 518.51 ZM8.63 514.95 L5.06
							 517.04 a0.922463 0.922463 -180 0 0 -0.663502 -0.347846 a0.321326 0.321326 0 0 1 0.192329 -0.37988 A240.86
							 240.86 -180 0 0 7.81 514.46 L8.63 514.95 Z" class="st26"/>
			</g>
			<g id="shape32-117" v:mID="32" v:groupContext="shape" transform="translate(11.0125,-16.5079)">
				<title>工作表.32</title>
				<path d="M0 518.61 L3.16 516.84 A1.39048 1.39048 0 0 1 3.22 518.37 L0.12 520.31 L0 518.61 ZM8.54 513.3 L4.93 515.34
							 A1.01933 1.01933 0 0 1 4.77 516.73 a0.858413 0.858413 -180 0 0 1.19707 -0.176997 L8.62 515.02 L8.54
							 513.3 Z" class="st24"/>
				<path d="M0 518.61 L3.16 516.84 A1.39048 1.39048 0 0 1 3.22 518.37 L0.12 520.31M8.54 513.3 L4.93 515.34 A1.01933
							 1.01933 0 0 1 4.77 516.73 a0.858413 0.858413 -180 0 0 1.19707 -0.176997 L8.62 515.02 L8.54 513.3"
						class="st13"/>
			</g>
			<g id="shape33-120" v:mID="33" v:groupContext="shape" transform="translate(3.54189,-2.73827)">
				<title>工作表.33</title>
				<path d="M2.69 498.41 A2.64769 2.64769 0 0 1 1.78 496.37 A2.18454 2.18454 0 0 1 3.84 493.83 A2.40206 2.40206 0 0
							 1 5.93 496.37 A2.53349 2.53349 0 0 1 4.8 498.54 L4.8 498.93 A4.49069 4.49069 0 0 1 5.76 499.59 A4.41438
							 4.41438 0 0 1 7.38 502.55 A107.871 107.871 0 0 1 7.46 503.84 L9.42 502.7 a0.384521 0.384521 0 0 1 0.483115
							 -0.0967036 L10.07 502.54 A1.64117 1.64117 0 0 1 10.4 501.78 A1.55469 1.55469 0 0 1 11.78 501.25 a0.192735
							 0.192735 0 0 1 0.0844328 -0.305495 A366.903 366.903 0 0 1 15.15 499 L15.29 496.68 a0.934867 0.934867
							 0 0 1 0.499154 -1.07072 L17.66 494.65 A2.5725 2.5725 0 0 1 16.72 492.55 A2.27187 2.27187 0 0 1 18.79
							 490.07 A2.33851 2.33851 0 0 1 20.87 492.55 A2.4344 2.4344 0 0 1 19.99 494.58 L19.95 494.82 A10.5654
							 10.5654 -180 0 0 21.06 495.62 A4.03272 4.03272 0 0 1 22.65 498.58 A422.187 422.187 -180 0 0 22.59 506.12
							 a0.491579 0.491579 0 0 1 -0.277137 0.505619 A1.77607 1.77607 0 0 1 22.16 508.44 L21.89 513.39 L21.89
							 514.84 L18.26 516.9 L17.02 516.1 a0.323646 0.323646 0 0 1 -0.142478 -0.541669 L16.36 515.76 L15.04 515.04
							 A4.44474 4.44474 0 0 1 15.04 514.58 A48.0779 48.0779 -180 0 0 16.69 512.76 L15.96 501.32 A23.7922 23.9371
							 0 0 1 12.9 503.1 a0.743973 0.743973 0 0 1 -0.601985 -0.0815347 L12.06 503.16 A1.90982 1.90982 0 0 1
							 10.79 504.31 L10.7 504.61 L7.61 506.64 L7.3 506.85 A357.113 359.286 -180 0 0 6.72 516.47 A3.62677 3.62677
							 0 0 1 9 517.65 L9.01 517.86 L4.67 520.31 L3.46 519.56 L3.49 518.87 L2.7 519.27 L1.3 518.45 A62.5688
							 62.9497 -180 0 0 1.22 511.08 A1.15011 1.15011 0 0 1 0.42 509.33 a0.850941 0.850941 0 0 1 -0.415184 -0.386383
							 A530.427 530.427 0 0 1 0.21 499.92 A11.9421 11.9421 -180 0 0 0.67 499.53 L2.69 498.41 Z" class="st27"/>
			</g>
		</g>
		<g id="shape34-122" v:mID="34" v:groupContext="shape" transform="translate(361.595,-336.605)">
			<title>矩形.347</title>
			<desc>ALU</desc>
			<v:userDefs>
				<v:ud v:nameU="visVersion" v:val="VT0(15):26"/>
			</v:userDefs>
			<v:textBlock v:margins="rect(4,4,4,4)" v:tabSpace="42.5197"/>
			<v:textRect cx="34.9056" cy="508.973" width="69.82" height="22.6772"/>
			<g id="shadow34-123" v:groupContext="shadow" v:shadowOffsetX="0.345598" v:shadowOffsetY="-1.97279" v:shadowType="1"
					transform="matrix(1,0,0,1,0.345598,1.97279)" class="st1">
				<rect x="0" y="497.635" width="69.8112" height="22.6772" class="st28"/>
			</g>
			<rect x="0" y="497.635" width="69.8112" height="22.6772" class="st29"/>
			<text x="23.42" y="513.17" class="st30" v:langID="2052"><v:paragraph v:horizAlign="1"/><v:tabList/>ALU</text>		</g>
		<g id="shape35-128" v:mID="35" v:groupContext="shape" transform="translate(531.201,-442.799)">
			<title>工作表.35</title>
			<desc>EX stage</desc>
			<v:textBlock v:margins="rect(4,4,4,4)" v:tabSpace="42.5197"/>
			<v:textRect cx="46.7417" cy="502.595" width="93.49" height="35.4331"/>
			<rect x="0" y="484.879" width="93.4834" height="35.4331" class="st6"/>
			<text x="4.96" y="509.8" class="st31" v:langID="2052"><v:paragraph v:horizAlign="1"/><v:tabList/>EX stage</text>		</g>
		<g id="shape36-131" v:mID="36" v:groupContext="shape" transform="translate(361.595,-300.759)">
			<title>矩形.351</title>
			<desc>MUL</desc>
			<v:userDefs>
				<v:ud v:nameU="visVersion" v:val="VT0(15):26"/>
			</v:userDefs>
			<v:textBlock v:margins="rect(4,4,4,4)" v:tabSpace="42.5197"/>
			<v:textRect cx="34.9056" cy="508.973" width="69.82" height="22.6772"/>
			<g id="shadow36-132" v:groupContext="shadow" v:shadowOffsetX="0.345598" v:shadowOffsetY="-1.97279" v:shadowType="1"
					transform="matrix(1,0,0,1,0.345598,1.97279)" class="st1">
				<rect x="0" y="497.635" width="69.8112" height="22.6772" class="st28"/>
			</g>
			<rect x="0" y="497.635" width="69.8112" height="22.6772" class="st29"/>
			<text x="21.49" y="513.17" class="st30" v:langID="2052"><v:paragraph v:horizAlign="1"/><v:tabList/>MUL</text>		</g>
		<g id="shape37-137" v:mID="37" v:groupContext="shape" transform="translate(361.595,-264.912)">
			<title>矩形.352</title>
			<desc>DIV</desc>
			<v:userDefs>
				<v:ud v:nameU="visVersion" v:val="VT0(15):26"/>
			</v:userDefs>
			<v:textBlock v:margins="rect(4,4,4,4)" v:tabSpace="42.5197"/>
			<v:textRect cx="34.9056" cy="508.973" width="69.82" height="22.6772"/>
			<g id="shadow37-138" v:groupContext="shadow" v:shadowOffsetX="0.345598" v:shadowOffsetY="-1.97279" v:shadowType="1"
					transform="matrix(1,0,0,1,0.345598,1.97279)" class="st1">
				<rect x="0" y="497.635" width="69.8112" height="22.6772" class="st28"/>
			</g>
			<rect x="0" y="497.635" width="69.8112" height="22.6772" class="st29"/>
			<text x="24.86" y="513.17" class="st30" v:langID="2052"><v:paragraph v:horizAlign="1"/><v:tabList/>DIV</text>		</g>
		<g id="shape38-143" v:mID="38" v:groupContext="shape" transform="translate(361.595,-193.219)">
			<title>矩形.353</title>
			<desc>LSU</desc>
			<v:userDefs>
				<v:ud v:nameU="visVersion" v:val="VT0(15):26"/>
			</v:userDefs>
			<v:textBlock v:margins="rect(4,4,4,4)" v:tabSpace="42.5197"/>
			<v:textRect cx="34.9056" cy="508.973" width="69.82" height="22.6772"/>
			<g id="shadow38-144" v:groupContext="shadow" v:shadowOffsetX="0.345598" v:shadowOffsetY="-1.97279" v:shadowType="1"
					transform="matrix(1,0,0,1,0.345598,1.97279)" class="st1">
				<rect x="0" y="497.635" width="69.8112" height="22.6772" class="st28"/>
			</g>
			<rect x="0" y="497.635" width="69.8112" height="22.6772" class="st29"/>
			<text x="24.26" y="513.17" class="st30" v:langID="2052"><v:paragraph v:horizAlign="1"/><v:tabList/>LSU</text>		</g>
		<g id="shape39-149" v:mID="39" v:groupContext="shape" transform="translate(276.023,-23.3478)">
			<title>矩形.384</title>
			<desc>DTCM</desc>
			<v:userDefs>
				<v:ud v:nameU="visVersion" v:val="VT0(15):26"/>
			</v:userDefs>
			<v:textBlock v:margins="rect(4,4,4,4)" v:tabSpace="42.5197"/>
			<v:textRect cx="188.504" cy="477.792" width="377.01" height="85.0394"/>
			<g id="shadow39-150" v:groupContext="shadow" v:shadowOffsetX="0.345598" v:shadowOffsetY="-1.97279" v:shadowType="1"
					transform="matrix(1,0,0,1,0.345598,1.97279)" class="st1">
				<rect x="0" y="435.272" width="377.008" height="85.0394" class="st32"/>
			</g>
			<rect x="0" y="435.272" width="377.008" height="85.0394" class="st33"/>
			<text x="158.16" y="484.99" class="st34" v:langID="2052"><v:paragraph v:horizAlign="1"/><v:tabList/>DTCM</text>		</g>
		<g id="shape40-155" v:mID="40" v:groupContext="shape" transform="translate(361.595,-229.066)">
			<title>矩形.356</title>
			<desc>CSR</desc>
			<v:userDefs>
				<v:ud v:nameU="visVersion" v:val="VT0(15):26"/>
			</v:userDefs>
			<v:textBlock v:margins="rect(4,4,4,4)" v:tabSpace="42.5197"/>
			<v:textRect cx="34.9056" cy="508.973" width="69.82" height="22.6772"/>
			<g id="shadow40-156" v:groupContext="shadow" v:shadowOffsetX="0.345598" v:shadowOffsetY="-1.97279" v:shadowType="1"
					transform="matrix(1,0,0,1,0.345598,1.97279)" class="st1">
				<rect x="0" y="497.635" width="69.8112" height="22.6772" class="st28"/>
			</g>
			<rect x="0" y="497.635" width="69.8112" height="22.6772" class="st29"/>
			<text x="24.16" y="513.17" class="st30" v:langID="2052"><v:paragraph v:horizAlign="1"/><v:tabList/>CSR</text>		</g>
		<g id="shape41-161" v:mID="41" v:groupContext="shape" v:layerMember="0" transform="translate(463.088,-265.248)">
			<title>动态连接线.372</title>
			<path d="M0 515.98 L-7.09 515.98 L-7.09 510.47 L-2.36 510.47 A2.3622 2.3622 0 1 1 2.36 510.47 L26 510.47" class="st4"/>
		</g>
		<g id="shape42-166" v:mID="42" v:groupContext="shape" transform="translate(333.145,-393.193)">
			<title>云朵.398</title>
			<desc>commit</desc>
			<v:userDefs>
				<v:ud v:nameU="visVersion" v:prompt="" v:val="VT0(15):26"/>
			</v:userDefs>
			<v:textBlock v:margins="rect(4,4,4,4)" v:tabSpace="42.5197"/>
			<v:textRect cx="56.6929" cy="477.792" width="113.39" height="85.0394"/>
			<path d="M5.58 485.51 A8.95424 11.2986 0 0 1 9.88 463.8 A18.1582 22.9124 0 0 1 36.23 445.49 A20.8506 26.3097 0 0 1 58.8
						 441.41 A13.0752 16.4985 0 0 1 78.16 440.05 A14.8864 18.7839 0 0 1 101.82 446.84 A10.6442 13.4306 0 0 1 110.42
						 465.84 A13.1842 16.6355 0 0 1 99.67 492.97 A16.6329 20.987 0 0 1 76.01 506.54 A19.6116 24.7455 0 0 1 43.76
						 511.97 A24.8602 31.3681 0 0 1 15.79 506.54 A9.80787 12.3758 0 0 1 5.58 485.51 Z" class="st35"/>
			<path d="M5.58 485.51 A8.95424 11.2986 0 0 1 9.88 463.8 A18.1582 22.9124 0 0 1 36.23 445.49 A20.8506 26.3097 0 0 1 58.8
						 441.41 A13.0752 16.4985 0 0 1 78.16 440.05 A14.8864 18.7839 0 0 1 101.82 446.84 A10.6442 13.4306 0 0 1 110.42
						 465.84 A13.1842 16.6355 0 0 1 99.67 492.97 A16.6329 20.987 0 0 1 76.01 506.54 A19.6116 24.7455 0 0 1 43.76
						 511.97 A24.8602 31.3681 0 0 1 15.79 506.54 A9.80787 12.3758 0 0 1 5.58 485.51" class="st36"/>
			<path d="M11.49 486.19 A8.9295 11.2674 0 0 1 5.58 485.51" class="st36"/>
			<path d="M42.13 508.58 A8.96837 11.3165 -180 0 0 43.76 511.97" class="st36"/>
			<path d="M76.82 502.47 A7.23966 9.13514 0 0 1 76.01 506.54" class="st36"/>
			<path d="M93.21 482.11 A7.59674 9.58572 0 0 1 99.67 492.97" class="st36"/>
			<path d="M107.19 469.91 A6.93548 8.75133 -180 0 0 110.42 465.84" class="st36"/>
			<path d="M39.45 448.2 A10.6952 13.4949 -180 0 0 36.23 445.49" class="st36"/>
			<text x="34.91" y="481.99" class="st37" v:langID="2052"><v:paragraph v:horizAlign="1"/><v:tabList/>commit</text>		</g>
		<g id="shape43-178" v:mID="43" v:groupContext="shape" transform="translate(497.125,-229.917)">
			<title>云朵.375</title>
			<desc>write back</desc>
			<v:userDefs>
				<v:ud v:nameU="visVersion" v:prompt="" v:val="VT0(15):26"/>
			</v:userDefs>
			<v:textBlock v:margins="rect(4,4,4,4)" v:tabSpace="42.5197"/>
			<v:textRect cx="56.6929" cy="477.792" width="113.39" height="85.0394"/>
			<path d="M5.58 485.51 A8.95424 11.2986 0 0 1 9.88 463.8 A18.1582 22.9124 0 0 1 36.23 445.49 A20.8506 26.3097 0 0 1 58.8
						 441.41 A13.0752 16.4985 0 0 1 78.16 440.05 A14.8864 18.7839 0 0 1 101.82 446.84 A10.6442 13.4306 0 0 1 110.42
						 465.84 A13.1842 16.6355 0 0 1 99.67 492.97 A16.6329 20.987 0 0 1 76.01 506.54 A19.6116 24.7455 0 0 1 43.76
						 511.97 A24.8602 31.3681 0 0 1 15.79 506.54 A9.80787 12.3758 0 0 1 5.58 485.51 Z" class="st35"/>
			<path d="M5.58 485.51 A8.95424 11.2986 0 0 1 9.88 463.8 A18.1582 22.9124 0 0 1 36.23 445.49 A20.8506 26.3097 0 0 1 58.8
						 441.41 A13.0752 16.4985 0 0 1 78.16 440.05 A14.8864 18.7839 0 0 1 101.82 446.84 A10.6442 13.4306 0 0 1 110.42
						 465.84 A13.1842 16.6355 0 0 1 99.67 492.97 A16.6329 20.987 0 0 1 76.01 506.54 A19.6116 24.7455 0 0 1 43.76
						 511.97 A24.8602 31.3681 0 0 1 15.79 506.54 A9.80787 12.3758 0 0 1 5.58 485.51" class="st36"/>
			<path d="M11.49 486.19 A8.9295 11.2674 0 0 1 5.58 485.51" class="st36"/>
			<path d="M42.13 508.58 A8.96837 11.3165 -180 0 0 43.76 511.97" class="st36"/>
			<path d="M76.82 502.47 A7.23966 9.13514 0 0 1 76.01 506.54" class="st36"/>
			<path d="M93.21 482.11 A7.59674 9.58572 0 0 1 99.67 492.97" class="st36"/>
			<path d="M107.19 469.91 A6.93548 8.75133 -180 0 0 110.42 465.84" class="st36"/>
			<path d="M39.45 448.2 A10.6952 13.4949 -180 0 0 36.23 445.49" class="st36"/>
			<text x="27.06" y="481.99" class="st37" v:langID="2052"><v:paragraph v:horizAlign="1"/><v:tabList/>write back</text>		</g>
		<g id="shape44-189" v:mID="44" v:groupContext="shape" v:layerMember="0" transform="translate(609.191,-266.624)">
			<title>动态连接线.400</title>
			<path d="M0 520.31 L25.77 520.31 L25.77 296.92 L-412.54 296.92 L-412.54 436.3" class="st4"/>
		</g>
		<g id="shape45-194" v:mID="45" v:groupContext="shape" v:layerMember="0" transform="translate(389.414,-359.283)">
			<title>动态连接线.377</title>
			<path d="M7.09 520.31 L7.09 509.68 L7.09 509.68 L7.09 493.65" class="st4"/>
		</g>
		<g id="shape46-199" v:mID="46" v:groupContext="shape" v:layerMember="0" transform="translate(389.473,-193.219)">
			<title>动态连接线.379</title>
			<path d="M7.04 532.01 L7.04 532.37 L7.13 593.08" class="st38"/>
		</g>
		<g id="shape47-208" v:mID="47" v:groupContext="shape" v:layerMember="0" transform="translate(445.21,-429.9)">
			<title>动态连接线.381</title>
			<path d="M11.7 520.31 L12.06 520.31 L99.1 520.31 L99.1 627.11" class="st38"/>
		</g>
		<g id="shape48-215" v:mID="48" v:groupContext="shape" v:layerMember="0" transform="translate(253.346,-293.049)">
			<title>动态连接线.406</title>
			<path d="M0 513.28 L45.91 513.18" class="st39"/>
		</g>
		<g id="group49-221" transform="translate(306.298,-176.034)" v:mID="49" v:groupContext="group">
			<title>工作表.49</title>
			<g id="shape50-222" v:mID="50" v:groupContext="shape" v:layerMember="0" transform="translate(0,-160.932)">
				<title>动态连接线.276</title>
				<path d="M0 517.12 L0 509.33 L47.26 509.33" class="st4"/>
			</g>
			<g id="shape51-227" v:mID="51" v:groupContext="shape" transform="translate(520.312,333.225) rotate(90)">
				<title>工作表.51</title>
				<path d="M0 520.31 L187.09 520.31" class="st41"/>
			</g>
			<g id="shape52-230" v:mID="52" v:groupContext="shape" v:layerMember="0" transform="translate(0,-124.157)">
				<title>动态连接线.369</title>
				<path d="M0 520.31 L0 580.1 L47.26 580.1" class="st4"/>
			</g>
			<g id="shape53-235" v:mID="53" v:groupContext="shape" v:layerMember="0" transform="translate(0,-123.024)">
				<title>动态连接线.408</title>
				<path d="M0 519.18 L0 507.27 L47.26 507.27" class="st4"/>
			</g>
			<g id="shape54-240" v:mID="54" v:groupContext="shape" v:layerMember="0" transform="translate(0,-124.157)">
				<title>动态连接线.409</title>
				<path d="M0 520.31 L0 544.25 L47.26 544.25" class="st4"/>
			</g>
			<g id="shape55-245" v:mID="55" v:groupContext="shape" v:layerMember="0" transform="translate(0,-124.157)">
				<title>动态连接线.410</title>
				<path d="M0 520.31 L0 615.95 L47.26 615.95" class="st4"/>
			</g>
		</g>
		<g id="group56-250" transform="translate(463.088,-176.034)" v:mID="56" v:groupContext="group">
			<title>工作表.56</title>
			<g id="shape57-251" v:mID="57" v:groupContext="shape" v:layerMember="0" transform="translate(-6.39488E-014,-160.932)">
				<title>动态连接线.276</title>
				<path d="M0 517.12 L0 509.33 L-23.64 509.33" class="st4"/>
			</g>
			<g id="shape58-256" v:mID="58" v:groupContext="shape" transform="translate(520.312,333.225) rotate(90)">
				<title>工作表.58</title>
				<path d="M0 520.31 L187.09 520.31" class="st41"/>
			</g>
			<g id="shape59-259" v:mID="59" v:groupContext="shape" v:layerMember="0" transform="translate(0,-124.157)">
				<title>动态连接线.369</title>
				<path d="M0 520.31 L0 580.1 L-23.64 580.1" class="st4"/>
			</g>
			<g id="shape60-264" v:mID="60" v:groupContext="shape" v:layerMember="0" transform="translate(-6.39488E-014,-123.024)">
				<title>动态连接线.408</title>
				<path d="M0 519.18 L0 507.27 L-23.64 507.27" class="st4"/>
			</g>
			<g id="shape61-269" v:mID="61" v:groupContext="shape" v:layerMember="0" transform="translate(-6.39488E-014,-124.157)">
				<title>动态连接线.409</title>
				<path d="M0 520.31 L0 544.25 L-23.64 544.25" class="st4"/>
			</g>
			<g id="shape62-274" v:mID="62" v:groupContext="shape" v:layerMember="0" transform="translate(-6.39488E-014,-124.157)">
				<title>动态连接线.410</title>
				<path d="M0 520.31 L0 615.95 L-23.64 615.95" class="st4"/>
			</g>
		</g>
		<g id="shape63-279" v:mID="63" v:groupContext="shape" transform="translate(139.96,-257.559)">
			<title>矩形.359</title>
			<desc>ID stage</desc>
			<v:userDefs>
				<v:ud v:nameU="visVersion" v:val="VT0(15):26"/>
			</v:userDefs>
			<v:textBlock v:margins="rect(4,4,4,4)" v:tabSpace="42.5197"/>
			<v:textRect cx="56.6929" cy="477.792" width="113.39" height="85.0394"/>
			<g id="shadow63-280" v:groupContext="shadow" v:shadowOffsetX="0.345598" v:shadowOffsetY="-1.97279" v:shadowType="1"
					transform="matrix(1,0,0,1,0.345598,1.97279)" class="st1">
				<rect x="0" y="435.272" width="113.386" height="85.0394" class="st28"/>
			</g>
			<rect x="0" y="435.272" width="113.386" height="85.0394" class="st29"/>
			<text x="26.63" y="483.19" class="st42" v:langID="2052"><v:paragraph v:horizAlign="1"/><v:tabList/>ID stage</text>		</g>
		<g id="shape64-285" v:mID="64" v:groupContext="shape" transform="translate(21.0294,-397.521)">
			<title>矩形.64</title>
			<desc>ID stage</desc>
			<v:userDefs>
				<v:ud v:nameU="visVersion" v:val="VT0(15):26"/>
			</v:userDefs>
			<v:textBlock v:margins="rect(4,4,4,4)" v:tabSpace="42.5197"/>
			<v:textRect cx="56.6929" cy="477.792" width="113.39" height="85.0394"/>
			<g id="shadow64-286" v:groupContext="shadow" v:shadowOffsetX="0.345598" v:shadowOffsetY="-1.97279" v:shadowType="1"
					transform="matrix(1,0,0,1,0.345598,1.97279)" class="st1">
				<rect x="0" y="435.272" width="113.386" height="85.0394" class="st28"/>
			</g>
			<rect x="0" y="435.272" width="113.386" height="85.0394" class="st29"/>
			<text x="26.63" y="483.19" class="st42" v:langID="2052"><v:paragraph v:horizAlign="1"/><v:tabList/>ID stage</text>		</g>
	</g>
</svg>
