<?xml version="1.0" encoding="UTF-8" standalone="no"?>
<!DOCTYPE svg PUBLIC "-//W3C//DTD SVG 1.1//EN" "http://www.w3.org/Graphics/SVG/1.1/DTD/svg11.dtd">
<!-- 由 Microsoft Visio, SVG Export 生成 rvant_id_stage.svg Page-4 -->
<svg xmlns="http://www.w3.org/2000/svg" xmlns:xlink="http://www.w3.org/1999/xlink" xmlns:ev="http://www.w3.org/2001/xml-events"
		xmlns:v="http://schemas.microsoft.com/visio/2003/SVGExtensions/" width="6.30709in" height="5.70144in"
		viewBox="0 0 454.11 410.504" xml:space="preserve" color-interpolation-filters="sRGB" class="st49">
	<v:documentProperties v:langID="2052" v:metric="true" v:viewMarkup="false">
		<v:userDefs>
			<v:ud v:nameU="msvSubprocessMaster" v:prompt="" v:val="VT4(Rectangle)"/>
			<v:ud v:nameU="msvNoAutoConnect" v:val="VT0(1):26"/>
		</v:userDefs>
	</v:documentProperties>

	<style type="text/css">
	<![CDATA[
		.st1 {visibility:visible}
		.st2 {fill:#bdd0e9;fill-opacity:0.22;filter:url(#filter_2);stroke:none}
		.st3 {fill:#f7cbac;stroke:none;stroke-width:0.25}
		.st4 {fill:#5b9bd5;fill-opacity:0.22;filter:url(#filter_2);stroke:none;stroke-linecap:round;stroke-linejoin:round}
		.st5 {fill:#000000;fill-opacity:0;stroke:none;stroke-linecap:round;stroke-linejoin:round;stroke-width:0.75}
		.st6 {fill:url(#grad7-15);stroke:none;stroke-linecap:round;stroke-linejoin:round;stroke-width:0.75}
		.st7 {fill:#5b9bd5;stroke:none;stroke-linecap:round;stroke-linejoin:round;stroke-width:0.75}
		.st8 {fill:url(#grad0-21)}
		.st9 {stroke:none;stroke-linecap:round;stroke-linejoin:round;stroke-width:0.75}
		.st10 {fill:url(#grad0-26)}
		.st11 {fill:url(#grad0-31)}
		.st12 {fill:url(#grad3-36)}
		.st13 {fill:none}
		.st14 {stroke:#996633;stroke-linecap:round;stroke-linejoin:round;stroke-width:0.130208}
		.st15 {fill:url(#grad1-44);stroke:none;stroke-linecap:round;stroke-linejoin:round;stroke-width:0.75}
		.st16 {fill:url(#grad10-57)}
		.st17 {fill:#4974ba;stroke:none;stroke-linecap:round;stroke-linejoin:round;stroke-width:0.75}
		.st18 {stroke:#1e4182;stroke-linecap:round;stroke-linejoin:round;stroke-width:0.130208}
		.st19 {fill:none;stroke:#b3732d;stroke-linecap:butt;stroke-width:0.130208}
		.st20 {fill:#5b9bd5}
		.st21 {fill:url(#grad2-87);stroke:none;stroke-linecap:round;stroke-linejoin:round;stroke-width:0.75}
		.st22 {fill:#ffffff;stroke:none;stroke-linecap:round;stroke-linejoin:round;stroke-width:0.75}
		.st23 {fill:none;stroke:#c8c8c8;stroke-width:0.25}
		.st24 {fill:url(#grad0-113)}
		.st25 {stroke:#4f87bb;stroke-width:0.75}
		.st26 {fill:#4f87bb;font-family:Calibri;font-size:1.16666em}
		.st27 {fill:#5b9bd5;fill-opacity:0.22;filter:url(#filter_2);stroke:#5b9bd5;stroke-opacity:0.22}
		.st28 {fill:#5b9bd5;stroke:#c7c8c8;stroke-width:0.25}
		.st29 {fill:#feffff;font-family:Calibri;font-size:1.16666em}
		.st30 {fill:#5b9bd5;fill-opacity:0.22;filter:url(#filter_2)}
		.st31 {fill:none;filter:url(#filter_2);stroke:#5b9bd5;stroke-opacity:0.22}
		.st32 {stroke:#c8c8c8;stroke-width:0.25}
		.st33 {marker-end:url(#mrkr4-157);stroke:#5b9bd5;stroke-linecap:round;stroke-linejoin:round;stroke-width:1.5}
		.st34 {fill:#5b9bd5;fill-opacity:1;stroke:#5b9bd5;stroke-opacity:1;stroke-width:0.37313432835821}
		.st35 {fill:#7ca9da}
		.st36 {stroke:#4a80b0;stroke-linecap:butt;stroke-width:1.25}
		.st37 {fill:none;stroke:none;stroke-linecap:butt;stroke-width:1.25}
		.st38 {fill:#feffff;font-family:Calibri;font-size:1.04166em;font-style:italic}
		.st39 {fill:#feffff;font-family:Calibri;font-size:0.520844em}
		.st40 {font-size:1em}
		.st41 {fill:#feffff;font-family:Calibri;font-size:1.09362em}
		.st42 {fill:#4a80b0;font-family:Calibri;font-size:1.00001em}
		.st43 {marker-end:url(#mrkr13-197);marker-start:url(#mrkr13-195);stroke:#5b9bd5;stroke-linecap:round;stroke-linejoin:round;stroke-width:1.5}
		.st44 {fill:none;stroke:none;stroke-width:0.25}
		.st45 {fill:#5b9bd5;font-family:Calibri;font-size:1.99999em;font-weight:bold}
		.st46 {marker-end:url(#mrkr4-315);stroke:#5b9bd5;stroke-linecap:round;stroke-linejoin:round;stroke-width:1}
		.st47 {fill:#5b9bd5;fill-opacity:1;stroke:#5b9bd5;stroke-opacity:1;stroke-width:0.28409090909091}
		.st48 {fill:#5b9bd5;font-family:Calibri;font-size:1.00001em}
		.st49 {fill:none;fill-rule:evenodd;font-size:12px;overflow:visible;stroke-linecap:square;stroke-miterlimit:3}
	]]>
	</style>

	<defs id="Patterns_And_Gradients">
		<radialGradient id="grad7-15" cx="0" cy="0" r="1.4">
			<stop offset="0" stop-color="#dcf1fa" stop-opacity="1"/>
			<stop offset="1" stop-color="#5b9bd5" stop-opacity="1"/>
		</radialGradient>
		<linearGradient id="grad0-21" x1="0" y1="0" x2="1" y2="0" gradientTransform="rotate(0 0.5 0.5)">
			<stop offset="0" stop-color="#f7f3e8" stop-opacity="1"/>
			<stop offset="1" stop-color="#a8dbf0" stop-opacity="1"/>
		</linearGradient>
		<linearGradient id="grad0-26" x1="0" y1="0" x2="1" y2="0" gradientTransform="rotate(0 0.5 0.5)">
			<stop offset="0" stop-color="#a8dbf0" stop-opacity="1"/>
			<stop offset="1" stop-color="#5b9bd5" stop-opacity="1"/>
		</linearGradient>
		<linearGradient id="grad0-31" x1="0" y1="0" x2="1" y2="0" gradientTransform="rotate(0 0.5 0.5)">
			<stop offset="0" stop-color="#5b9bd5" stop-opacity="1"/>
			<stop offset="1" stop-color="#4974ba" stop-opacity="1"/>
		</linearGradient>
		<radialGradient id="grad3-36" cx="0.5" cy="0.5" r="0.73">
			<stop offset="0" stop-color="#ffffff" stop-opacity="1"/>
			<stop offset="1" stop-color="#da8c36" stop-opacity="1"/>
		</radialGradient>
		<radialGradient id="grad1-44" cx="1" cy="1" r="1.4">
			<stop offset="0" stop-color="#ffffff" stop-opacity="1"/>
			<stop offset="1" stop-color="#da8c36" stop-opacity="1"/>
		</radialGradient>
		<pattern id="grad10-57" x="0" y="0" width="1" height="1" patternContentUnits="objectBoundingBox">
			<path d="M 0.5 0.5 L 0 0 L 0 1 z" style="fill:url(#grad0-58)"/>
			<path d="M 0.5 0.5 L 1 0 L 1 1 z" style="fill:url(#grad0-59)"/>
			<path d="M 0.5 0.5 L 0 0 L 1 0 z" style="fill:url(#grad0-60)"/>
			<path d="M 0.5 0.5 L 0 1 L 1 1 z" style="fill:url(#grad0-61)"/>
		</pattern>
		<linearGradient id="grad0-58" x1="0" y1="0" x2="1" y2="0" gradientTransform="rotate(180 0.5 0.5)">
			<stop offset="0" stop-color="#a8dbf0" stop-opacity="1"/>
			<stop offset="1" stop-color="#5b9bd5" stop-opacity="1"/>
		</linearGradient>
		<linearGradient id="grad0-59" x1="0" y1="0" x2="1" y2="0" gradientTransform="rotate(360 0.5 0.5)">
			<stop offset="0" stop-color="#a8dbf0" stop-opacity="1"/>
			<stop offset="1" stop-color="#5b9bd5" stop-opacity="1"/>
		</linearGradient>
		<linearGradient id="grad0-60" x1="0" y1="0" x2="1" y2="0" gradientTransform="rotate(270 0.5 0.5)">
			<stop offset="0" stop-color="#a8dbf0" stop-opacity="1"/>
			<stop offset="1" stop-color="#5b9bd5" stop-opacity="1"/>
		</linearGradient>
		<linearGradient id="grad0-61" x1="0" y1="0" x2="1" y2="0" gradientTransform="rotate(90 0.5 0.5)">
			<stop offset="0" stop-color="#a8dbf0" stop-opacity="1"/>
			<stop offset="1" stop-color="#5b9bd5" stop-opacity="1"/>
		</linearGradient>
		<radialGradient id="grad2-87" cx="0" cy="1" r="1.4">
			<stop offset="0" stop-color="#ffffff" stop-opacity="1"/>
			<stop offset="1" stop-color="#da8c36" stop-opacity="1"/>
		</radialGradient>
		<linearGradient id="grad0-113" x1="0" y1="0" x2="1" y2="0" gradientTransform="rotate(60 0.5 0.5)">
			<stop offset="0" stop-color="#e9eff7" stop-opacity="1"/>
			<stop offset="0.24" stop-color="#f4f7fb" stop-opacity="1"/>
			<stop offset="0.54" stop-color="#feffff" stop-opacity="1"/>
		</linearGradient>
	</defs>
	<defs id="Markers">
		<g id="lend4">
			<path d="M 2 1 L 0 0 L 2 -1 L 2 1 " style="stroke:none"/>
		</g>
		<marker id="mrkr4-157" class="st34" v:arrowType="4" v:arrowSize="2" v:setback="5.36" refX="-5.36" orient="auto"
				markerUnits="strokeWidth" overflow="visible">
			<use xlink:href="#lend4" transform="scale(-2.68,-2.68) "/>
		</marker>
		<g id="lend13">
			<path d="M 3 1 L 0 0 L 3 -1 L 3 1 " style="stroke:none"/>
		</g>
		<marker id="mrkr13-195" class="st34" v:arrowType="13" v:arrowSize="2" v:setback="0" refX="0" orient="auto"
				markerUnits="strokeWidth" overflow="visible">
			<use xlink:href="#lend13" transform="scale(2.68) "/>
		</marker>
		<marker id="mrkr13-197" class="st34" v:arrowType="13" v:arrowSize="2" v:setback="8.04" refX="-8.04" orient="auto"
				markerUnits="strokeWidth" overflow="visible">
			<use xlink:href="#lend13" transform="scale(-2.68,-2.68) "/>
		</marker>
		<marker id="mrkr4-315" class="st47" v:arrowType="4" v:arrowSize="2" v:setback="7.04" refX="-7.04" orient="auto"
				markerUnits="strokeWidth" overflow="visible">
			<use xlink:href="#lend4" transform="scale(-3.52,-3.52) "/>
		</marker>
	</defs>
	<defs id="Filters">
		<filter id="filter_2">
			<feGaussianBlur stdDeviation="2"/>
		</filter>
	</defs>
	<g v:mID="12" v:index="4" v:groupContext="foregroundPage">
		<v:userDefs>
			<v:ud v:nameU="msvThemeOrder" v:val="VT0(0):26"/>
		</v:userDefs>
		<title>ID</title>
		<v:pageProperties v:drawingScale="0.0393701" v:pageScale="0.0393701" v:drawingUnits="24" v:shadowOffsetX="8.50394"
				v:shadowOffsetY="-8.50394"/>
		<v:layer v:name="流程图" v:index="0"/>
		<v:layer v:name="连接线" v:index="1"/>
		<v:layer v:name="电气" v:index="2"/>
		<g id="shape1-1" v:mID="1" v:groupContext="shape" transform="translate(32.2331,-22.9728)">
			<title>矩形.258</title>
			<v:userDefs>
				<v:ud v:nameU="visVersion" v:val="VT0(15):26"/>
			</v:userDefs>
			<g id="shadow1-2" v:groupContext="shadow" v:shadowOffsetX="0.345598" v:shadowOffsetY="-1.97279" v:shadowType="1"
					transform="matrix(1,0,0,1,0.345598,1.97279)" class="st1">
				<rect x="0" y="42" width="388.995" height="368.504" class="st2"/>
			</g>
			<rect x="0" y="42" width="388.995" height="368.504" class="st3"/>
		</g>
		<g id="group31-6" transform="translate(18,-137.197)" v:mID="31" v:groupContext="group">
			<v:userDefs>
				<v:ud v:nameU="SkinColor" v:prompt="" v:val="VT5(#da8c36)"/>
				<v:ud v:nameU="visVersion" v:prompt="" v:val="VT0(15):26"/>
			</v:userDefs>
			<title>协议.229</title>
			<g id="shape32-7" v:mID="32" v:groupContext="shape" transform="translate(3.58062,-2.7334)">
				<title>工作表.32</title>
				<g id="shadow32-8" v:groupContext="shadow" v:shadowOffsetX="0.3456" v:shadowOffsetY="-1.9728" v:shadowType="1"
						transform="matrix(1,0,0,1,0.3456,1.9728)" class="st1">
					<path d="M2.69 388.61 A2.6409 2.6409 0 0 1 1.78 386.56 A2.18531 2.18531 0 0 1 3.84 384.02 A2.39231 2.39231 0
								 0 1 5.93 386.56 A2.53234 2.53234 0 0 1 4.8 388.73 L4.8 389.13 A4.49339 4.49339 0 0 1 5.76 389.79
								 A4.49666 4.49666 0 0 1 7.38 392.74 A88.512 88.512 0 0 1 7.46 394.03 L9.42 392.89 a0.246909 0.246909
								 0 0 1 0.483115 -0.0967036 L10.07 392.73 A1.6048 1.6048 0 0 1 10.4 391.97 A1.61312 1.61312 0 0 1
								 11.78 391.45 a0.187573 0.187573 0 0 1 0.0844328 -0.305495 A386.21 386.21 0 0 1 15.15 389.19 L15.29
								 386.87 a0.84988 0.84988 0 0 1 0.499154 -1.07072 L17.66 384.84 A2.57247 2.57247 0 0 1 16.72 382.75
								 A2.26571 2.26571 0 0 1 18.79 380.26 A2.28311 2.28311 0 0 1 20.87 382.75 A2.41319 2.41319 0 0 1 19.99
								 384.77 L19.95 385.01 A10.534 10.534 -180 0 0 21.06 385.81 A4.17429 4.17429 0 0 1 22.65 388.77 A254.513
								 254.513 -180 0 0 22.59 396.31 a0.456213 0.456213 0 0 1 -0.277137 0.505619 A1.84357 1.84357 0 0 1
								 22.16 398.63 L21.89 403.58 L21.89 405.03 L18.26 407.1 L17.02 406.29 a0.326892 0.326892 0 0 1 -0.142478
								 -0.541669 L16.36 405.95 L15.04 405.23 A2.34473 2.34473 0 0 1 15.04 404.78 A45.5285 45.5285 -180
								 0 0 16.69 402.95 L15.96 391.51 A23.7922 23.9371 0 0 1 12.9 393.29 a0.553323 0.553323 0 0 1 -0.601985
								 -0.0815347 L12.06 393.35 A1.70999 1.70999 0 0 1 10.79 394.5 L10.7 394.8 L7.61 396.83 L7.3 397.05
								 A357.113 359.286 -180 0 0 6.72 406.66 A3.5854 3.5854 0 0 1 9 407.84 L9.01 408.06 L4.67 410.5 L3.46
								 409.75 L3.49 409.06 L2.7 409.46 L1.3 408.64 A62.5688 62.9497 -180 0 0 1.22 401.27 A1.21205 1.21205
								 0 0 1 0.42 399.52 a0.813438 0.813438 0 0 1 -0.415184 -0.386383 A585.166 585.166 0 0 1 0.21 390.11
								 A3.31761 3.31761 -180 0 0 0.67 389.72 L2.69 388.61 Z" class="st4"/>
				</g>
				<path d="M2.69 388.61 A2.6409 2.6409 0 0 1 1.78 386.56 A2.18531 2.18531 0 0 1 3.84 384.02 A2.39231 2.39231 0 0 1
							 5.93 386.56 A2.53234 2.53234 0 0 1 4.8 388.73 L4.8 389.13 A4.49339 4.49339 0 0 1 5.76 389.79 A4.49666
							 4.49666 0 0 1 7.38 392.74 A88.512 88.512 0 0 1 7.46 394.03 L9.42 392.89 a0.246909 0.246909 0 0 1 0.483115
							 -0.0967036 L10.07 392.73 A1.6048 1.6048 0 0 1 10.4 391.97 A1.61312 1.61312 0 0 1 11.78 391.45 a0.187573
							 0.187573 0 0 1 0.0844328 -0.305495 A386.21 386.21 0 0 1 15.15 389.19 L15.29 386.87 a0.84988 0.84988
							 0 0 1 0.499154 -1.07072 L17.66 384.84 A2.57247 2.57247 0 0 1 16.72 382.75 A2.26571 2.26571 0 0 1 18.79
							 380.26 A2.28311 2.28311 0 0 1 20.87 382.75 A2.41319 2.41319 0 0 1 19.99 384.77 L19.95 385.01 A10.534
							 10.534 -180 0 0 21.06 385.81 A4.17429 4.17429 0 0 1 22.65 388.77 A254.513 254.513 -180 0 0 22.59 396.31
							 a0.456213 0.456213 0 0 1 -0.277137 0.505619 A1.84357 1.84357 0 0 1 22.16 398.63 L21.89 403.58 L21.89
							 405.03 L18.26 407.1 L17.02 406.29 a0.326892 0.326892 0 0 1 -0.142478 -0.541669 L16.36 405.95 L15.04
							 405.23 A2.34473 2.34473 0 0 1 15.04 404.78 A45.5285 45.5285 -180 0 0 16.69 402.95 L15.96 391.51 A23.7922
							 23.9371 0 0 1 12.9 393.29 a0.553323 0.553323 0 0 1 -0.601985 -0.0815347 L12.06 393.35 A1.70999 1.70999
							 0 0 1 10.79 394.5 L10.7 394.8 L7.61 396.83 L7.3 397.05 A357.113 359.286 -180 0 0 6.72 406.66 A3.5854
							 3.5854 0 0 1 9 407.84 L9.01 408.06 L4.67 410.5 L3.46 409.75 L3.49 409.06 L2.7 409.46 L1.3 408.64 A62.5688
							 62.9497 -180 0 0 1.22 401.27 A1.21205 1.21205 0 0 1 0.42 399.52 a0.813438 0.813438 0 0 1 -0.415184 -0.386383
							 A585.166 585.166 0 0 1 0.21 390.11 A3.31761 3.31761 -180 0 0 0.67 389.72 L2.69 388.61 Z" class="st5"/>
			</g>
			<g id="shape33-12" v:mID="33" v:groupContext="shape" transform="translate(18.5693,-6.15625)">
				<title>工作表.33</title>
				<path d="M5.75 394.99 A5.25308 5.25308 -180 0 0 2.76 389.51 A1.59564 1.59564 -180 0 0 0.4 389.57 A18.4129 18.4129
							 -180 0 0 0.12 392.67 L0.95 395.01 L1.17 397.26 L1.23 399.59 L1.66 406.36 L0 408.18 L0 408.64 L1.33 409.36
							 L1.84 409.16 L1.76 409.47 L3.22 410.5 L5.06 408.03 L5.46 400.45 L5.69 400.5 A228.87 228.87 -180 0 0
							 5.75 394.99 Z" class="st6"/>
			</g>
			<g id="shape34-16" v:mID="34" v:groupContext="shape" transform="translate(19.7814,-7.2836)">
				<title>工作表.34</title>
				<path d="M0.9 410.06 L0.09 410.5 A1.12337 1.12337 0 0 1 0.05 410 A5.83133 5.83133 0 0 1 1.66 408.22 L1.89 400.51
							 L2.32 400.77 L2.5 408.4 A22.9692 22.9692 -180 0 0 0.9 410.06 Z" class="st7"/>
			</g>
			<g id="shape35-18" v:mID="35" v:groupContext="shape" transform="translate(19.4544,-24.0925)">
				<title>工作表.35</title>
				<path d="M4.57 410.5 A4.67888 4.67888 -180 0 0 3.09 408.33 A3.48095 3.48095 -180 0 0 0 407.17 L2.06 406 A3.48095
							 3.48095 0 0 1 5.14 407.16 A4.69619 4.69619 0 0 1 6.61 409.3 L4.57 410.5 Z" class="st8"/>
				<path d="M4.57 410.5 A4.67888 4.67888 -180 0 0 3.09 408.33 A3.48095 3.48095 -180 0 0 0 407.17 L2.06 406 A3.48095
							 3.48095 0 0 1 5.14 407.16 A4.69619 4.69619 0 0 1 6.61 409.3" class="st9"/>
			</g>
			<g id="shape36-23" v:mID="36" v:groupContext="shape" transform="translate(24.0204,-16.1085)">
				<title>工作表.36</title>
				<path d="M2.05 401.31 A4.30888 4.30888 0 0 1 2.17 402.14 A213.063 213.063 0 0 1 2.08 409.89 A2.37488 2.37488 0 0
							 1 0.2 410.48 A594.524 594.524 -180 0 0 0.14 403.27 A3.81341 3.81341 -180 0 0 0.01 402.56 L0 402.52 A1.65959
							 1.65959 0 0 1 2.04 401.31 L2.05 401.31 Z" class="st10"/>
				<path d="M2.05 401.31 A4.30888 4.30888 0 0 1 2.17 402.14 A213.063 213.063 0 0 1 2.08 409.89 A2.37488 2.37488 0 0
							 1 0.2 410.48 A594.524 594.524 -180 0 0 0.14 403.27 A3.81341 3.81341 -180 0 0 0.01 402.56 L0 402.52 A1.65959
							 1.65959 0 0 1 2.04 401.31" class="st9"/>
			</g>
			<g id="shape37-28" v:mID="37" v:groupContext="shape" transform="translate(21.1078,-27.3066)">
				<title>工作表.37</title>
				<path d="M0.06 409.43 L0.07 409.94 a0.854449 0.854449 -180 0 0 1.00538 0.452038 A2.26502 2.26502 -180 0 0 2.39 410.22
							 L2.38 409.25 A2.03671 2.03671 0 0 1 0.1 409.41 L0.06 409.43 Z" class="st11"/>
				<path d="M0.06 409.43 L0.07 409.94 a0.854449 0.854449 -180 0 0 1.00538 0.452038 A2.26502 2.26502 -180 0 0 2.39 410.22
							 L2.38 409.25 A2.03671 2.03671 0 0 1 0.1 409.41" class="st9"/>
			</g>
			<g id="shape38-33" v:mID="38" v:groupContext="shape" transform="translate(20.2623,-28.0152)">
				<title>工作表.38</title>
				<path d="M4.15 408.02 A2.30562 2.30562 0 0 1 2.07 410.5 A2.30562 2.30562 0 0 1 -0 408.02 A2.30583 2.30583 0 0 1 2.07
							 405.54 A2.30562 2.30562 0 0 1 4.15 408.02 L-1.04 404.3 L4.15 408.02 Z" class="st12"/>
				<path d="M4.15 408.02 A2.30562 2.30562 0 0 1 2.07 410.5 A2.30562 2.30562 0 0 1 -0 408.02 A2.30583 2.30583 0 0 1 2.07
							 405.54 A2.30562 2.30562 0 0 1 4.15 408.02" class="st9"/>
			</g>
			<g id="shape39-38" v:mID="39" v:groupContext="shape" transform="translate(20.8557,-28.0139)">
				<title>工作表.39</title>
				<path d="M2.83 409.95 A1.89246 1.89246 0 0 1 1.52 410.5 A1.96096 1.96096 0 0 1 0 409.73 L2.83 409.95 Z"
						class="st13"/>
				<path d="M2.83 409.95 A1.89246 1.89246 0 0 1 1.52 410.5 A1.96096 1.96096 0 0 1 0 409.73" class="st14"/>
			</g>
			<g id="shape40-41" v:mID="40" v:groupContext="shape" transform="translate(3.82266,-12.0124)">
				<title>工作表.40</title>
				<path d="M0.84 408.28 a0.988767 0.988767 0 0 1 0.824312 1.10664 A1.01408 1.01408 0 0 1 0.83 410.5 a0.988062 0.988062
							 0 0 1 -0.824634 -1.10599 A1.01427 1.01427 0 0 1 0.84 408.28 Z" class="st15"/>
			</g>
			<g id="shape41-45" v:mID="41" v:groupContext="shape" transform="translate(3.54189,-2.74833)">
				<title>工作表.41</title>
				<path d="M1.28 408.65 L1.34 407.15 A154.243 155.182 -180 0 0 1.15 399.77 A2.02787 2.02787 0 0 1 -0 399.14 L0.21 390.12
							 L0.91 389.54 L3.53 390.46 L5.53 393.03 L5.65 396.17 L5.65 398.68 L4.64 410.5 L3.39 409.75 L3.42 408.98
							 L2.67 409.46 L1.28 408.65 Z" class="st6"/>
			</g>
			<g id="shape42-48" v:mID="42" v:groupContext="shape" transform="translate(6.23609,-3.78734)">
				<title>工作表.42</title>
				<path d="M0.8 410 A4.68326 4.68326 0 0 1 0 410.5 L0.1 408.99 L0.29 401.09 L0.72 401.34 L0.87 409.06 A10.8866 10.8866
							 -180 0 0 0.8 410 Z" class="st7"/>
			</g>
			<g id="shape43-50" v:mID="43" v:groupContext="shape" transform="translate(4.14074,-20.1148)">
				<title>工作表.43</title>
				<path d="M4.57 410.5 A4.67509 4.67509 -180 0 0 3.09 408.33 A3.48191 3.48191 -180 0 0 0 407.17 L2.06 406 A3.48095
							 3.48095 0 0 1 5.14 407.16 A4.69467 4.69467 0 0 1 6.61 409.3 L4.57 410.5 Z" class="st8"/>
				<path d="M4.57 410.5 A4.67509 4.67509 -180 0 0 3.09 408.33 A3.48191 3.48191 -180 0 0 0 407.17 L2.06 406 A3.48095
							 3.48095 0 0 1 5.14 407.16 A4.69467 4.69467 0 0 1 6.61 409.3" class="st9"/>
			</g>
			<g id="shape44-54" v:mID="44" v:groupContext="shape" transform="translate(8.70678,-15.1058)">
				<title>工作表.44</title>
				<path d="M2.05 404.29 A3.85726 3.85726 0 0 1 2.2 405.08 A484.473 484.473 0 0 1 2.43 409.19 L0.27 410.5 A18.8384 18.8384
							 -180 0 0 0.14 406.24 A6.58741 6.58741 -180 0 0 0.01 405.53 L0 405.49 A1.65991 1.65991 0 0 1 2.04 404.28
							 L2.05 404.29 Z" class="st16"/>
				<path d="M2.05 404.29 A3.85726 3.85726 0 0 1 2.2 405.08 A484.473 484.473 0 0 1 2.43 409.19 L0.27 410.5 A18.8384 18.8384
							 -180 0 0 0.14 406.24 A6.58741 6.58741 -180 0 0 0.01 405.53 L0 405.49 A1.65991 1.65991 0 0 1 2.04 404.28"
						class="st9"/>
			</g>
			<g id="shape45-63" v:mID="45" v:groupContext="shape" transform="translate(9.97975,-5.30298)">
				<title>工作表.45</title>
				<path d="M0.27 409.22 A4.15402 4.15402 0 0 1 2.28 410.17 L0.06 410.5 L0 409.28 L0.27 409.22 Z" class="st17"/>
			</g>
			<g id="shape46-65" v:mID="46" v:groupContext="shape" transform="translate(6.08686,-23.4958)">
				<title>工作表.46</title>
				<path d="M0.06 409.34 L0.06 409.89 a0.811725 0.811725 -180 0 0 0.950066 0.48925 A1.89488 1.89488 -180 0 0 2.26 410.19
							 L2.25 409.15 A1.74403 1.74403 0 0 1 0.09 409.32 L0.06 409.34 Z" class="st11"/>
				<path d="M0.06 409.34 L0.06 409.89 a0.811725 0.811725 -180 0 0 0.950066 0.48925 A1.89488 1.89488 -180 0 0 2.26 410.19
							 L2.25 409.15 A1.74403 1.74403 0 0 1 0.09 409.32" class="st9"/>
			</g>
			<g id="shape47-69" v:mID="47" v:groupContext="shape" transform="translate(5.30597,-24.2549)">
				<title>工作表.47</title>
				<path d="M4.15 408.02 A2.30531 2.30531 0 0 1 2.07 410.5 A2.30531 2.30531 0 0 1 0 408.02 A2.30635 2.30635 0 0 1 2.07
							 405.54 A2.30615 2.30615 0 0 1 4.15 408.02 L-1.04 404.3 L4.15 408.02 Z" class="st12"/>
				<path d="M4.15 408.02 A2.30531 2.30531 0 0 1 2.07 410.5 A2.30531 2.30531 0 0 1 0 408.02 A2.30635 2.30635 0 0 1 2.07
							 405.54 A2.30615 2.30615 0 0 1 4.15 408.02" class="st9"/>
			</g>
			<g id="shape48-73" v:mID="48" v:groupContext="shape" transform="translate(4.66112,-11.8363)">
				<title>工作表.48</title>
				<path d="M0.07 410.5 L0 402.13 L0.07 410.5 Z" class="st13"/>
				<path d="M0.07 410.5 L0 402.13" class="st18"/>
			</g>
			<g id="shape49-76" v:mID="49" v:groupContext="shape" transform="translate(7.89983,-15.0709)">
				<title>工作表.49</title>
				<path d="M6.33 407.12 A96.13 96.13 0 0 1 1.07 410.42 a0.705889 0.705889 0 0 1 -1.05717 -0.587617 A60.4735 60.4735
							 0 0 1 0.01 407.49" class="st18"/>
			</g>
			<g id="shape50-79" v:mID="50" v:groupContext="shape" transform="translate(5.32173,-24.3213)">
				<title>工作表.50</title>
				<path d="M4.15 408.02 A2.30531 2.30531 0 0 1 2.07 410.5 A2.30531 2.30531 0 0 1 0 408.02 A2.20107 2.20107 0 0 1 2.06
							 405.61 A2.27642 2.27642 0 0 1 4.15 408.02 Z" class="st19"/>
			</g>
			<g id="shape51-81" v:mID="51" v:groupContext="shape" transform="translate(8.20312,-2.74801)">
				<title>工作表.51</title>
				<path d="M0.77 398.09 L0.1 408.79 L0 410.5 L4.3 408.06 a0.341471 0.341471 -180 0 0 -0.399774 -0.436183 A5.31526 5.31526
							 -180 0 0 2 407.69 A241.569 241.569 0 0 1 2.59 397.05 L0.77 398.09 ZM17.54 397.68 L17.22 403.58 L17.22
							 405.03 L13.59 407.1 A1.85955 1.85955 0 0 1 13.55 406.59 A8.05714 8.05714 0 0 1 15.35 404.6 L15.77 397.64
							 L17.54 397.68 Z" class="st20"/>
				<path d="M0.77 398.09 L0.1 408.79 L0 410.5 L4.3 408.06 a0.341471 0.341471 -180 0 0 -0.399774 -0.436183 A5.31526 5.31526
							 -180 0 0 2 407.69 A241.569 241.569 0 0 1 2.59 397.05 L0.77 398.09M17.54 397.68 L17.22 403.58 L17.22
							 405.03 L13.59 407.1 A1.85955 1.85955 0 0 1 13.55 406.59 A8.05714 8.05714 0 0 1 15.35 404.6 L15.77 397.64"
						class="st9"/>
			</g>
			<g id="shape52-84" v:mID="52" v:groupContext="shape" transform="translate(23.922,-14.1156)">
				<title>工作表.52</title>
				<path d="M1.24 407.65 A1.2445 1.2445 0 0 1 2.08 409.15 A1.27458 1.27458 0 0 1 0.93 410.45 A1.24499 1.24499 0 0 1
							 0.09 408.95 A1.27294 1.27294 0 0 1 1.24 407.65 Z" class="st21"/>
			</g>
			<g id="shape53-88" v:mID="53" v:groupContext="shape" transform="translate(6.9562,-4.18016)">
				<title>工作表.53</title>
				<path d="M15.15 397.66 L15.33 405.3 A15.9563 15.9563 -180 0 0 13.56 407.11 L15.15 397.66 ZM0 401.73 L0.15 409.45
							 L0.13 410.5 L0 401.73 Z" class="st13"/>
				<path d="M15.15 397.66 L15.33 405.3 A15.9563 15.9563 -180 0 0 13.56 407.11M0 401.73 L0.15 409.45 L0.13 410.5"
						class="st18"/>
			</g>
			<g id="shape54-91" v:mID="54" v:groupContext="shape" transform="translate(19.5097,-14.1469)">
				<title>工作表.54</title>
				<path d="M6.32 409.78 A1.09999 1.09999 0 1 1 4.64 408.43 a0.825751 0.825751 0 0 1 -0.688083 -0.751205 A284.221 284.221
							 -180 0 0 3.94 402.17 L6.32 409.78 Z" class="st13"/>
				<path d="M6.32 409.78 A1.09999 1.09999 0 1 1 4.64 408.43 a0.825751 0.825751 0 0 1 -0.688083 -0.751205 A284.221 284.221
							 -180 0 0 3.94 402.17" class="st18"/>
				<path d="" class="st18"/>
				<path d="M0.12 402.85 L0 399.65" class="st18"/>
				<path d="" class="st18"/>
			</g>
			<g id="shape55-97" v:mID="55" v:groupContext="shape" transform="translate(13.3754,-19.4867)">
				<title>工作表.55</title>
				<path d="M2.78 408.79 A1.22943 1.22943 0 0 1 1.86 410.23 A1.25027 1.25027 0 0 1 0.2 409.77 A1.2304 1.2304 0 0 1 1.12
							 408.33 A1.2503 1.2503 0 0 1 2.78 408.79 Z" class="st21"/>
			</g>
			<g id="shape56-100" v:mID="56" v:groupContext="shape" transform="translate(12.6987,-18.4995)">
				<title>工作表.56</title>
				<path d="M2.71 408.65 A1.22556 1.22556 0 0 1 1.94 410.16 A1.2441 1.2441 0 0 1 0.25 409.9 A1.22649 1.22649 0 0 1 1.02
							 408.39 A1.24319 1.24319 0 0 1 2.71 408.65 Z" class="st21"/>
			</g>
			<g id="shape57-103" v:mID="57" v:groupContext="shape" transform="translate(10.9208,-18.1778)">
				<title>工作表.57</title>
				<path d="M3.25 408.7 A1.35058 1.35058 -180 0 0 2.31 408.24 L0.07 409.46 L0 410.5 L3.25 408.7 ZM8.63 405.14 L5.06
							 407.23 a0.922463 0.922463 -180 0 0 -0.663502 -0.347846 a0.321326 0.321326 0 0 1 0.192329 -0.37988 A240.86
							 240.86 -180 0 0 7.81 404.65 L8.63 405.14 Z" class="st22"/>
			</g>
			<g id="shape58-105" v:mID="58" v:groupContext="shape" transform="translate(11.0125,-16.5079)">
				<title>工作表.58</title>
				<path d="M0 408.8 L3.16 407.03 A1.39048 1.39048 0 0 1 3.22 408.56 L0.12 410.5 L0 408.8 ZM8.54 403.49 L4.93 405.53
							 A1.01933 1.01933 0 0 1 4.77 406.92 a0.858413 0.858413 -180 0 0 1.19707 -0.176997 L8.62 405.21 L8.54
							 403.49 Z" class="st20"/>
				<path d="M0 408.8 L3.16 407.03 A1.39048 1.39048 0 0 1 3.22 408.56 L0.12 410.5M8.54 403.49 L4.93 405.53 A1.01933 1.01933
							 0 0 1 4.77 406.92 a0.858413 0.858413 -180 0 0 1.19707 -0.176997 L8.62 405.21 L8.54 403.49" class="st9"/>
			</g>
			<g id="shape59-108" v:mID="59" v:groupContext="shape" transform="translate(3.54189,-2.73827)">
				<title>工作表.59</title>
				<path d="M2.69 388.61 A2.64769 2.64769 0 0 1 1.78 386.56 A2.18454 2.18454 0 0 1 3.84 384.02 A2.40206 2.40206 0 0
							 1 5.93 386.56 A2.53349 2.53349 0 0 1 4.8 388.73 L4.8 389.13 A4.49069 4.49069 0 0 1 5.76 389.79 A4.41438
							 4.41438 0 0 1 7.38 392.74 A107.871 107.871 0 0 1 7.46 394.03 L9.42 392.89 a0.384521 0.384521 0 0 1 0.483115
							 -0.0967036 L10.07 392.73 A1.64117 1.64117 0 0 1 10.4 391.97 A1.55469 1.55469 0 0 1 11.78 391.45 a0.192735
							 0.192735 0 0 1 0.0844328 -0.305495 A366.903 366.903 0 0 1 15.15 389.19 L15.29 386.87 a0.934867 0.934867
							 0 0 1 0.499154 -1.07072 L17.66 384.84 A2.5725 2.5725 0 0 1 16.72 382.75 A2.27187 2.27187 0 0 1 18.79
							 380.26 A2.33851 2.33851 0 0 1 20.87 382.75 A2.4344 2.4344 0 0 1 19.99 384.77 L19.95 385.01 A10.5654
							 10.5654 -180 0 0 21.06 385.81 A4.03272 4.03272 0 0 1 22.65 388.77 A422.187 422.187 -180 0 0 22.59 396.31
							 a0.491579 0.491579 0 0 1 -0.277137 0.505619 A1.77607 1.77607 0 0 1 22.16 398.63 L21.89 403.58 L21.89
							 405.03 L18.26 407.1 L17.02 406.29 a0.323646 0.323646 0 0 1 -0.142478 -0.541669 L16.36 405.95 L15.04
							 405.23 A4.44474 4.44474 0 0 1 15.04 404.78 A48.0779 48.0779 -180 0 0 16.69 402.95 L15.96 391.51 A23.7922
							 23.9371 0 0 1 12.9 393.29 a0.743973 0.743973 0 0 1 -0.601985 -0.0815347 L12.06 393.35 A1.90982 1.90982
							 0 0 1 10.79 394.5 L10.7 394.8 L7.61 396.83 L7.3 397.05 A357.113 359.286 -180 0 0 6.72 406.66 A3.62677
							 3.62677 0 0 1 9 407.84 L9.01 408.06 L4.67 410.5 L3.46 409.75 L3.49 409.06 L2.7 409.46 L1.3 408.64 A62.5688
							 62.9497 -180 0 0 1.22 401.27 A1.15011 1.15011 0 0 1 0.42 399.52 a0.850941 0.850941 0 0 1 -0.415184 -0.386383
							 A530.427 530.427 0 0 1 0.21 390.11 A11.9421 11.9421 -180 0 0 0.67 389.72 L2.69 388.61 Z" class="st23"/>
			</g>
		</g>
		<g id="shape60-110" v:mID="60" v:groupContext="shape" transform="translate(191.622,-125.542)">
			<title>云朵.242</title>
			<desc>issue</desc>
			<v:userDefs>
				<v:ud v:nameU="visVersion" v:prompt="" v:val="VT0(15):26"/>
			</v:userDefs>
			<v:textBlock v:margins="rect(4,4,4,4)" v:tabSpace="42.5197"/>
			<v:textRect cx="56.6929" cy="367.984" width="113.39" height="85.0394"/>
			<path d="M5.58 375.7 A8.95424 11.2986 0 0 1 9.88 354 A18.1582 22.9124 0 0 1 36.23 335.68 A20.8506 26.3097 0 0 1 58.8
						 331.6 A13.0752 16.4985 0 0 1 78.16 330.24 A14.8864 18.7839 0 0 1 101.82 337.03 A10.6442 13.4306 0 0 1 110.42
						 356.03 A13.1842 16.6355 0 0 1 99.67 383.16 A16.6329 20.987 0 0 1 76.01 396.73 A19.6116 24.7455 0 0 1 43.76
						 402.16 A24.8602 31.3681 0 0 1 15.79 396.73 A9.80787 12.3758 0 0 1 5.58 375.7 Z" class="st24"/>
			<path d="M5.58 375.7 A8.95424 11.2986 0 0 1 9.88 354 A18.1582 22.9124 0 0 1 36.23 335.68 A20.8506 26.3097 0 0 1 58.8
						 331.6 A13.0752 16.4985 0 0 1 78.16 330.24 A14.8864 18.7839 0 0 1 101.82 337.03 A10.6442 13.4306 0 0 1 110.42
						 356.03 A13.1842 16.6355 0 0 1 99.67 383.16 A16.6329 20.987 0 0 1 76.01 396.73 A19.6116 24.7455 0 0 1 43.76
						 402.16 A24.8602 31.3681 0 0 1 15.79 396.73 A9.80787 12.3758 0 0 1 5.58 375.7" class="st25"/>
			<path d="M11.49 376.38 A8.9295 11.2674 0 0 1 5.58 375.7" class="st25"/>
			<path d="M42.13 398.77 A8.96837 11.3165 -180 0 0 43.76 402.16" class="st25"/>
			<path d="M76.82 392.66 A7.23966 9.13514 0 0 1 76.01 396.73" class="st25"/>
			<path d="M93.21 372.3 A7.59674 9.58572 0 0 1 99.67 383.16" class="st25"/>
			<path d="M107.19 360.1 A6.93548 8.75133 -180 0 0 110.42 356.03" class="st25"/>
			<path d="M39.45 338.39 A10.6952 13.4949 -180 0 0 36.23 335.68" class="st25"/>
			<text x="42.45" y="372.18" class="st26" v:langID="2052"><v:paragraph v:horizAlign="1"/><v:tabList/>issue</text>		</g>
		<g id="shape61-122" v:mID="61" v:groupContext="shape" transform="translate(198.425,-51.3193)">
			<title>矩形.246</title>
			<desc>Register File</desc>
			<v:userDefs>
				<v:ud v:nameU="visVersion" v:val="VT0(15):26"/>
			</v:userDefs>
			<v:textBlock v:margins="rect(4,4,4,4)" v:tabSpace="42.5197"/>
			<v:textRect cx="56.6929" cy="389.244" width="113.39" height="42.5197"/>
			<g id="shadow61-123" v:groupContext="shadow" v:shadowOffsetX="0.345598" v:shadowOffsetY="-1.97279" v:shadowType="1"
					transform="matrix(1,0,0,1,0.345598,1.97279)" class="st1">
				<rect x="0" y="367.984" width="113.386" height="42.5197" class="st27"/>
			</g>
			<rect x="0" y="367.984" width="113.386" height="42.5197" class="st28"/>
			<text x="22.01" y="393.44" class="st29" v:langID="2052"><v:paragraph v:horizAlign="1"/><v:tabList/>Register File</text>		</g>
		<g id="shape62-128" v:mID="62" v:groupContext="shape" v:layerMember="0" transform="translate(202.961,-249.686)">
			<title>内部存储器</title>
			<desc>scoreboard</desc>
			<v:custProps>
				<v:cp v:nameU="Cost" v:lbl="成本" v:type="7" v:format="@" v:langID="2052"/>
				<v:cp v:nameU="Duration" v:lbl="持续时间" v:type="2" v:langID="2052"/>
				<v:cp v:nameU="Resources" v:lbl="资源" v:langID="2052"/>
			</v:custProps>
			<v:userDefs>
				<v:ud v:nameU="AntiScale" v:val="VT0(1):26"/>
				<v:ud v:nameU="visVersion" v:val="VT0(11):26"/>
			</v:userDefs>
			<v:textBlock v:margins="rect(2,2,2,2)" v:tabSpace="42.5197"/>
			<v:textRect cx="56.6929" cy="382.128" width="96.38" height="39.7435"/>
			<g id="shadow62-129" v:groupContext="shadow" v:shadowOffsetX="0.345598" v:shadowOffsetY="-1.97279" v:shadowType="1"
					transform="matrix(1,0,0,1,0.345598,1.97279)" class="st1">
				<path d="M0 410.5 L113.39 410.5 L113.39 353.75 L0 353.75 L0 410.5 Z" class="st30"/>
				<path d="M0 410.5 L113.39 410.5 L113.39 353.75 L0 353.75 L0 410.5" class="st31"/>
				<path d="M8.5 410.5 L8.5 353.75" class="st31"/>
				<path d="M0 362.26 L113.39 362.26" class="st31"/>
			</g>
			<path d="M0 410.5 L113.39 410.5 L113.39 353.75 L0 353.75 L0 410.5 Z" class="st20"/>
			<path d="M0 410.5 L113.39 410.5 L113.39 353.75 L0 353.75 L0 410.5" class="st32"/>
			<path d="M8.5 410.5 L8.5 353.75" class="st32"/>
			<path d="M0 362.26 L113.39 362.26" class="st32"/>
			<text x="24.54" y="386.33" class="st29" v:langID="2052"><v:paragraph v:horizAlign="1"/><v:tabList/>scoreboard</text>		</g>
		<g id="shape63-141" v:mID="63" v:groupContext="shape" transform="translate(52.7244,-134.073)">
			<title>云朵.248</title>
			<desc>decoder</desc>
			<v:userDefs>
				<v:ud v:nameU="visVersion" v:prompt="" v:val="VT0(15):26"/>
			</v:userDefs>
			<v:textBlock v:margins="rect(4,4,4,4)" v:tabSpace="42.5197"/>
			<v:textRect cx="56.6929" cy="367.984" width="113.39" height="85.0394"/>
			<path d="M5.58 375.7 A8.95424 11.2986 0 0 1 9.88 354 A18.1582 22.9124 0 0 1 36.23 335.68 A20.8506 26.3097 0 0 1 58.8
						 331.6 A13.0752 16.4985 0 0 1 78.16 330.24 A14.8864 18.7839 0 0 1 101.82 337.03 A10.6442 13.4306 0 0 1 110.42
						 356.03 A13.1842 16.6355 0 0 1 99.67 383.16 A16.6329 20.987 0 0 1 76.01 396.73 A19.6116 24.7455 0 0 1 43.76
						 402.16 A24.8602 31.3681 0 0 1 15.79 396.73 A9.80787 12.3758 0 0 1 5.58 375.7 Z" class="st24"/>
			<path d="M5.58 375.7 A8.95424 11.2986 0 0 1 9.88 354 A18.1582 22.9124 0 0 1 36.23 335.68 A20.8506 26.3097 0 0 1 58.8
						 331.6 A13.0752 16.4985 0 0 1 78.16 330.24 A14.8864 18.7839 0 0 1 101.82 337.03 A10.6442 13.4306 0 0 1 110.42
						 356.03 A13.1842 16.6355 0 0 1 99.67 383.16 A16.6329 20.987 0 0 1 76.01 396.73 A19.6116 24.7455 0 0 1 43.76
						 402.16 A24.8602 31.3681 0 0 1 15.79 396.73 A9.80787 12.3758 0 0 1 5.58 375.7" class="st25"/>
			<path d="M11.49 376.38 A8.9295 11.2674 0 0 1 5.58 375.7" class="st25"/>
			<path d="M42.13 398.77 A8.96837 11.3165 -180 0 0 43.76 402.16" class="st25"/>
			<path d="M76.82 392.66 A7.23966 9.13514 0 0 1 76.01 396.73" class="st25"/>
			<path d="M93.21 372.3 A7.59674 9.58572 0 0 1 99.67 383.16" class="st25"/>
			<path d="M107.19 360.1 A6.93548 8.75133 -180 0 0 110.42 356.03" class="st25"/>
			<path d="M39.45 338.39 A10.6952 13.4949 -180 0 0 36.23 335.68" class="st25"/>
			<text x="33.28" y="372.18" class="st26" v:langID="2052"><v:paragraph v:horizAlign="1"/><v:tabList/>decoder</text>		</g>
		<g id="shape64-152" v:mID="64" v:groupContext="shape" v:layerMember="1" transform="translate(164.79,-177.835)">
			<title>动态连接线.249</title>
			<path d="M0 417.56 L11.95 417.56 L11.95 417.62 L18.79 417.62" class="st33"/>
		</g>
		<g id="group65-158" transform="translate(341.858,-131.59)" v:mID="65" v:groupContext="group" v:layerMember="2">
			<v:custProps>
				<v:cp v:nameU="SubType" v:lbl="触发器类型" v:type="1" v:format="RS 触发器;JK 触发器;闭锁触发器;D 触发器" v:sortKey="" v:invis="false"
						v:ask="false" v:langID="2052" v:val="VT4(RS 触发器)"/>
				<v:cp v:nameU="SubType" v:lbl="" v:prompt="" v:type="0" v:format="" v:sortKey="" v:invis="false" v:ask="false"
						v:langID="1033" v:cal="0" v:val="VT4(D 触发器)"/>
			</v:custProps>
			<v:userDefs>
				<v:ud v:nameU="Ratio" v:val="VT0(0.8):26"/>
				<v:ud v:nameU="SubType" v:val="VT0(0):26"/>
				<v:ud v:nameU="Low" v:val="VT0(0.039370078740157):24"/>
				<v:ud v:nameU="visDescription" v:val="VT4(表示各种形式的触发器。)"/>
				<v:ud v:nameU="visVersion" v:val="VT0(15):26"/>
				<v:ud v:nameU="AntiScale" v:val="VT0(1):26"/>
				<v:ud v:nameU="FontSize" v:val="VT0(0.069444444444444):29"/>
				<v:ud v:nameU="SubType" v:prompt="" v:val="VT0(3):26"/>
				<v:ud v:nameU="Low" v:prompt="" v:val="VT0(0.098425196850393):1"/>
				<v:ud v:nameU="FontSize" v:prompt="" v:val="VT0(0.17361111111111):29"/>
			</v:userDefs>
			<title>触发器.250</title>
			<desc>scoreboard_t</desc>
			<g id="shape66-159" v:mID="66" v:groupContext="shape" v:layerMember="2">
				<title>工作表.66</title>
				<path d="M0 410.5 L56.69 410.5 L56.69 339.64 L0 339.64 L0 410.5 Z" class="st35"/>
				<path d="M40.75 391.31 L51.38 391.31" class="st36"/>
				<path d="M0 368.84 L10.63 374.75 L0 381.3" class="st36"/>
				<path d="M0 410.5 L56.69 410.5 L56.69 339.64 L0 339.64 L0 410.5" class="st36"/>
			</g>
			<g id="shape67-164" v:mID="67" v:groupContext="shape" v:layerMember="2" transform="translate(3.54331,-53.1496)">
				<title>工作表.67</title>
				<desc>J</desc>
				<v:textBlock v:margins="rect(1,1,1,1)" v:tabSpace="42.5197"/>
				<v:textRect cx="7.08661" cy="404.598" width="14.18" height="11.811"/>
				<rect x="0" y="398.693" width="14.1732" height="11.811" class="st37"/>
			</g>
			<g id="shape68-166" v:mID="68" v:groupContext="shape" v:layerMember="2" transform="translate(38.9764,-5.90551)">
				<title>工作表.68</title>
				<desc>Q</desc>
				<v:textBlock v:margins="rect(1,1,1,1)" v:tabSpace="42.5197"/>
				<v:textRect cx="7.08661" cy="404.598" width="14.18" height="11.811"/>
				<rect x="0" y="398.693" width="14.1732" height="11.811" class="st37"/>
				<text x="2.94" y="408.35" class="st38" v:langID="2052"><v:paragraph v:horizAlign="1"/><v:tabList/>Q</text>			</g>
			<g id="shape69-169" v:mID="69" v:groupContext="shape" v:layerMember="2" transform="translate(38.9764,-53.1496)">
				<title>工作表.69</title>
				<desc>Q</desc>
				<v:textBlock v:margins="rect(1,1,1,1)" v:tabSpace="42.5197"/>
				<v:textRect cx="7.08661" cy="404.598" width="14.18" height="11.811"/>
				<rect x="0" y="398.693" width="14.1732" height="11.811" class="st37"/>
				<text x="2.94" y="408.35" class="st38" v:langID="2052"><v:paragraph v:horizAlign="1"/><v:tabList/>Q</text>			</g>
			<g id="shape70-172" v:mID="70" v:groupContext="shape" v:layerMember="2" transform="translate(4.33071,-5.90551)">
				<title>工作表.70</title>
				<desc>K</desc>
				<v:textBlock v:margins="rect(1,1,1,1)" v:tabSpace="42.5197"/>
				<v:textRect cx="7.08661" cy="404.598" width="14.18" height="11.811"/>
				<rect x="0" y="398.693" width="14.1732" height="11.811" class="st37"/>
			</g>
			<g id="shape71-174" v:mID="71" v:groupContext="shape" v:layerMember="2" transform="translate(17.7165,-2.95276)">
				<title>工作表.71</title>
				<desc>SET CLR</desc>
				<v:textBlock v:margins="rect(1,1,1,1)" v:tabSpace="42.5197"/>
				<v:textRect cx="10.6299" cy="378.024" width="21.26" height="64.9606"/>
				<rect x="0" y="345.543" width="21.2598" height="64.9606" class="st37"/>
				<text x="6.15" y="350.96" class="st39" v:langID="2052"><v:paragraph v:spLine="0" v:spAfter="54.1339"
							v:horizAlign="1"/><v:tabList/>SET<v:newlineChar/><tspan x="5.95" dy="8.661em" class="st40">CLR</tspan></text>			</g>
			<g id="shape72-178" v:mID="72" v:groupContext="shape" v:layerMember="2" transform="translate(3.54331,-53.1496)">
				<title>工作表.72</title>
				<desc>D</desc>
				<v:textBlock v:margins="rect(1,1,1,1)" v:tabSpace="42.5197"/>
				<v:textRect cx="7.08661" cy="404.598" width="14.18" height="11.811"/>
				<rect x="0" y="398.693" width="14.1732" height="11.811" class="st37"/>
				<text x="3.05" y="408.54" class="st41" v:langID="2052"><v:paragraph v:horizAlign="1"/><v:tabList/>D</text>			</g>
			<g id="shape73-181" v:mID="73" v:groupContext="shape" v:layerMember="2" transform="translate(4.33071,-5.90551)">
				<title>工作表.73</title>
				<desc>L</desc>
				<v:textBlock v:margins="rect(1,1,1,1)" v:tabSpace="42.5197"/>
				<v:textRect cx="7.08661" cy="404.598" width="14.18" height="11.811"/>
				<rect x="0" y="398.693" width="14.1732" height="11.811" class="st37"/>
			</g>
			<g id="shape74-183" v:mID="74" v:groupContext="shape" v:layerMember="2" transform="translate(3.54331,-53.1496)">
				<title>工作表.74</title>
				<desc>S</desc>
				<v:textBlock v:margins="rect(1,1,1,1)" v:tabSpace="42.5197"/>
				<v:textRect cx="7.08661" cy="404.598" width="14.18" height="11.811"/>
				<rect x="0" y="398.693" width="14.1732" height="11.811" class="st37"/>
			</g>
			<g id="shape75-185" v:mID="75" v:groupContext="shape" v:layerMember="2" transform="translate(4.33071,-5.90551)">
				<title>工作表.75</title>
				<desc>R</desc>
				<v:textBlock v:margins="rect(1,1,1,1)" v:tabSpace="42.5197"/>
				<v:textRect cx="7.08661" cy="404.598" width="14.18" height="11.811"/>
				<rect x="0" y="398.693" width="14.1732" height="11.811" class="st37"/>
			</g>
			<g id="shape65-187" v:mID="65" v:groupContext="groupContent" v:layerMember="2">
				<v:textBlock v:margins="rect(1,1,1,1)" v:tabSpace="42.5197"/>
				<v:textRect cx="28.3465" cy="418.706" width="69.84" height="16.4037"/>
				<text x="-4.21" y="422.31" class="st42" v:langID="2052"><v:paragraph v:horizAlign="1"/><v:tabList/>scoreboard_t</text>			</g>
		</g>
		<g id="shape76-189" v:mID="76" v:groupContext="shape" v:layerMember="1" transform="translate(267.228,-210.564)">
			<title>动态连接线.272</title>
			<path d="M-6.6 410.5 L-6.6 399.86 L-7.57 399.86 L-7.57 383.44" class="st43"/>
		</g>
		<g id="shape77-198" v:mID="77" v:groupContext="shape" v:layerMember="1" transform="translate(247.962,-126.335)">
			<title>动态连接线.273</title>
			<path d="M7.02 410.5 L7.02 421.93 L7.16 421.93 L7.16 430.94" class="st43"/>
		</g>
		<g id="shape78-205" v:mID="78" v:groupContext="shape" v:layerMember="1" transform="translate(302.263,-183.552)">
			<title>动态连接线.274</title>
			<path d="M0 403.42 L13.37 403.42 L13.37 403.41 L31.56 403.41" class="st33"/>
		</g>
		<g id="shape79-210" v:mID="79" v:groupContext="shape" transform="translate(47.0551,-341.87)">
			<title>工作表.79</title>
			<desc>ID stage</desc>
			<v:textBlock v:margins="rect(4,4,4,4)" v:tabSpace="42.5197"/>
			<v:textRect cx="46.7417" cy="392.787" width="93.49" height="35.4331"/>
			<rect x="0" y="375.071" width="93.4834" height="35.4331" class="st44"/>
			<text x="6.66" y="399.99" class="st45" v:langID="2052"><v:paragraph v:horizAlign="1"/><v:tabList/>ID stage</text>		</g>
		<g id="shape80-213" v:mID="80" v:groupContext="shape" v:layerMember="1" transform="translate(121.731,-219.095)">
			<title>动态连接线.281</title>
			<path d="M0 410.5 L0 351.54 L73.19 351.54" class="st33"/>
		</g>
		<g id="group81-218" transform="translate(406.346,-149.165)" v:mID="81" v:groupContext="group">
			<v:userDefs>
				<v:ud v:nameU="SkinColor" v:prompt="" v:val="VT5(#da8c36)"/>
				<v:ud v:nameU="visVersion" v:prompt="" v:val="VT0(15):26"/>
			</v:userDefs>
			<title>协议</title>
			<g id="shape82-219" v:mID="82" v:groupContext="shape" transform="translate(3.58062,-2.7334)">
				<title>工作表.82</title>
				<g id="shadow82-220" v:groupContext="shadow" v:shadowOffsetX="0.3456" v:shadowOffsetY="-1.9728" v:shadowType="1"
						transform="matrix(1,0,0,1,0.3456,1.9728)" class="st1">
					<path d="M2.69 388.61 A2.6409 2.6409 0 0 1 1.78 386.56 A2.18531 2.18531 0 0 1 3.84 384.02 A2.39231 2.39231 0
								 0 1 5.93 386.56 A2.53234 2.53234 0 0 1 4.8 388.73 L4.8 389.13 A4.49339 4.49339 0 0 1 5.76 389.79
								 A4.49666 4.49666 0 0 1 7.38 392.74 A88.512 88.512 0 0 1 7.46 394.03 L9.42 392.89 a0.246909 0.246909
								 0 0 1 0.483115 -0.0967036 L10.07 392.73 A1.6048 1.6048 0 0 1 10.4 391.97 A1.61312 1.61312 0 0 1
								 11.78 391.45 a0.187573 0.187573 0 0 1 0.0844328 -0.305495 A386.21 386.21 0 0 1 15.15 389.19 L15.29
								 386.87 a0.84988 0.84988 0 0 1 0.499154 -1.07072 L17.66 384.84 A2.57247 2.57247 0 0 1 16.72 382.75
								 A2.26571 2.26571 0 0 1 18.79 380.26 A2.28311 2.28311 0 0 1 20.87 382.75 A2.41319 2.41319 0 0 1 19.99
								 384.77 L19.95 385.01 A10.534 10.534 -180 0 0 21.06 385.81 A4.17429 4.17429 0 0 1 22.65 388.77 A254.513
								 254.513 -180 0 0 22.59 396.31 a0.456213 0.456213 0 0 1 -0.277137 0.505619 A1.84357 1.84357 0 0 1
								 22.16 398.63 L21.89 403.58 L21.89 405.03 L18.26 407.1 L17.02 406.29 a0.326892 0.326892 0 0 1 -0.142478
								 -0.541669 L16.36 405.95 L15.04 405.23 A2.34473 2.34473 0 0 1 15.04 404.78 A45.5285 45.5285 -180
								 0 0 16.69 402.95 L15.96 391.51 A23.7922 23.9371 0 0 1 12.9 393.29 a0.553323 0.553323 0 0 1 -0.601985
								 -0.0815347 L12.06 393.35 A1.70999 1.70999 0 0 1 10.79 394.5 L10.7 394.8 L7.61 396.83 L7.3 397.05
								 A357.113 359.286 -180 0 0 6.72 406.66 A3.5854 3.5854 0 0 1 9 407.84 L9.01 408.06 L4.67 410.5 L3.46
								 409.75 L3.49 409.06 L2.7 409.46 L1.3 408.64 A62.5688 62.9497 -180 0 0 1.22 401.27 A1.21205 1.21205
								 0 0 1 0.42 399.52 a0.813438 0.813438 0 0 1 -0.415184 -0.386383 A585.166 585.166 0 0 1 0.21 390.11
								 A3.31761 3.31761 -180 0 0 0.67 389.72 L2.69 388.61 Z" class="st4"/>
				</g>
				<path d="M2.69 388.61 A2.6409 2.6409 0 0 1 1.78 386.56 A2.18531 2.18531 0 0 1 3.84 384.02 A2.39231 2.39231 0 0 1
							 5.93 386.56 A2.53234 2.53234 0 0 1 4.8 388.73 L4.8 389.13 A4.49339 4.49339 0 0 1 5.76 389.79 A4.49666
							 4.49666 0 0 1 7.38 392.74 A88.512 88.512 0 0 1 7.46 394.03 L9.42 392.89 a0.246909 0.246909 0 0 1 0.483115
							 -0.0967036 L10.07 392.73 A1.6048 1.6048 0 0 1 10.4 391.97 A1.61312 1.61312 0 0 1 11.78 391.45 a0.187573
							 0.187573 0 0 1 0.0844328 -0.305495 A386.21 386.21 0 0 1 15.15 389.19 L15.29 386.87 a0.84988 0.84988
							 0 0 1 0.499154 -1.07072 L17.66 384.84 A2.57247 2.57247 0 0 1 16.72 382.75 A2.26571 2.26571 0 0 1 18.79
							 380.26 A2.28311 2.28311 0 0 1 20.87 382.75 A2.41319 2.41319 0 0 1 19.99 384.77 L19.95 385.01 A10.534
							 10.534 -180 0 0 21.06 385.81 A4.17429 4.17429 0 0 1 22.65 388.77 A254.513 254.513 -180 0 0 22.59 396.31
							 a0.456213 0.456213 0 0 1 -0.277137 0.505619 A1.84357 1.84357 0 0 1 22.16 398.63 L21.89 403.58 L21.89
							 405.03 L18.26 407.1 L17.02 406.29 a0.326892 0.326892 0 0 1 -0.142478 -0.541669 L16.36 405.95 L15.04
							 405.23 A2.34473 2.34473 0 0 1 15.04 404.78 A45.5285 45.5285 -180 0 0 16.69 402.95 L15.96 391.51 A23.7922
							 23.9371 0 0 1 12.9 393.29 a0.553323 0.553323 0 0 1 -0.601985 -0.0815347 L12.06 393.35 A1.70999 1.70999
							 0 0 1 10.79 394.5 L10.7 394.8 L7.61 396.83 L7.3 397.05 A357.113 359.286 -180 0 0 6.72 406.66 A3.5854
							 3.5854 0 0 1 9 407.84 L9.01 408.06 L4.67 410.5 L3.46 409.75 L3.49 409.06 L2.7 409.46 L1.3 408.64 A62.5688
							 62.9497 -180 0 0 1.22 401.27 A1.21205 1.21205 0 0 1 0.42 399.52 a0.813438 0.813438 0 0 1 -0.415184 -0.386383
							 A585.166 585.166 0 0 1 0.21 390.11 A3.31761 3.31761 -180 0 0 0.67 389.72 L2.69 388.61 Z" class="st5"/>
			</g>
			<g id="shape83-224" v:mID="83" v:groupContext="shape" transform="translate(18.5693,-6.15625)">
				<title>工作表.83</title>
				<path d="M5.75 394.99 A5.25308 5.25308 -180 0 0 2.76 389.51 A1.59564 1.59564 -180 0 0 0.4 389.57 A18.4129 18.4129
							 -180 0 0 0.12 392.67 L0.95 395.01 L1.17 397.26 L1.23 399.59 L1.66 406.36 L0 408.18 L0 408.64 L1.33 409.36
							 L1.84 409.16 L1.76 409.47 L3.22 410.5 L5.06 408.03 L5.46 400.45 L5.69 400.5 A228.87 228.87 -180 0 0
							 5.75 394.99 Z" class="st6"/>
			</g>
			<g id="shape84-227" v:mID="84" v:groupContext="shape" transform="translate(19.7814,-7.2836)">
				<title>工作表.84</title>
				<path d="M0.9 410.06 L0.09 410.5 A1.12337 1.12337 0 0 1 0.05 410 A5.83133 5.83133 0 0 1 1.66 408.22 L1.89 400.51
							 L2.32 400.77 L2.5 408.4 A22.9692 22.9692 -180 0 0 0.9 410.06 Z" class="st7"/>
			</g>
			<g id="shape85-229" v:mID="85" v:groupContext="shape" transform="translate(19.4544,-24.0925)">
				<title>工作表.85</title>
				<path d="M4.57 410.5 A4.67888 4.67888 -180 0 0 3.09 408.33 A3.48095 3.48095 -180 0 0 0 407.17 L2.06 406 A3.48095
							 3.48095 0 0 1 5.14 407.16 A4.69619 4.69619 0 0 1 6.61 409.3 L4.57 410.5 Z" class="st8"/>
				<path d="M4.57 410.5 A4.67888 4.67888 -180 0 0 3.09 408.33 A3.48095 3.48095 -180 0 0 0 407.17 L2.06 406 A3.48095
							 3.48095 0 0 1 5.14 407.16 A4.69619 4.69619 0 0 1 6.61 409.3" class="st9"/>
			</g>
			<g id="shape86-233" v:mID="86" v:groupContext="shape" transform="translate(24.0204,-16.1085)">
				<title>工作表.86</title>
				<path d="M2.05 401.31 A4.30888 4.30888 0 0 1 2.17 402.14 A213.063 213.063 0 0 1 2.08 409.89 A2.37488 2.37488 0 0
							 1 0.2 410.48 A594.524 594.524 -180 0 0 0.14 403.27 A3.81341 3.81341 -180 0 0 0.01 402.56 L0 402.52 A1.65959
							 1.65959 0 0 1 2.04 401.31 L2.05 401.31 Z" class="st10"/>
				<path d="M2.05 401.31 A4.30888 4.30888 0 0 1 2.17 402.14 A213.063 213.063 0 0 1 2.08 409.89 A2.37488 2.37488 0 0
							 1 0.2 410.48 A594.524 594.524 -180 0 0 0.14 403.27 A3.81341 3.81341 -180 0 0 0.01 402.56 L0 402.52 A1.65959
							 1.65959 0 0 1 2.04 401.31" class="st9"/>
			</g>
			<g id="shape87-237" v:mID="87" v:groupContext="shape" transform="translate(21.1078,-27.3066)">
				<title>工作表.87</title>
				<path d="M0.06 409.43 L0.07 409.94 a0.854449 0.854449 -180 0 0 1.00538 0.452038 A2.26502 2.26502 -180 0 0 2.39 410.22
							 L2.38 409.25 A2.03671 2.03671 0 0 1 0.1 409.41 L0.06 409.43 Z" class="st11"/>
				<path d="M0.06 409.43 L0.07 409.94 a0.854449 0.854449 -180 0 0 1.00538 0.452038 A2.26502 2.26502 -180 0 0 2.39 410.22
							 L2.38 409.25 A2.03671 2.03671 0 0 1 0.1 409.41" class="st9"/>
			</g>
			<g id="shape88-241" v:mID="88" v:groupContext="shape" transform="translate(20.2623,-28.0152)">
				<title>工作表.88</title>
				<path d="M4.15 408.02 A2.30562 2.30562 0 0 1 2.07 410.5 A2.30562 2.30562 0 0 1 -0 408.02 A2.30583 2.30583 0 0 1 2.07
							 405.54 A2.30562 2.30562 0 0 1 4.15 408.02 L-1.04 404.3 L4.15 408.02 Z" class="st12"/>
				<path d="M4.15 408.02 A2.30562 2.30562 0 0 1 2.07 410.5 A2.30562 2.30562 0 0 1 -0 408.02 A2.30583 2.30583 0 0 1 2.07
							 405.54 A2.30562 2.30562 0 0 1 4.15 408.02" class="st9"/>
			</g>
			<g id="shape89-245" v:mID="89" v:groupContext="shape" transform="translate(20.8557,-28.0139)">
				<title>工作表.89</title>
				<path d="M2.83 409.95 A1.89246 1.89246 0 0 1 1.52 410.5 A1.96096 1.96096 0 0 1 0 409.73 L2.83 409.95 Z"
						class="st13"/>
				<path d="M2.83 409.95 A1.89246 1.89246 0 0 1 1.52 410.5 A1.96096 1.96096 0 0 1 0 409.73" class="st14"/>
			</g>
			<g id="shape90-248" v:mID="90" v:groupContext="shape" transform="translate(3.82266,-12.0124)">
				<title>工作表.90</title>
				<path d="M0.84 408.28 a0.988767 0.988767 0 0 1 0.824312 1.10664 A1.01408 1.01408 0 0 1 0.83 410.5 a0.988062 0.988062
							 0 0 1 -0.824634 -1.10599 A1.01427 1.01427 0 0 1 0.84 408.28 Z" class="st15"/>
			</g>
			<g id="shape91-251" v:mID="91" v:groupContext="shape" transform="translate(3.54189,-2.74833)">
				<title>工作表.91</title>
				<path d="M1.28 408.65 L1.34 407.15 A154.243 155.182 -180 0 0 1.15 399.77 A2.02787 2.02787 0 0 1 -0 399.14 L0.21 390.12
							 L0.91 389.54 L3.53 390.46 L5.53 393.03 L5.65 396.17 L5.65 398.68 L4.64 410.5 L3.39 409.75 L3.42 408.98
							 L2.67 409.46 L1.28 408.65 Z" class="st6"/>
			</g>
			<g id="shape92-254" v:mID="92" v:groupContext="shape" transform="translate(6.23609,-3.78734)">
				<title>工作表.92</title>
				<path d="M0.8 410 A4.68326 4.68326 0 0 1 0 410.5 L0.1 408.99 L0.29 401.09 L0.72 401.34 L0.87 409.06 A10.8866 10.8866
							 -180 0 0 0.8 410 Z" class="st7"/>
			</g>
			<g id="shape93-256" v:mID="93" v:groupContext="shape" transform="translate(4.14074,-20.1148)">
				<title>工作表.93</title>
				<path d="M4.57 410.5 A4.67509 4.67509 -180 0 0 3.09 408.33 A3.48191 3.48191 -180 0 0 0 407.17 L2.06 406 A3.48095
							 3.48095 0 0 1 5.14 407.16 A4.69467 4.69467 0 0 1 6.61 409.3 L4.57 410.5 Z" class="st8"/>
				<path d="M4.57 410.5 A4.67509 4.67509 -180 0 0 3.09 408.33 A3.48191 3.48191 -180 0 0 0 407.17 L2.06 406 A3.48095
							 3.48095 0 0 1 5.14 407.16 A4.69467 4.69467 0 0 1 6.61 409.3" class="st9"/>
			</g>
			<g id="shape94-260" v:mID="94" v:groupContext="shape" transform="translate(8.70678,-15.1058)">
				<title>工作表.94</title>
				<path d="M2.05 404.29 A3.85726 3.85726 0 0 1 2.2 405.08 A484.473 484.473 0 0 1 2.43 409.19 L0.27 410.5 A18.8384 18.8384
							 -180 0 0 0.14 406.24 A6.58741 6.58741 -180 0 0 0.01 405.53 L0 405.49 A1.65991 1.65991 0 0 1 2.04 404.28
							 L2.05 404.29 Z" class="st16"/>
				<path d="M2.05 404.29 A3.85726 3.85726 0 0 1 2.2 405.08 A484.473 484.473 0 0 1 2.43 409.19 L0.27 410.5 A18.8384 18.8384
							 -180 0 0 0.14 406.24 A6.58741 6.58741 -180 0 0 0.01 405.53 L0 405.49 A1.65991 1.65991 0 0 1 2.04 404.28"
						class="st9"/>
			</g>
			<g id="shape95-264" v:mID="95" v:groupContext="shape" transform="translate(9.97975,-5.30298)">
				<title>工作表.95</title>
				<path d="M0.27 409.22 A4.15402 4.15402 0 0 1 2.28 410.17 L0.06 410.5 L0 409.28 L0.27 409.22 Z" class="st17"/>
			</g>
			<g id="shape96-266" v:mID="96" v:groupContext="shape" transform="translate(6.08686,-23.4958)">
				<title>工作表.96</title>
				<path d="M0.06 409.34 L0.06 409.89 a0.811725 0.811725 -180 0 0 0.950066 0.48925 A1.89488 1.89488 -180 0 0 2.26 410.19
							 L2.25 409.15 A1.74403 1.74403 0 0 1 0.09 409.32 L0.06 409.34 Z" class="st11"/>
				<path d="M0.06 409.34 L0.06 409.89 a0.811725 0.811725 -180 0 0 0.950066 0.48925 A1.89488 1.89488 -180 0 0 2.26 410.19
							 L2.25 409.15 A1.74403 1.74403 0 0 1 0.09 409.32" class="st9"/>
			</g>
			<g id="shape97-270" v:mID="97" v:groupContext="shape" transform="translate(5.30597,-24.2549)">
				<title>工作表.97</title>
				<path d="M4.15 408.02 A2.30531 2.30531 0 0 1 2.07 410.5 A2.30531 2.30531 0 0 1 0 408.02 A2.30635 2.30635 0 0 1 2.07
							 405.54 A2.30615 2.30615 0 0 1 4.15 408.02 L-1.04 404.3 L4.15 408.02 Z" class="st12"/>
				<path d="M4.15 408.02 A2.30531 2.30531 0 0 1 2.07 410.5 A2.30531 2.30531 0 0 1 0 408.02 A2.30635 2.30635 0 0 1 2.07
							 405.54 A2.30615 2.30615 0 0 1 4.15 408.02" class="st9"/>
			</g>
			<g id="shape98-274" v:mID="98" v:groupContext="shape" transform="translate(4.66112,-11.8363)">
				<title>工作表.98</title>
				<path d="M0.07 410.5 L0 402.13 L0.07 410.5 Z" class="st13"/>
				<path d="M0.07 410.5 L0 402.13" class="st18"/>
			</g>
			<g id="shape99-277" v:mID="99" v:groupContext="shape" transform="translate(7.89983,-15.0709)">
				<title>工作表.99</title>
				<path d="M6.33 407.12 A96.13 96.13 0 0 1 1.07 410.42 a0.705889 0.705889 0 0 1 -1.05717 -0.587617 A60.4735 60.4735
							 0 0 1 0.01 407.49" class="st18"/>
			</g>
			<g id="shape100-280" v:mID="100" v:groupContext="shape" transform="translate(5.32173,-24.3213)">
				<title>工作表.100</title>
				<path d="M4.15 408.02 A2.30531 2.30531 0 0 1 2.07 410.5 A2.30531 2.30531 0 0 1 0 408.02 A2.20107 2.20107 0 0 1 2.06
							 405.61 A2.27642 2.27642 0 0 1 4.15 408.02 Z" class="st19"/>
			</g>
			<g id="shape101-282" v:mID="101" v:groupContext="shape" transform="translate(8.20312,-2.74801)">
				<title>工作表.101</title>
				<path d="M0.77 398.09 L0.1 408.79 L0 410.5 L4.3 408.06 a0.341471 0.341471 -180 0 0 -0.399774 -0.436183 A5.31526 5.31526
							 -180 0 0 2 407.69 A241.569 241.569 0 0 1 2.59 397.05 L0.77 398.09 ZM17.54 397.68 L17.22 403.58 L17.22
							 405.03 L13.59 407.1 A1.85955 1.85955 0 0 1 13.55 406.59 A8.05714 8.05714 0 0 1 15.35 404.6 L15.77 397.64
							 L17.54 397.68 Z" class="st20"/>
				<path d="M0.77 398.09 L0.1 408.79 L0 410.5 L4.3 408.06 a0.341471 0.341471 -180 0 0 -0.399774 -0.436183 A5.31526 5.31526
							 -180 0 0 2 407.69 A241.569 241.569 0 0 1 2.59 397.05 L0.77 398.09M17.54 397.68 L17.22 403.58 L17.22
							 405.03 L13.59 407.1 A1.85955 1.85955 0 0 1 13.55 406.59 A8.05714 8.05714 0 0 1 15.35 404.6 L15.77 397.64"
						class="st9"/>
			</g>
			<g id="shape102-285" v:mID="102" v:groupContext="shape" transform="translate(23.922,-14.1156)">
				<title>工作表.102</title>
				<path d="M1.24 407.65 A1.2445 1.2445 0 0 1 2.08 409.15 A1.27458 1.27458 0 0 1 0.93 410.45 A1.24499 1.24499 0 0 1
							 0.09 408.95 A1.27294 1.27294 0 0 1 1.24 407.65 Z" class="st21"/>
			</g>
			<g id="shape103-288" v:mID="103" v:groupContext="shape" transform="translate(6.9562,-4.18016)">
				<title>工作表.103</title>
				<path d="M15.15 397.66 L15.33 405.3 A15.9563 15.9563 -180 0 0 13.56 407.11 L15.15 397.66 ZM0 401.73 L0.15 409.45
							 L0.13 410.5 L0 401.73 Z" class="st13"/>
				<path d="M15.15 397.66 L15.33 405.3 A15.9563 15.9563 -180 0 0 13.56 407.11M0 401.73 L0.15 409.45 L0.13 410.5"
						class="st18"/>
			</g>
			<g id="shape104-291" v:mID="104" v:groupContext="shape" transform="translate(19.5097,-14.1469)">
				<title>工作表.104</title>
				<path d="M6.32 409.78 A1.09999 1.09999 0 1 1 4.64 408.43 a0.825751 0.825751 0 0 1 -0.688083 -0.751205 A284.221 284.221
							 -180 0 0 3.94 402.17 L6.32 409.78 Z" class="st13"/>
				<path d="M6.32 409.78 A1.09999 1.09999 0 1 1 4.64 408.43 a0.825751 0.825751 0 0 1 -0.688083 -0.751205 A284.221 284.221
							 -180 0 0 3.94 402.17" class="st18"/>
				<path d="" class="st18"/>
				<path d="M0.12 402.85 L0 399.65" class="st18"/>
				<path d="" class="st18"/>
			</g>
			<g id="shape105-297" v:mID="105" v:groupContext="shape" transform="translate(13.3754,-19.4867)">
				<title>工作表.105</title>
				<path d="M2.78 408.79 A1.22943 1.22943 0 0 1 1.86 410.23 A1.25027 1.25027 0 0 1 0.2 409.77 A1.2304 1.2304 0 0 1 1.12
							 408.33 A1.2503 1.2503 0 0 1 2.78 408.79 Z" class="st21"/>
			</g>
			<g id="shape106-300" v:mID="106" v:groupContext="shape" transform="translate(12.6987,-18.4995)">
				<title>工作表.106</title>
				<path d="M2.71 408.65 A1.22556 1.22556 0 0 1 1.94 410.16 A1.2441 1.2441 0 0 1 0.25 409.9 A1.22649 1.22649 0 0 1 1.02
							 408.39 A1.24319 1.24319 0 0 1 2.71 408.65 Z" class="st21"/>
			</g>
			<g id="shape107-303" v:mID="107" v:groupContext="shape" transform="translate(10.9208,-18.1778)">
				<title>工作表.107</title>
				<path d="M3.25 408.7 A1.35058 1.35058 -180 0 0 2.31 408.24 L0.07 409.46 L0 410.5 L3.25 408.7 ZM8.63 405.14 L5.06
							 407.23 a0.922463 0.922463 -180 0 0 -0.663502 -0.347846 a0.321326 0.321326 0 0 1 0.192329 -0.37988 A240.86
							 240.86 -180 0 0 7.81 404.65 L8.63 405.14 Z" class="st22"/>
			</g>
			<g id="shape108-305" v:mID="108" v:groupContext="shape" transform="translate(11.0125,-16.5079)">
				<title>工作表.108</title>
				<path d="M0 408.8 L3.16 407.03 A1.39048 1.39048 0 0 1 3.22 408.56 L0.12 410.5 L0 408.8 ZM8.54 403.49 L4.93 405.53
							 A1.01933 1.01933 0 0 1 4.77 406.92 a0.858413 0.858413 -180 0 0 1.19707 -0.176997 L8.62 405.21 L8.54
							 403.49 Z" class="st20"/>
				<path d="M0 408.8 L3.16 407.03 A1.39048 1.39048 0 0 1 3.22 408.56 L0.12 410.5M8.54 403.49 L4.93 405.53 A1.01933 1.01933
							 0 0 1 4.77 406.92 a0.858413 0.858413 -180 0 0 1.19707 -0.176997 L8.62 405.21 L8.54 403.49" class="st9"/>
			</g>
			<g id="shape109-308" v:mID="109" v:groupContext="shape" transform="translate(3.54189,-2.73827)">
				<title>工作表.109</title>
				<path d="M2.69 388.61 A2.64769 2.64769 0 0 1 1.78 386.56 A2.18454 2.18454 0 0 1 3.84 384.02 A2.40206 2.40206 0 0
							 1 5.93 386.56 A2.53349 2.53349 0 0 1 4.8 388.73 L4.8 389.13 A4.49069 4.49069 0 0 1 5.76 389.79 A4.41438
							 4.41438 0 0 1 7.38 392.74 A107.871 107.871 0 0 1 7.46 394.03 L9.42 392.89 a0.384521 0.384521 0 0 1 0.483115
							 -0.0967036 L10.07 392.73 A1.64117 1.64117 0 0 1 10.4 391.97 A1.55469 1.55469 0 0 1 11.78 391.45 a0.192735
							 0.192735 0 0 1 0.0844328 -0.305495 A366.903 366.903 0 0 1 15.15 389.19 L15.29 386.87 a0.934867 0.934867
							 0 0 1 0.499154 -1.07072 L17.66 384.84 A2.5725 2.5725 0 0 1 16.72 382.75 A2.27187 2.27187 0 0 1 18.79
							 380.26 A2.33851 2.33851 0 0 1 20.87 382.75 A2.4344 2.4344 0 0 1 19.99 384.77 L19.95 385.01 A10.5654
							 10.5654 -180 0 0 21.06 385.81 A4.03272 4.03272 0 0 1 22.65 388.77 A422.187 422.187 -180 0 0 22.59 396.31
							 a0.491579 0.491579 0 0 1 -0.277137 0.505619 A1.77607 1.77607 0 0 1 22.16 398.63 L21.89 403.58 L21.89
							 405.03 L18.26 407.1 L17.02 406.29 a0.323646 0.323646 0 0 1 -0.142478 -0.541669 L16.36 405.95 L15.04
							 405.23 A4.44474 4.44474 0 0 1 15.04 404.78 A48.0779 48.0779 -180 0 0 16.69 402.95 L15.96 391.51 A23.7922
							 23.9371 0 0 1 12.9 393.29 a0.743973 0.743973 0 0 1 -0.601985 -0.0815347 L12.06 393.35 A1.90982 1.90982
							 0 0 1 10.79 394.5 L10.7 394.8 L7.61 396.83 L7.3 397.05 A357.113 359.286 -180 0 0 6.72 406.66 A3.62677
							 3.62677 0 0 1 9 407.84 L9.01 408.06 L4.67 410.5 L3.46 409.75 L3.49 409.06 L2.7 409.46 L1.3 408.64 A62.5688
							 62.9497 -180 0 0 1.22 401.27 A1.15011 1.15011 0 0 1 0.42 399.52 a0.850941 0.850941 0 0 1 -0.415184 -0.386383
							 A530.427 530.427 0 0 1 0.21 390.11 A11.9421 11.9421 -180 0 0 0.67 389.72 L2.69 388.61 Z" class="st23"/>
			</g>
		</g>
		<g id="shape110-310" v:mID="110" v:groupContext="shape" v:layerMember="1" transform="translate(5.66929,-171.828)">
			<title>动态连接线</title>
			<path d="M0 403.75 L0 403.09 L40.02 403.09" class="st46"/>
		</g>
		<g id="shape111-316" v:mID="111" v:groupContext="shape" v:layerMember="1" transform="translate(398.551,-197.724)">
			<title>动态连接线.111</title>
			<path d="M0 417.58 L30.94 417.6" class="st46"/>
		</g>
		<g id="shape112-321" v:mID="112" v:groupContext="shape" transform="translate(3.82677,-178.583)">
			<title>工作表.112</title>
			<desc>PC &#38; IR</desc>
			<v:textBlock v:margins="rect(4,4,4,4)" v:tabSpace="42.5197"/>
			<v:textRect cx="21.9685" cy="399.165" width="43.94" height="22.6772"/>
			<rect x="0" y="387.827" width="43.937" height="22.6772" class="st44"/>
			<text x="4.09" y="402.77" class="st48" v:langID="2052"><v:paragraph v:horizAlign="1"/><v:tabList/>PC &#38; IR</text>		</g>
		<g id="shape113-324" v:mID="113" v:groupContext="shape" v:layerMember="1" transform="translate(436.535,-270.842)">
			<title>动态连接线.113</title>
			<path d="M0 403.55 L0 403.28 L-113.15 403.28" class="st46"/>
		</g>
		<g id="shape114-329" v:mID="114" v:groupContext="shape" transform="translate(379.843,-283.76)">
			<title>工作表.114</title>
			<desc>write back</desc>
			<v:textBlock v:margins="rect(4,4,4,4)" v:tabSpace="42.5197"/>
			<v:textRect cx="32.9528" cy="399.165" width="65.91" height="22.6772"/>
			<rect x="0" y="387.827" width="65.9055" height="22.6772" class="st44"/>
			<text x="7.55" y="402.77" class="st48" v:langID="2052"><v:paragraph v:horizAlign="1"/><v:tabList/>write back</text>		</g>
	</g>
</svg>
