<?xml version="1.0" encoding="UTF-8" standalone="no"?>
<!DOCTYPE svg PUBLIC "-//W3C//DTD SVG 1.1//EN" "http://www.w3.org/Graphics/SVG/1.1/DTD/svg11.dtd">
<!-- 由 Microsoft Visio, SVG Export 生成 rvant_if_stage.svg IF -->
<svg xmlns="http://www.w3.org/2000/svg" xmlns:xlink="http://www.w3.org/1999/xlink" xmlns:ev="http://www.w3.org/2001/xml-events"
		xmlns:v="http://schemas.microsoft.com/visio/2003/SVGExtensions/" width="8.26069in" height="7.34466in"
		viewBox="0 0 594.769 528.816" xml:space="preserve" color-interpolation-filters="sRGB" class="st46">
	<v:documentProperties v:langID="2052" v:metric="true" v:viewMarkup="false">
		<v:userDefs>
			<v:ud v:nameU="msvSubprocessMaster" v:prompt="" v:val="VT4(Rectangle)"/>
			<v:ud v:nameU="msvNoAutoConnect" v:val="VT0(1):26"/>
		</v:userDefs>
	</v:documentProperties>

	<style type="text/css">
	<![CDATA[
		.st1 {visibility:visible}
		.st2 {fill:#bdd0e9;fill-opacity:0.22;filter:url(#filter_2);stroke:#bdd0e9;stroke-opacity:0.22}
		.st3 {fill:#fee599;stroke:#c7c8c8;stroke-width:0.25}
		.st4 {fill:#7ca9da}
		.st5 {stroke:#4a80b0;stroke-linecap:butt;stroke-width:1.25}
		.st6 {fill:none;stroke:none;stroke-linecap:butt;stroke-width:1.25}
		.st7 {fill:#feffff;font-family:Calibri;font-size:1.04166em;font-style:italic}
		.st8 {fill:#feffff;font-family:Calibri;font-size:0.520844em}
		.st9 {font-size:1em}
		.st10 {fill:#feffff;font-family:Calibri;font-size:1.09362em}
		.st11 {fill:#4a80b0;font-family:Calibri;font-size:1.00001em}
		.st12 {marker-end:url(#mrkr4-104);stroke:#5b9bd5;stroke-linecap:round;stroke-linejoin:round;stroke-width:1.5}
		.st13 {fill:#5b9bd5;fill-opacity:1;stroke:#5b9bd5;stroke-opacity:1;stroke-width:0.37313432835821}
		.st14 {fill:url(#grad0-108)}
		.st15 {stroke:#4f87bb;stroke-width:0.75}
		.st16 {fill:#4f87bb;font-family:Calibri;font-size:1.16666em}
		.st17 {fill:url(#grad0-108);stroke:#4f87bb;stroke-width:0.75}
		.st18 {fill:#4f87bb;font-family:Calibri;font-size:0.833336em}
		.st19 {fill:#5b9bd5;fill-opacity:0.25;filter:url(#filter_2);stroke:#5b9bd5;stroke-opacity:0.25}
		.st20 {fill:#4f87bb;stroke:#40709c;stroke-width:0.75}
		.st21 {fill:#feffff;font-family:Calibri;font-size:1.99999em;font-weight:bold}
		.st22 {fill:none;stroke:none;stroke-width:0.25}
		.st23 {fill:#5b9bd5;font-family:Calibri;font-size:1.99999em;font-weight:bold}
		.st24 {fill:#5b9bd5;fill-opacity:0.22;filter:url(#filter_2);stroke:none;stroke-linecap:round;stroke-linejoin:round}
		.st25 {fill:#000000;fill-opacity:0;stroke:none;stroke-linecap:round;stroke-linejoin:round;stroke-width:0.75}
		.st26 {fill:url(#grad7-196);stroke:none;stroke-linecap:round;stroke-linejoin:round;stroke-width:0.75}
		.st27 {fill:#5b9bd5;stroke:none;stroke-linecap:round;stroke-linejoin:round;stroke-width:0.75}
		.st28 {fill:url(#grad0-202)}
		.st29 {stroke:none;stroke-linecap:round;stroke-linejoin:round;stroke-width:0.75}
		.st30 {fill:url(#grad0-207)}
		.st31 {fill:url(#grad0-212)}
		.st32 {fill:url(#grad3-217)}
		.st33 {fill:none}
		.st34 {stroke:#996633;stroke-linecap:round;stroke-linejoin:round;stroke-width:0.130208}
		.st35 {fill:url(#grad1-225);stroke:none;stroke-linecap:round;stroke-linejoin:round;stroke-width:0.75}
		.st36 {fill:url(#grad10-238)}
		.st37 {fill:#4974ba;stroke:none;stroke-linecap:round;stroke-linejoin:round;stroke-width:0.75}
		.st38 {stroke:#1e4182;stroke-linecap:round;stroke-linejoin:round;stroke-width:0.130208}
		.st39 {fill:none;stroke:#b3732d;stroke-linecap:butt;stroke-width:0.130208}
		.st40 {fill:#5b9bd5}
		.st41 {fill:url(#grad2-268);stroke:none;stroke-linecap:round;stroke-linejoin:round;stroke-width:0.75}
		.st42 {fill:#ffffff;stroke:none;stroke-linecap:round;stroke-linejoin:round;stroke-width:0.75}
		.st43 {fill:none;stroke:#c8c8c8;stroke-width:0.25}
		.st44 {marker-end:url(#mrkr4-388);stroke:#5b9bd5;stroke-linecap:round;stroke-linejoin:round;stroke-width:1}
		.st45 {fill:#5b9bd5;fill-opacity:1;stroke:#5b9bd5;stroke-opacity:1;stroke-width:0.28409090909091}
		.st46 {fill:none;fill-rule:evenodd;font-size:12px;overflow:visible;stroke-linecap:square;stroke-miterlimit:3}
	]]>
	</style>

	<defs id="Patterns_And_Gradients">
		<linearGradient id="grad0-108" x1="0" y1="0" x2="1" y2="0" gradientTransform="rotate(60 0.5 0.5)">
			<stop offset="0" stop-color="#e9eff7" stop-opacity="1"/>
			<stop offset="0.24" stop-color="#f4f7fb" stop-opacity="1"/>
			<stop offset="0.54" stop-color="#feffff" stop-opacity="1"/>
		</linearGradient>
		<radialGradient id="grad7-196" cx="0" cy="0" r="1.4">
			<stop offset="0" stop-color="#dcf1fa" stop-opacity="1"/>
			<stop offset="1" stop-color="#5b9bd5" stop-opacity="1"/>
		</radialGradient>
		<linearGradient id="grad0-202" x1="0" y1="0" x2="1" y2="0" gradientTransform="rotate(0 0.5 0.5)">
			<stop offset="0" stop-color="#f7f3e8" stop-opacity="1"/>
			<stop offset="1" stop-color="#a8dbf0" stop-opacity="1"/>
		</linearGradient>
		<linearGradient id="grad0-207" x1="0" y1="0" x2="1" y2="0" gradientTransform="rotate(0 0.5 0.5)">
			<stop offset="0" stop-color="#a8dbf0" stop-opacity="1"/>
			<stop offset="1" stop-color="#5b9bd5" stop-opacity="1"/>
		</linearGradient>
		<linearGradient id="grad0-212" x1="0" y1="0" x2="1" y2="0" gradientTransform="rotate(0 0.5 0.5)">
			<stop offset="0" stop-color="#5b9bd5" stop-opacity="1"/>
			<stop offset="1" stop-color="#4974ba" stop-opacity="1"/>
		</linearGradient>
		<radialGradient id="grad3-217" cx="0.5" cy="0.5" r="0.73">
			<stop offset="0" stop-color="#ffffff" stop-opacity="1"/>
			<stop offset="1" stop-color="#da8c36" stop-opacity="1"/>
		</radialGradient>
		<radialGradient id="grad1-225" cx="1" cy="1" r="1.4">
			<stop offset="0" stop-color="#ffffff" stop-opacity="1"/>
			<stop offset="1" stop-color="#da8c36" stop-opacity="1"/>
		</radialGradient>
		<pattern id="grad10-238" x="0" y="0" width="1" height="1" patternContentUnits="objectBoundingBox">
			<path d="M 0.5 0.5 L 0 0 L 0 1 z" style="fill:url(#grad0-239)"/>
			<path d="M 0.5 0.5 L 1 0 L 1 1 z" style="fill:url(#grad0-240)"/>
			<path d="M 0.5 0.5 L 0 0 L 1 0 z" style="fill:url(#grad0-241)"/>
			<path d="M 0.5 0.5 L 0 1 L 1 1 z" style="fill:url(#grad0-242)"/>
		</pattern>
		<linearGradient id="grad0-239" x1="0" y1="0" x2="1" y2="0" gradientTransform="rotate(180 0.5 0.5)">
			<stop offset="0" stop-color="#a8dbf0" stop-opacity="1"/>
			<stop offset="1" stop-color="#5b9bd5" stop-opacity="1"/>
		</linearGradient>
		<linearGradient id="grad0-240" x1="0" y1="0" x2="1" y2="0" gradientTransform="rotate(360 0.5 0.5)">
			<stop offset="0" stop-color="#a8dbf0" stop-opacity="1"/>
			<stop offset="1" stop-color="#5b9bd5" stop-opacity="1"/>
		</linearGradient>
		<linearGradient id="grad0-241" x1="0" y1="0" x2="1" y2="0" gradientTransform="rotate(270 0.5 0.5)">
			<stop offset="0" stop-color="#a8dbf0" stop-opacity="1"/>
			<stop offset="1" stop-color="#5b9bd5" stop-opacity="1"/>
		</linearGradient>
		<linearGradient id="grad0-242" x1="0" y1="0" x2="1" y2="0" gradientTransform="rotate(90 0.5 0.5)">
			<stop offset="0" stop-color="#a8dbf0" stop-opacity="1"/>
			<stop offset="1" stop-color="#5b9bd5" stop-opacity="1"/>
		</linearGradient>
		<radialGradient id="grad2-268" cx="0" cy="1" r="1.4">
			<stop offset="0" stop-color="#ffffff" stop-opacity="1"/>
			<stop offset="1" stop-color="#da8c36" stop-opacity="1"/>
		</radialGradient>
	</defs>
	<defs id="Markers">
		<g id="lend4">
			<path d="M 2 1 L 0 0 L 2 -1 L 2 1 " style="stroke:none"/>
		</g>
		<marker id="mrkr4-104" class="st13" v:arrowType="4" v:arrowSize="2" v:setback="5.36" refX="-5.36" orient="auto"
				markerUnits="strokeWidth" overflow="visible">
			<use xlink:href="#lend4" transform="scale(-2.68,-2.68) "/>
		</marker>
		<marker id="mrkr4-388" class="st45" v:arrowType="4" v:arrowSize="2" v:setback="7.04" refX="-7.04" orient="auto"
				markerUnits="strokeWidth" overflow="visible">
			<use xlink:href="#lend4" transform="scale(-3.52,-3.52) "/>
		</marker>
	</defs>
	<defs id="Filters">
		<filter id="filter_2">
			<feGaussianBlur stdDeviation="2"/>
		</filter>
	</defs>
	<g v:mID="11" v:index="3" v:groupContext="foregroundPage">
		<v:userDefs>
			<v:ud v:nameU="msvThemeOrder" v:val="VT0(0):26"/>
		</v:userDefs>
		<title>IF</title>
		<v:pageProperties v:drawingScale="0.0393701" v:pageScale="0.0393701" v:drawingUnits="24" v:shadowOffsetX="8.50394"
				v:shadowOffsetY="-8.50394"/>
		<v:layer v:name="电气" v:index="0"/>
		<v:layer v:name="连接线" v:index="1"/>
		<g id="shape1-1" v:mID="1" v:groupContext="shape" transform="translate(21.0294,-141.58)">
			<title>矩形.194</title>
			<v:userDefs>
				<v:ud v:nameU="visVersion" v:val="VT0(15):26"/>
			</v:userDefs>
			<g id="shadow1-2" v:groupContext="shadow" v:shadowOffsetX="0.345598" v:shadowOffsetY="-1.97279" v:shadowType="1"
					transform="matrix(1,0,0,1,0.345598,1.97279)" class="st1">
				<rect x="0" y="160.982" width="524.409" height="367.833" class="st2"/>
			</g>
			<rect x="0" y="160.982" width="524.409" height="367.833" class="st3"/>
		</g>
		<g id="group2-6" transform="translate(339.697,-331.501)" v:mID="2" v:groupContext="group" v:layerMember="0">
			<v:custProps>
				<v:cp v:nameU="SubType" v:lbl="触发器类型" v:type="1" v:format="RS 触发器;JK 触发器;闭锁触发器;D 触发器" v:sortKey="" v:invis="false"
						v:ask="false" v:langID="2052" v:val="VT4(RS 触发器)"/>
				<v:cp v:nameU="SubType" v:lbl="" v:prompt="" v:type="0" v:format="" v:sortKey="" v:invis="false" v:ask="false"
						v:langID="1033" v:cal="0" v:val="VT4(D 触发器)"/>
			</v:custProps>
			<v:userDefs>
				<v:ud v:nameU="Ratio" v:val="VT0(0.8):26"/>
				<v:ud v:nameU="SubType" v:val="VT0(0):26"/>
				<v:ud v:nameU="Low" v:val="VT0(0.039370078740157):24"/>
				<v:ud v:nameU="visDescription" v:val="VT4(表示各种形式的触发器。)"/>
				<v:ud v:nameU="visVersion" v:val="VT0(15):26"/>
				<v:ud v:nameU="AntiScale" v:val="VT0(1):26"/>
				<v:ud v:nameU="FontSize" v:val="VT0(0.069444444444444):29"/>
				<v:ud v:nameU="SubType" v:prompt="" v:val="VT0(3):26"/>
				<v:ud v:nameU="Low" v:prompt="" v:val="VT0(0.098425196850393):1"/>
				<v:ud v:nameU="FontSize" v:prompt="" v:val="VT0(0.17361111111111):29"/>
			</v:userDefs>
			<title>触发器</title>
			<desc>PC_pre</desc>
			<g id="shape3-7" v:mID="3" v:groupContext="shape" v:layerMember="0">
				<title>工作表.3</title>
				<path d="M0 528.82 L56.69 528.82 L56.69 457.95 L0 457.95 L0 528.82 Z" class="st4"/>
				<path d="M40.75 509.62 L51.38 509.62" class="st5"/>
				<path d="M0 487.15 L10.63 493.06 L0 499.61" class="st5"/>
				<path d="M0 528.82 L56.69 528.82 L56.69 457.95 L0 457.95 L0 528.82" class="st5"/>
			</g>
			<g id="shape4-12" v:mID="4" v:groupContext="shape" v:layerMember="0" transform="translate(3.54331,-53.1496)">
				<title>工作表.4</title>
				<desc>J</desc>
				<v:textBlock v:margins="rect(1,1,1,1)" v:tabSpace="42.5197"/>
				<v:textRect cx="7.08661" cy="522.91" width="14.18" height="11.811"/>
				<rect x="0" y="517.005" width="14.1732" height="11.811" class="st6"/>
			</g>
			<g id="shape5-14" v:mID="5" v:groupContext="shape" v:layerMember="0" transform="translate(38.9764,-5.90551)">
				<title>工作表.5</title>
				<desc>Q</desc>
				<v:textBlock v:margins="rect(1,1,1,1)" v:tabSpace="42.5197"/>
				<v:textRect cx="7.08661" cy="522.91" width="14.18" height="11.811"/>
				<rect x="0" y="517.005" width="14.1732" height="11.811" class="st6"/>
				<text x="2.94" y="526.66" class="st7" v:langID="2052"><v:paragraph v:horizAlign="1"/><v:tabList/>Q</text>			</g>
			<g id="shape6-17" v:mID="6" v:groupContext="shape" v:layerMember="0" transform="translate(38.9764,-53.1496)">
				<title>工作表.6</title>
				<desc>Q</desc>
				<v:textBlock v:margins="rect(1,1,1,1)" v:tabSpace="42.5197"/>
				<v:textRect cx="7.08661" cy="522.91" width="14.18" height="11.811"/>
				<rect x="0" y="517.005" width="14.1732" height="11.811" class="st6"/>
				<text x="2.94" y="526.66" class="st7" v:langID="2052"><v:paragraph v:horizAlign="1"/><v:tabList/>Q</text>			</g>
			<g id="shape7-20" v:mID="7" v:groupContext="shape" v:layerMember="0" transform="translate(4.33071,-5.90551)">
				<title>工作表.7</title>
				<desc>K</desc>
				<v:textBlock v:margins="rect(1,1,1,1)" v:tabSpace="42.5197"/>
				<v:textRect cx="7.08661" cy="522.91" width="14.18" height="11.811"/>
				<rect x="0" y="517.005" width="14.1732" height="11.811" class="st6"/>
			</g>
			<g id="shape8-22" v:mID="8" v:groupContext="shape" v:layerMember="0" transform="translate(17.7165,-2.95276)">
				<title>工作表.8</title>
				<desc>SET CLR</desc>
				<v:textBlock v:margins="rect(1,1,1,1)" v:tabSpace="42.5197"/>
				<v:textRect cx="10.6299" cy="496.335" width="21.26" height="64.9606"/>
				<rect x="0" y="463.855" width="21.2598" height="64.9606" class="st6"/>
				<text x="6.15" y="469.27" class="st8" v:langID="2052"><v:paragraph v:spLine="0" v:spAfter="54.1339"
							v:horizAlign="1"/><v:tabList/>SET<v:newlineChar/><tspan x="5.95" dy="8.661em" class="st9">CLR</tspan></text>			</g>
			<g id="shape9-26" v:mID="9" v:groupContext="shape" v:layerMember="0" transform="translate(3.54331,-53.1496)">
				<title>工作表.9</title>
				<desc>D</desc>
				<v:textBlock v:margins="rect(1,1,1,1)" v:tabSpace="42.5197"/>
				<v:textRect cx="7.08661" cy="522.91" width="14.18" height="11.811"/>
				<rect x="0" y="517.005" width="14.1732" height="11.811" class="st6"/>
				<text x="3.05" y="526.85" class="st10" v:langID="2052"><v:paragraph v:horizAlign="1"/><v:tabList/>D</text>			</g>
			<g id="shape10-29" v:mID="10" v:groupContext="shape" v:layerMember="0" transform="translate(4.33071,-5.90551)">
				<title>工作表.10</title>
				<desc>L</desc>
				<v:textBlock v:margins="rect(1,1,1,1)" v:tabSpace="42.5197"/>
				<v:textRect cx="7.08661" cy="522.91" width="14.18" height="11.811"/>
				<rect x="0" y="517.005" width="14.1732" height="11.811" class="st6"/>
			</g>
			<g id="shape11-31" v:mID="11" v:groupContext="shape" v:layerMember="0" transform="translate(3.54331,-53.1496)">
				<title>工作表.11</title>
				<desc>S</desc>
				<v:textBlock v:margins="rect(1,1,1,1)" v:tabSpace="42.5197"/>
				<v:textRect cx="7.08661" cy="522.91" width="14.18" height="11.811"/>
				<rect x="0" y="517.005" width="14.1732" height="11.811" class="st6"/>
			</g>
			<g id="shape12-33" v:mID="12" v:groupContext="shape" v:layerMember="0" transform="translate(4.33071,-5.90551)">
				<title>工作表.12</title>
				<desc>R</desc>
				<v:textBlock v:margins="rect(1,1,1,1)" v:tabSpace="42.5197"/>
				<v:textRect cx="7.08661" cy="522.91" width="14.18" height="11.811"/>
				<rect x="0" y="517.005" width="14.1732" height="11.811" class="st6"/>
			</g>
			<g id="shape2-35" v:mID="2" v:groupContext="groupContent" v:layerMember="0">
				<v:textBlock v:margins="rect(1,1,1,1)" v:tabSpace="42.5197"/>
				<v:textRect cx="28.3465" cy="537.018" width="39.75" height="16.4037"/>
				<text x="10.83" y="540.62" class="st11" v:langID="2052"><v:paragraph v:horizAlign="1"/><v:tabList/>PC_pre</text>			</g>
		</g>
		<g id="group13-37" transform="translate(451.896,-331.501)" v:mID="13" v:groupContext="group" v:layerMember="0">
			<v:custProps>
				<v:cp v:nameU="SubType" v:lbl="触发器类型" v:type="1" v:format="RS 触发器;JK 触发器;闭锁触发器;D 触发器" v:sortKey="" v:invis="false"
						v:ask="false" v:langID="2052" v:val="VT4(RS 触发器)"/>
				<v:cp v:nameU="SubType" v:lbl="" v:prompt="" v:type="0" v:format="" v:sortKey="" v:invis="false" v:ask="false"
						v:langID="1033" v:cal="0" v:val="VT4(D 触发器)"/>
			</v:custProps>
			<v:userDefs>
				<v:ud v:nameU="Ratio" v:val="VT0(0.8):26"/>
				<v:ud v:nameU="SubType" v:val="VT0(0):26"/>
				<v:ud v:nameU="Low" v:val="VT0(0.039370078740157):24"/>
				<v:ud v:nameU="visDescription" v:val="VT4(表示各种形式的触发器。)"/>
				<v:ud v:nameU="visVersion" v:val="VT0(15):26"/>
				<v:ud v:nameU="AntiScale" v:val="VT0(1):26"/>
				<v:ud v:nameU="FontSize" v:val="VT0(0.069444444444444):29"/>
				<v:ud v:nameU="SubType" v:prompt="" v:val="VT0(3):26"/>
				<v:ud v:nameU="Low" v:prompt="" v:val="VT0(0.098425196850393):1"/>
				<v:ud v:nameU="FontSize" v:prompt="" v:val="VT0(0.17361111111111):29"/>
			</v:userDefs>
			<title>触发器.12</title>
			<desc>PC</desc>
			<g id="shape14-38" v:mID="14" v:groupContext="shape" v:layerMember="0">
				<title>工作表.14</title>
				<path d="M0 528.82 L56.69 528.82 L56.69 457.95 L0 457.95 L0 528.82 Z" class="st4"/>
				<path d="M40.75 509.62 L51.38 509.62" class="st5"/>
				<path d="M0 487.15 L10.63 493.06 L0 499.61" class="st5"/>
				<path d="M0 528.82 L56.69 528.82 L56.69 457.95 L0 457.95 L0 528.82" class="st5"/>
			</g>
			<g id="shape15-43" v:mID="15" v:groupContext="shape" v:layerMember="0" transform="translate(3.54331,-53.1496)">
				<title>工作表.15</title>
				<desc>J</desc>
				<v:textBlock v:margins="rect(1,1,1,1)" v:tabSpace="42.5197"/>
				<v:textRect cx="7.08661" cy="522.91" width="14.18" height="11.811"/>
				<rect x="0" y="517.005" width="14.1732" height="11.811" class="st6"/>
			</g>
			<g id="shape16-45" v:mID="16" v:groupContext="shape" v:layerMember="0" transform="translate(38.9764,-5.90551)">
				<title>工作表.16</title>
				<desc>Q</desc>
				<v:textBlock v:margins="rect(1,1,1,1)" v:tabSpace="42.5197"/>
				<v:textRect cx="7.08661" cy="522.91" width="14.18" height="11.811"/>
				<rect x="0" y="517.005" width="14.1732" height="11.811" class="st6"/>
				<text x="2.94" y="526.66" class="st7" v:langID="2052"><v:paragraph v:horizAlign="1"/><v:tabList/>Q</text>			</g>
			<g id="shape17-48" v:mID="17" v:groupContext="shape" v:layerMember="0" transform="translate(38.9764,-53.1496)">
				<title>工作表.17</title>
				<desc>Q</desc>
				<v:textBlock v:margins="rect(1,1,1,1)" v:tabSpace="42.5197"/>
				<v:textRect cx="7.08661" cy="522.91" width="14.18" height="11.811"/>
				<rect x="0" y="517.005" width="14.1732" height="11.811" class="st6"/>
				<text x="2.94" y="526.66" class="st7" v:langID="2052"><v:paragraph v:horizAlign="1"/><v:tabList/>Q</text>			</g>
			<g id="shape18-51" v:mID="18" v:groupContext="shape" v:layerMember="0" transform="translate(4.33071,-5.90551)">
				<title>工作表.18</title>
				<desc>K</desc>
				<v:textBlock v:margins="rect(1,1,1,1)" v:tabSpace="42.5197"/>
				<v:textRect cx="7.08661" cy="522.91" width="14.18" height="11.811"/>
				<rect x="0" y="517.005" width="14.1732" height="11.811" class="st6"/>
			</g>
			<g id="shape19-53" v:mID="19" v:groupContext="shape" v:layerMember="0" transform="translate(17.7165,-2.95276)">
				<title>工作表.19</title>
				<desc>SET CLR</desc>
				<v:textBlock v:margins="rect(1,1,1,1)" v:tabSpace="42.5197"/>
				<v:textRect cx="10.6299" cy="496.335" width="21.26" height="64.9606"/>
				<rect x="0" y="463.855" width="21.2598" height="64.9606" class="st6"/>
				<text x="6.15" y="469.27" class="st8" v:langID="2052"><v:paragraph v:spLine="0" v:spAfter="54.1339"
							v:horizAlign="1"/><v:tabList/>SET<v:newlineChar/><tspan x="5.95" dy="8.661em" class="st9">CLR</tspan></text>			</g>
			<g id="shape20-57" v:mID="20" v:groupContext="shape" v:layerMember="0" transform="translate(3.54331,-53.1496)">
				<title>工作表.20</title>
				<desc>D</desc>
				<v:textBlock v:margins="rect(1,1,1,1)" v:tabSpace="42.5197"/>
				<v:textRect cx="7.08661" cy="522.91" width="14.18" height="11.811"/>
				<rect x="0" y="517.005" width="14.1732" height="11.811" class="st6"/>
				<text x="3.05" y="526.85" class="st10" v:langID="2052"><v:paragraph v:horizAlign="1"/><v:tabList/>D</text>			</g>
			<g id="shape21-60" v:mID="21" v:groupContext="shape" v:layerMember="0" transform="translate(4.33071,-5.90551)">
				<title>工作表.21</title>
				<desc>L</desc>
				<v:textBlock v:margins="rect(1,1,1,1)" v:tabSpace="42.5197"/>
				<v:textRect cx="7.08661" cy="522.91" width="14.18" height="11.811"/>
				<rect x="0" y="517.005" width="14.1732" height="11.811" class="st6"/>
			</g>
			<g id="shape22-62" v:mID="22" v:groupContext="shape" v:layerMember="0" transform="translate(3.54331,-53.1496)">
				<title>工作表.22</title>
				<desc>S</desc>
				<v:textBlock v:margins="rect(1,1,1,1)" v:tabSpace="42.5197"/>
				<v:textRect cx="7.08661" cy="522.91" width="14.18" height="11.811"/>
				<rect x="0" y="517.005" width="14.1732" height="11.811" class="st6"/>
			</g>
			<g id="shape23-64" v:mID="23" v:groupContext="shape" v:layerMember="0" transform="translate(4.33071,-5.90551)">
				<title>工作表.23</title>
				<desc>R</desc>
				<v:textBlock v:margins="rect(1,1,1,1)" v:tabSpace="42.5197"/>
				<v:textRect cx="7.08661" cy="522.91" width="14.18" height="11.811"/>
				<rect x="0" y="517.005" width="14.1732" height="11.811" class="st6"/>
			</g>
			<g id="shape13-66" v:mID="13" v:groupContext="groupContent" v:layerMember="0">
				<v:textBlock v:margins="rect(1,1,1,1)" v:tabSpace="42.5197"/>
				<v:textRect cx="28.3465" cy="537.018" width="17.32" height="16.4037"/>
				<text x="22.05" y="540.62" class="st11" v:langID="2052"><v:paragraph v:horizAlign="1"/><v:tabList/>PC</text>			</g>
		</g>
		<g id="group24-68" transform="translate(451.896,-168.509)" v:mID="24" v:groupContext="group" v:layerMember="0">
			<v:custProps>
				<v:cp v:nameU="SubType" v:lbl="触发器类型" v:type="1" v:format="RS 触发器;JK 触发器;闭锁触发器;D 触发器" v:sortKey="" v:invis="false"
						v:ask="false" v:langID="2052" v:val="VT4(RS 触发器)"/>
				<v:cp v:nameU="SubType" v:lbl="" v:prompt="" v:type="0" v:format="" v:sortKey="" v:invis="false" v:ask="false"
						v:langID="1033" v:cal="0" v:val="VT4(D 触发器)"/>
			</v:custProps>
			<v:userDefs>
				<v:ud v:nameU="Ratio" v:val="VT0(0.8):26"/>
				<v:ud v:nameU="SubType" v:val="VT0(0):26"/>
				<v:ud v:nameU="Low" v:val="VT0(0.039370078740157):24"/>
				<v:ud v:nameU="visDescription" v:val="VT4(表示各种形式的触发器。)"/>
				<v:ud v:nameU="visVersion" v:val="VT0(15):26"/>
				<v:ud v:nameU="AntiScale" v:val="VT0(1):26"/>
				<v:ud v:nameU="FontSize" v:val="VT0(0.069444444444444):29"/>
				<v:ud v:nameU="SubType" v:prompt="" v:val="VT0(3):26"/>
				<v:ud v:nameU="Low" v:prompt="" v:val="VT0(0.098425196850393):1"/>
				<v:ud v:nameU="FontSize" v:prompt="" v:val="VT0(0.17361111111111):29"/>
			</v:userDefs>
			<title>触发器.23</title>
			<desc>IR</desc>
			<g id="shape25-69" v:mID="25" v:groupContext="shape" v:layerMember="0">
				<title>工作表.25</title>
				<path d="M0 528.82 L56.69 528.82 L56.69 457.95 L0 457.95 L0 528.82 Z" class="st4"/>
				<path d="M40.75 509.62 L51.38 509.62" class="st5"/>
				<path d="M0 487.15 L10.63 493.06 L0 499.61" class="st5"/>
				<path d="M0 528.82 L56.69 528.82 L56.69 457.95 L0 457.95 L0 528.82" class="st5"/>
			</g>
			<g id="shape26-74" v:mID="26" v:groupContext="shape" v:layerMember="0" transform="translate(3.54331,-53.1496)">
				<title>工作表.26</title>
				<desc>J</desc>
				<v:textBlock v:margins="rect(1,1,1,1)" v:tabSpace="42.5197"/>
				<v:textRect cx="7.08661" cy="522.91" width="14.18" height="11.811"/>
				<rect x="0" y="517.005" width="14.1732" height="11.811" class="st6"/>
			</g>
			<g id="shape27-76" v:mID="27" v:groupContext="shape" v:layerMember="0" transform="translate(38.9764,-5.90551)">
				<title>工作表.27</title>
				<desc>Q</desc>
				<v:textBlock v:margins="rect(1,1,1,1)" v:tabSpace="42.5197"/>
				<v:textRect cx="7.08661" cy="522.91" width="14.18" height="11.811"/>
				<rect x="0" y="517.005" width="14.1732" height="11.811" class="st6"/>
				<text x="2.94" y="526.66" class="st7" v:langID="2052"><v:paragraph v:horizAlign="1"/><v:tabList/>Q</text>			</g>
			<g id="shape28-79" v:mID="28" v:groupContext="shape" v:layerMember="0" transform="translate(38.9764,-53.1496)">
				<title>工作表.28</title>
				<desc>Q</desc>
				<v:textBlock v:margins="rect(1,1,1,1)" v:tabSpace="42.5197"/>
				<v:textRect cx="7.08661" cy="522.91" width="14.18" height="11.811"/>
				<rect x="0" y="517.005" width="14.1732" height="11.811" class="st6"/>
				<text x="2.94" y="526.66" class="st7" v:langID="2052"><v:paragraph v:horizAlign="1"/><v:tabList/>Q</text>			</g>
			<g id="shape29-82" v:mID="29" v:groupContext="shape" v:layerMember="0" transform="translate(4.33071,-5.90551)">
				<title>工作表.29</title>
				<desc>K</desc>
				<v:textBlock v:margins="rect(1,1,1,1)" v:tabSpace="42.5197"/>
				<v:textRect cx="7.08661" cy="522.91" width="14.18" height="11.811"/>
				<rect x="0" y="517.005" width="14.1732" height="11.811" class="st6"/>
			</g>
			<g id="shape30-84" v:mID="30" v:groupContext="shape" v:layerMember="0" transform="translate(17.7165,-2.95276)">
				<title>工作表.30</title>
				<desc>SET CLR</desc>
				<v:textBlock v:margins="rect(1,1,1,1)" v:tabSpace="42.5197"/>
				<v:textRect cx="10.6299" cy="496.335" width="21.26" height="64.9606"/>
				<rect x="0" y="463.855" width="21.2598" height="64.9606" class="st6"/>
				<text x="6.15" y="469.27" class="st8" v:langID="2052"><v:paragraph v:spLine="0" v:spAfter="54.1339"
							v:horizAlign="1"/><v:tabList/>SET<v:newlineChar/><tspan x="5.95" dy="8.661em" class="st9">CLR</tspan></text>			</g>
			<g id="shape31-88" v:mID="31" v:groupContext="shape" v:layerMember="0" transform="translate(3.54331,-53.1496)">
				<title>工作表.31</title>
				<desc>D</desc>
				<v:textBlock v:margins="rect(1,1,1,1)" v:tabSpace="42.5197"/>
				<v:textRect cx="7.08661" cy="522.91" width="14.18" height="11.811"/>
				<rect x="0" y="517.005" width="14.1732" height="11.811" class="st6"/>
				<text x="3.05" y="526.85" class="st10" v:langID="2052"><v:paragraph v:horizAlign="1"/><v:tabList/>D</text>			</g>
			<g id="shape32-91" v:mID="32" v:groupContext="shape" v:layerMember="0" transform="translate(4.33071,-5.90551)">
				<title>工作表.32</title>
				<desc>L</desc>
				<v:textBlock v:margins="rect(1,1,1,1)" v:tabSpace="42.5197"/>
				<v:textRect cx="7.08661" cy="522.91" width="14.18" height="11.811"/>
				<rect x="0" y="517.005" width="14.1732" height="11.811" class="st6"/>
			</g>
			<g id="shape33-93" v:mID="33" v:groupContext="shape" v:layerMember="0" transform="translate(3.54331,-53.1496)">
				<title>工作表.33</title>
				<desc>S</desc>
				<v:textBlock v:margins="rect(1,1,1,1)" v:tabSpace="42.5197"/>
				<v:textRect cx="7.08661" cy="522.91" width="14.18" height="11.811"/>
				<rect x="0" y="517.005" width="14.1732" height="11.811" class="st6"/>
			</g>
			<g id="shape34-95" v:mID="34" v:groupContext="shape" v:layerMember="0" transform="translate(4.33071,-5.90551)">
				<title>工作表.34</title>
				<desc>R</desc>
				<v:textBlock v:margins="rect(1,1,1,1)" v:tabSpace="42.5197"/>
				<v:textRect cx="7.08661" cy="522.91" width="14.18" height="11.811"/>
				<rect x="0" y="517.005" width="14.1732" height="11.811" class="st6"/>
			</g>
			<g id="shape24-97" v:mID="24" v:groupContext="groupContent" v:layerMember="0">
				<v:textBlock v:margins="rect(1,1,1,1)" v:tabSpace="42.5197"/>
				<v:textRect cx="28.3465" cy="537.018" width="14.26" height="16.4037"/>
				<text x="23.58" y="540.62" class="st11" v:langID="2052"><v:paragraph v:horizAlign="1"/><v:tabList/>IR</text>			</g>
		</g>
		<g id="shape35-99" v:mID="35" v:groupContext="shape" v:layerMember="1" transform="translate(396.39,-383.47)">
			<title>动态连接线</title>
			<path d="M0 521.73 L47.47 521.73" class="st12"/>
		</g>
		<g id="shape36-105" v:mID="36" v:groupContext="shape" transform="translate(298.825,-203.942)">
			<title>云朵</title>
			<desc>mini_decoder</desc>
			<v:userDefs>
				<v:ud v:nameU="visVersion" v:prompt="" v:val="VT0(15):26"/>
			</v:userDefs>
			<v:textBlock v:margins="rect(4,4,4,4)" v:tabSpace="42.5197"/>
			<v:textRect cx="56.6929" cy="486.296" width="113.39" height="85.0394"/>
			<path d="M5.58 494.01 A8.95424 11.2986 0 0 1 9.88 472.31 A18.1582 22.9124 0 0 1 36.23 453.99 A20.8506 26.3097 0 0 1 58.8
						 449.92 A13.0752 16.4985 0 0 1 78.16 448.56 A14.8864 18.7839 0 0 1 101.82 455.34 A10.6442 13.4306 0 0 1 110.42
						 474.34 A13.1842 16.6355 0 0 1 99.67 501.48 A16.6329 20.987 0 0 1 76.01 515.04 A19.6116 24.7455 0 0 1 43.76
						 520.47 A24.8602 31.3681 0 0 1 15.79 515.04 A9.80787 12.3758 0 0 1 5.58 494.01 Z" class="st14"/>
			<path d="M5.58 494.01 A8.95424 11.2986 0 0 1 9.88 472.31 A18.1582 22.9124 0 0 1 36.23 453.99 A20.8506 26.3097 0 0 1 58.8
						 449.92 A13.0752 16.4985 0 0 1 78.16 448.56 A14.8864 18.7839 0 0 1 101.82 455.34 A10.6442 13.4306 0 0 1 110.42
						 474.34 A13.1842 16.6355 0 0 1 99.67 501.48 A16.6329 20.987 0 0 1 76.01 515.04 A19.6116 24.7455 0 0 1 43.76
						 520.47 A24.8602 31.3681 0 0 1 15.79 515.04 A9.80787 12.3758 0 0 1 5.58 494.01" class="st15"/>
			<path d="M11.49 494.69 A8.9295 11.2674 0 0 1 5.58 494.01" class="st15"/>
			<path d="M42.13 517.08 A8.96837 11.3165 -180 0 0 43.76 520.47" class="st15"/>
			<path d="M76.82 510.97 A7.23966 9.13514 0 0 1 76.01 515.04" class="st15"/>
			<path d="M93.21 490.62 A7.59674 9.58572 0 0 1 99.67 501.48" class="st15"/>
			<path d="M107.19 478.41 A6.93548 8.75133 -180 0 0 110.42 474.34" class="st15"/>
			<path d="M39.45 456.7 A10.6952 13.4949 -180 0 0 36.23 453.99" class="st15"/>
			<text x="17.31" y="490.5" class="st16" v:langID="2052"><v:paragraph v:horizAlign="1"/><v:tabList/>mini_decoder</text>		</g>
		<g id="shape37-117" v:mID="37" v:groupContext="shape" transform="translate(158.873,-212.426)">
			<title>云朵.37</title>
			<desc>bpu</desc>
			<v:userDefs>
				<v:ud v:nameU="visVersion" v:prompt="" v:val="VT0(15):26"/>
			</v:userDefs>
			<v:textBlock v:margins="rect(4,4,4,4)" v:tabSpace="42.5197"/>
			<v:textRect cx="56.6929" cy="486.296" width="113.39" height="85.0394"/>
			<path d="M5.58 494.01 A8.95424 11.2986 0 0 1 9.88 472.31 A18.1582 22.9124 0 0 1 36.23 453.99 A20.8506 26.3097 0 0 1 58.8
						 449.92 A13.0752 16.4985 0 0 1 78.16 448.56 A14.8864 18.7839 0 0 1 101.82 455.34 A10.6442 13.4306 0 0 1 110.42
						 474.34 A13.1842 16.6355 0 0 1 99.67 501.48 A16.6329 20.987 0 0 1 76.01 515.04 A19.6116 24.7455 0 0 1 43.76
						 520.47 A24.8602 31.3681 0 0 1 15.79 515.04 A9.80787 12.3758 0 0 1 5.58 494.01 Z" class="st14"/>
			<path d="M5.58 494.01 A8.95424 11.2986 0 0 1 9.88 472.31 A18.1582 22.9124 0 0 1 36.23 453.99 A20.8506 26.3097 0 0 1 58.8
						 449.92 A13.0752 16.4985 0 0 1 78.16 448.56 A14.8864 18.7839 0 0 1 101.82 455.34 A10.6442 13.4306 0 0 1 110.42
						 474.34 A13.1842 16.6355 0 0 1 99.67 501.48 A16.6329 20.987 0 0 1 76.01 515.04 A19.6116 24.7455 0 0 1 43.76
						 520.47 A24.8602 31.3681 0 0 1 15.79 515.04 A9.80787 12.3758 0 0 1 5.58 494.01" class="st15"/>
			<path d="M11.49 494.69 A8.9295 11.2674 0 0 1 5.58 494.01" class="st15"/>
			<path d="M42.13 517.08 A8.96837 11.3165 -180 0 0 43.76 520.47" class="st15"/>
			<path d="M76.82 510.97 A7.23966 9.13514 0 0 1 76.01 515.04" class="st15"/>
			<path d="M93.21 490.62 A7.59674 9.58572 0 0 1 99.67 501.48" class="st15"/>
			<path d="M107.19 478.41 A6.93548 8.75133 -180 0 0 110.42 474.34" class="st15"/>
			<path d="M39.45 456.7 A10.6952 13.4949 -180 0 0 36.23 453.99" class="st15"/>
			<text x="45.66" y="490.5" class="st16" v:langID="2052"><v:paragraph v:horizAlign="1"/><v:tabList/>bpu</text>		</g>
		<g id="shape38-128" v:mID="38" v:groupContext="shape" transform="translate(176.704,-325.475)">
			<title>云朵.180</title>
			<desc>pc_gen</desc>
			<v:userDefs>
				<v:ud v:nameU="visVersion" v:prompt="" v:val="VT0(15):26"/>
			</v:userDefs>
			<v:textBlock v:margins="rect(4,4,4,4)" v:tabSpace="42.5197"/>
			<v:textRect cx="56.6929" cy="486.296" width="113.39" height="85.0394"/>
			<path d="M5.58 494.01 A8.95424 11.2986 0 0 1 9.88 472.31 A18.1582 22.9124 0 0 1 36.23 453.99 A20.8506 26.3097 0 0 1 58.8
						 449.92 A13.0752 16.4985 0 0 1 78.16 448.56 A14.8864 18.7839 0 0 1 101.82 455.34 A10.6442 13.4306 0 0 1 110.42
						 474.34 A13.1842 16.6355 0 0 1 99.67 501.48 A16.6329 20.987 0 0 1 76.01 515.04 A19.6116 24.7455 0 0 1 43.76
						 520.47 A24.8602 31.3681 0 0 1 15.79 515.04 A9.80787 12.3758 0 0 1 5.58 494.01 Z" class="st14"/>
			<path d="M5.58 494.01 A8.95424 11.2986 0 0 1 9.88 472.31 A18.1582 22.9124 0 0 1 36.23 453.99 A20.8506 26.3097 0 0 1 58.8
						 449.92 A13.0752 16.4985 0 0 1 78.16 448.56 A14.8864 18.7839 0 0 1 101.82 455.34 A10.6442 13.4306 0 0 1 110.42
						 474.34 A13.1842 16.6355 0 0 1 99.67 501.48 A16.6329 20.987 0 0 1 76.01 515.04 A19.6116 24.7455 0 0 1 43.76
						 520.47 A24.8602 31.3681 0 0 1 15.79 515.04 A9.80787 12.3758 0 0 1 5.58 494.01" class="st15"/>
			<path d="M11.49 494.69 A8.9295 11.2674 0 0 1 5.58 494.01" class="st15"/>
			<path d="M42.13 517.08 A8.96837 11.3165 -180 0 0 43.76 520.47" class="st15"/>
			<path d="M76.82 510.97 A7.23966 9.13514 0 0 1 76.01 515.04" class="st15"/>
			<path d="M93.21 490.62 A7.59674 9.58572 0 0 1 99.67 501.48" class="st15"/>
			<path d="M107.19 478.41 A6.93548 8.75133 -180 0 0 110.42 474.34" class="st15"/>
			<path d="M39.45 456.7 A10.6952 13.4949 -180 0 0 36.23 453.99" class="st15"/>
			<text x="36.11" y="490.5" class="st16" v:langID="2052"><v:paragraph v:horizAlign="1"/><v:tabList/>pc_gen</text>		</g>
		<g id="shape39-139" v:mID="39" v:groupContext="shape" v:layerMember="1" transform="translate(287.345,-397.647)">
			<title>动态连接线.181</title>
			<path d="M0 535.9 L13.37 535.9 L13.37 535.91 L44.31 535.91" class="st12"/>
		</g>
		<g id="shape40-144" v:mID="40" v:groupContext="shape" v:layerMember="1" transform="translate(298.825,-242.038)">
			<title>动态连接线.183</title>
			<path d="M0 521.74 L-10.63 521.74 L-10.63 521.72 L-19.85 521.72" class="st12"/>
		</g>
		<g id="shape41-149" v:mID="41" v:groupContext="shape" v:layerMember="1" transform="translate(198.974,-293.553)">
			<title>动态连接线.184</title>
			<path d="M7.09 528.82 L7.09 514.27 L7.09 514.27 L7.09 499.43" class="st12"/>
		</g>
		<g id="shape42-154" v:mID="42" v:groupContext="shape" transform="translate(81.9743,-344.116)">
			<title>矩形</title>
			<desc>CSR</desc>
			<v:userDefs>
				<v:ud v:nameU="visVersion" v:val="VT0(15):26"/>
			</v:userDefs>
			<v:textBlock v:margins="rect(4,4,4,4)" v:tabSpace="42.5197"/>
			<v:textRect cx="35.4331" cy="502.241" width="70.87" height="53.1496"/>
			<rect x="0" y="475.666" width="70.8661" height="53.1496" class="st17"/>
			<text x="27.76" y="505.24" class="st18" v:langID="2052"><v:paragraph v:horizAlign="1"/><v:tabList/>CSR</text>		</g>
		<g id="shape43-158" v:mID="43" v:groupContext="shape" v:layerMember="1" transform="translate(152.84,-377.757)">
			<title>动态连接线.186</title>
			<path d="M0 535.88 L15.82 535.91" class="st12"/>
		</g>
		<g id="shape44-163" v:mID="44" v:groupContext="shape" transform="translate(21.0294,-23.3478)">
			<title>矩形.187</title>
			<desc>ITCM</desc>
			<v:userDefs>
				<v:ud v:nameU="visVersion" v:val="VT0(15):26"/>
			</v:userDefs>
			<v:textBlock v:margins="rect(4,4,4,4)" v:tabSpace="42.5197"/>
			<v:textRect cx="262.205" cy="486.296" width="524.41" height="85.0394"/>
			<g id="shadow44-164" v:groupContext="shadow" v:shadowOffsetX="0.345598" v:shadowOffsetY="-1.97279" v:shadowType="1"
					transform="matrix(1,0,0,1,0.345598,1.97279)" class="st1">
				<rect x="0" y="443.776" width="524.409" height="85.0394" class="st19"/>
			</g>
			<rect x="0" y="443.776" width="524.409" height="85.0394" class="st20"/>
			<text x="236.22" y="493.5" class="st21" v:langID="2052"><v:paragraph v:horizAlign="1"/><v:tabList/>ITCM</text>		</g>
		<g id="shape45-169" v:mID="45" v:groupContext="shape" v:layerMember="1" transform="translate(308.515,-390.557)">
			<title>动态连接线.188</title>
			<path d="M0 528.82 L0 460.31 L-264.44 460.31 L-264.44 802.95" class="st12"/>
		</g>
		<g id="shape46-174" v:mID="46" v:groupContext="shape" v:layerMember="1" transform="translate(418.341,-108.387)">
			<title>动态连接线.189</title>
			<path d="M0 528.82 L0 409.64 L25.51 409.64" class="st12"/>
		</g>
		<g id="shape47-179" v:mID="47" v:groupContext="shape" v:layerMember="1" transform="translate(508.588,-227.564)">
			<title>动态连接线.196</title>
			<path d="M0 528.82 L10.63 528.82 L10.63 487.35 L-91.08 487.35" class="st12"/>
		</g>
		<g id="shape48-184" v:mID="48" v:groupContext="shape" transform="translate(35.2026,-459.807)">
			<title>工作表.48</title>
			<desc>IF stage</desc>
			<v:textBlock v:margins="rect(4,4,4,4)" v:tabSpace="42.5197"/>
			<v:textRect cx="46.7417" cy="511.099" width="93.49" height="35.4331"/>
			<rect x="0" y="493.383" width="93.4834" height="35.4331" class="st22"/>
			<text x="8.72" y="518.3" class="st23" v:langID="2052"><v:paragraph v:horizAlign="1"/><v:tabList/>IF stage</text>		</g>
		<g id="group49-187" transform="translate(530.557,-301.332)" v:mID="49" v:groupContext="group">
			<v:userDefs>
				<v:ud v:nameU="SkinColor" v:prompt="" v:val="VT5(#da8c36)"/>
				<v:ud v:nameU="visVersion" v:prompt="" v:val="VT0(15):26"/>
			</v:userDefs>
			<title>协议.322</title>
			<g id="shape50-188" v:mID="50" v:groupContext="shape" transform="translate(3.58062,-2.7334)">
				<title>工作表.50</title>
				<g id="shadow50-189" v:groupContext="shadow" v:shadowOffsetX="0.3456" v:shadowOffsetY="-1.9728" v:shadowType="1"
						transform="matrix(1,0,0,1,0.3456,1.9728)" class="st1">
					<path d="M2.69 506.92 A2.6409 2.6409 0 0 1 1.78 504.87 A2.18531 2.18531 0 0 1 3.84 502.34 A2.39231 2.39231 0
								 0 1 5.93 504.87 A2.53234 2.53234 0 0 1 4.8 507.04 L4.8 507.44 A4.49339 4.49339 0 0 1 5.76 508.1
								 A4.49666 4.49666 0 0 1 7.38 511.05 A88.512 88.512 0 0 1 7.46 512.35 L9.42 511.21 a0.246909 0.246909
								 0 0 1 0.483115 -0.0967036 L10.07 511.04 A1.6048 1.6048 0 0 1 10.4 510.29 A1.61312 1.61312 0 0 1
								 11.78 509.76 a0.187573 0.187573 0 0 1 0.0844328 -0.305495 A386.21 386.21 0 0 1 15.15 507.51 L15.29
								 505.19 a0.84988 0.84988 0 0 1 0.499154 -1.07072 L17.66 503.15 A2.57247 2.57247 0 0 1 16.72 501.06
								 A2.26571 2.26571 0 0 1 18.79 498.58 A2.28311 2.28311 0 0 1 20.87 501.06 A2.41319 2.41319 0 0 1 19.99
								 503.09 L19.95 503.32 A10.534 10.534 -180 0 0 21.06 504.12 A4.17429 4.17429 0 0 1 22.65 507.09 A254.513
								 254.513 -180 0 0 22.59 514.62 a0.456213 0.456213 0 0 1 -0.277137 0.505619 A1.84357 1.84357 0 0 1
								 22.16 516.94 L21.89 521.89 L21.89 523.35 L18.26 525.41 L17.02 524.6 a0.326892 0.326892 0 0 1 -0.142478
								 -0.541669 L16.36 524.26 L15.04 523.54 A2.34473 2.34473 0 0 1 15.04 523.09 A45.5285 45.5285 -180
								 0 0 16.69 521.27 L15.96 509.83 A23.7922 23.9371 0 0 1 12.9 511.6 a0.553323 0.553323 0 0 1 -0.601985
								 -0.0815347 L12.06 511.67 A1.70999 1.70999 0 0 1 10.79 512.81 L10.7 513.11 L7.61 515.15 L7.3 515.36
								 A357.113 359.286 -180 0 0 6.72 524.98 A3.5854 3.5854 0 0 1 9 526.15 L9.01 526.37 L4.67 528.82 L3.46
								 528.06 L3.49 527.38 L2.7 527.78 L1.3 526.95 A62.5688 62.9497 -180 0 0 1.22 519.58 A1.21205 1.21205
								 0 0 1 0.42 517.83 a0.813438 0.813438 0 0 1 -0.415184 -0.386383 A585.166 585.166 0 0 1 0.21 508.42
								 A3.31761 3.31761 -180 0 0 0.67 508.03 L2.69 506.92 Z" class="st24"/>
				</g>
				<path d="M2.69 506.92 A2.6409 2.6409 0 0 1 1.78 504.87 A2.18531 2.18531 0 0 1 3.84 502.34 A2.39231 2.39231 0 0 1
							 5.93 504.87 A2.53234 2.53234 0 0 1 4.8 507.04 L4.8 507.44 A4.49339 4.49339 0 0 1 5.76 508.1 A4.49666
							 4.49666 0 0 1 7.38 511.05 A88.512 88.512 0 0 1 7.46 512.35 L9.42 511.21 a0.246909 0.246909 0 0 1 0.483115
							 -0.0967036 L10.07 511.04 A1.6048 1.6048 0 0 1 10.4 510.29 A1.61312 1.61312 0 0 1 11.78 509.76 a0.187573
							 0.187573 0 0 1 0.0844328 -0.305495 A386.21 386.21 0 0 1 15.15 507.51 L15.29 505.19 a0.84988 0.84988
							 0 0 1 0.499154 -1.07072 L17.66 503.15 A2.57247 2.57247 0 0 1 16.72 501.06 A2.26571 2.26571 0 0 1 18.79
							 498.58 A2.28311 2.28311 0 0 1 20.87 501.06 A2.41319 2.41319 0 0 1 19.99 503.09 L19.95 503.32 A10.534
							 10.534 -180 0 0 21.06 504.12 A4.17429 4.17429 0 0 1 22.65 507.09 A254.513 254.513 -180 0 0 22.59 514.62
							 a0.456213 0.456213 0 0 1 -0.277137 0.505619 A1.84357 1.84357 0 0 1 22.16 516.94 L21.89 521.89 L21.89
							 523.35 L18.26 525.41 L17.02 524.6 a0.326892 0.326892 0 0 1 -0.142478 -0.541669 L16.36 524.26 L15.04
							 523.54 A2.34473 2.34473 0 0 1 15.04 523.09 A45.5285 45.5285 -180 0 0 16.69 521.27 L15.96 509.83 A23.7922
							 23.9371 0 0 1 12.9 511.6 a0.553323 0.553323 0 0 1 -0.601985 -0.0815347 L12.06 511.67 A1.70999 1.70999
							 0 0 1 10.79 512.81 L10.7 513.11 L7.61 515.15 L7.3 515.36 A357.113 359.286 -180 0 0 6.72 524.98 A3.5854
							 3.5854 0 0 1 9 526.15 L9.01 526.37 L4.67 528.82 L3.46 528.06 L3.49 527.38 L2.7 527.78 L1.3 526.95 A62.5688
							 62.9497 -180 0 0 1.22 519.58 A1.21205 1.21205 0 0 1 0.42 517.83 a0.813438 0.813438 0 0 1 -0.415184 -0.386383
							 A585.166 585.166 0 0 1 0.21 508.42 A3.31761 3.31761 -180 0 0 0.67 508.03 L2.69 506.92 Z" class="st25"/>
			</g>
			<g id="shape51-193" v:mID="51" v:groupContext="shape" transform="translate(18.5693,-6.15625)">
				<title>工作表.51</title>
				<path d="M5.75 513.3 A5.25308 5.25308 -180 0 0 2.76 507.83 A1.59564 1.59564 -180 0 0 0.4 507.89 A18.4129 18.4129
							 -180 0 0 0.12 510.98 L0.95 513.32 L1.17 515.57 L1.23 517.9 L1.66 524.67 L0 526.5 L0 526.95 L1.33 527.67
							 L1.84 527.47 L1.76 527.78 L3.22 528.82 L5.06 526.34 L5.46 518.76 L5.69 518.81 A228.87 228.87 -180 0
							 0 5.75 513.3 Z" class="st26"/>
			</g>
			<g id="shape52-197" v:mID="52" v:groupContext="shape" transform="translate(19.7814,-7.2836)">
				<title>工作表.52</title>
				<path d="M0.9 528.38 L0.09 528.82 A1.12337 1.12337 0 0 1 0.05 528.32 A5.83133 5.83133 0 0 1 1.66 526.53 L1.89 518.83
							 L2.32 519.08 L2.5 526.71 A22.9692 22.9692 -180 0 0 0.9 528.38 Z" class="st27"/>
			</g>
			<g id="shape53-199" v:mID="53" v:groupContext="shape" transform="translate(19.4544,-24.0925)">
				<title>工作表.53</title>
				<path d="M4.57 528.82 A4.67888 4.67888 -180 0 0 3.09 526.64 A3.48095 3.48095 -180 0 0 0 525.48 L2.06 524.31 A3.48095
							 3.48095 0 0 1 5.14 525.47 A4.69619 4.69619 0 0 1 6.61 527.61 L4.57 528.82 Z" class="st28"/>
				<path d="M4.57 528.82 A4.67888 4.67888 -180 0 0 3.09 526.64 A3.48095 3.48095 -180 0 0 0 525.48 L2.06 524.31 A3.48095
							 3.48095 0 0 1 5.14 525.47 A4.69619 4.69619 0 0 1 6.61 527.61" class="st29"/>
			</g>
			<g id="shape54-204" v:mID="54" v:groupContext="shape" transform="translate(24.0204,-16.1085)">
				<title>工作表.54</title>
				<path d="M2.05 519.63 A4.30888 4.30888 0 0 1 2.17 520.46 A213.063 213.063 0 0 1 2.08 528.2 A2.37488 2.37488 0 0 1
							 0.2 528.79 A594.524 594.524 -180 0 0 0.14 521.58 A3.81341 3.81341 -180 0 0 0.01 520.87 L0 520.83 A1.65959
							 1.65959 0 0 1 2.04 519.62 L2.05 519.63 Z" class="st30"/>
				<path d="M2.05 519.63 A4.30888 4.30888 0 0 1 2.17 520.46 A213.063 213.063 0 0 1 2.08 528.2 A2.37488 2.37488 0 0 1
							 0.2 528.79 A594.524 594.524 -180 0 0 0.14 521.58 A3.81341 3.81341 -180 0 0 0.01 520.87 L0 520.83 A1.65959
							 1.65959 0 0 1 2.04 519.62" class="st29"/>
			</g>
			<g id="shape55-209" v:mID="55" v:groupContext="shape" transform="translate(21.1078,-27.3066)">
				<title>工作表.55</title>
				<path d="M0.06 527.74 L0.07 528.25 a0.854449 0.854449 -180 0 0 1.00538 0.452038 A2.26502 2.26502 -180 0 0 2.39 528.53
							 L2.38 527.56 A2.03671 2.03671 0 0 1 0.1 527.72 L0.06 527.74 Z" class="st31"/>
				<path d="M0.06 527.74 L0.07 528.25 a0.854449 0.854449 -180 0 0 1.00538 0.452038 A2.26502 2.26502 -180 0 0 2.39 528.53
							 L2.38 527.56 A2.03671 2.03671 0 0 1 0.1 527.72" class="st29"/>
			</g>
			<g id="shape56-214" v:mID="56" v:groupContext="shape" transform="translate(20.2623,-28.0152)">
				<title>工作表.56</title>
				<path d="M4.15 526.33 A2.30562 2.30562 0 0 1 2.07 528.82 A2.30562 2.30562 0 0 1 -0 526.33 A2.30583 2.30583 0 0 1
							 2.07 523.85 A2.30562 2.30562 0 0 1 4.15 526.33 L-1.04 522.61 L4.15 526.33 Z" class="st32"/>
				<path d="M4.15 526.33 A2.30562 2.30562 0 0 1 2.07 528.82 A2.30562 2.30562 0 0 1 -0 526.33 A2.30583 2.30583 0 0 1
							 2.07 523.85 A2.30562 2.30562 0 0 1 4.15 526.33" class="st29"/>
			</g>
			<g id="shape57-219" v:mID="57" v:groupContext="shape" transform="translate(20.8557,-28.0139)">
				<title>工作表.57</title>
				<path d="M2.83 528.26 A1.89246 1.89246 0 0 1 1.52 528.82 A1.96096 1.96096 0 0 1 0 528.04 L2.83 528.26 Z"
						class="st33"/>
				<path d="M2.83 528.26 A1.89246 1.89246 0 0 1 1.52 528.82 A1.96096 1.96096 0 0 1 0 528.04" class="st34"/>
			</g>
			<g id="shape58-222" v:mID="58" v:groupContext="shape" transform="translate(3.82266,-12.0124)">
				<title>工作表.58</title>
				<path d="M0.84 526.59 a0.988767 0.988767 0 0 1 0.824312 1.10664 A1.01408 1.01408 0 0 1 0.83 528.81 a0.988062 0.988062
							 0 0 1 -0.824634 -1.10599 A1.01427 1.01427 0 0 1 0.84 526.59 Z" class="st35"/>
			</g>
			<g id="shape59-226" v:mID="59" v:groupContext="shape" transform="translate(3.54189,-2.74833)">
				<title>工作表.59</title>
				<path d="M1.28 526.96 L1.34 525.47 A154.243 155.182 -180 0 0 1.15 518.09 A2.02787 2.02787 0 0 1 -0 517.45 L0.21 508.43
							 L0.91 507.85 L3.53 508.77 L5.53 511.34 L5.65 514.49 L5.65 516.99 L4.64 528.82 L3.39 528.06 L3.42 527.29
							 L2.67 527.78 L1.28 526.96 Z" class="st26"/>
			</g>
			<g id="shape60-229" v:mID="60" v:groupContext="shape" transform="translate(6.23609,-3.78734)">
				<title>工作表.60</title>
				<path d="M0.8 528.31 A4.68326 4.68326 0 0 1 0 528.82 L0.1 527.31 L0.29 519.4 L0.72 519.65 L0.87 527.37 A10.8866 10.8866
							 -180 0 0 0.8 528.31 Z" class="st27"/>
			</g>
			<g id="shape61-231" v:mID="61" v:groupContext="shape" transform="translate(4.14074,-20.1148)">
				<title>工作表.61</title>
				<path d="M4.57 528.82 A4.67509 4.67509 -180 0 0 3.09 526.64 A3.48191 3.48191 -180 0 0 0 525.48 L2.06 524.31 A3.48095
							 3.48095 0 0 1 5.14 525.47 A4.69467 4.69467 0 0 1 6.61 527.61 L4.57 528.82 Z" class="st28"/>
				<path d="M4.57 528.82 A4.67509 4.67509 -180 0 0 3.09 526.64 A3.48191 3.48191 -180 0 0 0 525.48 L2.06 524.31 A3.48095
							 3.48095 0 0 1 5.14 525.47 A4.69467 4.69467 0 0 1 6.61 527.61" class="st29"/>
			</g>
			<g id="shape62-235" v:mID="62" v:groupContext="shape" transform="translate(8.70678,-15.1058)">
				<title>工作表.62</title>
				<path d="M2.05 522.6 A3.85726 3.85726 0 0 1 2.2 523.39 A484.473 484.473 0 0 1 2.43 527.5 L0.27 528.82 A18.8384 18.8384
							 -180 0 0 0.14 524.55 A6.58741 6.58741 -180 0 0 0.01 523.84 L0 523.81 A1.65991 1.65991 0 0 1 2.04 522.6
							 L2.05 522.6 Z" class="st36"/>
				<path d="M2.05 522.6 A3.85726 3.85726 0 0 1 2.2 523.39 A484.473 484.473 0 0 1 2.43 527.5 L0.27 528.82 A18.8384 18.8384
							 -180 0 0 0.14 524.55 A6.58741 6.58741 -180 0 0 0.01 523.84 L0 523.81 A1.65991 1.65991 0 0 1 2.04 522.6"
						class="st29"/>
			</g>
			<g id="shape63-244" v:mID="63" v:groupContext="shape" transform="translate(9.97975,-5.30298)">
				<title>工作表.63</title>
				<path d="M0.27 527.53 A4.15402 4.15402 0 0 1 2.28 528.48 L0.06 528.82 L0 527.59 L0.27 527.53 Z" class="st37"/>
			</g>
			<g id="shape64-246" v:mID="64" v:groupContext="shape" transform="translate(6.08686,-23.4958)">
				<title>工作表.64</title>
				<path d="M0.06 527.65 L0.06 528.21 a0.811725 0.811725 -180 0 0 0.950066 0.48925 A1.89488 1.89488 -180 0 0 2.26 528.51
							 L2.25 527.46 A1.74403 1.74403 0 0 1 0.09 527.63 L0.06 527.65 Z" class="st31"/>
				<path d="M0.06 527.65 L0.06 528.21 a0.811725 0.811725 -180 0 0 0.950066 0.48925 A1.89488 1.89488 -180 0 0 2.26 528.51
							 L2.25 527.46 A1.74403 1.74403 0 0 1 0.09 527.63" class="st29"/>
			</g>
			<g id="shape65-250" v:mID="65" v:groupContext="shape" transform="translate(5.30597,-24.2549)">
				<title>工作表.65</title>
				<path d="M4.15 526.33 A2.30531 2.30531 0 0 1 2.07 528.82 A2.30531 2.30531 0 0 1 0 526.33 A2.30635 2.30635 0 0 1 2.07
							 523.85 A2.30615 2.30615 0 0 1 4.15 526.33 L-1.04 522.61 L4.15 526.33 Z" class="st32"/>
				<path d="M4.15 526.33 A2.30531 2.30531 0 0 1 2.07 528.82 A2.30531 2.30531 0 0 1 0 526.33 A2.30635 2.30635 0 0 1 2.07
							 523.85 A2.30615 2.30615 0 0 1 4.15 526.33" class="st29"/>
			</g>
			<g id="shape66-254" v:mID="66" v:groupContext="shape" transform="translate(4.66112,-11.8363)">
				<title>工作表.66</title>
				<path d="M0.07 528.82 L0 520.44 L0.07 528.82 Z" class="st33"/>
				<path d="M0.07 528.82 L0 520.44" class="st38"/>
			</g>
			<g id="shape67-257" v:mID="67" v:groupContext="shape" transform="translate(7.89983,-15.0709)">
				<title>工作表.67</title>
				<path d="M6.33 525.43 A96.13 96.13 0 0 1 1.07 528.73 a0.705889 0.705889 0 0 1 -1.05717 -0.587617 A60.4735 60.4735
							 0 0 1 0.01 525.8" class="st38"/>
			</g>
			<g id="shape68-260" v:mID="68" v:groupContext="shape" transform="translate(5.32173,-24.3213)">
				<title>工作表.68</title>
				<path d="M4.15 526.33 A2.30531 2.30531 0 0 1 2.07 528.82 A2.30531 2.30531 0 0 1 0 526.33 A2.20107 2.20107 0 0 1 2.06
							 523.92 A2.27642 2.27642 0 0 1 4.15 526.33 Z" class="st39"/>
			</g>
			<g id="shape69-262" v:mID="69" v:groupContext="shape" transform="translate(8.20312,-2.74801)">
				<title>工作表.69</title>
				<path d="M0.77 516.41 L0.1 527.1 L0 528.82 L4.3 526.37 a0.341471 0.341471 -180 0 0 -0.399774 -0.436183 A5.31526 5.31526
							 -180 0 0 2 526 A241.569 241.569 0 0 1 2.59 515.36 L0.77 516.41 ZM17.54 515.99 L17.22 521.89 L17.22 523.35
							 L13.59 525.41 A1.85955 1.85955 0 0 1 13.55 524.9 A8.05714 8.05714 0 0 1 15.35 522.91 L15.77 515.95 L17.54
							 515.99 Z" class="st40"/>
				<path d="M0.77 516.41 L0.1 527.1 L0 528.82 L4.3 526.37 a0.341471 0.341471 -180 0 0 -0.399774 -0.436183 A5.31526 5.31526
							 -180 0 0 2 526 A241.569 241.569 0 0 1 2.59 515.36 L0.77 516.41M17.54 515.99 L17.22 521.89 L17.22 523.35
							 L13.59 525.41 A1.85955 1.85955 0 0 1 13.55 524.9 A8.05714 8.05714 0 0 1 15.35 522.91 L15.77 515.95"
						class="st29"/>
			</g>
			<g id="shape70-265" v:mID="70" v:groupContext="shape" transform="translate(23.922,-14.1156)">
				<title>工作表.70</title>
				<path d="M1.24 525.96 A1.2445 1.2445 0 0 1 2.08 527.46 A1.27458 1.27458 0 0 1 0.93 528.76 A1.24499 1.24499 0 0 1
							 0.09 527.26 A1.27294 1.27294 0 0 1 1.24 525.96 Z" class="st41"/>
			</g>
			<g id="shape71-269" v:mID="71" v:groupContext="shape" transform="translate(6.9562,-4.18016)">
				<title>工作表.71</title>
				<path d="M15.15 515.98 L15.33 523.61 A15.9563 15.9563 -180 0 0 13.56 525.42 L15.15 515.98 ZM0 520.05 L0.15 527.77
							 L0.13 528.82 L0 520.05 Z" class="st33"/>
				<path d="M15.15 515.98 L15.33 523.61 A15.9563 15.9563 -180 0 0 13.56 525.42M0 520.05 L0.15 527.77 L0.13 528.82"
						class="st38"/>
			</g>
			<g id="shape72-272" v:mID="72" v:groupContext="shape" transform="translate(19.5097,-14.1469)">
				<title>工作表.72</title>
				<path d="M6.32 528.1 A1.09999 1.09999 0 1 1 4.64 526.74 a0.825751 0.825751 0 0 1 -0.688083 -0.751205 A284.221 284.221
							 -180 0 0 3.94 520.48 L6.32 528.1 Z" class="st33"/>
				<path d="M6.32 528.1 A1.09999 1.09999 0 1 1 4.64 526.74 a0.825751 0.825751 0 0 1 -0.688083 -0.751205 A284.221 284.221
							 -180 0 0 3.94 520.48" class="st38"/>
				<path d="" class="st38"/>
				<path d="M0.12 521.16 L0 517.97" class="st38"/>
				<path d="" class="st38"/>
			</g>
			<g id="shape73-278" v:mID="73" v:groupContext="shape" transform="translate(13.3754,-19.4867)">
				<title>工作表.73</title>
				<path d="M2.78 527.1 A1.22943 1.22943 0 0 1 1.86 528.54 A1.25027 1.25027 0 0 1 0.2 528.09 A1.2304 1.2304 0 0 1 1.12
							 526.65 A1.2503 1.2503 0 0 1 2.78 527.1 Z" class="st41"/>
			</g>
			<g id="shape74-281" v:mID="74" v:groupContext="shape" transform="translate(12.6987,-18.4995)">
				<title>工作表.74</title>
				<path d="M2.71 526.96 A1.22556 1.22556 0 0 1 1.94 528.47 A1.2441 1.2441 0 0 1 0.25 528.21 A1.22649 1.22649 0 0 1
							 1.02 526.7 A1.24319 1.24319 0 0 1 2.71 526.96 Z" class="st41"/>
			</g>
			<g id="shape75-284" v:mID="75" v:groupContext="shape" transform="translate(10.9208,-18.1778)">
				<title>工作表.75</title>
				<path d="M3.25 527.01 A1.35058 1.35058 -180 0 0 2.31 526.55 L0.07 527.78 L0 528.82 L3.25 527.01 ZM8.63 523.46 L5.06
							 525.55 a0.922463 0.922463 -180 0 0 -0.663502 -0.347846 a0.321326 0.321326 0 0 1 0.192329 -0.37988 A240.86
							 240.86 -180 0 0 7.81 522.96 L8.63 523.46 Z" class="st42"/>
			</g>
			<g id="shape76-286" v:mID="76" v:groupContext="shape" transform="translate(11.0125,-16.5079)">
				<title>工作表.76</title>
				<path d="M0 527.12 L3.16 525.34 A1.39048 1.39048 0 0 1 3.22 526.87 L0.12 528.82 L0 527.12 ZM8.54 521.8 L4.93 523.85
							 A1.01933 1.01933 0 0 1 4.77 525.23 a0.858413 0.858413 -180 0 0 1.19707 -0.176997 L8.62 523.52 L8.54
							 521.8 Z" class="st40"/>
				<path d="M0 527.12 L3.16 525.34 A1.39048 1.39048 0 0 1 3.22 526.87 L0.12 528.82M8.54 521.8 L4.93 523.85 A1.01933
							 1.01933 0 0 1 4.77 525.23 a0.858413 0.858413 -180 0 0 1.19707 -0.176997 L8.62 523.52 L8.54 521.8"
						class="st29"/>
			</g>
			<g id="shape77-289" v:mID="77" v:groupContext="shape" transform="translate(3.54189,-2.73827)">
				<title>工作表.77</title>
				<path d="M2.69 506.92 A2.64769 2.64769 0 0 1 1.78 504.87 A2.18454 2.18454 0 0 1 3.84 502.34 A2.40206 2.40206 0 0
							 1 5.93 504.87 A2.53349 2.53349 0 0 1 4.8 507.04 L4.8 507.44 A4.49069 4.49069 0 0 1 5.76 508.1 A4.41438
							 4.41438 0 0 1 7.38 511.05 A107.871 107.871 0 0 1 7.46 512.35 L9.42 511.21 a0.384521 0.384521 0 0 1 0.483115
							 -0.0967036 L10.07 511.04 A1.64117 1.64117 0 0 1 10.4 510.29 A1.55469 1.55469 0 0 1 11.78 509.76 a0.192735
							 0.192735 0 0 1 0.0844328 -0.305495 A366.903 366.903 0 0 1 15.15 507.51 L15.29 505.19 a0.934867 0.934867
							 0 0 1 0.499154 -1.07072 L17.66 503.15 A2.5725 2.5725 0 0 1 16.72 501.06 A2.27187 2.27187 0 0 1 18.79
							 498.58 A2.33851 2.33851 0 0 1 20.87 501.06 A2.4344 2.4344 0 0 1 19.99 503.09 L19.95 503.32 A10.5654
							 10.5654 -180 0 0 21.06 504.12 A4.03272 4.03272 0 0 1 22.65 507.09 A422.187 422.187 -180 0 0 22.59 514.62
							 a0.491579 0.491579 0 0 1 -0.277137 0.505619 A1.77607 1.77607 0 0 1 22.16 516.94 L21.89 521.89 L21.89
							 523.35 L18.26 525.41 L17.02 524.6 a0.323646 0.323646 0 0 1 -0.142478 -0.541669 L16.36 524.26 L15.04
							 523.54 A4.44474 4.44474 0 0 1 15.04 523.09 A48.0779 48.0779 -180 0 0 16.69 521.27 L15.96 509.83 A23.7922
							 23.9371 0 0 1 12.9 511.6 a0.743973 0.743973 0 0 1 -0.601985 -0.0815347 L12.06 511.67 A1.90982 1.90982
							 0 0 1 10.79 512.81 L10.7 513.11 L7.61 515.15 L7.3 515.36 A357.113 359.286 -180 0 0 6.72 524.98 A3.62677
							 3.62677 0 0 1 9 526.15 L9.01 526.37 L4.67 528.82 L3.46 528.06 L3.49 527.38 L2.7 527.78 L1.3 526.95 A62.5688
							 62.9497 -180 0 0 1.22 519.58 A1.15011 1.15011 0 0 1 0.42 517.83 a0.850941 0.850941 0 0 1 -0.415184 -0.386383
							 A530.427 530.427 0 0 1 0.21 508.42 A11.9421 11.9421 -180 0 0 0.67 508.03 L2.69 506.92 Z" class="st43"/>
			</g>
		</g>
		<g id="group78-291" transform="translate(530.557,-227.933)" v:mID="78" v:groupContext="group">
			<v:userDefs>
				<v:ud v:nameU="SkinColor" v:prompt="" v:val="VT5(#da8c36)"/>
				<v:ud v:nameU="visVersion" v:prompt="" v:val="VT0(15):26"/>
			</v:userDefs>
			<title>协议.229</title>
			<g id="shape79-292" v:mID="79" v:groupContext="shape" transform="translate(3.58062,-2.7334)">
				<title>工作表.79</title>
				<g id="shadow79-293" v:groupContext="shadow" v:shadowOffsetX="0.3456" v:shadowOffsetY="-1.9728" v:shadowType="1"
						transform="matrix(1,0,0,1,0.3456,1.9728)" class="st1">
					<path d="M2.69 506.92 A2.6409 2.6409 0 0 1 1.78 504.87 A2.18531 2.18531 0 0 1 3.84 502.34 A2.39231 2.39231 0
								 0 1 5.93 504.87 A2.53234 2.53234 0 0 1 4.8 507.04 L4.8 507.44 A4.49339 4.49339 0 0 1 5.76 508.1
								 A4.49666 4.49666 0 0 1 7.38 511.05 A88.512 88.512 0 0 1 7.46 512.35 L9.42 511.21 a0.246909 0.246909
								 0 0 1 0.483115 -0.0967036 L10.07 511.04 A1.6048 1.6048 0 0 1 10.4 510.29 A1.61312 1.61312 0 0 1
								 11.78 509.76 a0.187573 0.187573 0 0 1 0.0844328 -0.305495 A386.21 386.21 0 0 1 15.15 507.51 L15.29
								 505.19 a0.84988 0.84988 0 0 1 0.499154 -1.07072 L17.66 503.15 A2.57247 2.57247 0 0 1 16.72 501.06
								 A2.26571 2.26571 0 0 1 18.79 498.58 A2.28311 2.28311 0 0 1 20.87 501.06 A2.41319 2.41319 0 0 1 19.99
								 503.09 L19.95 503.32 A10.534 10.534 -180 0 0 21.06 504.12 A4.17429 4.17429 0 0 1 22.65 507.09 A254.513
								 254.513 -180 0 0 22.59 514.62 a0.456213 0.456213 0 0 1 -0.277137 0.505619 A1.84357 1.84357 0 0 1
								 22.16 516.94 L21.89 521.89 L21.89 523.35 L18.26 525.41 L17.02 524.6 a0.326892 0.326892 0 0 1 -0.142478
								 -0.541669 L16.36 524.26 L15.04 523.54 A2.34473 2.34473 0 0 1 15.04 523.09 A45.5285 45.5285 -180
								 0 0 16.69 521.27 L15.96 509.83 A23.7922 23.9371 0 0 1 12.9 511.6 a0.553323 0.553323 0 0 1 -0.601985
								 -0.0815347 L12.06 511.67 A1.70999 1.70999 0 0 1 10.79 512.81 L10.7 513.11 L7.61 515.15 L7.3 515.36
								 A357.113 359.286 -180 0 0 6.72 524.98 A3.5854 3.5854 0 0 1 9 526.15 L9.01 526.37 L4.67 528.82 L3.46
								 528.06 L3.49 527.38 L2.7 527.78 L1.3 526.95 A62.5688 62.9497 -180 0 0 1.22 519.58 A1.21205 1.21205
								 0 0 1 0.42 517.83 a0.813438 0.813438 0 0 1 -0.415184 -0.386383 A585.166 585.166 0 0 1 0.21 508.42
								 A3.31761 3.31761 -180 0 0 0.67 508.03 L2.69 506.92 Z" class="st24"/>
				</g>
				<path d="M2.69 506.92 A2.6409 2.6409 0 0 1 1.78 504.87 A2.18531 2.18531 0 0 1 3.84 502.34 A2.39231 2.39231 0 0 1
							 5.93 504.87 A2.53234 2.53234 0 0 1 4.8 507.04 L4.8 507.44 A4.49339 4.49339 0 0 1 5.76 508.1 A4.49666
							 4.49666 0 0 1 7.38 511.05 A88.512 88.512 0 0 1 7.46 512.35 L9.42 511.21 a0.246909 0.246909 0 0 1 0.483115
							 -0.0967036 L10.07 511.04 A1.6048 1.6048 0 0 1 10.4 510.29 A1.61312 1.61312 0 0 1 11.78 509.76 a0.187573
							 0.187573 0 0 1 0.0844328 -0.305495 A386.21 386.21 0 0 1 15.15 507.51 L15.29 505.19 a0.84988 0.84988
							 0 0 1 0.499154 -1.07072 L17.66 503.15 A2.57247 2.57247 0 0 1 16.72 501.06 A2.26571 2.26571 0 0 1 18.79
							 498.58 A2.28311 2.28311 0 0 1 20.87 501.06 A2.41319 2.41319 0 0 1 19.99 503.09 L19.95 503.32 A10.534
							 10.534 -180 0 0 21.06 504.12 A4.17429 4.17429 0 0 1 22.65 507.09 A254.513 254.513 -180 0 0 22.59 514.62
							 a0.456213 0.456213 0 0 1 -0.277137 0.505619 A1.84357 1.84357 0 0 1 22.16 516.94 L21.89 521.89 L21.89
							 523.35 L18.26 525.41 L17.02 524.6 a0.326892 0.326892 0 0 1 -0.142478 -0.541669 L16.36 524.26 L15.04
							 523.54 A2.34473 2.34473 0 0 1 15.04 523.09 A45.5285 45.5285 -180 0 0 16.69 521.27 L15.96 509.83 A23.7922
							 23.9371 0 0 1 12.9 511.6 a0.553323 0.553323 0 0 1 -0.601985 -0.0815347 L12.06 511.67 A1.70999 1.70999
							 0 0 1 10.79 512.81 L10.7 513.11 L7.61 515.15 L7.3 515.36 A357.113 359.286 -180 0 0 6.72 524.98 A3.5854
							 3.5854 0 0 1 9 526.15 L9.01 526.37 L4.67 528.82 L3.46 528.06 L3.49 527.38 L2.7 527.78 L1.3 526.95 A62.5688
							 62.9497 -180 0 0 1.22 519.58 A1.21205 1.21205 0 0 1 0.42 517.83 a0.813438 0.813438 0 0 1 -0.415184 -0.386383
							 A585.166 585.166 0 0 1 0.21 508.42 A3.31761 3.31761 -180 0 0 0.67 508.03 L2.69 506.92 Z" class="st25"/>
			</g>
			<g id="shape80-297" v:mID="80" v:groupContext="shape" transform="translate(18.5693,-6.15625)">
				<title>工作表.80</title>
				<path d="M5.75 513.3 A5.25308 5.25308 -180 0 0 2.76 507.83 A1.59564 1.59564 -180 0 0 0.4 507.89 A18.4129 18.4129
							 -180 0 0 0.12 510.98 L0.95 513.32 L1.17 515.57 L1.23 517.9 L1.66 524.67 L0 526.5 L0 526.95 L1.33 527.67
							 L1.84 527.47 L1.76 527.78 L3.22 528.82 L5.06 526.34 L5.46 518.76 L5.69 518.81 A228.87 228.87 -180 0
							 0 5.75 513.3 Z" class="st26"/>
			</g>
			<g id="shape81-300" v:mID="81" v:groupContext="shape" transform="translate(19.7814,-7.2836)">
				<title>工作表.81</title>
				<path d="M0.9 528.38 L0.09 528.82 A1.12337 1.12337 0 0 1 0.05 528.32 A5.83133 5.83133 0 0 1 1.66 526.53 L1.89 518.83
							 L2.32 519.08 L2.5 526.71 A22.9692 22.9692 -180 0 0 0.9 528.38 Z" class="st27"/>
			</g>
			<g id="shape82-302" v:mID="82" v:groupContext="shape" transform="translate(19.4544,-24.0925)">
				<title>工作表.82</title>
				<path d="M4.57 528.82 A4.67888 4.67888 -180 0 0 3.09 526.64 A3.48095 3.48095 -180 0 0 0 525.48 L2.06 524.31 A3.48095
							 3.48095 0 0 1 5.14 525.47 A4.69619 4.69619 0 0 1 6.61 527.61 L4.57 528.82 Z" class="st28"/>
				<path d="M4.57 528.82 A4.67888 4.67888 -180 0 0 3.09 526.64 A3.48095 3.48095 -180 0 0 0 525.48 L2.06 524.31 A3.48095
							 3.48095 0 0 1 5.14 525.47 A4.69619 4.69619 0 0 1 6.61 527.61" class="st29"/>
			</g>
			<g id="shape83-306" v:mID="83" v:groupContext="shape" transform="translate(24.0204,-16.1085)">
				<title>工作表.83</title>
				<path d="M2.05 519.63 A4.30888 4.30888 0 0 1 2.17 520.46 A213.063 213.063 0 0 1 2.08 528.2 A2.37488 2.37488 0 0 1
							 0.2 528.79 A594.524 594.524 -180 0 0 0.14 521.58 A3.81341 3.81341 -180 0 0 0.01 520.87 L0 520.83 A1.65959
							 1.65959 0 0 1 2.04 519.62 L2.05 519.63 Z" class="st30"/>
				<path d="M2.05 519.63 A4.30888 4.30888 0 0 1 2.17 520.46 A213.063 213.063 0 0 1 2.08 528.2 A2.37488 2.37488 0 0 1
							 0.2 528.79 A594.524 594.524 -180 0 0 0.14 521.58 A3.81341 3.81341 -180 0 0 0.01 520.87 L0 520.83 A1.65959
							 1.65959 0 0 1 2.04 519.62" class="st29"/>
			</g>
			<g id="shape84-310" v:mID="84" v:groupContext="shape" transform="translate(21.1078,-27.3066)">
				<title>工作表.84</title>
				<path d="M0.06 527.74 L0.07 528.25 a0.854449 0.854449 -180 0 0 1.00538 0.452038 A2.26502 2.26502 -180 0 0 2.39 528.53
							 L2.38 527.56 A2.03671 2.03671 0 0 1 0.1 527.72 L0.06 527.74 Z" class="st31"/>
				<path d="M0.06 527.74 L0.07 528.25 a0.854449 0.854449 -180 0 0 1.00538 0.452038 A2.26502 2.26502 -180 0 0 2.39 528.53
							 L2.38 527.56 A2.03671 2.03671 0 0 1 0.1 527.72" class="st29"/>
			</g>
			<g id="shape85-314" v:mID="85" v:groupContext="shape" transform="translate(20.2623,-28.0152)">
				<title>工作表.85</title>
				<path d="M4.15 526.33 A2.30562 2.30562 0 0 1 2.07 528.82 A2.30562 2.30562 0 0 1 -0 526.33 A2.30583 2.30583 0 0 1
							 2.07 523.85 A2.30562 2.30562 0 0 1 4.15 526.33 L-1.04 522.61 L4.15 526.33 Z" class="st32"/>
				<path d="M4.15 526.33 A2.30562 2.30562 0 0 1 2.07 528.82 A2.30562 2.30562 0 0 1 -0 526.33 A2.30583 2.30583 0 0 1
							 2.07 523.85 A2.30562 2.30562 0 0 1 4.15 526.33" class="st29"/>
			</g>
			<g id="shape86-318" v:mID="86" v:groupContext="shape" transform="translate(20.8557,-28.0139)">
				<title>工作表.86</title>
				<path d="M2.83 528.26 A1.89246 1.89246 0 0 1 1.52 528.82 A1.96096 1.96096 0 0 1 0 528.04 L2.83 528.26 Z"
						class="st33"/>
				<path d="M2.83 528.26 A1.89246 1.89246 0 0 1 1.52 528.82 A1.96096 1.96096 0 0 1 0 528.04" class="st34"/>
			</g>
			<g id="shape87-321" v:mID="87" v:groupContext="shape" transform="translate(3.82266,-12.0124)">
				<title>工作表.87</title>
				<path d="M0.84 526.59 a0.988767 0.988767 0 0 1 0.824312 1.10664 A1.01408 1.01408 0 0 1 0.83 528.81 a0.988062 0.988062
							 0 0 1 -0.824634 -1.10599 A1.01427 1.01427 0 0 1 0.84 526.59 Z" class="st35"/>
			</g>
			<g id="shape88-324" v:mID="88" v:groupContext="shape" transform="translate(3.54189,-2.74833)">
				<title>工作表.88</title>
				<path d="M1.28 526.96 L1.34 525.47 A154.243 155.182 -180 0 0 1.15 518.09 A2.02787 2.02787 0 0 1 -0 517.45 L0.21 508.43
							 L0.91 507.85 L3.53 508.77 L5.53 511.34 L5.65 514.49 L5.65 516.99 L4.64 528.82 L3.39 528.06 L3.42 527.29
							 L2.67 527.78 L1.28 526.96 Z" class="st26"/>
			</g>
			<g id="shape89-327" v:mID="89" v:groupContext="shape" transform="translate(6.23609,-3.78734)">
				<title>工作表.89</title>
				<path d="M0.8 528.31 A4.68326 4.68326 0 0 1 0 528.82 L0.1 527.31 L0.29 519.4 L0.72 519.65 L0.87 527.37 A10.8866 10.8866
							 -180 0 0 0.8 528.31 Z" class="st27"/>
			</g>
			<g id="shape90-329" v:mID="90" v:groupContext="shape" transform="translate(4.14074,-20.1148)">
				<title>工作表.90</title>
				<path d="M4.57 528.82 A4.67509 4.67509 -180 0 0 3.09 526.64 A3.48191 3.48191 -180 0 0 0 525.48 L2.06 524.31 A3.48095
							 3.48095 0 0 1 5.14 525.47 A4.69467 4.69467 0 0 1 6.61 527.61 L4.57 528.82 Z" class="st28"/>
				<path d="M4.57 528.82 A4.67509 4.67509 -180 0 0 3.09 526.64 A3.48191 3.48191 -180 0 0 0 525.48 L2.06 524.31 A3.48095
							 3.48095 0 0 1 5.14 525.47 A4.69467 4.69467 0 0 1 6.61 527.61" class="st29"/>
			</g>
			<g id="shape91-333" v:mID="91" v:groupContext="shape" transform="translate(8.70678,-15.1058)">
				<title>工作表.91</title>
				<path d="M2.05 522.6 A3.85726 3.85726 0 0 1 2.2 523.39 A484.473 484.473 0 0 1 2.43 527.5 L0.27 528.82 A18.8384 18.8384
							 -180 0 0 0.14 524.55 A6.58741 6.58741 -180 0 0 0.01 523.84 L0 523.81 A1.65991 1.65991 0 0 1 2.04 522.6
							 L2.05 522.6 Z" class="st36"/>
				<path d="M2.05 522.6 A3.85726 3.85726 0 0 1 2.2 523.39 A484.473 484.473 0 0 1 2.43 527.5 L0.27 528.82 A18.8384 18.8384
							 -180 0 0 0.14 524.55 A6.58741 6.58741 -180 0 0 0.01 523.84 L0 523.81 A1.65991 1.65991 0 0 1 2.04 522.6"
						class="st29"/>
			</g>
			<g id="shape92-337" v:mID="92" v:groupContext="shape" transform="translate(9.97975,-5.30298)">
				<title>工作表.92</title>
				<path d="M0.27 527.53 A4.15402 4.15402 0 0 1 2.28 528.48 L0.06 528.82 L0 527.59 L0.27 527.53 Z" class="st37"/>
			</g>
			<g id="shape93-339" v:mID="93" v:groupContext="shape" transform="translate(6.08686,-23.4958)">
				<title>工作表.93</title>
				<path d="M0.06 527.65 L0.06 528.21 a0.811725 0.811725 -180 0 0 0.950066 0.48925 A1.89488 1.89488 -180 0 0 2.26 528.51
							 L2.25 527.46 A1.74403 1.74403 0 0 1 0.09 527.63 L0.06 527.65 Z" class="st31"/>
				<path d="M0.06 527.65 L0.06 528.21 a0.811725 0.811725 -180 0 0 0.950066 0.48925 A1.89488 1.89488 -180 0 0 2.26 528.51
							 L2.25 527.46 A1.74403 1.74403 0 0 1 0.09 527.63" class="st29"/>
			</g>
			<g id="shape94-343" v:mID="94" v:groupContext="shape" transform="translate(5.30597,-24.2549)">
				<title>工作表.94</title>
				<path d="M4.15 526.33 A2.30531 2.30531 0 0 1 2.07 528.82 A2.30531 2.30531 0 0 1 0 526.33 A2.30635 2.30635 0 0 1 2.07
							 523.85 A2.30615 2.30615 0 0 1 4.15 526.33 L-1.04 522.61 L4.15 526.33 Z" class="st32"/>
				<path d="M4.15 526.33 A2.30531 2.30531 0 0 1 2.07 528.82 A2.30531 2.30531 0 0 1 0 526.33 A2.30635 2.30635 0 0 1 2.07
							 523.85 A2.30615 2.30615 0 0 1 4.15 526.33" class="st29"/>
			</g>
			<g id="shape95-347" v:mID="95" v:groupContext="shape" transform="translate(4.66112,-11.8363)">
				<title>工作表.95</title>
				<path d="M0.07 528.82 L0 520.44 L0.07 528.82 Z" class="st33"/>
				<path d="M0.07 528.82 L0 520.44" class="st38"/>
			</g>
			<g id="shape96-350" v:mID="96" v:groupContext="shape" transform="translate(7.89983,-15.0709)">
				<title>工作表.96</title>
				<path d="M6.33 525.43 A96.13 96.13 0 0 1 1.07 528.73 a0.705889 0.705889 0 0 1 -1.05717 -0.587617 A60.4735 60.4735
							 0 0 1 0.01 525.8" class="st38"/>
			</g>
			<g id="shape97-353" v:mID="97" v:groupContext="shape" transform="translate(5.32173,-24.3213)">
				<title>工作表.97</title>
				<path d="M4.15 526.33 A2.30531 2.30531 0 0 1 2.07 528.82 A2.30531 2.30531 0 0 1 0 526.33 A2.20107 2.20107 0 0 1 2.06
							 523.92 A2.27642 2.27642 0 0 1 4.15 526.33 Z" class="st39"/>
			</g>
			<g id="shape98-355" v:mID="98" v:groupContext="shape" transform="translate(8.20312,-2.74801)">
				<title>工作表.98</title>
				<path d="M0.77 516.41 L0.1 527.1 L0 528.82 L4.3 526.37 a0.341471 0.341471 -180 0 0 -0.399774 -0.436183 A5.31526 5.31526
							 -180 0 0 2 526 A241.569 241.569 0 0 1 2.59 515.36 L0.77 516.41 ZM17.54 515.99 L17.22 521.89 L17.22 523.35
							 L13.59 525.41 A1.85955 1.85955 0 0 1 13.55 524.9 A8.05714 8.05714 0 0 1 15.35 522.91 L15.77 515.95 L17.54
							 515.99 Z" class="st40"/>
				<path d="M0.77 516.41 L0.1 527.1 L0 528.82 L4.3 526.37 a0.341471 0.341471 -180 0 0 -0.399774 -0.436183 A5.31526 5.31526
							 -180 0 0 2 526 A241.569 241.569 0 0 1 2.59 515.36 L0.77 516.41M17.54 515.99 L17.22 521.89 L17.22 523.35
							 L13.59 525.41 A1.85955 1.85955 0 0 1 13.55 524.9 A8.05714 8.05714 0 0 1 15.35 522.91 L15.77 515.95"
						class="st29"/>
			</g>
			<g id="shape99-358" v:mID="99" v:groupContext="shape" transform="translate(23.922,-14.1156)">
				<title>工作表.99</title>
				<path d="M1.24 525.96 A1.2445 1.2445 0 0 1 2.08 527.46 A1.27458 1.27458 0 0 1 0.93 528.76 A1.24499 1.24499 0 0 1
							 0.09 527.26 A1.27294 1.27294 0 0 1 1.24 525.96 Z" class="st41"/>
			</g>
			<g id="shape100-361" v:mID="100" v:groupContext="shape" transform="translate(6.9562,-4.18016)">
				<title>工作表.100</title>
				<path d="M15.15 515.98 L15.33 523.61 A15.9563 15.9563 -180 0 0 13.56 525.42 L15.15 515.98 ZM0 520.05 L0.15 527.77
							 L0.13 528.82 L0 520.05 Z" class="st33"/>
				<path d="M15.15 515.98 L15.33 523.61 A15.9563 15.9563 -180 0 0 13.56 525.42M0 520.05 L0.15 527.77 L0.13 528.82"
						class="st38"/>
			</g>
			<g id="shape101-364" v:mID="101" v:groupContext="shape" transform="translate(19.5097,-14.1469)">
				<title>工作表.101</title>
				<path d="M6.32 528.1 A1.09999 1.09999 0 1 1 4.64 526.74 a0.825751 0.825751 0 0 1 -0.688083 -0.751205 A284.221 284.221
							 -180 0 0 3.94 520.48 L6.32 528.1 Z" class="st33"/>
				<path d="M6.32 528.1 A1.09999 1.09999 0 1 1 4.64 526.74 a0.825751 0.825751 0 0 1 -0.688083 -0.751205 A284.221 284.221
							 -180 0 0 3.94 520.48" class="st38"/>
				<path d="" class="st38"/>
				<path d="M0.12 521.16 L0 517.97" class="st38"/>
				<path d="" class="st38"/>
			</g>
			<g id="shape102-370" v:mID="102" v:groupContext="shape" transform="translate(13.3754,-19.4867)">
				<title>工作表.102</title>
				<path d="M2.78 527.1 A1.22943 1.22943 0 0 1 1.86 528.54 A1.25027 1.25027 0 0 1 0.2 528.09 A1.2304 1.2304 0 0 1 1.12
							 526.65 A1.2503 1.2503 0 0 1 2.78 527.1 Z" class="st41"/>
			</g>
			<g id="shape103-373" v:mID="103" v:groupContext="shape" transform="translate(12.6987,-18.4995)">
				<title>工作表.103</title>
				<path d="M2.71 526.96 A1.22556 1.22556 0 0 1 1.94 528.47 A1.2441 1.2441 0 0 1 0.25 528.21 A1.22649 1.22649 0 0 1
							 1.02 526.7 A1.24319 1.24319 0 0 1 2.71 526.96 Z" class="st41"/>
			</g>
			<g id="shape104-376" v:mID="104" v:groupContext="shape" transform="translate(10.9208,-18.1778)">
				<title>工作表.104</title>
				<path d="M3.25 527.01 A1.35058 1.35058 -180 0 0 2.31 526.55 L0.07 527.78 L0 528.82 L3.25 527.01 ZM8.63 523.46 L5.06
							 525.55 a0.922463 0.922463 -180 0 0 -0.663502 -0.347846 a0.321326 0.321326 0 0 1 0.192329 -0.37988 A240.86
							 240.86 -180 0 0 7.81 522.96 L8.63 523.46 Z" class="st42"/>
			</g>
			<g id="shape105-378" v:mID="105" v:groupContext="shape" transform="translate(11.0125,-16.5079)">
				<title>工作表.105</title>
				<path d="M0 527.12 L3.16 525.34 A1.39048 1.39048 0 0 1 3.22 526.87 L0.12 528.82 L0 527.12 ZM8.54 521.8 L4.93 523.85
							 A1.01933 1.01933 0 0 1 4.77 525.23 a0.858413 0.858413 -180 0 0 1.19707 -0.176997 L8.62 523.52 L8.54
							 521.8 Z" class="st40"/>
				<path d="M0 527.12 L3.16 525.34 A1.39048 1.39048 0 0 1 3.22 526.87 L0.12 528.82M8.54 521.8 L4.93 523.85 A1.01933
							 1.01933 0 0 1 4.77 525.23 a0.858413 0.858413 -180 0 0 1.19707 -0.176997 L8.62 523.52 L8.54 521.8"
						class="st29"/>
			</g>
			<g id="shape106-381" v:mID="106" v:groupContext="shape" transform="translate(3.54189,-2.73827)">
				<title>工作表.106</title>
				<path d="M2.69 506.92 A2.64769 2.64769 0 0 1 1.78 504.87 A2.18454 2.18454 0 0 1 3.84 502.34 A2.40206 2.40206 0 0
							 1 5.93 504.87 A2.53349 2.53349 0 0 1 4.8 507.04 L4.8 507.44 A4.49069 4.49069 0 0 1 5.76 508.1 A4.41438
							 4.41438 0 0 1 7.38 511.05 A107.871 107.871 0 0 1 7.46 512.35 L9.42 511.21 a0.384521 0.384521 0 0 1 0.483115
							 -0.0967036 L10.07 511.04 A1.64117 1.64117 0 0 1 10.4 510.29 A1.55469 1.55469 0 0 1 11.78 509.76 a0.192735
							 0.192735 0 0 1 0.0844328 -0.305495 A366.903 366.903 0 0 1 15.15 507.51 L15.29 505.19 a0.934867 0.934867
							 0 0 1 0.499154 -1.07072 L17.66 503.15 A2.5725 2.5725 0 0 1 16.72 501.06 A2.27187 2.27187 0 0 1 18.79
							 498.58 A2.33851 2.33851 0 0 1 20.87 501.06 A2.4344 2.4344 0 0 1 19.99 503.09 L19.95 503.32 A10.5654
							 10.5654 -180 0 0 21.06 504.12 A4.03272 4.03272 0 0 1 22.65 507.09 A422.187 422.187 -180 0 0 22.59 514.62
							 a0.491579 0.491579 0 0 1 -0.277137 0.505619 A1.77607 1.77607 0 0 1 22.16 516.94 L21.89 521.89 L21.89
							 523.35 L18.26 525.41 L17.02 524.6 a0.323646 0.323646 0 0 1 -0.142478 -0.541669 L16.36 524.26 L15.04
							 523.54 A4.44474 4.44474 0 0 1 15.04 523.09 A48.0779 48.0779 -180 0 0 16.69 521.27 L15.96 509.83 A23.7922
							 23.9371 0 0 1 12.9 511.6 a0.743973 0.743973 0 0 1 -0.601985 -0.0815347 L12.06 511.67 A1.90982 1.90982
							 0 0 1 10.79 512.81 L10.7 513.11 L7.61 515.15 L7.3 515.36 A357.113 359.286 -180 0 0 6.72 524.98 A3.62677
							 3.62677 0 0 1 9 526.15 L9.01 526.37 L4.67 528.82 L3.46 528.06 L3.49 527.38 L2.7 527.78 L1.3 526.95 A62.5688
							 62.9497 -180 0 0 1.22 519.58 A1.15011 1.15011 0 0 1 0.42 517.83 a0.850941 0.850941 0 0 1 -0.415184 -0.386383
							 A530.427 530.427 0 0 1 0.21 508.42 A11.9421 11.9421 -180 0 0 0.67 508.03 L2.69 506.92 Z" class="st43"/>
			</g>
		</g>
		<g id="shape108-383" v:mID="108" v:groupContext="shape" v:layerMember="1" transform="translate(508.588,-227.564)">
			<title>动态连接线.343</title>
			<path d="M0 528.82 L10.63 528.82 L10.63 487.11 L53.27 487.11" class="st44"/>
		</g>
		<g id="shape109-389" v:mID="109" v:groupContext="shape" v:layerMember="1" transform="translate(508.588,-390.557)">
			<title>动态连接线.344</title>
			<path d="M0 528.82 L14.17 528.82 L14.17 622.19 L49.65 622.19" class="st44"/>
		</g>
	</g>
</svg>
